<svg width="74" height="73" viewBox="0 0 74 73" fill="none" xmlns="http://www.w3.org/2000/svg">
    <path d="M54.4184 12.368C55.8021 11.6989 56.7604 10.2869 56.7604 8.64806C56.7604 7.55317 56.3255 6.50312 55.5513 5.72892C54.7771 4.95472 53.727 4.51978 52.6321 4.51978C51.5373 4.51978 50.4872 4.95472 49.713 5.72892C48.9388 6.50312 48.5039 7.55317 48.5039 8.64806C48.5039 10.3096 49.4849 11.7329 50.8969 12.3907C49.2637 21.237 46.7573 27.8207 37.429 29.2271C37.429 29.2271 39.9411 41.7877 51.6908 41.7877C63.4405 41.7877 64.6314 29.3518 64.6314 29.3518C55.0989 29.8395 54.2937 17.8573 54.4184 12.368Z"
          fill="#F19534"/>
    <path d="M20.5188 12.368C19.1352 11.6989 18.1768 10.2869 18.1768 8.64806C18.1768 7.55317 18.6117 6.50312 19.386 5.72892C20.1602 4.95472 21.2102 4.51978 22.3051 4.51978C23.4 4.51978 24.45 4.95472 25.2242 5.72892C25.9984 6.50312 26.4334 7.55317 26.4334 8.64806C26.4334 10.3096 25.4523 11.7329 24.0403 12.3907C25.6735 21.237 28.1799 27.8207 37.5083 29.2271C37.5083 29.2271 34.9961 41.7877 23.2464 41.7877C11.4967 41.7877 10.3115 29.3575 10.3115 29.3575C19.8383 29.8395 20.6436 17.8573 20.5188 12.368Z"
          fill="#F19534"/>
    <path d="M51.532 41.7877C51.583 41.7877 51.6341 41.7934 51.6851 41.7934C54.9231 41.7934 57.3558 40.8464 59.1818 39.4797L51.532 41.7877Z"
          fill="#FFCA28"/>
    <path d="M68.4363 9.56088C66.548 9.3057 64.7447 11.1033 64.4158 13.5644C64.2117 15.1012 64.6256 16.5359 65.4252 17.4602L64.0642 23.1025C64.0642 23.1025 61.9831 36.4344 51.4696 39.0656C43.0656 41.1694 40.0204 25.7848 39.2832 21.0327C40.8823 20.2388 41.9881 18.5943 41.9881 16.6833C41.9881 14.001 39.8162 11.8292 37.134 11.8292C34.4517 11.8292 32.2799 14.001 32.2799 16.6833C32.2799 18.6057 33.4027 20.2672 35.0302 21.0497C34.4461 25.7394 31.8716 40.6137 22.7984 39.0599C13.5892 37.4778 9.56864 21.9684 8.63865 17.7494C9.74443 16.8421 10.3625 15.2429 10.1357 13.5247C9.80681 11.0579 7.85609 9.28868 5.7806 9.56655C3.70512 9.84441 2.29312 12.0673 2.62202 14.5284C2.86019 16.3204 3.96031 17.7437 5.33829 18.2824L12.5514 63.0981C12.5514 63.0981 18.8459 68.0713 37.134 68.0713C55.422 68.0713 61.7165 63.0981 61.7165 63.0981L68.9467 18.1634C70.1149 17.5509 71.0335 16.1729 71.2604 14.4831C71.5949 12.0163 70.3304 9.81606 68.4363 9.56088V9.56088Z"
          fill="#FFCA28"/>
    <path d="M37.3609 56.6564C40.4113 56.6564 42.8842 53.7088 42.8842 50.0727C42.8842 46.4366 40.4113 43.489 37.3609 43.489C34.3105 43.489 31.8376 46.4366 31.8376 50.0727C31.8376 53.7088 34.3105 56.6564 37.3609 56.6564Z"
          fill="#1B3A4B"/>
    <path d="M37.3611 45.1166C37.5766 45.3547 37.7694 45.7914 37.3611 46.642C36.9528 47.4926 34.7526 48.6438 34.35 48.8763C33.9474 49.1144 33.6808 49.0067 33.5561 48.9103C32.9607 48.4339 33.1875 47.3565 33.5731 46.6987C34.401 45.2754 36.1533 43.8066 37.3611 45.1166Z"
          fill="#006466"/>
    <path d="M36.9526 52.528C36.3288 52.8286 34.2817 53.7415 34.9565 54.8247C35.3535 55.4654 36.1757 55.7376 36.9299 55.7717C37.6841 55.8057 38.427 55.5675 39.0962 55.2216C42.2718 53.5771 42.5269 49.256 41.9088 48.9271C41.2737 48.5869 40.8427 49.4658 40.5138 49.8401C39.5138 50.9601 38.3039 51.8733 36.9526 52.528Z"
          fill="#144552"/>
    <path d="M67.784 44.6854C68.6686 39.7916 65.3796 38.5667 65.3796 38.5667C65.3796 38.5667 63.2587 38.1811 62.2607 43.6874C61.2627 49.188 63.3835 49.5736 63.3835 49.5736C63.3835 49.5736 66.8937 49.5793 67.784 44.6854Z"
          fill="#1B3A4B"/>
    <path d="M66.3214 40.2399C67.0926 41.272 66.1797 42.7974 64.6996 43.8125C64.263 44.113 63.6845 43.9996 63.5995 43.7501C63.3613 43.0356 63.4634 42.2247 63.7809 41.5385C64.7223 39.48 65.9301 39.7182 66.3214 40.2399Z"
          fill="#006466"/>
    <path d="M6.35382 44.8328C5.46352 39.9446 8.75821 38.7141 8.75821 38.7141C8.75821 38.7141 10.8791 38.3285 11.8771 43.8347C12.8751 49.3353 10.7543 49.7209 10.7543 49.7209C10.7543 49.7209 7.23846 49.7266 6.35382 44.8328Z"
          fill="#1B3A4B"/>
    <path d="M9.76722 40.3757C10.5271 40.9428 10.2152 41.6857 9.64246 42.2017C8.99033 42.7971 8.49131 43.4493 7.93558 44.1241C7.85052 44.2262 7.75412 44.3396 7.61802 44.3679C7.35717 44.4246 7.14735 44.1581 7.06229 43.9029C6.81845 43.1884 6.86381 42.3492 7.22674 41.6914C8.25881 39.8143 9.47234 40.1546 9.76722 40.3757Z"
          fill="#006466"/>
    <path d="M57.5201 49.4264C57.1288 51.655 55.3426 53.2031 53.5223 52.8856C51.702 52.568 51.4525 50.6683 51.8437 48.4397C52.235 46.2111 53.114 44.5043 54.9286 44.8218C56.7489 45.1394 57.9114 47.2035 57.5201 49.4264Z"
          fill="#4D194D"/>
    <path d="M18.0748 49.4264C18.4661 51.655 20.2524 53.2031 22.0727 52.8856C23.893 52.568 24.1425 50.6683 23.7512 48.4397C23.36 46.2111 22.481 44.5043 20.6664 44.8218C18.8517 45.1394 17.6892 47.2035 18.0748 49.4264Z"
          fill="#4D194D"/>
    <path d="M20.7118 47.9405C20.2978 48.4055 19.2884 49.3411 18.9312 48.6266C18.4435 47.6513 19.1183 46.1769 19.8895 45.6892C20.6607 45.2015 21.2902 45.5871 21.3979 46.0238C21.5284 46.5795 21.0804 47.5209 20.7118 47.9405Z"
          fill="#FFA8A4" fill-opacity="0.1"/>
    <path d="M52.9779 49.3638C52.4165 49.2787 52.3542 47.345 53.8626 45.8252C54.5827 45.0994 55.6148 45.9613 55.354 47.1238C55.1044 48.2296 54.0043 49.5225 52.9779 49.3638Z"
          fill="#FFA8A4" fill-opacity="0.1"/>
    <path d="M62.7145 55.6924C59.3178 57.3936 51.5262 61.9245 37.1396 61.9245C22.753 61.9245 14.9614 57.3936 11.5647 55.6924C11.5647 55.6924 10.3455 56.3445 10.3455 57.025V62.2477C10.3455 62.9452 10.7141 63.586 11.3152 63.9433C13.969 65.5084 22.0555 69.2057 37.1453 69.2057C52.235 69.2057 60.3215 65.5084 62.9754 63.9433C63.2704 63.7693 63.515 63.5214 63.6851 63.2241C63.8551 62.9268 63.9447 62.5902 63.9451 62.2477V57.025C63.9337 56.3445 62.7145 55.6924 62.7145 55.6924Z"
          fill="#FFCA28"/>
    <path d="M23.2748 62.8545C24.8626 63.1664 25.3446 63.3025 25.2369 64.1872C25.0157 65.9281 21.4035 65.5141 19.2656 64.9527C14.8481 63.7902 13.9521 62.5653 13.9521 61.4709C13.9521 60.4672 14.7234 60.3481 15.9142 60.7677C17.3376 61.2724 19.5378 62.123 23.2748 62.8545Z"
          fill="#FFF59D"/>
    <path d="M62.7148 56.8378C62.7148 56.8378 53.3184 62.1569 37.1399 62.1569C20.9613 62.1569 11.5649 56.8378 11.5649 56.8378"
          stroke="#F19534" stroke-width="4.44444" stroke-miterlimit="10" stroke-linecap="round"/>
    <path d="M16.1132 28.1101C19.13 25.9552 20.7519 22.0935 20.8936 15.9464C20.905 15.3907 21.0638 15.2262 21.3643 15.1922C21.8463 15.1412 21.9257 15.5778 21.92 15.8897C21.7839 22.5244 20.939 26.6697 17.5933 29.0061C17.4288 29.1195 16.255 29.834 15.756 29.3406C15.1605 28.7622 15.9204 28.2462 16.1132 28.1101Z"
          fill="#FFCA28"/>
    <path d="M18.8748 8.81283C18.7784 7.78643 19.0165 5.93778 21.7101 5.09851C22.4984 4.85467 22.986 5.24028 23.0768 5.54083C23.3036 6.28936 22.6458 6.58424 22.3452 6.68064C20.2754 7.34979 20.1734 8.38186 19.7481 9.03966C19.3228 9.69746 18.9088 9.12472 18.8748 8.81283Z"
          fill="#FFCA28"/>
    <path d="M45.1752 26.749C47.9028 24.3276 49.7118 21.6227 50.9027 15.4643C51.0104 14.9199 51.1692 14.7725 51.4641 14.7838C51.9461 14.7951 51.9688 15.2431 51.9177 15.5493C50.9083 22.116 49.95 23.9874 46.5872 27.713C46.2073 28.1327 45.283 28.5126 44.7613 28.076C44.2906 27.6847 44.835 27.0552 45.1752 26.749Z"
          fill="#FFCA28"/>
    <path d="M49.19 8.86361C49.0935 7.83721 49.3317 5.98856 52.0253 5.14929C52.8135 4.90545 53.3012 5.29106 53.3919 5.59161C53.6188 6.34014 52.961 6.63502 52.6604 6.73142C50.5906 7.40057 50.4885 8.43264 50.0632 9.09044C49.6436 9.74824 49.224 9.1755 49.19 8.86361Z"
          fill="#FFCA28"/>
    <path d="M18.7323 40.6138C12.143 37.6253 10.2036 29.8281 9.17152 26.4426C9.03543 25.9947 9.10347 25.5694 9.55146 25.4333C9.99945 25.2972 10.266 25.5864 10.4077 26.0344C11.1563 28.4898 14.0654 36.6896 20.0706 39.0203C20.5073 39.1904 21.1878 39.6044 20.8192 40.3132C20.5753 40.7725 19.7928 41.0958 18.7323 40.6138Z"
          fill="#FFF59D"/>
    <path d="M8.00924 13.9672C7.69168 13.3094 7.56125 12.6856 5.83169 11.9654C5.39504 11.784 5.10583 11.3813 5.22492 10.9277C5.344 10.474 5.79766 10.1338 6.45546 10.2472C8.59332 10.6158 9.05832 12.7877 9.14905 13.5419C9.23411 14.2677 8.33247 14.625 8.00924 13.9672Z"
          fill="#FFF59D"/>
    <path d="M55.751 40.6138C62.3404 37.6253 64.2798 29.8281 65.3118 26.4426C65.4479 25.9947 65.3799 25.5694 64.9319 25.4333C64.4839 25.2972 64.2174 25.5864 64.0756 26.0344C63.3271 28.4898 60.418 36.6896 54.4127 39.0203C53.9761 39.1904 53.2956 39.6044 53.6642 40.3132C53.908 40.7725 54.6906 41.0958 55.751 40.6138Z"
          fill="#FFF59D"/>
    <path d="M66.474 13.9672C66.7916 13.3094 66.922 12.6856 68.6516 11.9654C69.0882 11.784 69.3774 11.3813 69.2583 10.9277C69.1393 10.474 68.6856 10.1338 68.0278 10.2472C65.8899 10.6158 65.4249 12.7877 65.3342 13.5419C65.2492 14.2677 66.1565 14.625 66.474 13.9672Z"
          fill="#FFF59D"/>
    <path d="M34.4917 16.7571C34.8377 16.0483 35.4444 15.0786 37.4235 14.6703C38.1834 14.5115 38.4045 14.1826 38.3365 13.6836C38.2004 12.6459 36.9075 12.7196 36.21 12.884C33.885 13.4284 33.3689 15.4926 33.2725 16.3091C33.1761 17.086 34.1515 17.466 34.4917 16.7571Z"
          fill="#FFF59D"/>
</svg>
