<svg xmlns="http://www.w3.org/2000/svg" width="68" height="59" viewBox="0 0 68 59" fill="none">
    <g clip-path="url(#clip0_708_144557)">
        <path d="M35.5742 2.02732L33.1909 5.84203L26.1761 9.46937L18.6741 11.0957L14.1924 9.67172L16.8904 5.62469L20.8625 3.30888L26.2361 1.39029L31.5197 0.588379L35.5742 2.02732Z" fill="#9B95F2"/>
        <path opacity="0.55" d="M16.9054 5.62451H16.8904L14.1924 9.66405L18.6741 11.0955L26.1836 9.46919L31.692 6.61379C29.5037 7.39321 17.3326 9.56662 16.9054 5.62451Z" fill="#D3D0F9"/>
        <path d="M33.1909 5.8418L26.1761 9.46914L18.6741 11.0954L14.1924 9.67149L18.749 10.6008L26.0112 8.99698L33.1909 5.8418Z" fill="white"/>
        <path d="M35.5747 2.02734L33.1914 5.84205L40.8208 14.5582L46.4942 7.14609L35.5747 2.02734Z" fill="url(#paint0_linear_708_144557)"/>
        <path opacity="0.72" d="M40.6709 11.6875C39.2694 11.7999 33.1914 5.8418 33.1914 5.8418L40.8283 14.5579L46.5016 7.14584C46.5016 7.14584 42.0799 11.5751 40.6784 11.68L40.6709 11.6875Z" fill="#430282"/>
        <path d="M33.1906 5.8418L26.1758 9.46914L30.2453 20.4486L40.82 14.5579L33.1906 5.8418Z" fill="url(#paint1_linear_708_144557)"/>
        <path opacity="0.55" d="M31.6621 17.2635C29.7135 16.649 26.1836 9.46924 26.1836 9.46924L30.2531 20.4487L40.8279 14.558C40.8279 14.558 34.1053 18.028 31.6621 17.2635Z" fill="#7A0387"/>
        <path d="M26.176 9.46924L18.6741 11.0955L18.127 22.8394L30.2456 20.4487L26.176 9.46924Z" fill="#7824BA"/>
        <path d="M26.1758 9.46924L18.6738 11.0955L30.2453 20.4487L26.1758 9.46924Z" fill="#746BEE"/>
        <path d="M22.9456 10.1665L18.6662 11.0958L18.1191 22.8397L24.3021 21.6181C23.9649 17.7809 23.6426 13.9437 22.9381 10.1665H22.9456Z" fill="url(#paint2_linear_708_144557)"/>
        <path d="M18.6742 11.0958L14.1925 9.67188L9.24609 20.449L18.1271 22.8397L18.6742 11.0958Z" fill="#9157DD"/>
        <path d="M17.1 19.9765C16.0358 21.5878 14.2296 21.2656 11.1943 20.9808L18.1268 22.8469L18.6739 11.103L17.1 19.9765Z" fill="#430282"/>
        <path d="M40.8203 14.5581L36.0088 34.2986C36.3086 34.1412 36.6009 33.8639 36.8407 33.4142L46.4936 7.146L40.8203 14.5581Z" fill="#9641F9"/>
        <path d="M18.1274 22.8395L9.25391 20.4487L34.338 34.3061C34.338 34.3061 34.7427 34.5009 35.2598 34.4859C35.777 34.4709 18.1349 22.8395 18.1349 22.8395H18.1274Z" fill="#B43AC1"/>
        <path d="M40.8208 14.5583L30.2461 20.449L35.6946 34.4187C36.0019 34.3288 36.3241 34.1414 36.6014 33.7892C36.6914 33.6768 40.8208 14.5508 40.8208 14.5508V14.5583Z" fill="#9F15AA"/>
        <path d="M40.8208 14.5583L30.2461 20.449L35.6946 34.4187C36.0019 34.3288 36.3241 34.1414 36.6014 33.7892C36.6464 33.7292 34.5779 22.1052 34.5779 22.1052L40.8208 14.5508V14.5583Z" fill="#49379E"/>
        <path d="M30.2452 20.4487L18.1191 22.8395C18.1191 22.8395 34.5321 34.411 34.8394 34.4635C35.1616 34.5159 35.5888 34.5159 36.0085 34.2986L30.2452 20.4487Z" fill="#EE71DE"/>
        <path d="M30.2452 20.4489L18.1191 22.8396L27.9744 24.2561C27.9744 24.2561 34.682 34.4336 34.8394 34.4561C35.1616 34.5086 35.5888 34.5086 36.0085 34.2913L30.2452 20.4414V20.4489Z" fill="#9D41A2"/>
        <path d="M18.9136 23.1543L17.8943 27.1863L12.7381 32.38L6.57013 35.9399L2.21582 35.9549L3.45241 31.6231L6.29283 28.4454L10.4898 25.2302L14.9265 23.0269L18.9136 23.1543Z" fill="#FFF35F"/>
        <path opacity="0.55" d="M3.46772 31.6158H3.45273L2.22363 35.9551H6.57794L12.7384 32.3802L16.7929 28.3032C15.0767 29.6073 4.95913 34.9733 3.46772 31.6158Z" fill="#FFFBB3"/>
        <path d="M17.8943 27.1865L12.7381 32.3802L6.57013 35.9401L2.21582 35.9551L6.50268 35.4829L12.4533 32.0055L17.8943 27.1865Z" fill="white"/>
        <path d="M18.9138 23.1543L17.8945 27.1863L27.1053 32.7173L29.9982 24.5708L18.9138 23.1543Z" fill="url(#paint3_linear_708_144557)"/>
        <path opacity="0.84" d="M26.146 30.2217C24.9394 30.7163 17.8945 27.1864 17.8945 27.1864L27.1053 32.7173L30.0056 24.5708C30.0056 24.5708 27.3601 29.7345 26.1535 30.2217H26.146Z" fill="#D84800"/>
        <path d="M17.8945 27.1865L12.7383 32.3802L19.4384 40.9165L27.1052 32.7175L17.8945 27.1865Z" fill="url(#paint4_linear_708_144557)"/>
        <path opacity="0.55" d="M19.7831 37.701C17.887 37.716 12.7383 32.3799 12.7383 32.3799L19.4459 40.9161L27.1052 32.7171C27.1052 32.7171 22.1589 37.686 19.7831 37.701Z" fill="#C64802"/>
        <path d="M12.7383 32.3799L6.57031 35.9398L9.41822 46.4621L19.4384 40.9161L12.7383 32.3799Z" fill="#FFB000"/>
        <path d="M12.7383 32.3799L6.57031 35.9398L19.4384 40.9161L12.7383 32.3799Z" fill="#FCF9CA"/>
        <path d="M10.0852 33.9165L6.57031 35.9475L9.41822 46.4623L14.5295 43.6294C13.1505 40.3393 11.7715 37.0492 10.0852 33.9165Z" fill="url(#paint5_linear_708_144557)"/>
        <path d="M6.57046 35.9399L2.21615 35.9549L0.912109 46.8669L9.41837 46.4622L6.57046 35.9399Z" fill="#FFE600"/>
        <path d="M7.70221 44.2214C7.22256 45.9451 5.5288 46.1774 2.77832 46.777L9.41845 46.4547L6.57054 35.9399L7.70221 44.2139V44.2214Z" fill="#F9C900"/>
        <path d="M27.1052 32.7173L28.4542 51.4986C28.6715 51.2737 28.8514 50.9515 28.9338 50.4793L29.998 24.5708L27.0977 32.7173H27.1052Z" fill="#ED6500"/>
        <path d="M9.41837 46.4624L0.912109 46.8746L26.9705 51.9933C26.9705 51.9933 27.3827 52.0533 27.8324 51.8884C28.282 51.731 9.41837 46.4624 9.41837 46.4624Z" fill="#CC5200"/>
        <path d="M27.1057 32.7173L19.4463 40.9163L28.2149 51.7009C28.4622 51.536 28.6945 51.2812 28.8369 50.8915C28.8819 50.7715 27.1132 32.7248 27.1132 32.7248L27.1057 32.7173Z" fill="#C65000"/>
        <path d="M27.1057 32.7173L19.4463 40.9163L28.2149 51.7009C28.4622 51.536 28.6945 51.2812 28.8369 50.8915C28.8594 50.824 23.7406 41.1561 23.7406 41.1561L27.1132 32.7248L27.1057 32.7173Z" fill="#A53407"/>
        <path d="M19.4381 40.916L9.41797 46.4619C9.41797 46.4619 27.1799 52.0154 27.4647 51.9779C27.7645 51.9329 28.1467 51.813 28.4465 51.5058L19.4306 40.9235L19.4381 40.916Z" fill="#F98E00"/>
        <path d="M19.4381 40.916L9.41797 46.4619L18.5163 44.9181C18.5163 44.9181 27.3223 51.9929 27.4647 51.9704C27.7645 51.9254 28.1467 51.8055 28.4465 51.4983L19.4306 40.916H19.4381Z" fill="#F2680A"/>
        <path d="M66.1741 41.0586L61.3401 40.8188L54.2578 36.1347L48.7943 29.9443L47.79 24.9829L52.9987 25.3951L57.2631 27.9133L61.8797 31.9528L65.4021 36.4945L66.1741 41.0586Z" fill="#FFBBD0"/>
        <path opacity="0.55" d="M53.0062 25.4101V25.3951L47.79 24.9829L48.7943 29.9368L54.2578 36.1347L59.8262 39.8145C57.9451 38.1582 49.5288 27.8758 53.0062 25.4101Z" fill="#FFE1EB"/>
        <path d="M61.3401 40.8188L54.2578 36.1347L48.7943 29.9443L47.79 24.9829L49.3039 29.7569L54.6175 35.73L61.3401 40.8188Z" fill="white"/>
        <path d="M66.1741 41.0587L61.3401 40.8188L57.1582 52.5627L67.0884 53.9942L66.1741 41.0587Z" fill="url(#paint6_linear_708_144557)"/>
        <path opacity="0.73" d="M59.7738 50.9064C58.9344 49.6474 61.3401 40.8188 61.3401 40.8188L57.1582 52.5627L67.0884 54.0017C67.0884 54.0017 60.6132 52.173 59.7738 50.9139V50.9064Z" fill="#630121"/>
        <path d="M61.3399 40.8188L54.2576 36.1348L46.0811 45.7127L57.1579 52.5627L61.3399 40.8188Z" fill="url(#paint7_linear_708_144557)"/>
        <path opacity="0.55" d="M49.8133 45.368C49.3711 43.2171 54.2576 36.1348 54.2576 36.1348L46.0811 45.7127L57.1579 52.5552C57.1579 52.5552 50.3754 48.066 49.8133 45.3605V45.368Z" fill="#AA003F"/>
        <path d="M54.2577 36.1348L48.7942 29.9443L37.4775 35.5877L46.0812 45.7128L54.2577 36.1348Z" fill="#E53C73"/>
        <path d="M54.2576 36.1348L48.7941 29.9443L46.0811 45.7128L54.2576 36.1348Z" fill="#FFA1BF"/>
        <path d="M51.9123 33.4742L48.8021 29.9443L37.4854 35.5877L41.8696 40.7589C45.2946 38.4356 48.7271 36.1123 51.9123 33.4742Z" fill="url(#paint8_linear_708_144557)"/>
        <path d="M48.7947 29.9443L47.7904 24.9829L35.0723 25.9947L37.478 35.5876L48.7947 29.9443Z" fill="#F96B92"/>
        <path d="M39.6362 33.1219C37.5677 32.9645 36.9232 31.0984 35.5967 28.1006L37.4778 35.5876L48.7945 29.9442L39.6362 33.1219Z" fill="#D82762"/>
        <path d="M57.1582 52.5625L36.0986 58.3932C36.4059 58.5881 36.8106 58.723 37.3652 58.708L67.0884 54.0014L57.1582 52.5625Z" fill="#AF083E"/>
        <path d="M37.4777 35.5874L35.0645 26.002L35.1994 56.8194C35.1994 56.8194 35.2293 57.3065 35.5141 57.7861C35.7989 58.2658 37.4777 35.5874 37.4777 35.5874Z" fill="#E52C77"/>
        <path d="M57.1578 52.5627L46.0809 45.7202L35.8135 58.1611C36.0608 58.4084 36.4055 58.6033 36.8852 58.6782C37.0351 58.7007 57.1653 52.5552 57.1653 52.5552L57.1578 52.5627Z" fill="#93022C"/>
        <path d="M57.1578 52.5627L46.0809 45.7202L35.8135 58.1611C36.0608 58.4084 36.4055 58.6033 36.8852 58.6782C36.9676 58.6932 46.8004 50.6516 46.8004 50.6516L57.1653 52.5552L57.1578 52.5627Z" fill="#770122"/>
        <path d="M46.0811 45.7126L37.4849 35.5801C37.4849 35.5801 35.2216 57.0593 35.3415 57.3741C35.4614 57.7039 35.6863 58.1086 36.106 58.3859L46.0886 45.7126H46.0811Z" fill="#C1003B"/>
        <path d="M46.0809 45.7126L37.4847 35.5801L41.3219 45.5852C41.3219 45.5852 35.2813 57.2242 35.3413 57.3816C35.4612 57.7113 35.686 58.1161 36.1057 58.3933L46.0884 45.7201L46.0809 45.7126Z" fill="#A50233"/>
    </g>
    <defs>
        <linearGradient id="paint0_linear_708_144557" x1="34.5409" y1="9.60085" x2="45.9248" y2="5.53377" gradientUnits="userSpaceOnUse">
            <stop stop-color="#9873C0"/>
            <stop offset="1" stop-color="#EE6BDD"/>
        </linearGradient>
        <linearGradient id="paint1_linear_708_144557" x1="25.6312" y1="11.1281" x2="40.3449" y2="16.0025" gradientUnits="userSpaceOnUse">
            <stop stop-color="#7746AB"/>
            <stop offset="1" stop-color="#EE6EDE"/>
        </linearGradient>
        <linearGradient id="paint2_linear_708_144557" x1="22.5879" y1="22.2354" x2="18.6141" y2="11.1126" gradientUnits="userSpaceOnUse">
            <stop stop-color="#EEC0FF"/>
            <stop offset="1" stop-color="white"/>
        </linearGradient>
        <linearGradient id="paint3_linear_708_144557" x1="20.1474" y1="30.1282" x2="29.0339" y2="23.3167" gradientUnits="userSpaceOnUse">
            <stop stop-color="#FFC127"/>
            <stop offset="1" stop-color="#FF6D00"/>
        </linearGradient>
        <linearGradient id="paint4_linear_708_144557" x1="12.7185" y1="34.0001" x2="27.0906" y2="34.1359" gradientUnits="userSpaceOnUse">
            <stop stop-color="#FFB600"/>
            <stop offset="1" stop-color="#FF9100"/>
        </linearGradient>
        <linearGradient id="paint5_linear_708_144557" x1="13.1794" y1="44.6665" x2="6.52294" y2="35.9821" gradientUnits="userSpaceOnUse">
            <stop stop-color="#FFF9C5"/>
            <stop offset="1" stop-color="white"/>
        </linearGradient>
        <linearGradient id="paint6_linear_708_144557" x1="58.5146" y1="44.0545" x2="68.297" y2="52.6093" gradientUnits="userSpaceOnUse">
            <stop stop-color="#FC7AA3"/>
            <stop offset="1" stop-color="#D80049"/>
        </linearGradient>
        <linearGradient id="paint7_linear_708_144557" x1="52.4152" y1="36.4906" x2="55.5458" y2="52.8681" gradientUnits="userSpaceOnUse">
            <stop stop-color="#EB568C"/>
            <stop offset="1" stop-color="#C90C4A"/>
        </linearGradient>
        <linearGradient id="paint8_linear_708_144557" x1="40.3824" y1="39.4579" x2="48.7449" y2="29.8954" gradientUnits="userSpaceOnUse">
            <stop stop-color="#FFE6F7"/>
            <stop offset="1" stop-color="white"/>
        </linearGradient>
        <clipPath id="clip0_708_144557">
            <rect width="66.1765" height="58.1199" fill="white" transform="translate(0.912109 0.588379)"/>
        </clipPath>
    </defs>
</svg>