<svg xmlns="http://www.w3.org/2000/svg" width="54" height="68" viewBox="0 0 54 68" fill="none">
    <g clip-path="url(#clip0_708_144365)">
        <path d="M32.1797 54.0782L32.3529 53.4664C33.3221 53.4989 36.1536 54.4842 37.6263 55.0852C36.8683 52.925 41.7572 51.1816 43.6738 52.5027C44.0474 52.7571 42.8996 55.1935 40.4416 55.7186C39.8785 55.8377 39.3101 55.8215 38.7795 55.7349C40.2683 56.5957 41.6814 57.6677 42.7209 58.8588C43.3544 58.5773 44.5238 58.3661 46.4242 59.1457C49.3803 60.3531 51.416 66.2599 50.7338 66.6822C49.5752 67.4022 45.807 67.4022 43.2461 64.5977C41.2158 62.3725 41.611 60.4072 41.9359 59.6168C41.205 58.8263 40.2467 57.2779 37.1228 55.7998C36.9062 55.697 36.6517 55.6753 36.4622 55.5724C37.5342 56.417 38.6279 57.6677 39.1693 59.3298C39.9814 61.8203 39.4887 63.2767 38.9852 63.5366C37.0849 64.5165 33.2517 61.2518 32.7157 59.9525C31.9848 58.1929 32.3367 54.782 33.5224 54.2839C32.5587 53.9969 32.1797 54.0782 32.1797 54.0782Z" fill="url(#paint0_linear_708_144365)"/>
        <g style="mix-blend-mode:soft-light" opacity="0.5">
            <path d="M43.176 59.2539C45.2984 58.3823 47.713 59.5138 49.2561 62.1721C50.8478 64.9062 50.837 66.5034 50.5338 66.5467C49.9599 66.6279 46.8901 66.7904 44.47 64.3973C41.8333 61.7877 42.8404 59.5192 42.9811 59.5571C43.1219 59.595 47.9459 64.289 47.2691 62.6756C46.614 61.1164 43.0028 59.3189 43.1652 59.2485L43.176 59.2539Z" fill="white"/>
        </g>
        <g style="mix-blend-mode:soft-light" opacity="0.5">
            <path d="M38.9902 63.1791C38.2268 63.2711 35.1137 61.2246 34.15 59.1835C33.1863 57.1423 33.7494 54.641 33.9876 54.7114C34.2258 54.7764 34.3666 57.7 36.386 59.1131C37.7774 60.0876 34.6156 54.8901 34.6156 54.8901C34.6156 54.8901 36.6405 55.2745 38.2647 57.7704C39.8889 60.2663 39.5587 63.1141 38.9794 63.1791H38.9902Z" fill="white"/>
        </g>
        <g style="mix-blend-mode:soft-light" opacity="0.5">
            <path d="M38.5686 54.1591C39.5432 52.3183 43.3655 51.9935 43.4522 52.6757C43.5388 53.3578 42.8512 55.8375 38.5037 55.4856C38.5037 55.4856 41.4977 54.733 41.8009 53.8776C42.104 53.0168 38.3521 55.3177 38.3521 55.3177C38.3521 55.3177 38.2979 54.6681 38.5686 54.1591Z" fill="white"/>
        </g>
        <g style="mix-blend-mode:soft-light" opacity="0.5">
            <path d="M47.5127 63.488C50.1547 64.8469 50.55 66.3629 49.7541 66.4495C48.9528 66.5307 46.7006 66.0868 45.0709 64.6953C43.4413 63.3093 42.9757 60.9325 43.1814 60.7593C43.3817 60.586 46.1104 62.7625 47.5181 63.488H47.5127Z" fill="white"/>
        </g>
        <g style="mix-blend-mode:multiply" opacity="0.5">
            <path d="M41.7678 61.3223C41.7353 60.7755 42.3958 60.6564 42.542 60.8297C42.6882 61.0029 42.6611 64.7224 48.1456 66.4982C48.2593 66.5361 47.8207 66.8285 47.1873 66.8122C46.7704 66.8014 44.7997 66.0976 43.4949 64.7278C42.1901 63.358 41.8165 62.102 41.7678 61.3278V61.3223Z" fill="#5F5B9C"/>
        </g>
        <g style="mix-blend-mode:multiply" opacity="0.5">
            <path d="M32.8885 59.9306C32.8344 59.6274 34.0092 59.3405 34.1013 59.4325C34.1933 59.5246 35.8446 62.0475 38.7628 63.3036C38.9144 63.3686 38.2106 63.5364 37.8154 63.5256C36.1641 63.466 33.0997 61.1488 32.8885 59.9306Z" fill="#5F5B9C"/>
        </g>
        <g style="mix-blend-mode:soft-light" opacity="0.5">
            <path d="M38.2758 57.7706C39.6563 60.0445 39.1961 61.4251 38.4003 61.6904C38.1512 61.7716 37.3012 59.7305 36.8573 58.7559C36.4133 57.7814 35.7961 56.8881 35.9693 56.7798C36.1426 56.6769 37.4474 56.417 38.2703 57.7706H38.2758Z" fill="white"/>
        </g>
        <path style="mix-blend-mode:multiply" opacity="0.5" d="M33.9771 59.1511C33.8417 59.2757 32.7318 59.5843 32.6506 59.4543C32.4882 59.2107 32.2825 56.9314 32.6127 55.9893C32.943 55.0418 33.3978 54.966 33.571 55.1176C33.7443 55.2638 33.4519 55.9135 33.5439 56.9801C33.6414 58.0467 34.0962 59.0429 33.9771 59.1566V59.1511Z" fill="url(#paint1_linear_708_144365)"/>
        <path d="M22.2176 54.0782L22.0443 53.4664C21.0752 53.4989 18.2436 54.4842 16.771 55.0852C17.529 52.925 12.64 51.1816 10.7234 52.5027C10.3499 52.7571 11.4977 55.1935 13.9557 55.7186C14.5187 55.8377 15.0872 55.8215 15.6178 55.7349C14.1289 56.5957 12.7158 57.6677 11.6763 58.8588C11.0429 58.5773 9.87343 58.3661 7.97308 59.1457C5.01699 60.3531 2.98129 66.2599 3.66346 66.6822C4.82208 67.4022 8.59029 67.4022 11.1512 64.5977C13.1814 62.3725 12.7862 60.4072 12.4614 59.6168C13.1923 58.8263 14.1506 57.2779 17.2745 55.7998C17.4911 55.697 17.7455 55.6753 17.935 55.5724C16.863 56.417 15.7694 57.6677 15.228 59.3298C14.4159 61.8203 14.9085 63.2767 15.412 63.5366C17.3124 64.5165 21.1456 61.2518 21.6816 59.9525C22.4125 58.1929 22.0606 54.782 20.8749 54.2839C21.8386 53.9969 22.2176 54.0782 22.2176 54.0782Z" fill="url(#paint2_linear_708_144365)"/>
        <g style="mix-blend-mode:soft-light" opacity="0.5">
            <path d="M11.2215 59.2539C9.09917 58.3823 6.68448 59.5138 5.14147 62.1721C3.54972 64.9062 3.56055 66.5034 3.86374 66.5467C4.43763 66.6279 7.50743 66.7904 9.92753 64.3973C12.5642 61.7877 11.5572 59.5192 11.4164 59.5571C11.2756 59.595 6.45168 64.289 7.12844 62.6756C7.78354 61.1164 11.3947 59.3189 11.2323 59.2485L11.2215 59.2539Z" fill="white"/>
        </g>
        <g style="mix-blend-mode:soft-light" opacity="0.5">
            <path d="M15.407 63.1791C16.1704 63.2711 19.2835 61.2246 20.2472 59.1835C21.2109 57.1423 20.6478 54.641 20.4096 54.7114C20.1714 54.7764 20.0306 57.7 18.0112 59.1131C16.6197 60.0876 19.7816 54.8901 19.7816 54.8901C19.7816 54.8901 17.7567 55.2745 16.1325 57.7704C14.5082 60.2663 14.8385 63.1141 15.4178 63.1791H15.407Z" fill="white"/>
        </g>
        <g style="mix-blend-mode:soft-light" opacity="0.5">
            <path d="M15.8288 54.1591C14.8543 52.3183 11.0319 51.9935 10.9453 52.6757C10.8587 53.3578 11.5463 55.8375 15.8938 55.4856C15.8938 55.4856 12.8998 54.733 12.5966 53.8776C12.2934 53.0168 16.0454 55.3177 16.0454 55.3177C16.0454 55.3177 16.0995 54.6681 15.8288 54.1591Z" fill="white"/>
        </g>
        <g style="mix-blend-mode:soft-light" opacity="0.5">
            <path d="M6.88506 63.488C4.24298 64.8469 3.84775 66.3629 4.64362 66.4495C5.44491 66.5307 7.69717 66.0868 9.32681 64.6953C10.9565 63.3093 11.4221 60.9325 11.2163 60.7593C11.016 60.586 8.28731 62.7625 6.87964 63.488H6.88506Z" fill="white"/>
        </g>
        <g style="mix-blend-mode:multiply" opacity="0.5">
            <path d="M12.635 61.3223C12.6675 60.7755 12.007 60.6564 11.8608 60.8297C11.7092 61.0029 11.7417 64.7224 6.25722 66.4982C6.14353 66.5361 6.58207 66.8285 7.21552 66.8122C7.6324 66.8014 9.60313 66.0976 10.9079 64.7278C12.2127 63.358 12.5863 62.102 12.635 61.3278V61.3223Z" fill="#5F5B9C"/>
        </g>
        <g style="mix-blend-mode:multiply" opacity="0.5">
            <path d="M21.5086 59.9306C21.5628 59.6274 20.3879 59.3405 20.2959 59.4325C20.2038 59.5246 18.5525 62.0475 15.6343 63.3036C15.4827 63.3686 16.1866 63.5364 16.5818 63.5256C18.2331 63.466 21.2975 61.1488 21.5086 59.9306Z" fill="#5F5B9C"/>
        </g>
        <g style="mix-blend-mode:soft-light" opacity="0.5">
            <path d="M16.1215 57.7706C14.7409 60.0445 15.2011 61.4251 15.997 61.6904C16.246 61.7716 17.096 59.7305 17.54 58.7559C17.9839 57.7814 18.6011 56.8881 18.4279 56.7798C18.2546 56.6769 16.9498 56.417 16.1269 57.7706H16.1215Z" fill="white"/>
        </g>
        <path style="mix-blend-mode:multiply" opacity="0.5" d="M20.425 59.1511C20.5604 59.2757 21.6703 59.5843 21.7515 59.4543C21.9139 59.2107 22.1196 56.9314 21.7894 55.9893C21.4591 55.0418 21.0043 54.966 20.8311 55.1176C20.6578 55.2638 20.9502 55.9135 20.8581 56.9801C20.7607 58.0467 20.3059 59.0429 20.425 59.1566V59.1511Z" fill="url(#paint3_linear_708_144365)"/>
        <path d="M27.1991 50.4183C36.7346 50.4183 44.4647 42.6882 44.4647 33.1528C44.4647 23.6173 36.7346 15.8872 27.1991 15.8872C17.6636 15.8872 9.93359 23.6173 9.93359 33.1528C9.93359 42.6882 17.6636 50.4183 27.1991 50.4183Z" fill="url(#paint4_linear_708_144365)"/>
        <g style="mix-blend-mode:multiply" opacity="0.2">
            <path d="M17.1502 34.3167C19.305 37.0778 19.9763 42.7518 17.1502 41.4957C14.324 40.2397 12.1367 31.9453 13.9071 32.3513C15.6775 32.7574 16.5384 33.5316 17.1502 34.3167Z" fill="#8680E8"/>
        </g>
        <g style="mix-blend-mode:multiply" opacity="0.2">
            <path d="M22.5053 45.5672C24.4869 47.2239 34.281 46.0761 32.1316 44.1649C29.9822 42.2537 27.4484 41.0085 25.7808 41.6798C24.1133 42.3512 21.5524 44.7713 22.5053 45.5672Z" fill="#8680E8"/>
        </g>
        <g style="mix-blend-mode:multiply" opacity="0.2">
            <path d="M34.6053 35.6705C34.2696 39.6174 36.105 42.0916 38.1948 40.2346C40.2793 38.3776 41.335 34.4848 40.3063 33.3966C39.2777 32.3084 34.7569 33.9164 34.6053 35.6705Z" fill="#8680E8"/>
        </g>
        <path d="M40.0248 28.9083L35.3308 28.2262L34.0477 28.0421L30.9995 27.5981L26.966 19.4229L22.9325 27.5981L13.9072 28.9083L20.4366 35.2753L18.8936 44.2627L26.966 40.0181L35.0384 44.2627L33.4954 35.2753L40.0248 28.9083Z" fill="url(#paint5_linear_708_144365)"/>
        <path d="M13.8584 28.9082L27.1554 32.3841L20.3878 35.2752L13.8584 28.9082Z" fill="url(#paint6_linear_708_144365)"/>
        <path d="M39.9813 28.9082L27.1553 32.3841L33.4464 35.2752L39.9813 28.9082Z" fill="url(#paint7_linear_708_144365)"/>
        <path style="mix-blend-mode:multiply" opacity="0.5" d="M26.9176 40.0182L27.1558 32.3843L18.8506 44.2628L26.9176 40.0182Z" fill="url(#paint8_linear_708_144365)"/>
        <path style="mix-blend-mode:multiply" opacity="0.5" d="M34.9894 44.2628L27.1552 32.3843L26.917 40.0182L34.9894 44.2628Z" fill="url(#paint9_linear_708_144365)"/>
        <path style="mix-blend-mode:color-dodge" opacity="0.5" d="M26.9658 19.4229L27.1553 32.3842L30.9993 27.5981L26.9658 19.4229Z" fill="url(#paint10_linear_708_144365)"/>
        <path style="mix-blend-mode:color-dodge" opacity="0.5" d="M39.9813 28.9084L27.1553 32.3842L30.956 27.5981L39.9813 28.9084Z" fill="url(#paint11_linear_708_144365)"/>
        <path style="mix-blend-mode:color-dodge" opacity="0.5" d="M39.9813 28.9084L27.1553 32.3842L30.956 27.5981L39.9813 28.9084Z" fill="url(#paint12_linear_708_144365)"/>
        <path style="mix-blend-mode:color-dodge" opacity="0.5" d="M22.8837 27.5981L27.1554 32.3842L13.8584 28.9084L22.8837 27.5981Z" fill="url(#paint13_linear_708_144365)"/>
        <g style="mix-blend-mode:color-dodge" opacity="0.8">
            <path d="M30.9558 30.4407C30.2845 31.0092 30.8584 31.3773 30.8584 31.3773L34.3125 30.4407C34.3125 30.4407 32.5042 29.1251 30.9558 30.4407Z" fill="white"/>
        </g>
        <path style="mix-blend-mode:multiply" opacity="0.3" d="M13.8584 28.9082L27.1554 32.3841L19.684 39.6606L19.3916 35.6975L13.8584 28.9082Z" fill="url(#paint14_linear_708_144365)"/>
        <path style="mix-blend-mode:multiply" opacity="0.3" d="M39.9822 28.9082L27.1562 32.3841L31.6824 39.2058L34.5627 41.6746L34.3137 35.573L39.9822 28.9082Z" fill="url(#paint15_linear_708_144365)"/>
        <path style="mix-blend-mode:multiply" opacity="0.3" d="M18.8936 44.2623L27.1555 32.3838L35.0384 44.2623L26.966 40.0177L18.8936 44.2623Z" fill="url(#paint16_linear_708_144365)"/>
        <g style="mix-blend-mode:soft-light" opacity="0.4">
            <path d="M23.9611 26.1849C23.1002 28.5671 26.3703 30.2292 26.8143 29.4929C27.2528 28.762 26.9767 24.6743 26.4245 24.1221C25.8722 23.5699 24.313 25.2103 23.9665 26.1849H23.9611Z" fill="#F7FFFF"/>
        </g>
        <g style="mix-blend-mode:soft-light" opacity="0.4">
            <path d="M21.2871 38.3772C23.025 38.6154 23.9996 36.6339 24.3623 35.2695C24.9524 33.0768 18.1253 37.9441 21.2871 38.3772Z" fill="#F7FFFF"/>
        </g>
        <path style="mix-blend-mode:multiply" opacity="0.5" d="M26.9173 40.0181L19.8682 43.7267L24.1453 41.848L26.9227 40.6136L29.5053 41.848L32.0769 42.7305L26.9173 40.0181Z" fill="url(#paint17_linear_708_144365)"/>
        <path style="mix-blend-mode:multiply" opacity="0.5" d="M13.9072 28.9082L19.8411 38.7294L27.1555 32.3841L18.8503 44.2626L26.8794 43.3368L34.9897 44.2626L27.1555 32.3841L34.1126 38.881L39.7379 28.9082L27.1555 32.3841L13.9072 28.9082Z" fill="url(#paint18_linear_708_144365)"/>
        <path style="mix-blend-mode:color-dodge" opacity="0.6" d="M34.1181 34.62C36.558 34.62 38.536 32.642 38.536 30.2021C38.536 27.7621 36.558 25.7842 34.1181 25.7842C31.6782 25.7842 29.7002 27.7621 29.7002 30.2021C29.7002 32.642 31.6782 34.62 34.1181 34.62Z" fill="url(#paint19_radial_708_144365)"/>
        <path style="mix-blend-mode:color-dodge" opacity="0.6" d="M28.0055 42.8495C26.8686 45.0098 24.443 45.9681 22.5968 44.9881C20.7452 44.0136 20.1713 41.469 21.3083 39.3141C22.4452 37.1593 24.8707 36.1956 26.717 37.1756C28.5686 38.1501 29.1425 40.6947 28.0055 42.8495Z" fill="url(#paint20_radial_708_144365)"/>
        <path style="mix-blend-mode:color-dodge" opacity="0.5" d="M21.7307 32.9522C20.7562 34.8039 18.0058 35.2695 15.5912 33.9972C13.1765 32.7249 12.0124 30.1911 12.987 28.3394C13.9615 26.4878 16.7119 26.0222 19.1266 27.2945C21.5412 28.5668 22.7053 31.1006 21.7307 32.9522Z" fill="url(#paint21_radial_708_144365)"/>
        <path style="mix-blend-mode:multiply" opacity="0.5" d="M24.0478 31.5396L23.3818 34.003L25.6612 34.5985L27.0905 36.7425L28.8392 34.8367L30.7775 34.003L30.3714 31.5396L27.1013 32.5249L24.0478 31.5396Z" fill="url(#paint22_linear_708_144365)"/>
        <path d="M30.3014 32.292C29.4838 33.8404 27.1612 35.6487 27.1612 35.6487C27.1612 35.6487 24.7736 33.8946 23.8965 32.3678C24.714 30.8193 27.0312 28.9731 27.0312 28.9731C27.0312 28.9731 29.4189 30.7652 30.2959 32.2974L30.3014 32.292Z" fill="url(#paint23_linear_708_144365)"/>
        <path style="mix-blend-mode:multiply" opacity="0.5" d="M23.8965 32.3626C24.7736 33.8893 27.1612 35.6435 27.1612 35.6435L27.2965 34.8043C25.8131 33.8514 24.714 32.3896 24.714 32.3896C24.714 32.3896 24.3513 32.3355 23.8965 32.3626Z" fill="url(#paint24_linear_708_144365)"/>
        <path d="M27.3022 34.8043C27.3022 34.8043 25.3911 33.4995 24.7197 32.3897C24.7197 32.3897 25.3315 31.1065 27.1344 29.8071C27.1344 29.8071 28.9373 30.7817 29.8306 32.2922C29.8306 32.2922 29.0618 33.4562 27.3022 34.8043Z" fill="url(#paint25_linear_708_144365)"/>
        <path d="M28.7747 30.6191C28.7151 30.749 28.0871 30.1427 28.1791 30.0669C28.2712 29.9911 28.8505 30.4567 28.7747 30.6191Z" fill="url(#paint26_linear_708_144365)"/>
        <path d="M25.7488 31.7996C25.202 32.9365 26.9291 35.2754 28.5046 33.4996C30.2479 31.5289 26.9399 29.347 25.7488 31.7996Z" fill="url(#paint27_linear_708_144365)"/>
        <path d="M26.1974 31.7884C25.8563 32.4706 26.1108 33.1636 26.728 33.5859C27.4372 34.0731 28.3089 33.4993 28.6121 32.8983C29.0452 32.0483 28.2223 31.1604 27.7134 31.0142C27.2044 30.868 26.4356 31.3011 26.192 31.783L26.1974 31.7884Z" fill="url(#paint28_linear_708_144365)"/>
        <g style="mix-blend-mode:multiply" opacity="0.4">
            <path d="M26.0786 32.3893C26.0515 32.4975 26.0786 33.0931 26.5334 33.4071C26.9882 33.7157 27.3076 33.7699 27.3455 33.7211C27.378 33.6724 27.378 33.2555 27.3563 33.2339C27.3347 33.2122 26.9827 33.039 26.8095 32.8062C26.6362 32.5679 26.5821 32.4867 26.5334 32.4813C26.4847 32.4813 26.1003 32.3189 26.084 32.3893H26.0786Z" fill="#B82774"/>
        </g>
        <g style="mix-blend-mode:soft-light">
            <path d="M26.6259 32.4491C26.5609 32.7252 27.3513 33.2396 27.4217 33.2287C27.7628 33.18 28.1743 32.4274 28.1797 32.1838C28.1797 32.0214 27.5463 31.4854 27.3459 31.5504C27.1402 31.6153 26.6746 32.2325 26.6259 32.4491Z" fill="white"/>
        </g>
        <g style="mix-blend-mode:multiply" opacity="0.8">
            <path d="M27.4216 33.2339C27.3295 33.2718 27.362 33.6995 27.3945 33.7049C27.7518 33.7483 28.12 33.5479 28.4773 33.0823C28.7697 32.7033 28.7426 32.1944 28.6181 32.0374C28.5748 31.9778 28.1796 32.124 28.1796 32.189C28.1687 32.5951 27.7302 33.104 27.4216 33.2339Z" fill="#B82774"/>
        </g>
        <path opacity="0.75" d="M26.0518 32.2918C26.0518 32.3568 26.5174 32.5084 26.5553 32.4705C26.6148 32.4055 27.3241 31.5717 27.3241 31.5176C27.3241 31.4364 27.3511 31.0303 27.2266 31.0249C27.1887 31.0249 26.6744 31.1765 26.3658 31.5447C26.0572 31.9128 26.0572 32.2106 26.0518 32.2918Z" fill="white"/>
        <path d="M26.1978 31.7884C26.1978 31.7884 26.4198 31.4148 26.8042 31.1982C26.8042 31.1982 27.0153 31.2632 26.8475 31.5285C26.6851 31.7938 26.1924 31.7884 26.1924 31.7884H26.1978Z" fill="white"/>
        <path d="M27.1836 33.104C27.1836 33.104 27.3189 33.4234 27.3623 33.4126C27.4056 33.4017 27.5626 33.1744 27.5409 33.1744C27.5193 33.1744 27.2107 33.0498 27.1836 33.104Z" fill="white"/>
        <path d="M28.1146 32.054C28.055 32.1298 28.1092 32.3897 28.1416 32.3951C28.1741 32.4059 28.3311 32.1082 28.3149 32.0919C28.2932 32.0757 28.1741 31.9836 28.1146 32.054Z" fill="white"/>
        <path d="M26.8316 34.0514C26.8316 34.0514 27.687 34.3167 28.4991 33.4938C29.2463 32.7412 28.9377 31.902 28.9052 31.8208C28.9052 31.8208 29.4574 32.8116 28.4883 33.7157C27.6545 34.4954 26.8262 34.0514 26.8262 34.0514H26.8316Z" fill="#F0CFFF"/>
        <g style="mix-blend-mode:multiply" opacity="0.5">
            <path d="M26.5334 33.9C26.0678 33.3099 25.678 32.2758 26.4847 31.442C27.2914 30.6083 28.3092 31.22 28.6612 31.3825C28.6612 31.3825 27.443 29.7203 26.0407 30.7111C25.3531 31.193 25.2828 31.9997 25.4939 32.5627C25.7971 33.3803 26.5334 33.9 26.5334 33.9Z" fill="#5F5B9C"/>
        </g>
        <path d="M10.7562 28.1552V29.9852C10.7562 29.9852 7.16669 29.0648 4.35678 25.8001C1.55228 22.5354 1.84464 18.0796 1.84464 18.0796C1.84464 18.085 1.84464 18.0904 1.84464 18.0958C1.87712 18.3232 2.25611 20.7866 4.10773 23.5587C4.4813 24.1163 4.95233 24.6252 5.4775 25.0908C6.35458 25.8705 7.37243 26.5147 8.27658 27.0074C9.64093 27.7492 10.7508 28.1498 10.7508 28.1498L10.7562 28.1552Z" fill="url(#paint29_linear_708_144365)"/>
        <path d="M25.3364 5.66504C25.3364 5.66504 22.6185 7.86316 21.487 12.0158C20.3555 16.1738 21.2434 16.8614 21.2434 16.8614H33.4467C33.4467 16.8614 33.5442 14.2734 32.7591 11.6584C31.9741 9.03802 29.6677 6.3418 29.1913 5.82746L25.3418 5.67045L25.3364 5.66504Z" fill="url(#paint30_linear_708_144365)"/>
        <path d="M1.87207 48.4042C1.87207 48.4042 6.98839 50.9163 13.5232 47.1265L14.9417 47.9115C14.9417 47.9115 11.8611 49.8281 8.40688 50.1259C4.95269 50.4236 1.87207 48.4042 1.87207 48.4042Z" fill="url(#paint31_linear_708_144365)"/>
        <path d="M52.5473 18.0796C52.5473 18.0796 52.8397 22.5354 50.0352 25.8001C47.2307 29.0648 43.6357 29.9852 43.6357 29.9852V28.1552C43.6357 28.1552 48.3352 26.466 50.2788 23.5641C52.2225 20.6567 52.5473 18.085 52.5473 18.085V18.0796Z" fill="url(#paint32_linear_708_144365)"/>
        <path d="M52.5257 48.4042C52.5257 48.4042 47.4094 50.9163 40.8745 47.1265L39.4561 47.9115C39.4561 47.9115 42.5367 49.8281 45.9909 50.1259C49.4451 50.4236 52.5257 48.4042 52.5257 48.4042Z" fill="url(#paint33_linear_708_144365)"/>
        <path d="M20.875 51.9663C20.875 51.9663 20.8642 58.5065 27.2582 62.3126C27.2582 62.3126 33.5061 59.1616 33.5061 51.9663H20.8804H20.875Z" fill="url(#paint34_linear_708_144365)"/>
        <path d="M51.2646 44.0023C51.0751 43.645 50.8639 43.2822 50.6149 42.9249C49.0989 40.7322 46.7655 39.135 46.4569 38.9293C46.3811 35.1124 46.3811 31.3008 46.4569 27.4839C46.7113 27.3106 48.0648 26.3848 49.3534 25.0151C49.7919 24.5495 50.2197 24.0405 50.5986 23.4883C52.4015 20.8679 52.5098 18.0417 52.5098 18.0417C52.5098 18.0417 49.9652 16.8073 46.8034 17.1646C44.524 17.4191 42.353 18.4207 41.5788 18.8105C38.444 17.1159 35.293 15.443 32.1528 13.7538C32.0879 12.8821 31.8226 10.5161 30.8751 8.43712C29.5541 5.54599 27.1881 3.99756 27.1881 3.99756C27.1881 3.99756 24.8221 5.54599 23.5011 8.43712C22.5536 10.5107 22.2938 12.8767 22.2234 13.7538C19.0724 15.4484 15.9105 17.1267 12.765 18.8268C12.5755 18.7293 12.2993 18.5994 11.9637 18.4532C10.9187 17.9984 9.26203 17.3866 7.54577 17.1971C4.38394 16.8506 1.84473 18.085 1.84473 18.085C1.84473 18.085 1.8718 18.7564 2.11002 19.7526C2.35907 20.7921 2.84092 22.1889 3.76673 23.5262C4.13489 24.0568 4.55177 24.5549 4.97407 25.0042C5.14732 25.1883 5.31516 25.3616 5.48841 25.5294C6.6362 26.6501 7.72443 27.3864 7.93017 27.5218C8.00597 31.3387 8.00597 35.1503 7.93017 38.9672C7.58908 39.1946 5.28268 40.7863 3.78839 42.9628C3.54475 43.3147 3.3336 43.6666 3.14952 44.0185C1.95842 46.287 1.8718 48.4094 1.8718 48.4094C1.8718 48.4094 4.41642 49.6438 7.57825 49.2865C7.60532 49.2865 7.63239 49.281 7.65946 49.2756C9.90631 49.0049 12.0341 48.025 12.8029 47.6406C15.943 49.3352 19.094 51.0081 22.2342 52.6973C22.2613 52.9518 22.31 53.3308 22.3966 53.8018C22.5699 54.733 22.8947 56.0162 23.5065 57.348C24.8276 60.2392 27.1935 61.3924 27.1935 61.3924C27.1935 61.3924 29.5595 60.2392 30.8805 57.348C31.4706 56.0595 31.7955 54.8197 31.9687 53.8993C32.0662 53.3849 32.1203 52.968 32.1474 52.6973C35.3038 51.0027 38.4602 49.3244 41.6112 47.6189C42.3746 47.9979 44.4428 48.9454 46.6409 49.2269C46.7005 49.2323 46.7655 49.2431 46.8304 49.2486C49.9923 49.5951 52.5315 48.3606 52.5315 48.3606C52.5315 48.3606 52.4448 46.26 51.2592 43.9969L51.2646 44.0023ZM32.3044 46.0542C30.599 47.0017 28.899 47.9492 27.1935 48.9075C25.4556 47.9329 23.7177 46.9638 21.9797 45.9947C19.159 44.4246 16.3383 42.8599 13.5283 41.2736C13.5771 39.0213 13.5987 36.7637 13.6096 34.5114C13.6204 31.3983 13.5933 28.2852 13.5283 25.1775C18.0708 22.6112 22.6457 20.0991 27.1989 17.5436C31.7522 20.0991 36.3217 22.6112 40.8695 25.1775C40.8045 28.296 40.7775 31.4145 40.7883 34.5385C40.7937 36.7853 40.8208 39.0267 40.8695 41.2736C38.0217 42.8816 35.1631 44.4679 32.3098 46.0542H32.3044Z" fill="url(#paint35_linear_708_144365)"/>
        <g style="mix-blend-mode:soft-light" opacity="0.5">
            <path d="M2.20229 18.334C2.95485 19.3626 8.60717 22.5136 11.2655 23.5586C11.7365 23.7426 12.5811 19.2273 12.1372 18.962C7.44314 16.125 1.80707 17.798 2.20229 18.334Z" fill="white"/>
        </g>
        <path d="M27.1937 15.9194C22.1694 18.7239 17.1072 21.4743 12.0938 24.2896C12.2399 30.2397 12.2399 36.1952 12.0938 42.1453C17.1126 44.9661 22.1694 47.711 27.1937 50.5155C32.2179 47.711 37.2801 44.9606 42.299 42.1453C42.1528 36.1952 42.1528 30.2397 42.299 24.2896C37.2801 21.4689 32.2234 18.7239 27.1937 15.9194ZM40.8642 41.2682C36.3164 43.8345 31.7469 46.3466 27.1937 48.9021C22.6404 46.3466 18.0709 43.8345 13.5231 41.2682C13.6314 35.9029 13.6314 30.5375 13.5231 25.1721C18.0655 22.6058 22.6404 20.0937 27.1937 17.5382C31.7469 20.0937 36.3164 22.6058 40.8642 25.1721C40.756 30.5375 40.756 35.9029 40.8642 41.2682Z" fill="url(#paint36_linear_708_144365)"/>
        <g style="mix-blend-mode:soft-light" opacity="0.5">
            <path d="M12.2829 23.5589C12.9976 23.5589 24.6 17.3435 25.7478 16.4069C26.3704 15.8979 22.3044 14.5011 21.8442 14.4849C20.9509 14.4524 20.4961 14.9559 17.2802 16.6451C15.1903 17.7387 15.147 17.6629 13.1005 18.8432C12.2017 19.363 11.904 23.5589 12.2829 23.5535V23.5589Z" fill="white"/>
        </g>
        <path style="mix-blend-mode:multiply" opacity="0.5" d="M31.985 52.2373C32.4073 52.4593 33.6851 51.6255 36.6845 50.0446C39.6622 48.4745 40.5014 48.101 40.8804 47.657C41.3244 47.1318 42.5371 42.5515 41.5842 43.0063C38.9097 44.2786 36.7061 45.7296 34.2806 47.1319C31.8984 48.507 27.7187 50.5319 27.9191 50.7701C28.3738 51.3224 31.6602 52.0749 31.985 52.2482V52.2373Z" fill="url(#paint37_linear_708_144365)"/>
        <g style="mix-blend-mode:soft-light" opacity="0.5">
            <path d="M22.6677 52.2101C22.3212 52.3834 21.1085 51.7554 17.9683 50.1311C15.8839 49.0537 15.5644 48.8209 13.5233 47.6569C12.722 47.1967 11.1519 42.1832 12.0832 42.481C12.8195 42.7192 15.7377 44.6033 18.2661 45.9948C20.5887 47.2725 26.1382 50.2015 26.1815 50.7646C26.2085 51.0948 22.9168 52.091 22.6731 52.2101H22.6677Z" fill="white"/>
        </g>
        <path style="mix-blend-mode:multiply" opacity="0.5" d="M13.3282 25.2748C13.2741 24.8633 12.083 24.1108 12.0938 24.4627C12.2508 30.2774 12.1371 40.6238 12.2454 41.9881C12.2454 42.0368 13.2416 41.6037 13.3337 41.1164C13.5231 40.1257 13.5286 34.7982 13.5231 32.194C13.5231 29.5953 13.5231 26.715 13.3337 25.2748H13.3282Z" fill="url(#paint38_linear_708_144365)"/>
        <path style="mix-blend-mode:multiply" opacity="0.5" d="M41.026 25.1506C40.7986 30.359 40.8582 39.7416 41.026 41.3442C41.0422 41.4958 42.2929 42.1888 42.2875 41.9289C42.2117 38.9891 42.1954 35.7189 42.1846 32.7737C42.1738 29.9313 42.2442 25.221 42.1142 24.4035C42.098 24.2898 41.0476 24.7283 41.0314 25.1452L41.026 25.1506Z" fill="url(#paint39_linear_708_144365)"/>
        <path style="mix-blend-mode:multiply" opacity="0.5" d="M27.1932 16.1252C27.4314 16.0548 27.3339 17.3975 27.0741 17.5437C24.5782 18.9189 17.2745 22.8658 16.8252 23.039C15.9643 23.3747 15.3634 22.6492 15.699 22.4597C17.5615 21.4094 19.4348 20.3049 21.308 19.2492C23.0947 18.2476 26.7276 16.266 27.1932 16.1252Z" fill="url(#paint40_linear_708_144365)"/>
        <path style="mix-blend-mode:multiply" opacity="0.5" d="M8.26007 39.7416C8.41708 40.2613 11.6114 42.2916 11.7955 41.604C12.4181 39.303 11.9958 35.7568 11.9795 32.8549C11.9633 30.2019 12.0716 25.1831 11.8713 24.8095C11.5464 24.2194 8.33586 27.0834 8.12471 27.8035C8.03267 28.1067 8.00019 27.7656 8.04892 31.2144C8.10306 34.7714 7.98395 38.8266 8.26007 39.7416Z" fill="url(#paint41_linear_708_144365)"/>
        <path style="mix-blend-mode:multiply" opacity="0.5" d="M42.6455 42.0043C42.7159 42.183 45.5637 39.7467 45.9914 38.9887C46.208 38.6043 46.1809 35.8052 46.1918 32.5459C46.2026 29.2379 46.2838 28.9455 46.1214 28.4474C45.9211 27.8302 42.7755 24.1487 42.5481 25.1232C42.0392 27.3267 42.4506 30.4452 42.4236 33.3255C42.3965 36.13 42.3207 41.1976 42.6455 42.0043Z" fill="url(#paint42_linear_708_144365)"/>
        <path d="M12.0884 42.1509L26.9718 50.7647C26.9718 50.7647 34.0534 47.3484 42.2936 42.1509C42.2936 42.1509 31.8499 47.9115 26.9718 50.402C26.9718 50.402 23.5338 48.4962 12.083 42.1509H12.0884Z" fill="white"/>
        <path d="M18.4012 20.8574C17.5458 20.6084 16.8744 21.1335 16.5171 21.5396C16.1544 21.9511 16.3709 22.2055 16.8365 22.1406C17.3022 22.0702 18.764 20.9603 18.4066 20.8574H18.4012Z" fill="#394773"/>
        <path style="mix-blend-mode:multiply" opacity="0.5" d="M18.4016 20.8573C17.8223 20.6461 17.1076 20.998 16.8856 21.1929C16.6636 21.3878 17.1238 21.9726 17.427 21.8643C17.7302 21.7506 18.6669 20.9547 18.4016 20.8573Z" fill="url(#paint43_linear_708_144365)"/>
        <path d="M16.723 21.3335C16.723 21.3335 15.781 21.929 15.9001 22.2431C16.0138 22.5571 17.1453 22.0265 17.1453 22.0265C17.1453 22.0265 16.5552 22.1998 16.4144 21.9345C16.2736 21.6638 16.723 21.3335 16.723 21.3335Z" fill="white"/>
        <path d="M42.0879 30.0066C41.9472 30.2882 41.8497 31.5984 42.0609 31.6904C42.272 31.7879 42.7431 31.3764 42.7106 31.1165C42.6781 30.8566 42.18 29.8171 42.0825 30.0012L42.0879 30.0066Z" fill="#394773"/>
        <path d="M41.2864 27.5922C41.3893 28.0686 42.0173 29.2922 42.3367 28.8537C42.7753 28.2473 42.445 25.8976 42.131 25.8056C42.0065 25.7677 41.1456 26.9804 41.281 27.5976L41.2864 27.5922Z" fill="#394773"/>
        <g style="mix-blend-mode:multiply" opacity="0.5">
            <path d="M41.9524 31.3818C42.0498 31.8149 42.6454 30.9703 42.5317 30.6779C42.418 30.3856 42.1473 29.8333 42.0877 30.0066C42.0282 30.1853 41.8982 31.1435 41.9524 31.3818Z" fill="#912774"/>
        </g>
        <path d="M42.0117 31.6418C42.0117 31.6418 42.2283 31.7284 42.4719 31.5444C42.6668 31.3982 42.7372 31.1816 42.6993 31.0625C42.6993 31.0625 42.7643 31.3819 42.5369 31.5931C42.1796 31.9233 42.0117 31.6364 42.0117 31.6364V31.6418Z" fill="#DAE1EF"/>
        <g style="mix-blend-mode:multiply" opacity="0.5">
            <path d="M41.3834 27.2346C41.6866 28.3608 42.4987 28.3066 42.5583 27.8464C42.6179 27.3862 42.4175 25.7404 42.1306 25.7999C41.8436 25.8595 41.3185 26.9856 41.3834 27.2292V27.2346Z" fill="#912774"/>
        </g>
        <path d="M41.2861 27.5918C41.2861 27.5918 41.6868 28.7179 42.0712 28.6909C42.4502 28.6638 42.5368 28.2631 42.5368 28.2631C42.5368 28.2631 42.6451 29.4055 42.2498 29.2918C41.5677 29.0915 41.2861 27.5918 41.2861 27.5918Z" fill="#DAE1EF"/>
        <path d="M15.3316 17.9876C15.3208 18.2745 18.7587 17.9118 19.6629 17.4516C20.3721 17.0889 20.567 15.5892 20.2313 15.6379C18.8183 15.8328 15.337 17.7277 15.3262 17.9876H15.3316Z" fill="white"/>
        <g style="mix-blend-mode:soft-light" opacity="0.5">
            <path d="M16.0029 42.6651C17.1561 43.6559 16.8475 44.7874 16.8475 44.7874L19.6899 46.3575C19.6899 46.3575 23.0304 46.7419 21.4657 45.7024L16.0083 42.6597L16.0029 42.6651Z" fill="white"/>
        </g>
        <g style="mix-blend-mode:soft-light" opacity="0.5">
            <path d="M10.4638 42.6652C10.1877 43.1795 1.99079 48.5503 2.19111 47.7165C2.39143 46.8773 2.5701 43.1795 7.11794 40.1368C7.74056 39.7199 10.9186 41.8152 10.4638 42.6652Z" fill="white"/>
        </g>
        <g style="mix-blend-mode:soft-light" opacity="0.5">
            <path d="M41.9742 19.0217C41.1621 19.4765 41.5032 23.2176 42.2882 23.1256C43.0733 23.0336 52.5317 18.3125 51.8441 18.0797C51.1565 17.8469 46.7332 16.3526 41.9742 19.0217Z" fill="white"/>
        </g>
        <g style="mix-blend-mode:soft-light" opacity="0.5">
            <path d="M46.3597 39.3843C45.9104 39.3843 43.0409 42.2213 43.5282 42.6652C44.0154 43.1092 51.8442 48.7073 52.0553 47.8465C52.4939 46.0544 48.5524 39.3897 46.3543 39.3843H46.3597Z" fill="white"/>
        </g>
        <path d="M5.19097 17.3379C4.90403 17.5923 6.84227 18.4369 7.21043 18.4857C7.57859 18.5344 8.98084 17.7277 8.80217 17.5382C8.62892 17.3541 5.61327 16.9589 5.18556 17.3379H5.19097Z" fill="white"/>
        <path d="M46.5328 17.5976C46.2458 17.8521 48.1841 18.6967 48.5522 18.7454C48.9204 18.7941 50.3226 17.9875 50.144 17.798C49.9707 17.6139 46.9551 17.2186 46.5274 17.5976H46.5328Z" fill="white"/>
        <path style="mix-blend-mode:multiply" opacity="0.5" d="M10.5072 24.3763C9.28902 22.9632 2.18032 18.3883 2.04496 19.0217C1.90961 19.6552 2.39147 22.0049 3.31186 24.0352C4.23226 26.0655 7.08549 28.1012 7.41033 27.9387C7.74059 27.7763 10.9078 24.8473 10.5072 24.3817V24.3763Z" fill="url(#paint44_linear_708_144365)"/>
        <path style="mix-blend-mode:multiply" opacity="0.5" d="M42.7154 23.6453C42.5476 24.4141 46.2996 27.63 46.9059 27.8304C47.2957 27.9603 50.9557 25.0746 51.5945 22.4487C52.3254 19.4439 52.1522 19.0541 51.5945 19.1245C51.0369 19.2003 42.867 22.9144 42.71 23.6398L42.7154 23.6453Z" fill="url(#paint45_linear_708_144365)"/>
        <path style="mix-blend-mode:multiply" opacity="0.5" d="M10.7558 43.1794C10.0303 43.3797 2.20156 48.2794 2.58596 48.6422C2.97036 49.0049 6.37583 50.4667 9.4402 49.7845C12.5046 49.1024 12.9377 48.4364 12.9485 48.274C13.0135 47.4078 11.2323 43.044 10.7504 43.1794H10.7558Z" fill="url(#paint46_linear_708_144365)"/>
        <path style="mix-blend-mode:multiply" opacity="0.5" d="M41.4542 48.5125C42.0444 48.729 44.7027 50.0068 47.5613 49.7144C50.4254 49.422 51.4649 48.5341 51.27 48.3013C51.0751 48.0739 44.0855 42.8223 42.7157 43.1688C42.0281 43.342 41.0698 48.3663 41.4542 48.5071V48.5125Z" fill="url(#paint47_linear_708_144365)"/>
        <g style="mix-blend-mode:soft-light" opacity="0.5">
            <path d="M26.338 51.2898C25.4934 51.4251 21.5033 52.8057 21.3192 53.358C21.1351 53.9102 22.4832 58.7937 26.0457 61.1651C27.031 61.8202 27.161 56.8338 27.2584 55.5236C27.3559 54.2134 27.4371 51.1219 26.338 51.2898Z" fill="white"/>
        </g>
        <path style="mix-blend-mode:multiply" opacity="0.5" d="M27.7514 51.6199C27.4536 52.5944 27.0584 61.6576 27.589 61.7226C28.1141 61.7929 31.2435 59.0751 32.2451 56.6712C33.3062 54.1212 33.003 53.0925 32.1476 52.6973C31.2922 52.302 27.9138 51.073 27.7514 51.6199Z" fill="url(#paint48_linear_708_144365)"/>
        <g style="mix-blend-mode:soft-light" opacity="0.5">
            <path d="M21.4655 13.5644C21.9744 14.1654 26.4086 15.7626 26.7009 15.3024C26.9987 14.8422 27.0312 4.99933 26.636 5.03182C26.2407 5.0643 23.8477 7.42485 22.4346 10.0507C21.0216 12.6765 21.1136 13.153 21.4601 13.559L21.4655 13.5644Z" fill="white"/>
        </g>
        <path style="mix-blend-mode:multiply" opacity="0.5" d="M27.1938 15.3832C27.5891 16.0384 32.6079 13.8565 32.7703 13.4667C32.9328 13.0714 31.4764 6.72611 27.5241 4.73914C27.2534 4.60379 26.7986 14.7281 27.1938 15.3832Z" fill="url(#paint49_linear_708_144365)"/>
        <path style="mix-blend-mode:multiply" opacity="0.5" d="M23.8909 51.7822C23.8909 51.7822 22.7972 53.7421 21.1947 54.1752C20.7561 53.0545 20.9023 52.2261 20.8752 51.9717C17.7297 50.2825 15.9376 49.335 12.7974 47.6404C12.034 48.0248 9.90088 49.0047 7.65403 49.2754C7.90849 46.9149 7.15052 45.2744 7.15052 45.2744C5.89445 44.5056 4.05907 44.1537 3.13867 44.0184C3.32275 43.6664 3.5339 43.3145 3.77753 42.9626C5.27182 40.7861 7.57823 39.1944 7.91932 38.967C7.99511 35.1501 7.99511 31.3385 7.91932 27.5216C7.71358 27.3863 6.63076 26.6445 5.47756 25.5292C5.30431 25.3614 5.13647 25.1881 4.96322 25.0041C5.91069 24.4789 6.647 24.127 6.90147 24.1324C7.86518 24.1703 11.9799 30.2936 11.4168 32.6921C10.87 35.0147 9.61934 36.5956 9.53813 36.6931C11.0216 35.5291 12.4184 34.8739 13.5879 34.5058C13.5825 36.7581 13.5554 39.0103 13.5067 41.268C16.3166 42.8543 19.1373 44.419 21.9581 45.9891C22.1963 46.406 22.3695 46.7958 22.4399 47.1206C22.7972 48.799 21.8606 50.0984 21.8606 50.0984L23.8747 51.7767L23.8909 51.7822Z" fill="url(#paint50_linear_708_144365)"/>
        <path style="mix-blend-mode:multiply" opacity="0.5" d="M47.15 45.2691C47.15 45.2691 46.4029 46.8934 46.6465 49.2268C44.4484 48.9453 42.3802 47.9978 41.6168 47.6189C38.4658 49.3189 36.6629 50.2718 33.5065 51.9664C33.4794 52.2371 33.3982 53.6556 33.3008 54.1699C31.4654 53.5419 30.415 51.7769 30.415 51.7769L32.4291 50.0985C32.4291 50.0985 31.4924 48.7991 31.8498 47.1208C31.9147 46.8067 32.0772 46.4386 32.2991 46.0488C35.1578 44.457 38.0164 42.8707 40.8588 41.2681C40.8155 39.0213 40.7884 36.7744 40.7776 34.533C41.9308 34.9012 43.3006 35.5563 44.7516 36.6986C44.6758 36.6012 43.4197 35.0203 42.8729 32.6976C42.3098 30.2992 46.4245 24.1758 47.3882 24.1379C47.6427 24.1271 48.3844 24.4844 49.3427 25.0204C48.0542 26.3902 46.7006 27.316 46.4462 27.4893C46.3704 31.3062 46.3704 35.1177 46.4462 38.9347C46.7548 39.1404 49.0937 40.7321 50.6042 42.9303C50.8532 43.2876 51.0644 43.6503 51.2539 44.0077C50.3714 44.1322 48.444 44.4787 47.1392 45.2746L47.15 45.2691Z" fill="url(#paint51_linear_708_144365)"/>
        <path style="mix-blend-mode:multiply" opacity="0.5" d="M12.1094 27.5595L13.5279 28.4149C13.5279 28.4149 22.6669 22.8005 27.5288 22.8005C32.3906 22.8005 40.7338 27.3429 40.7338 27.3429L42.3147 24.9715L42.2443 24.2623L27.139 15.8921L12.0391 24.2623L12.104 27.5595H12.1094Z" fill="url(#paint52_linear_708_144365)"/>
        <path d="M24.3451 9.93114C23.3435 11.9939 26.4945 16.2548 29.3532 13.0172C32.5204 9.43305 26.5054 5.46993 24.3451 9.93114Z" fill="url(#paint53_linear_708_144365)"/>
        <path d="M25.1683 9.91502C24.5511 11.1548 25.0113 12.4109 26.1374 13.1851C27.4314 14.073 29.0177 13.0227 29.5646 11.9399C30.3496 10.3915 28.8553 8.78347 27.9295 8.51818C27.0037 8.25289 25.6069 9.03793 25.1683 9.92043V9.91502Z" fill="url(#paint54_linear_708_144365)"/>
        <g style="mix-blend-mode:multiply" opacity="0.4">
            <path d="M24.9517 11.0034C24.9084 11.1984 24.9517 12.2866 25.7801 12.8497C26.6084 13.4127 27.1932 13.5102 27.2527 13.4181C27.3177 13.3261 27.3123 12.5735 27.2744 12.5356C27.2365 12.4977 26.5922 12.1837 26.2782 11.756C25.9696 11.3283 25.8613 11.1767 25.7747 11.1713C25.688 11.1605 24.9842 10.8735 24.9517 11.0089V11.0034Z" fill="#B82774"/>
        </g>
        <g style="mix-blend-mode:soft-light">
            <path d="M25.942 11.1169C25.8283 11.6204 27.263 12.5517 27.3929 12.5354C28.0101 12.4488 28.7573 11.079 28.7735 10.6351C28.7844 10.3373 27.6257 9.36819 27.2576 9.48188C26.8894 9.59558 26.034 10.7217 25.942 11.1169Z" fill="white"/>
        </g>
        <g style="mix-blend-mode:multiply" opacity="0.8">
            <path d="M27.393 12.5355C27.2198 12.6059 27.2847 13.3855 27.3443 13.3909C27.994 13.4667 28.6653 13.104 29.315 12.254C29.8456 11.5664 29.8023 10.6352 29.5749 10.3536C29.4937 10.2508 28.779 10.5106 28.7736 10.6352C28.752 11.3769 27.9561 12.2973 27.393 12.5355Z" fill="#B82774"/>
        </g>
        <path opacity="0.75" d="M24.9033 10.8303C24.8979 10.9494 25.7534 11.2256 25.8183 11.1552C25.9212 11.0361 27.2152 9.5147 27.2206 9.42267C27.2314 9.27107 27.2693 8.53475 27.0473 8.52393C26.9715 8.52393 26.0403 8.80004 25.4772 9.47139C24.9142 10.1427 24.9142 10.6841 24.9033 10.8303Z" fill="white"/>
        <path d="M25.168 9.91525C25.168 9.91525 25.5686 9.23308 26.2724 8.84326C26.2724 8.84326 26.6514 8.95696 26.3537 9.43881C26.0559 9.92067 25.168 9.90984 25.168 9.90984V9.91525Z" fill="white"/>
        <path d="M26.9599 12.3081C26.9328 12.3514 27.2089 12.8874 27.2847 12.8712C27.3605 12.8549 27.6475 12.4326 27.615 12.438C27.5825 12.4434 27.0194 12.2161 26.9599 12.3081Z" fill="white"/>
        <path d="M28.6547 10.3915C28.541 10.5269 28.6438 10.9979 28.7034 11.0142C28.7684 11.0304 29.0499 10.4944 29.0174 10.4619C28.9849 10.4294 28.7575 10.267 28.6547 10.3915Z" fill="white"/>
        <path d="M26.3164 14.0298C26.3164 14.0298 27.8757 14.5062 29.3537 13.0173C30.7127 11.6476 30.155 10.1208 30.0954 9.97461C30.0954 9.97461 31.1025 11.7775 29.3375 13.4234C27.8215 14.8419 26.3164 14.0352 26.3164 14.0352V14.0298Z" fill="#F0CFFF"/>
        <g style="mix-blend-mode:multiply" opacity="0.5">
            <path d="M25.7746 13.7537C24.93 12.6817 24.2208 10.7976 25.688 9.28709C27.1498 7.77115 29.0014 8.88645 29.6457 9.17881C29.6457 9.17881 27.4367 6.15775 24.8813 7.95522C23.6306 8.83231 23.5061 10.2995 23.8851 11.3228C24.4373 12.8063 25.78 13.7537 25.78 13.7537H25.7746Z" fill="#5F5B9C"/>
        </g>
        <path d="M24.3451 55.3608C23.3435 57.4236 26.4945 61.6845 29.3532 58.4469C32.5204 54.8627 26.5054 50.8996 24.3451 55.3608Z" fill="url(#paint55_linear_708_144365)"/>
        <path d="M25.1683 55.3501C24.5511 56.5899 25.0113 57.846 26.1374 58.6202C27.4314 59.5081 29.0177 58.4578 29.5646 57.3749C30.3496 55.8265 28.8553 54.2185 27.9295 53.9532C27.0037 53.6879 25.6069 54.473 25.1683 55.3555V55.3501Z" fill="url(#paint56_linear_708_144365)"/>
        <g style="mix-blend-mode:multiply" opacity="0.4">
            <path d="M24.9517 56.4385C24.9084 56.6334 24.9517 57.7216 25.7801 58.2847C26.6084 58.8478 27.1932 58.9452 27.2527 58.8532C27.3177 58.7612 27.3123 58.0086 27.2744 57.9707C27.2365 57.9328 26.5922 57.6188 26.2782 57.1911C25.9696 56.7634 25.8613 56.6118 25.7747 56.6063C25.688 56.5955 24.9842 56.3086 24.9517 56.4439V56.4385Z" fill="#B82774"/>
        </g>
        <g style="mix-blend-mode:soft-light">
            <path d="M25.942 56.552C25.8283 57.0555 27.263 57.9867 27.3929 57.9705C28.0101 57.8839 28.7573 56.5141 28.7735 56.0701C28.7844 55.7724 27.6257 54.8032 27.2576 54.9169C26.8894 55.0306 26.034 56.1568 25.942 56.552Z" fill="white"/>
        </g>
        <g style="mix-blend-mode:multiply" opacity="0.8">
            <path d="M27.393 57.9706C27.2198 58.041 27.2847 58.8206 27.3443 58.826C27.994 58.9018 28.6653 58.5391 29.315 57.689C29.8456 57.0015 29.8023 56.0702 29.5749 55.7887C29.4937 55.6858 28.779 55.9457 28.7736 56.0702C28.752 56.812 27.9561 57.7324 27.393 57.9706Z" fill="#B82774"/>
        </g>
        <path opacity="0.75" d="M24.9033 56.2654C24.8979 56.3845 25.7534 56.6606 25.8183 56.5902C25.9212 56.4711 27.2152 54.9498 27.2206 54.8577C27.2314 54.7061 27.2693 53.9698 27.0473 53.959C26.9715 53.959 26.0403 54.2351 25.4772 54.9065C24.9142 55.5778 24.9142 56.1192 24.9033 56.2654Z" fill="white"/>
        <path d="M25.168 55.3503C25.168 55.3503 25.5686 54.6681 26.2724 54.2783C26.2724 54.2783 26.6514 54.392 26.3537 54.8739C26.0559 55.3557 25.168 55.3449 25.168 55.3449V55.3503Z" fill="white"/>
        <path d="M26.9599 57.7431C26.9328 57.7864 27.2089 58.3224 27.2847 58.3061C27.3605 58.2899 27.6475 57.8676 27.615 57.873C27.5771 57.873 27.0194 57.651 26.9599 57.7431Z" fill="white"/>
        <path d="M28.6547 55.8266C28.541 55.9619 28.6438 56.433 28.7034 56.4492C28.7684 56.4655 29.0499 55.9295 29.0174 55.897C28.9849 55.8645 28.7575 55.7021 28.6547 55.8266Z" fill="white"/>
        <path d="M26.3164 59.4648C26.3164 59.4648 27.8757 59.9413 29.3537 58.4524C30.7127 57.0826 30.155 55.5558 30.0954 55.4097C30.0954 55.4097 31.1025 57.2126 29.3375 58.8584C27.8215 60.2769 26.3164 59.4702 26.3164 59.4702V59.4648Z" fill="#F0CFFF"/>
        <g style="mix-blend-mode:multiply" opacity="0.5">
            <path d="M25.7746 59.1834C24.93 58.1114 24.2208 56.2273 25.688 54.7168C27.1498 53.2008 29.0014 54.3161 29.6457 54.6085C29.6457 54.6085 27.4367 51.5874 24.8813 53.3849C23.6306 54.262 23.5061 55.7292 23.8851 56.7525C24.4373 58.2359 25.78 59.1834 25.78 59.1834H25.7746Z" fill="#5F5B9C"/>
        </g>
        <path d="M50.4255 22.0751C46.7927 22.6815 44.2264 29.33 44.5188 31.5227C44.914 34.4734 46.7006 36.5903 47.4315 36.6878C48.1624 36.7852 51.151 36.0218 52.3963 33.488C54.4157 29.3787 52.2014 21.7774 50.4255 22.0697V22.0751Z" fill="url(#paint57_linear_708_144365)"/>
        <g style="mix-blend-mode:soft-light" opacity="0.5">
            <path d="M46.7327 34.7875C46.5648 35.1502 48.633 34.8795 49.9486 33.7371C50.8149 32.9846 52.1143 31.1763 52.0818 27.9982C52.0493 24.8147 50.869 22.3242 50.2789 22.3242C49.6888 22.3242 45.6065 24.0351 44.7998 30.5591C44.6103 32.0804 45.6174 34.4951 46.0776 34.5926C46.5377 34.69 45.6823 31.5769 48.1133 27.5705C48.1133 27.5705 48.8496 30.1963 46.7381 34.7875H46.7327Z" fill="white"/>
        </g>
        <path style="mix-blend-mode:multiply" opacity="0.5" d="M46.2949 34.6464C46.5223 34.706 47.4914 32.3996 47.8813 31.1273C48.4389 29.3244 48.2386 27.7759 48.1141 27.7976C47.9895 27.8192 46.8255 29.9795 46.6035 31.2247C46.3815 32.47 46.1 34.5923 46.2949 34.641V34.6464Z" fill="url(#paint58_linear_708_144365)"/>
        <g style="mix-blend-mode:soft-light" opacity="0.5">
            <path d="M48.1512 34.3327C48.3894 35.1665 51.3238 33.0983 51.8815 30.1422C52.4067 27.354 49.7267 24.5711 49.7267 27.8088C49.7267 31.0464 47.8588 33.3203 48.1512 34.3382V34.3327Z" fill="white"/>
        </g>
        <g style="mix-blend-mode:soft-light" opacity="0.5">
            <path d="M45.5043 33.0496C45.7641 33.4719 46.7224 30.3804 47.2368 28.9674C48.5145 25.459 50.8209 20.7758 47.4858 24.1326C45.8887 25.7406 43.7555 30.2451 45.5043 33.0496Z" fill="white"/>
        </g>
        <path style="mix-blend-mode:multiply" opacity="0.5" d="M46.825 35.3668C47.0091 35.8649 47.5721 36.5633 47.8374 36.5525C48.3734 36.5308 49.8569 36.1356 51.4378 34.6522C52.2716 33.8671 52.3744 32.8817 52.2986 32.6219C52.2229 32.362 51.833 31.4795 51.6598 31.7015C51.4865 31.9235 50.7989 33.5477 49.2505 34.3165C47.7021 35.0907 46.7221 35.0799 46.8304 35.3668H46.825Z" fill="url(#paint59_linear_708_144365)"/>
        <path d="M53.8202 39.0863C53.1975 38.2309 48.1137 38.534 46.6627 39.4599C46.3271 39.6764 45.9318 40.0067 45.5258 40.3911C46.392 39.0321 47.4315 36.6878 47.4315 36.6878C46.9443 35.8324 46.6681 36.1627 46.6681 36.1627C46.3595 38.1442 44.6974 41.2628 42.012 44.365C42.6401 43.1631 43.1869 41.4685 43.1869 39.7414C43.1923 36.3684 40.9563 34.5818 40.3012 34.6467C39.6406 34.7117 37.4046 38.0197 37.4046 40.8242C37.4046 43.6287 39.554 45.6536 40.3932 46.0542C38.6824 47.673 36.7712 49.032 35.174 50.0444C35.6721 49.1024 36.1594 47.4402 36.1919 46.6173C36.2352 45.4154 34.416 42.914 33.5985 43.1144C33.0409 43.2551 31.6549 46.4224 31.9797 47.7218C32.3587 49.2594 33.5985 50.0769 34.3457 50.5479C32.7214 51.5279 31.5736 52.0693 31.5736 52.0693C31.1135 53.0546 32.1638 52.7244 32.1638 52.7244C32.1638 52.7244 34.1183 51.7607 36.6033 49.947C37.0419 50.7807 38.5578 52.4645 40.7614 52.6269C43.1382 52.8056 46.078 51.1164 46.1755 50.5642C46.2729 50.0119 44.8977 48.0033 42.0445 47.7976C40.8967 47.7164 39.7435 47.9167 38.7906 48.2253C39.7814 47.3861 40.783 46.4332 41.7413 45.3775C42.2557 44.809 42.7321 44.2351 43.1869 43.672C43.1869 44.2784 46.6952 44.9552 49.8137 43.8886C51.8332 43.1956 54.2425 39.6602 53.8147 39.0809L53.8202 39.0863Z" fill="url(#paint60_radial_708_144365)"/>
        <g style="mix-blend-mode:soft-light" opacity="0.5">
            <path d="M40.7345 45.2529C40.0686 44.6844 38.2549 42.0532 38.5472 39.2C38.7692 37.0181 39.825 34.9228 40.4422 34.9391C41.054 34.9553 43.0247 36.6391 42.976 39.2757C42.9327 41.9124 41.6495 44.4679 41.5467 44.614C41.4492 44.7602 41.9906 42.5946 41.7903 40.9704C41.5954 39.3461 40.7562 38.0197 40.7562 38.0197C40.7562 38.0197 40.9511 40.207 40.9998 42.2535C41.0486 44.2946 41.0756 45.5507 40.7291 45.2529H40.7345Z" fill="white"/>
        </g>
        <g style="mix-blend-mode:soft-light" opacity="0.5">
            <path d="M43.7549 43.1903C43.9985 42.4757 45.6227 40.2396 47.2957 39.3517C48.9687 38.4638 53.3703 38.6858 53.6681 39.1568C53.9659 39.6224 51.183 42.1833 49.2664 42.7734C47.3498 43.3636 44.2259 43.0929 44.4966 42.9467C44.7673 42.8005 48.4435 41.9992 49.8836 40.5591C50.1814 40.2613 46.8951 40.6782 45.4062 41.7664C43.9173 42.8547 43.7603 43.1957 43.7603 43.1957L43.7549 43.1903Z" fill="white"/>
        </g>
        <g style="mix-blend-mode:soft-light" opacity="0.5">
            <path d="M37.2263 49.5461C37.6648 50.147 39.7817 51.847 42.2181 51.7821C44.0805 51.7333 45.9213 50.9645 45.9484 50.4448C45.9755 49.925 44.6707 48.1492 42.4347 48.0247C40.1986 47.9002 37.9518 48.826 37.8218 48.8964C37.6919 48.9722 39.5598 48.6473 40.9241 48.918C42.2885 49.1887 43.3605 49.9792 43.3605 49.9792C43.3605 49.9792 41.5197 49.676 39.7926 49.5027C38.0655 49.3349 37.0043 49.2266 37.2317 49.5406L37.2263 49.5461Z" fill="white"/>
        </g>
        <g style="mix-blend-mode:soft-light" opacity="0.5">
            <path d="M34.8599 50.104C35.2389 49.5788 36.0889 47.5431 36.0131 46.2654C35.9373 44.9876 34.0424 43.0927 33.6147 43.2281C33.187 43.3634 32.5806 46.1138 32.9487 47.3374C33.3169 48.5609 34.7354 49.8333 34.7246 49.6275C34.7137 49.4164 33.7879 47.2724 34.1777 45.7781C34.259 45.4749 35.2822 47.2182 35.1523 48.5285C35.0223 49.8387 34.8545 50.1094 34.8545 50.1094L34.8599 50.104Z" fill="white"/>
        </g>
        <path style="mix-blend-mode:multiply" opacity="0.5" d="M44.3568 43.1087C44.1781 43.1899 43.3768 43.7313 43.5014 43.8937C43.6259 44.0561 46.2246 44.695 48.2441 44.1969C50.2636 43.6988 50.2636 43.5093 50.3448 43.217C50.426 42.9246 50.5397 42.6377 49.6843 42.8217C48.8288 43.0004 47.654 43.3523 46.4737 43.217C45.2934 43.087 44.7845 42.9192 44.3568 43.1087Z" fill="url(#paint61_linear_708_144365)"/>
        <path style="mix-blend-mode:multiply" opacity="0.5" d="M44.4481 42.6322C45.1032 42.7459 49.4453 40.6885 49.2342 40.6019C49.0176 40.5153 47.2472 40.7481 46.0615 41.3707C44.8759 41.9933 44.237 42.5943 44.4481 42.6322Z" fill="url(#paint62_linear_708_144365)"/>
        <path style="mix-blend-mode:multiply" opacity="0.5" d="M40.7394 45.4368C40.5607 45.8212 40.0355 45.6479 39.8514 45.5613C39.6674 45.4747 38.525 44.5056 37.9403 43.217C37.3231 41.8635 37.4476 40.1364 37.6912 39.5463C37.9349 38.9561 38.4546 39.0915 38.4167 39.3026C38.3788 39.5138 38.5791 41.8851 39.3588 43.2657C40.1384 44.6409 40.7827 45.3393 40.7339 45.4422L40.7394 45.4368Z" fill="url(#paint63_linear_708_144365)"/>
        <path style="mix-blend-mode:multiply" opacity="0.5" d="M41.276 39.5086C41.1623 41.1112 41.3735 44.5113 41.4601 44.5058C41.5467 44.495 41.8661 42.3023 41.7579 41.2466C41.6496 40.1908 41.3139 39.043 41.276 39.5141V39.5086Z" fill="url(#paint64_linear_708_144365)"/>
        <path style="mix-blend-mode:multiply" opacity="0.5" d="M37.0523 49.5734C36.6896 49.8062 36.8737 50.0769 37.0523 50.4451C37.231 50.8132 38.3084 52.118 40.2142 52.4645C42.1199 52.811 42.3527 51.9718 42.2553 51.9231C42.1578 51.8744 40.6148 51.7499 39.3642 51.1705C37.9511 50.5209 37.2256 49.4597 37.0523 49.5734Z" fill="url(#paint65_linear_708_144365)"/>
        <path style="mix-blend-mode:multiply" opacity="0.5" d="M37.8429 48.9834C38.8229 49.3569 42.3745 49.6277 42.2771 49.4761C42.1796 49.3245 41.4162 48.9292 40.393 48.8426C39.3697 48.7614 37.6805 48.9184 37.8429 48.9834Z" fill="url(#paint66_linear_708_144365)"/>
        <path style="mix-blend-mode:multiply" opacity="0.5" d="M34.903 49.6708C34.5836 49.3785 34.2208 45.8918 34.432 45.9459C34.6431 45.9947 35.1466 47.1912 35.1466 47.9004C35.1466 48.6097 35.0275 49.7899 34.8976 49.6708H34.903Z" fill="url(#paint67_linear_708_144365)"/>
        <path style="mix-blend-mode:multiply" opacity="0.5" d="M32.6618 46.2979C32.2991 46.3304 31.9418 47.018 32.0934 47.7381C32.2504 48.4582 32.8892 49.6763 34.3456 50.4343C34.6272 50.5805 34.8383 49.79 34.6921 49.6709C34.5459 49.5518 33.9612 49.1512 33.3982 48.2524C32.7485 47.2183 32.7972 46.2871 32.6618 46.2979Z" fill="url(#paint68_linear_708_144365)"/>
        <g style="mix-blend-mode:soft-light" opacity="0.5">
            <path d="M40.1655 35.4369C41.0859 36.6443 40.9235 42.903 40.7394 43.5743C40.5553 44.2457 38.6387 41.7877 38.6874 39.622C38.7362 37.4564 39.7703 34.9226 40.1655 35.4369Z" fill="white"/>
        </g>
        <path d="M3.97215 22.0751C7.605 22.6815 10.1713 29.33 9.87892 31.5227C9.4837 34.4734 7.69704 36.5903 6.96614 36.6878C6.23524 36.7852 3.24666 36.0218 2.00142 33.488C-0.0180416 29.3787 2.19632 21.7774 3.97215 22.0697V22.0751Z" fill="url(#paint69_linear_708_144365)"/>
        <g style="mix-blend-mode:soft-light" opacity="0.5">
            <path d="M7.66515 34.7875C7.83299 35.1502 5.7648 34.8795 4.44918 33.7371C3.58292 32.9846 2.28354 31.1763 2.31603 27.9982C2.34851 24.8147 3.52878 22.3242 4.11892 22.3242C4.70906 22.3242 8.79128 24.0351 9.59798 30.5591C9.78748 32.0804 8.78045 34.4951 8.32026 34.5926C7.86006 34.69 8.71549 31.5769 6.28456 27.5705C6.28456 27.5705 5.54824 30.1963 7.65974 34.7875H7.66515Z" fill="white"/>
        </g>
        <path style="mix-blend-mode:multiply" opacity="0.5" d="M8.10909 34.6464C7.88169 34.706 6.91257 32.3996 6.52276 31.1273C5.9651 29.3244 6.16543 27.7759 6.28995 27.7976C6.41447 27.8192 7.5785 29.9795 7.80048 31.2247C8.02246 32.47 8.30399 34.5923 8.10909 34.641V34.6464Z" fill="url(#paint70_linear_708_144365)"/>
        <g style="mix-blend-mode:soft-light" opacity="0.5">
            <path d="M6.24578 34.3327C6.00756 35.1665 3.07312 33.0983 2.51547 30.1422C1.9903 27.354 4.67028 24.5711 4.67028 27.8088C4.67028 31.0464 6.53814 33.3203 6.24578 34.3382V34.3327Z" fill="white"/>
        </g>
        <g style="mix-blend-mode:soft-light" opacity="0.5">
            <path d="M8.89319 33.0496C8.63332 33.4719 7.67502 30.3804 7.16068 28.9674C5.88296 25.459 3.57655 20.7758 6.91163 24.1326C8.50879 25.7406 10.6419 30.2451 8.89319 33.0496Z" fill="white"/>
        </g>
        <path style="mix-blend-mode:multiply" opacity="0.5" d="M7.57809 35.3668C7.39401 35.8649 6.83094 36.5633 6.56565 36.5525C6.02966 36.5308 4.5462 36.1356 2.96528 34.6522C2.13151 33.8671 2.02864 32.8817 2.10444 32.6219C2.18024 32.362 2.57005 31.4795 2.7433 31.7015C2.91655 31.9235 3.60414 33.5477 5.15257 34.3165C6.70101 35.0907 7.68096 35.0799 7.57267 35.3668H7.57809Z" fill="url(#paint71_linear_708_144365)"/>
        <path d="M0.577631 39.0863C1.20025 38.2309 6.28409 38.534 7.73506 39.4599C8.07074 39.6764 8.46597 40.0067 8.87202 40.3911C8.00577 39.0321 6.96626 36.6878 6.96626 36.6878C7.45353 35.8324 7.72965 36.1627 7.72965 36.1627C8.03825 38.1442 9.70038 41.2628 12.3858 44.365C11.7577 43.1631 11.2109 41.4685 11.2109 39.7414C11.2055 36.3684 13.4415 34.5818 14.0966 34.6467C14.7571 34.7117 16.9932 38.0197 16.9932 40.8242C16.9932 43.6287 14.8438 45.6536 14.0046 46.0542C15.7154 47.673 17.6266 49.032 19.2238 50.0444C18.7257 49.1024 18.2384 47.4402 18.2059 46.6173C18.1626 45.4154 19.9817 42.914 20.7993 43.1144C21.3569 43.2551 22.7429 46.4224 22.4181 47.7218C22.0391 49.2594 20.7993 50.0769 20.0521 50.5479C21.6764 51.5279 22.8241 52.0693 22.8241 52.0693C23.2843 53.0546 22.234 52.7244 22.234 52.7244C22.234 52.7244 20.2795 51.7607 17.7944 49.947C17.3559 50.7807 15.84 52.4645 13.6364 52.6269C11.2596 52.8056 8.31979 51.1164 8.22233 50.5642C8.12488 50.0119 9.50006 48.0033 12.3533 47.7976C13.5011 47.7164 14.6543 47.9167 15.6072 48.2253C14.6164 47.3861 13.6148 46.4332 12.6565 45.3775C12.1421 44.809 11.6657 44.2351 11.2109 43.672C11.2109 44.2784 7.70258 44.9552 4.58406 43.8886C2.5646 43.1956 0.155332 39.6602 0.583045 39.0809L0.577631 39.0863Z" fill="url(#paint72_radial_708_144365)"/>
        <g style="mix-blend-mode:soft-light" opacity="0.5">
            <path d="M13.6691 45.2529C14.335 44.6844 16.1487 42.0532 15.8564 39.2C15.6344 37.0181 14.5786 34.9228 13.9614 34.9391C13.3496 34.9553 11.3789 36.6391 11.4276 39.2757C11.4764 41.9124 12.7541 44.4679 12.857 44.614C12.9544 44.7602 12.413 42.5946 12.6133 40.9704C12.8082 39.3461 13.6474 38.0197 13.6474 38.0197C13.6474 38.0197 13.4525 40.207 13.4038 42.2535C13.3551 44.3 13.328 45.5507 13.6745 45.2529H13.6691Z" fill="white"/>
        </g>
        <g style="mix-blend-mode:soft-light" opacity="0.5">
            <path d="M10.6423 43.1903C10.3987 42.4757 8.77443 40.2396 7.10147 39.3517C5.42852 38.4638 1.02686 38.6858 0.729086 39.1568C0.431311 39.6224 3.21416 42.1833 5.13074 42.7734C7.04733 43.3636 10.1713 43.0929 9.90056 42.9467C9.62986 42.8005 5.95369 41.9992 4.51354 40.5591C4.21576 40.2613 7.50212 40.6782 8.99099 41.7664C10.4799 42.8547 10.6369 43.1957 10.6369 43.1957L10.6423 43.1903Z" fill="white"/>
        </g>
        <g style="mix-blend-mode:soft-light" opacity="0.5">
            <path d="M17.1717 49.5461C16.7332 50.147 14.6163 51.847 12.1799 51.7821C10.3175 51.7333 8.4767 50.9645 8.44963 50.4448C8.42256 49.925 9.72736 48.1492 11.9634 48.0247C14.1994 47.9002 16.4462 48.826 16.5762 48.8964C16.7061 48.9722 14.8383 48.6473 13.4739 48.918C12.1096 49.1887 11.0376 49.9792 11.0376 49.9792C11.0376 49.9792 12.8784 49.676 14.6055 49.5027C16.3326 49.3349 17.3937 49.2266 17.1663 49.5406L17.1717 49.5461Z" fill="white"/>
        </g>
        <g style="mix-blend-mode:soft-light" opacity="0.5">
            <path d="M19.5378 50.104C19.1589 49.5788 18.3088 47.5431 18.3846 46.2654C18.4604 44.9876 20.3554 43.0927 20.7831 43.2281C21.2108 43.3634 21.8172 46.1138 21.449 47.3374C21.0809 48.5609 19.6624 49.8333 19.6732 49.6275C19.684 49.4164 20.6098 47.2724 20.22 45.7781C20.1388 45.4749 19.1155 47.2182 19.2455 48.5285C19.3808 49.8387 19.5433 50.1094 19.5433 50.1094L19.5378 50.104Z" fill="white"/>
        </g>
        <path style="mix-blend-mode:multiply" opacity="0.5" d="M10.0412 43.1087C10.2198 43.1899 11.0211 43.7313 10.8966 43.8937C10.7721 44.0561 8.17329 44.695 6.15384 44.1969C4.13438 43.6988 4.13438 43.5093 4.05317 43.217C3.97196 42.9246 3.85826 42.6377 4.71369 42.8217C5.56912 43.0004 6.74397 43.3523 7.92425 43.217C9.10452 43.087 9.61344 42.9192 10.0412 43.1087Z" fill="url(#paint73_linear_708_144365)"/>
        <path style="mix-blend-mode:multiply" opacity="0.5" d="M9.95464 42.6322C9.29954 42.7459 4.95743 40.6885 5.16858 40.6019C5.38515 40.5153 7.15556 40.7481 8.34124 41.3707C9.52693 41.9933 10.1658 42.5943 9.95464 42.6322Z" fill="url(#paint74_linear_708_144365)"/>
        <path style="mix-blend-mode:multiply" opacity="0.5" d="M13.6582 45.4368C13.8369 45.8212 14.362 45.6479 14.5461 45.5613C14.7302 45.4747 15.8726 44.5056 16.4573 43.217C17.0745 41.8635 16.95 40.1364 16.7063 39.5463C16.4627 38.9561 15.943 39.0915 15.9808 39.3026C16.0187 39.5138 15.8184 41.8851 15.0388 43.2657C14.2592 44.6409 13.6149 45.3393 13.6636 45.4422L13.6582 45.4368Z" fill="url(#paint75_linear_708_144365)"/>
        <path style="mix-blend-mode:multiply" opacity="0.5" d="M13.127 39.5086C13.2407 41.1112 13.0296 44.5113 12.943 44.5058C12.8563 44.495 12.5369 42.3023 12.6452 41.2466C12.7535 40.1908 13.0891 39.043 13.127 39.5141V39.5086Z" fill="url(#paint76_linear_708_144365)"/>
        <path style="mix-blend-mode:multiply" opacity="0.5" d="M17.3455 49.5734C17.7082 49.8062 17.5241 50.0769 17.3455 50.4451C17.1668 50.8132 16.0894 52.118 14.1836 52.4645C12.2779 52.811 12.0451 51.9718 12.1425 51.9231C12.24 51.8744 13.783 51.7499 15.0336 51.1705C16.4467 50.5209 17.1722 49.4597 17.3455 49.5734Z" fill="url(#paint77_linear_708_144365)"/>
        <path style="mix-blend-mode:multiply" opacity="0.5" d="M16.5601 48.9834C15.5802 49.3569 12.0285 49.6277 12.126 49.4761C12.2234 49.3245 12.9868 48.9292 14.0101 48.8426C15.0334 48.7614 16.7226 48.9184 16.5601 48.9834Z" fill="url(#paint78_linear_708_144365)"/>
        <path style="mix-blend-mode:multiply" opacity="0.5" d="M19.4995 49.6708C19.8189 49.3785 20.1817 45.8918 19.9705 45.9459C19.7594 45.9947 19.2559 47.1912 19.2559 47.9004C19.2559 48.6097 19.375 49.7899 19.5049 49.6708H19.4995Z" fill="url(#paint79_linear_708_144365)"/>
        <path style="mix-blend-mode:multiply" opacity="0.5" d="M21.7362 46.2979C22.0989 46.3304 22.4562 47.018 22.3046 47.7381C22.1476 48.4582 21.5088 49.6763 20.0524 50.4343C19.7708 50.5805 19.5597 49.79 19.7059 49.6709C19.8521 49.5518 20.4368 49.1512 20.9998 48.2524C21.6495 47.2183 21.6008 46.2871 21.7362 46.2979Z" fill="url(#paint80_linear_708_144365)"/>
        <g style="mix-blend-mode:soft-light" opacity="0.5">
            <path d="M14.2321 35.4369C13.3117 36.6443 13.4741 42.903 13.6582 43.5743C13.8423 44.2457 15.7589 41.7877 15.7102 39.622C15.6614 37.4564 14.6273 34.9226 14.2321 35.4369Z" fill="white"/>
        </g>
        <path style="mix-blend-mode:color-dodge" opacity="0.6" d="M21.8763 27.3376C28.1825 27.3376 33.2947 22.2255 33.2947 15.9193C33.2947 9.61313 28.1825 4.50098 21.8763 4.50098C15.5702 4.50098 10.458 9.61313 10.458 15.9193C10.458 22.2255 15.5702 27.3376 21.8763 27.3376Z" fill="url(#paint81_radial_708_144365)"/>
        <path style="mix-blend-mode:color-dodge" opacity="0.6" d="M27.0363 61.2464C33.2258 61.2464 38.2435 56.2288 38.2435 50.0392C38.2435 43.8497 33.2258 38.832 27.0363 38.832C20.8467 38.832 15.8291 43.8497 15.8291 50.0392C15.8291 56.2288 20.8467 61.2464 27.0363 61.2464Z" fill="url(#paint82_radial_708_144365)"/>
        <path style="mix-blend-mode:color-dodge" opacity="0.6" d="M29.7863 23.326C35.9758 23.326 40.9934 18.3083 40.9934 12.1188C40.9934 5.92924 35.9758 0.911621 29.7863 0.911621C23.5967 0.911621 18.5791 5.92924 18.5791 12.1188C18.5791 18.3083 23.5967 23.326 29.7863 23.326Z" fill="url(#paint83_radial_708_144365)"/>
    </g>
    <defs>
        <linearGradient id="paint0_linear_708_144365" x1="41.5244" y1="67.0882" x2="41.5244" y2="52.0479" gradientUnits="userSpaceOnUse">
            <stop stop-color="#705AB8"/>
            <stop offset="1" stop-color="#4B14CB"/>
        </linearGradient>
        <linearGradient id="paint1_linear_708_144365" x1="32.7782" y1="59.552" x2="33.9756" y2="55.2545" gradientUnits="userSpaceOnUse">
            <stop stop-color="#705AB8"/>
            <stop offset="1" stop-color="white"/>
        </linearGradient>
        <linearGradient id="paint2_linear_708_144365" x1="12.8782" y1="0.911758" x2="12.8782" y2="0.911758" gradientUnits="userSpaceOnUse">
            <stop stop-color="#705AB8"/>
            <stop offset="1" stop-color="#4B14CB"/>
        </linearGradient>
        <linearGradient id="paint3_linear_708_144365" x1="21.6424" y1="59.5183" x2="20.445" y2="55.2208" gradientUnits="userSpaceOnUse">
            <stop stop-color="#705AB8"/>
            <stop offset="1" stop-color="white"/>
        </linearGradient>
        <linearGradient id="paint4_linear_708_144365" x1="27.1991" y1="46.0924" x2="27.1991" y2="24.2357" gradientUnits="userSpaceOnUse">
            <stop stop-color="#D36AF0"/>
            <stop offset="0.5" stop-color="#6544CF"/>
            <stop offset="1" stop-color="#A140DE"/>
        </linearGradient>
        <linearGradient id="paint5_linear_708_144365" x1="26.966" y1="73.4284" x2="26.966" y2="-10.2356" gradientUnits="userSpaceOnUse">
            <stop stop-color="#655ED6"/>
            <stop offset="1" stop-color="#C88FF0"/>
        </linearGradient>
        <linearGradient id="paint6_linear_708_144365" x1="13.8584" y1="32.0917" x2="27.1554" y2="32.0917" gradientUnits="userSpaceOnUse">
            <stop stop-color="#655ED6"/>
            <stop offset="1" stop-color="#C88FF0"/>
        </linearGradient>
        <linearGradient id="paint7_linear_708_144365" x1="27.1553" y1="32.0917" x2="39.9813" y2="32.0917" gradientUnits="userSpaceOnUse">
            <stop stop-color="#655ED6"/>
            <stop offset="1" stop-color="#C88FF0"/>
        </linearGradient>
        <linearGradient id="paint8_linear_708_144365" x1="28.217" y1="33.7649" x2="19.6356" y2="47.246" gradientUnits="userSpaceOnUse">
            <stop stop-color="white"/>
            <stop offset="0.44" stop-color="#881DED"/>
            <stop offset="1" stop-color="#9B1EB4"/>
        </linearGradient>
        <linearGradient id="paint9_linear_708_144365" x1="32.5098" y1="38.3235" x2="27.5396" y2="38.3235" gradientUnits="userSpaceOnUse">
            <stop stop-color="white"/>
            <stop offset="0.44" stop-color="#881DED"/>
            <stop offset="1" stop-color="#9B1EB4"/>
        </linearGradient>
        <linearGradient id="paint10_linear_708_144365" x1="28.9853" y1="19.8668" x2="28.9853" y2="34.3333" gradientUnits="userSpaceOnUse">
            <stop stop-color="#E8ACE4"/>
            <stop offset="1"/>
        </linearGradient>
        <linearGradient id="paint11_linear_708_144365" x1="36.8303" y1="34.3712" x2="30.355" y2="26.9918" gradientUnits="userSpaceOnUse">
            <stop stop-color="#BFD7FF"/>
            <stop offset="1"/>
        </linearGradient>
        <linearGradient id="paint12_linear_708_144365" x1="24.5673" y1="30.982" x2="41.2806" y2="27.295" gradientUnits="userSpaceOnUse">
            <stop stop-color="#E8ACE4"/>
            <stop offset="1"/>
        </linearGradient>
        <linearGradient id="paint13_linear_708_144365" x1="20.5069" y1="19.8668" x2="20.5069" y2="34.3333" gradientUnits="userSpaceOnUse">
            <stop stop-color="#E8ACE4"/>
            <stop offset="1"/>
        </linearGradient>
        <linearGradient id="paint14_linear_708_144365" x1="20.5069" y1="38.751" x2="20.5069" y2="30.4296" gradientUnits="userSpaceOnUse">
            <stop stop-color="white"/>
            <stop offset="0.44" stop-color="#881DED"/>
            <stop offset="1" stop-color="#9B1EB4"/>
        </linearGradient>
        <linearGradient id="paint15_linear_708_144365" x1="33.5665" y1="39.8826" x2="33.5665" y2="30.0127" gradientUnits="userSpaceOnUse">
            <stop stop-color="white"/>
            <stop offset="0.44" stop-color="#881DED"/>
            <stop offset="1" stop-color="#9B1EB4"/>
        </linearGradient>
        <linearGradient id="paint16_linear_708_144365" x1="26.966" y1="52.9194" x2="26.966" y2="32.3621" gradientUnits="userSpaceOnUse">
            <stop stop-color="white"/>
            <stop offset="0.44" stop-color="#881DED"/>
            <stop offset="1" stop-color="#9B1EB4"/>
        </linearGradient>
        <linearGradient id="paint17_linear_708_144365" x1="25.9698" y1="40.3321" x2="25.9698" y2="44.4955" gradientUnits="userSpaceOnUse">
            <stop stop-color="white"/>
            <stop offset="0.44" stop-color="#881DED"/>
            <stop offset="1" stop-color="#9B1EB4"/>
        </linearGradient>
        <linearGradient id="paint18_linear_708_144365" x1="13.9072" y1="36.5854" x2="39.7379" y2="36.5854" gradientUnits="userSpaceOnUse">
            <stop stop-color="#881DED"/>
            <stop offset="1" stop-color="#9B1EB4"/>
        </linearGradient>
        <radialGradient id="paint19_radial_708_144365" cx="0" cy="0" r="1" gradientUnits="userSpaceOnUse" gradientTransform="translate(34.1181 30.2021) scale(4.4179)">
            <stop stop-color="#27A0D7"/>
            <stop offset="0.1" stop-color="#2495C9"/>
            <stop offset="0.3" stop-color="#1E7BA5"/>
            <stop offset="0.57" stop-color="#13506B"/>
            <stop offset="0.89" stop-color="#05151C"/>
            <stop offset="1"/>
        </radialGradient>
        <radialGradient id="paint20_radial_708_144365" cx="0" cy="0" r="1" gradientUnits="userSpaceOnUse" gradientTransform="translate(22.3402 39.8307) rotate(27.82) scale(3.79939 4.4179)">
            <stop stop-color="#27A0D7"/>
            <stop offset="0.1" stop-color="#2495C9"/>
            <stop offset="0.3" stop-color="#1E7BA5"/>
            <stop offset="0.57" stop-color="#13506B"/>
            <stop offset="0.89" stop-color="#05151C"/>
            <stop offset="1"/>
        </radialGradient>
        <radialGradient id="paint21_radial_708_144365" cx="0" cy="0" r="1" gradientUnits="userSpaceOnUse" gradientTransform="translate(16.1672 30.2927) rotate(27.82) scale(4.94805 3.79939)">
            <stop stop-color="#E8ACE4"/>
            <stop offset="0.1" stop-color="#DAA1D6"/>
            <stop offset="0.28" stop-color="#B687B3"/>
            <stop offset="0.53" stop-color="#7C5C7A"/>
            <stop offset="0.84" stop-color="#2D212C"/>
            <stop offset="1"/>
        </radialGradient>
        <linearGradient id="paint22_linear_708_144365" x1="27.0797" y1="36.6342" x2="27.0797" y2="32.617" gradientUnits="userSpaceOnUse">
            <stop stop-color="white"/>
            <stop offset="0.44" stop-color="#881DED"/>
            <stop offset="1" stop-color="#9B1EB4"/>
        </linearGradient>
        <linearGradient id="paint23_linear_708_144365" x1="27.07" y1="35.665" x2="27.1185" y2="29.2044" gradientUnits="userSpaceOnUse">
            <stop stop-color="#655ED6"/>
            <stop offset="1" stop-color="#C88FF0"/>
        </linearGradient>
        <linearGradient id="paint24_linear_708_144365" x1="23.9989" y1="31.998" x2="26.6271" y2="34.6605" gradientUnits="userSpaceOnUse">
            <stop stop-color="white"/>
            <stop offset="0.44" stop-color="#881DED"/>
            <stop offset="1" stop-color="#9B1EB4"/>
        </linearGradient>
        <linearGradient id="paint25_linear_708_144365" x1="27.2752" y1="30.668" x2="27.2752" y2="33.6944" gradientUnits="userSpaceOnUse">
            <stop stop-color="#655ED6"/>
            <stop offset="1" stop-color="#C88FF0"/>
        </linearGradient>
        <linearGradient id="paint26_linear_708_144365" x1="28.5165" y1="30.6685" x2="28.5165" y2="30.6631" gradientUnits="userSpaceOnUse">
            <stop stop-color="white"/>
            <stop offset="1" stop-color="#FFF7C4"/>
        </linearGradient>
        <linearGradient id="paint27_linear_708_144365" x1="26.4131" y1="31.423" x2="28.5033" y2="33.674" gradientUnits="userSpaceOnUse">
            <stop stop-color="#705AB5"/>
            <stop offset="1" stop-color="#662D87"/>
        </linearGradient>
        <linearGradient id="paint28_linear_708_144365" x1="28.292" y1="33.3176" x2="26.4353" y2="31.4609" gradientUnits="userSpaceOnUse">
            <stop stop-color="#DE0086"/>
            <stop offset="1" stop-color="#FF003B"/>
        </linearGradient>
        <linearGradient id="paint29_linear_708_144365" x1="6.30044" y1="29.9852" x2="6.30044" y2="18.0796" gradientUnits="userSpaceOnUse">
            <stop stop-color="#6544CF"/>
            <stop offset="0.49" stop-color="#993EC7"/>
            <stop offset="1" stop-color="#662D87"/>
        </linearGradient>
        <linearGradient id="paint30_linear_708_144365" x1="27.1772" y1="16.8614" x2="27.1772" y2="5.66504" gradientUnits="userSpaceOnUse">
            <stop stop-color="#6544CF"/>
            <stop offset="0.49" stop-color="#993EC7"/>
            <stop offset="1" stop-color="#662D87"/>
        </linearGradient>
        <linearGradient id="paint31_linear_708_144365" x1="8.40688" y1="50.1584" x2="8.40688" y2="47.1265" gradientUnits="userSpaceOnUse">
            <stop stop-color="#6544CF"/>
            <stop offset="0.49" stop-color="#993EC7"/>
            <stop offset="1" stop-color="#662D87"/>
        </linearGradient>
        <linearGradient id="paint32_linear_708_144365" x1="48.097" y1="29.9852" x2="48.097" y2="18.0796" gradientUnits="userSpaceOnUse">
            <stop stop-color="#6544CF"/>
            <stop offset="0.49" stop-color="#993EC7"/>
            <stop offset="1" stop-color="#662D87"/>
        </linearGradient>
        <linearGradient id="paint33_linear_708_144365" x1="45.9909" y1="50.1584" x2="45.9909" y2="47.1265" gradientUnits="userSpaceOnUse">
            <stop stop-color="#6544CF"/>
            <stop offset="0.49" stop-color="#993EC7"/>
            <stop offset="1" stop-color="#662D87"/>
        </linearGradient>
        <linearGradient id="paint34_linear_708_144365" x1="27.1932" y1="62.3126" x2="27.1932" y2="51.9663" gradientUnits="userSpaceOnUse">
            <stop stop-color="#6544CF"/>
            <stop offset="0.49" stop-color="#993EC7"/>
            <stop offset="1" stop-color="#662D87"/>
        </linearGradient>
        <linearGradient id="paint35_linear_708_144365" x1="27.1935" y1="62.329" x2="27.1935" y2="6.88869" gradientUnits="userSpaceOnUse">
            <stop stop-color="#655ED6"/>
            <stop offset="1" stop-color="#C88FF0"/>
        </linearGradient>
        <linearGradient id="paint36_linear_708_144365" x1="27.1937" y1="50.5209" x2="27.1937" y2="15.9194" gradientUnits="userSpaceOnUse">
            <stop stop-color="#6544CF"/>
            <stop offset="0.49" stop-color="#993EC7"/>
            <stop offset="1" stop-color="#662D87"/>
        </linearGradient>
        <linearGradient id="paint37_linear_708_144365" x1="28.4226" y1="47.6191" x2="35.7803" y2="47.6191" gradientUnits="userSpaceOnUse">
            <stop stop-color="#8980EB"/>
            <stop offset="1" stop-color="#705AB8"/>
        </linearGradient>
        <linearGradient id="paint38_linear_708_144365" x1="12.0938" y1="33.1848" x2="13.5231" y2="33.1848" gradientUnits="userSpaceOnUse">
            <stop stop-color="#8980EB"/>
            <stop offset="1" stop-color="#705AB8"/>
        </linearGradient>
        <linearGradient id="paint39_linear_708_144365" x1="40.8798" y1="33.1906" x2="42.2875" y2="33.1906" gradientUnits="userSpaceOnUse">
            <stop stop-color="#8980EB"/>
            <stop offset="1" stop-color="#705AB8"/>
        </linearGradient>
        <linearGradient id="paint40_linear_708_144365" x1="15.6016" y1="19.6227" x2="27.3285" y2="19.6227" gradientUnits="userSpaceOnUse">
            <stop stop-color="#8980EB"/>
            <stop offset="1" stop-color="#705AB8"/>
        </linearGradient>
        <linearGradient id="paint41_linear_708_144365" x1="10.0846" y1="49.1459" x2="10.0846" y2="14.9504" gradientUnits="userSpaceOnUse">
            <stop stop-color="#705AB8"/>
            <stop offset="1" stop-color="white"/>
        </linearGradient>
        <linearGradient id="paint42_linear_708_144365" x1="44.2589" y1="49.4271" x2="44.2589" y2="15.1558" gradientUnits="userSpaceOnUse">
            <stop stop-color="#705AB8"/>
            <stop offset="1" stop-color="white"/>
        </linearGradient>
        <linearGradient id="paint43_linear_708_144365" x1="17.5233" y1="20.7501" x2="17.9241" y2="21.5303" gradientUnits="userSpaceOnUse">
            <stop stop-color="#8980EB"/>
            <stop offset="1" stop-color="#705AB8"/>
        </linearGradient>
        <linearGradient id="paint44_linear_708_144365" x1="10.5397" y1="23.4505" x2="2.02331" y2="23.4505" gradientUnits="userSpaceOnUse">
            <stop stop-color="#705AB8"/>
            <stop offset="1" stop-color="white"/>
        </linearGradient>
        <linearGradient id="paint45_linear_708_144365" x1="42.71" y1="23.4828" x2="52.0872" y2="23.4828" gradientUnits="userSpaceOnUse">
            <stop stop-color="#8980EB"/>
            <stop offset="1" stop-color="#705AB8"/>
        </linearGradient>
        <linearGradient id="paint46_linear_708_144365" x1="12.9594" y1="46.5686" x2="2.57513" y2="46.5686" gradientUnits="userSpaceOnUse">
            <stop stop-color="#705AB8"/>
            <stop offset="1" stop-color="white"/>
        </linearGradient>
        <linearGradient id="paint47_linear_708_144365" x1="41.3676" y1="46.4605" x2="51.297" y2="46.4605" gradientUnits="userSpaceOnUse">
            <stop stop-color="#8980EB"/>
            <stop offset="1" stop-color="#705AB8"/>
        </linearGradient>
        <linearGradient id="paint48_linear_708_144365" x1="32.9218" y1="56.6008" x2="27.3291" y2="56.6008" gradientUnits="userSpaceOnUse">
            <stop stop-color="#705AB8"/>
            <stop offset="1" stop-color="white"/>
        </linearGradient>
        <linearGradient id="paint49_linear_708_144365" x1="32.7812" y1="10.1207" x2="27.0368" y2="10.1207" gradientUnits="userSpaceOnUse">
            <stop stop-color="#705AB8"/>
            <stop offset="1" stop-color="white"/>
        </linearGradient>
        <linearGradient id="paint50_linear_708_144365" x1="3.1495" y1="39.1511" x2="23.8909" y2="39.1511" gradientUnits="userSpaceOnUse">
            <stop offset="0.19" stop-color="#881DED"/>
            <stop offset="1" stop-color="#262262"/>
        </linearGradient>
        <linearGradient id="paint51_linear_708_144365" x1="30.415" y1="39.1512" x2="51.2647" y2="39.1512" gradientUnits="userSpaceOnUse">
            <stop offset="0.19" stop-color="#881DED"/>
            <stop offset="1" stop-color="#262262"/>
        </linearGradient>
        <linearGradient id="paint52_linear_708_144365" x1="27.1769" y1="28.4149" x2="27.1769" y2="15.8921" gradientUnits="userSpaceOnUse">
            <stop stop-color="#881DED"/>
            <stop offset="1" stop-color="#262262"/>
        </linearGradient>
        <linearGradient id="paint53_linear_708_144365" x1="25.5732" y1="9.24445" x2="29.3748" y2="13.3446" gradientUnits="userSpaceOnUse">
            <stop stop-color="#705AB5"/>
            <stop offset="1" stop-color="#662D87"/>
        </linearGradient>
        <linearGradient id="paint54_linear_708_144365" x1="28.9884" y1="12.6901" x2="25.6118" y2="9.31348" gradientUnits="userSpaceOnUse">
            <stop stop-color="#DE0086"/>
            <stop offset="1" stop-color="#FF003B"/>
        </linearGradient>
        <linearGradient id="paint55_linear_708_144365" x1="25.5732" y1="54.6792" x2="29.3748" y2="58.7794" gradientUnits="userSpaceOnUse">
            <stop stop-color="#705AB5"/>
            <stop offset="1" stop-color="#662D87"/>
        </linearGradient>
        <linearGradient id="paint56_linear_708_144365" x1="28.9884" y1="58.1248" x2="25.6118" y2="54.7482" gradientUnits="userSpaceOnUse">
            <stop stop-color="#DE0086"/>
            <stop offset="1" stop-color="#FF003B"/>
        </linearGradient>
        <linearGradient id="paint57_linear_708_144365" x1="48.8446" y1="36.6986" x2="48.8446" y2="22.0697" gradientUnits="userSpaceOnUse">
            <stop stop-color="#655ED6"/>
            <stop offset="1" stop-color="#C88FF0"/>
        </linearGradient>
        <linearGradient id="paint58_linear_708_144365" x1="46.2245" y1="31.2247" x2="48.2548" y2="31.2247" gradientUnits="userSpaceOnUse">
            <stop stop-color="#8980EB"/>
            <stop offset="1" stop-color="#705AB8"/>
        </linearGradient>
        <linearGradient id="paint59_linear_708_144365" x1="46.8142" y1="34.1053" x2="52.3149" y2="34.1053" gradientUnits="userSpaceOnUse">
            <stop stop-color="#8980EB"/>
            <stop offset="1" stop-color="#705AB8"/>
        </linearGradient>
        <radialGradient id="paint60_radial_708_144365" cx="0" cy="0" r="1" gradientUnits="userSpaceOnUse" gradientTransform="translate(42.6671 43.7153) scale(10.1947)">
            <stop stop-color="#655ED6"/>
            <stop offset="1" stop-color="#C88FF0"/>
        </radialGradient>
        <linearGradient id="paint61_linear_708_144365" x1="43.4905" y1="43.5743" x2="50.3989" y2="43.5743" gradientUnits="userSpaceOnUse">
            <stop stop-color="#8980EB"/>
            <stop offset="1" stop-color="#705AB8"/>
        </linearGradient>
        <linearGradient id="paint62_linear_708_144365" x1="44.4048" y1="41.6144" x2="49.2396" y2="41.6144" gradientUnits="userSpaceOnUse">
            <stop stop-color="#8980EB"/>
            <stop offset="1" stop-color="#705AB8"/>
        </linearGradient>
        <linearGradient id="paint63_linear_708_144365" x1="39.1205" y1="45.6804" x2="39.1205" y2="39.124" gradientUnits="userSpaceOnUse">
            <stop stop-color="#705AB8"/>
            <stop offset="1" stop-color="white"/>
        </linearGradient>
        <linearGradient id="paint64_linear_708_144365" x1="41.5088" y1="44.5058" x2="41.5088" y2="39.4004" gradientUnits="userSpaceOnUse">
            <stop stop-color="#705AB8"/>
            <stop offset="1" stop-color="white"/>
        </linearGradient>
        <linearGradient id="paint65_linear_708_144365" x1="36.8412" y1="51.0568" x2="42.2769" y2="51.0568" gradientUnits="userSpaceOnUse">
            <stop stop-color="#8980EB"/>
            <stop offset="1" stop-color="#705AB8"/>
        </linearGradient>
        <linearGradient id="paint66_linear_708_144365" x1="37.8321" y1="49.1675" x2="42.2771" y2="49.1675" gradientUnits="userSpaceOnUse">
            <stop stop-color="#8980EB"/>
            <stop offset="1" stop-color="#705AB8"/>
        </linearGradient>
        <linearGradient id="paint67_linear_708_144365" x1="34.7568" y1="49.6817" x2="34.7568" y2="45.9405" gradientUnits="userSpaceOnUse">
            <stop stop-color="#705AB8"/>
            <stop offset="1" stop-color="white"/>
        </linearGradient>
        <linearGradient id="paint68_linear_708_144365" x1="33.3982" y1="50.4506" x2="33.3982" y2="46.2979" gradientUnits="userSpaceOnUse">
            <stop stop-color="#705AB8"/>
            <stop offset="1" stop-color="white"/>
        </linearGradient>
        <linearGradient id="paint69_linear_708_144365" x1="5.55306" y1="36.6986" x2="5.55306" y2="22.0697" gradientUnits="userSpaceOnUse">
            <stop stop-color="#655ED6"/>
            <stop offset="1" stop-color="#C88FF0"/>
        </linearGradient>
        <linearGradient id="paint70_linear_708_144365" x1="8.17405" y1="31.2247" x2="6.14918" y2="31.2247" gradientUnits="userSpaceOnUse">
            <stop stop-color="#8980EB"/>
            <stop offset="1" stop-color="#705AB8"/>
        </linearGradient>
        <linearGradient id="paint71_linear_708_144365" x1="7.5835" y1="34.1053" x2="2.08278" y2="34.1053" gradientUnits="userSpaceOnUse">
            <stop stop-color="#8980EB"/>
            <stop offset="1" stop-color="#705AB8"/>
        </linearGradient>
        <radialGradient id="paint72_radial_708_144365" cx="0" cy="0" r="1" gradientUnits="userSpaceOnUse" gradientTransform="translate(11.7307 1.18222) rotate(180) scale(10.1947 10.1947)">
            <stop stop-color="#655ED6"/>
            <stop offset="1" stop-color="#C88FF0"/>
        </radialGradient>
        <linearGradient id="paint73_linear_708_144365" x1="10.9074" y1="43.5743" x2="3.99903" y2="43.5743" gradientUnits="userSpaceOnUse">
            <stop stop-color="#8980EB"/>
            <stop offset="1" stop-color="#705AB8"/>
        </linearGradient>
        <linearGradient id="paint74_linear_708_144365" x1="9.99254" y1="41.6144" x2="5.15775" y2="41.6144" gradientUnits="userSpaceOnUse">
            <stop stop-color="#8980EB"/>
            <stop offset="1" stop-color="#705AB8"/>
        </linearGradient>
        <linearGradient id="paint75_linear_708_144365" x1="15.2824" y1="45.6804" x2="15.2824" y2="39.124" gradientUnits="userSpaceOnUse">
            <stop stop-color="#705AB8"/>
            <stop offset="1" stop-color="white"/>
        </linearGradient>
        <linearGradient id="paint76_linear_708_144365" x1="12.8942" y1="44.5058" x2="12.8942" y2="39.4004" gradientUnits="userSpaceOnUse">
            <stop stop-color="#705AB8"/>
            <stop offset="1" stop-color="white"/>
        </linearGradient>
        <linearGradient id="paint77_linear_708_144365" x1="17.5566" y1="51.0568" x2="12.1263" y2="51.0568" gradientUnits="userSpaceOnUse">
            <stop stop-color="#8980EB"/>
            <stop offset="1" stop-color="#705AB8"/>
        </linearGradient>
        <linearGradient id="paint78_linear_708_144365" x1="16.571" y1="49.1675" x2="12.1206" y2="49.1675" gradientUnits="userSpaceOnUse">
            <stop stop-color="#8980EB"/>
            <stop offset="1" stop-color="#705AB8"/>
        </linearGradient>
        <linearGradient id="paint79_linear_708_144365" x1="19.6403" y1="49.6817" x2="19.6403" y2="45.9405" gradientUnits="userSpaceOnUse">
            <stop stop-color="#705AB8"/>
            <stop offset="1" stop-color="white"/>
        </linearGradient>
        <linearGradient id="paint80_linear_708_144365" x1="20.9998" y1="50.4506" x2="20.9998" y2="46.2979" gradientUnits="userSpaceOnUse">
            <stop stop-color="#705AB8"/>
            <stop offset="1" stop-color="white"/>
        </linearGradient>
        <radialGradient id="paint81_radial_708_144365" cx="0" cy="0" r="1" gradientUnits="userSpaceOnUse" gradientTransform="translate(21.8763 15.9193) scale(11.4183)">
            <stop stop-color="#27A0D7"/>
            <stop offset="0.1" stop-color="#2495C9"/>
            <stop offset="0.3" stop-color="#1E7BA5"/>
            <stop offset="0.57" stop-color="#13506B"/>
            <stop offset="0.89" stop-color="#05151C"/>
            <stop offset="1"/>
        </radialGradient>
        <radialGradient id="paint82_radial_708_144365" cx="0" cy="0" r="1" gradientUnits="userSpaceOnUse" gradientTransform="translate(27.0363 50.0392) scale(11.2072)">
            <stop stop-color="#D01C5C"/>
            <stop offset="0.1" stop-color="#C61A57"/>
            <stop offset="0.26" stop-color="#AC174C"/>
            <stop offset="0.47" stop-color="#83113A"/>
            <stop offset="0.72" stop-color="#490920"/>
            <stop offset="1"/>
        </radialGradient>
        <radialGradient id="paint83_radial_708_144365" cx="0" cy="0" r="1" gradientUnits="userSpaceOnUse" gradientTransform="translate(29.7863 12.1188) scale(11.2072 11.2072)">
            <stop stop-color="#D01C5C"/>
            <stop offset="0.1" stop-color="#C61A57"/>
            <stop offset="0.26" stop-color="#AC174C"/>
            <stop offset="0.47" stop-color="#83113A"/>
            <stop offset="0.72" stop-color="#490920"/>
            <stop offset="1"/>
        </radialGradient>
        <clipPath id="clip0_708_144365">
            <rect width="53.3396" height="66.1765" fill="white" transform="translate(0.529297 0.911621)"/>
        </clipPath>
    </defs>
</svg>