<svg width="583" height="183" viewBox="0 0 583 183" fill="none" xmlns="http://www.w3.org/2000/svg">
    <rect x="1" y="33" width="0.5" height="150" fill="#303046"/>
    <rect x="53.7727" y="33" width="0.5" height="150" fill="#303046"/>
    <rect x="106.545" y="33" width="0.5" height="150" fill="#303046"/>
    <rect x="159.318" y="33" width="0.5" height="150" fill="#303046"/>
    <rect x="212.091" y="33" width="0.5" height="150" fill="#303046"/>
    <rect x="264.864" y="33" width="0.5" height="150" fill="#F3F0FE"/>
    <rect x="317.636" y="33" width="0.5" height="150" fill="#303046"/>
    <rect x="370.409" y="33" width="0.5" height="150" fill="#303046"/>
    <rect x="423.182" y="33" width="0.5" height="150" fill="#303046"/>
    <rect x="475.955" y="33" width="0.5" height="150" fill="#303046"/>
    <rect x="528.727" y="33" width="0.5" height="150" fill="#303046"/>
    <rect x="581.5" y="33" width="0.5" height="150" fill="#303046"/>
    <rect x="258" width="41" height="178" rx="10" fill="url(#paint0_linear_551_56)"/>
    <path d="M1 140C11.2529 137.835 36.3157 131.807 54.5431 125.012C77.3275 116.519 102.39 105.528 120.048 102.03C137.706 98.5331 157.642 96.0351 180.996 97.0343C204.35 98.0335 269.855 106.027 303.462 107.026C337.069 108.025 354.726 100.531 366.119 94.5363C377.511 88.541 402.574 70.0558 429.915 64.0606C457.256 58.0654 476.053 61.063 504.533 51.0709C533.014 41.0789 548.963 33.0853 582 34.0845"
          stroke="#F49587"/>
    <path d="M54.5431 125.03C36.3157 131.826 11.2529 137.856 1 140.021V176H582V34.0845C548.963 33.0851 533.014 41.0804 504.533 51.0744C476.053 61.0684 457.256 58.0702 429.915 64.0667C402.574 70.0631 377.511 88.5521 366.119 94.5485C354.726 100.545 337.069 108.04 303.462 107.041C269.855 106.042 204.35 98.0464 180.996 97.047C157.642 96.0476 137.706 98.5462 120.048 102.044C102.39 105.542 77.3275 116.535 54.5431 125.03Z"
          fill="url(#paint1_linear_551_56)"/>
    <circle cx="278.5" cy="105.5" r="4" fill="#F49587" stroke="white" stroke-width="3"/>
    <path d="M322.055 34V26.018H319.364V24.9H326.111V26.018H323.433V34H322.055ZM326.663 34V27.552H327.898L328.015 28.774C328.24 28.3493 328.552 28.0157 328.951 27.773C329.358 27.5217 329.848 27.396 330.42 27.396V28.839H330.043C329.662 28.839 329.319 28.904 329.016 29.034C328.721 29.1553 328.483 29.3677 328.301 29.671C328.128 29.9657 328.041 30.3773 328.041 30.906V34H326.663ZM333.785 34.156C333.239 34.156 332.789 34.065 332.433 33.883C332.078 33.701 331.814 33.4627 331.64 33.168C331.467 32.8647 331.38 32.5353 331.38 32.18C331.38 31.556 331.623 31.062 332.108 30.698C332.594 30.334 333.287 30.152 334.188 30.152H335.878V30.035C335.878 29.5323 335.74 29.1553 335.462 28.904C335.194 28.6527 334.843 28.527 334.409 28.527C334.028 28.527 333.694 28.6223 333.408 28.813C333.131 28.995 332.962 29.268 332.901 29.632H331.523C331.567 29.164 331.723 28.7653 331.991 28.436C332.269 28.098 332.615 27.8423 333.031 27.669C333.456 27.487 333.92 27.396 334.422 27.396C335.324 27.396 336.021 27.6343 336.515 28.111C337.009 28.579 337.256 29.2203 337.256 30.035V34H336.06L335.943 32.895C335.761 33.2503 335.497 33.5493 335.15 33.792C334.804 34.0347 334.349 34.156 333.785 34.156ZM334.058 33.038C334.431 33.038 334.743 32.9513 334.994 32.778C335.254 32.596 335.454 32.3577 335.592 32.063C335.74 31.7683 335.831 31.4433 335.865 31.088H334.331C333.785 31.088 333.395 31.1833 333.161 31.374C332.936 31.5647 332.823 31.803 332.823 32.089C332.823 32.3837 332.932 32.6177 333.148 32.791C333.374 32.9557 333.677 33.038 334.058 33.038ZM340.454 34L338.036 27.552H339.479L341.273 32.687L343.067 27.552H344.497L342.092 34H340.454ZM348.316 34.156C347.683 34.156 347.12 34.0173 346.626 33.74C346.14 33.454 345.759 33.0597 345.482 32.557C345.204 32.0543 345.066 31.4693 345.066 30.802C345.066 30.126 345.2 29.5323 345.469 29.021C345.746 28.5097 346.127 28.111 346.613 27.825C347.107 27.539 347.679 27.396 348.329 27.396C348.961 27.396 349.512 27.539 349.98 27.825C350.448 28.1023 350.812 28.475 351.072 28.943C351.332 29.411 351.462 29.9267 351.462 30.49C351.462 30.5767 351.457 30.672 351.449 30.776C351.449 30.8713 351.444 30.9797 351.436 31.101H346.418C346.461 31.725 346.665 32.2017 347.029 32.531C347.401 32.8517 347.83 33.012 348.316 33.012C348.706 33.012 349.031 32.9253 349.291 32.752C349.559 32.57 349.759 32.3273 349.889 32.024H351.267C351.093 32.6307 350.747 33.1377 350.227 33.545C349.715 33.9523 349.078 34.156 348.316 34.156ZM348.316 28.527C347.856 28.527 347.449 28.6657 347.094 28.943C346.738 29.2117 346.522 29.619 346.444 30.165H350.084C350.058 29.6623 349.88 29.2637 349.551 28.969C349.221 28.6743 348.81 28.527 348.316 28.527ZM352.892 34V24.64H354.27V34H352.892ZM359.031 34.156C358.398 34.156 357.835 34.0173 357.341 33.74C356.855 33.454 356.474 33.0597 356.197 32.557C355.919 32.0543 355.781 31.4693 355.781 30.802C355.781 30.126 355.915 29.5323 356.184 29.021C356.461 28.5097 356.842 28.111 357.328 27.825C357.822 27.539 358.394 27.396 359.044 27.396C359.676 27.396 360.227 27.539 360.695 27.825C361.163 28.1023 361.527 28.475 361.787 28.943C362.047 29.411 362.177 29.9267 362.177 30.49C362.177 30.5767 362.172 30.672 362.164 30.776C362.164 30.8713 362.159 30.9797 362.151 31.101H357.133C357.176 31.725 357.38 32.2017 357.744 32.531C358.116 32.8517 358.545 33.012 359.031 33.012C359.421 33.012 359.746 32.9253 360.006 32.752C360.274 32.57 360.474 32.3273 360.604 32.024H361.982C361.808 32.6307 361.462 33.1377 360.942 33.545C360.43 33.9523 359.793 34.156 359.031 34.156ZM359.031 28.527C358.571 28.527 358.164 28.6657 357.809 28.943C357.453 29.2117 357.237 29.619 357.159 30.165H360.799C360.773 29.6623 360.595 29.2637 360.266 28.969C359.936 28.6743 359.525 28.527 359.031 28.527ZM366.544 34.156C365.92 34.156 365.37 34.0087 364.893 33.714C364.417 33.4193 364.044 33.0163 363.775 32.505C363.507 31.9937 363.372 31.413 363.372 30.763C363.372 30.113 363.507 29.5367 363.775 29.034C364.044 28.5227 364.417 28.124 364.893 27.838C365.379 27.5433 365.933 27.396 366.557 27.396C367.069 27.396 367.515 27.4957 367.896 27.695C368.286 27.8943 368.59 28.176 368.806 28.54V24.64H370.184V34H368.949L368.806 32.999C368.598 33.3023 368.312 33.571 367.948 33.805C367.584 34.039 367.116 34.156 366.544 34.156ZM366.791 32.96C367.381 32.96 367.862 32.7563 368.234 32.349C368.616 31.9417 368.806 31.4173 368.806 30.776C368.806 30.126 368.616 29.6017 368.234 29.203C367.862 28.7957 367.381 28.592 366.791 28.592C366.202 28.592 365.717 28.7957 365.335 29.203C364.954 29.6017 364.763 30.126 364.763 30.776C364.763 31.2007 364.85 31.5777 365.023 31.907C365.197 32.2363 365.435 32.4963 365.738 32.687C366.05 32.869 366.401 32.96 366.791 32.96ZM375.197 34V24.64H376.575V34H375.197ZM380.504 34.156C379.958 34.156 379.508 34.065 379.152 33.883C378.797 33.701 378.533 33.4627 378.359 33.168C378.186 32.8647 378.099 32.5353 378.099 32.18C378.099 31.556 378.342 31.062 378.827 30.698C379.313 30.334 380.006 30.152 380.907 30.152H382.597V30.035C382.597 29.5323 382.459 29.1553 382.181 28.904C381.913 28.6527 381.562 28.527 381.128 28.527C380.747 28.527 380.413 28.6223 380.127 28.813C379.85 28.995 379.681 29.268 379.62 29.632H378.242C378.286 29.164 378.442 28.7653 378.71 28.436C378.988 28.098 379.334 27.8423 379.75 27.669C380.175 27.487 380.639 27.396 381.141 27.396C382.043 27.396 382.74 27.6343 383.234 28.111C383.728 28.579 383.975 29.2203 383.975 30.035V34H382.779L382.662 32.895C382.48 33.2503 382.216 33.5493 381.869 33.792C381.523 34.0347 381.068 34.156 380.504 34.156ZM380.777 33.038C381.15 33.038 381.462 32.9513 381.713 32.778C381.973 32.596 382.173 32.3577 382.311 32.063C382.459 31.7683 382.55 31.4433 382.584 31.088H381.05C380.504 31.088 380.114 31.1833 379.88 31.374C379.655 31.5647 379.542 31.803 379.542 32.089C379.542 32.3837 379.651 32.6177 379.867 32.791C380.093 32.9557 380.396 33.038 380.777 33.038ZM388.156 34.156C387.341 34.156 386.67 33.9567 386.141 33.558C385.612 33.1593 385.309 32.6307 385.231 31.972H386.622C386.691 32.2667 386.856 32.5223 387.116 32.739C387.376 32.947 387.718 33.051 388.143 33.051C388.559 33.051 388.862 32.9643 389.053 32.791C389.244 32.6177 389.339 32.4183 389.339 32.193C389.339 31.8637 389.205 31.6427 388.936 31.53C388.676 31.4087 388.312 31.3003 387.844 31.205C387.48 31.127 387.116 31.023 386.752 30.893C386.397 30.763 386.098 30.581 385.855 30.347C385.621 30.1043 385.504 29.7793 385.504 29.372C385.504 28.8087 385.721 28.3407 386.154 27.968C386.587 27.5867 387.194 27.396 387.974 27.396C388.693 27.396 389.274 27.5693 389.716 27.916C390.167 28.2627 390.431 28.7523 390.509 29.385H389.183C389.14 29.1077 389.01 28.891 388.793 28.735C388.585 28.579 388.303 28.501 387.948 28.501C387.601 28.501 387.333 28.5747 387.142 28.722C386.951 28.8607 386.856 29.0427 386.856 29.268C386.856 29.4933 386.986 29.671 387.246 29.801C387.515 29.931 387.866 30.048 388.299 30.152C388.732 30.2473 389.131 30.36 389.495 30.49C389.868 30.6113 390.167 30.7933 390.392 31.036C390.617 31.2787 390.73 31.634 390.73 32.102C390.739 32.6913 390.509 33.181 390.041 33.571C389.582 33.961 388.953 34.156 388.156 34.156ZM394.697 34C394.064 34 393.562 33.8483 393.189 33.545C392.816 33.233 392.63 32.6827 392.63 31.894V28.709H391.525V27.552H392.63L392.799 25.914H394.008V27.552H395.828V28.709H394.008V31.894C394.008 32.2493 394.082 32.4963 394.229 32.635C394.385 32.765 394.649 32.83 395.022 32.83H395.763V34H394.697ZM400.524 34V27.552H401.746L401.863 28.462C402.071 28.1327 402.344 27.8727 402.682 27.682C403.029 27.4913 403.428 27.396 403.878 27.396C404.901 27.396 405.612 27.799 406.01 28.605C406.244 28.2323 406.556 27.9377 406.946 27.721C407.345 27.5043 407.774 27.396 408.233 27.396C409.039 27.396 409.672 27.6387 410.131 28.124C410.591 28.6093 410.82 29.333 410.82 30.295V34H409.442V30.438C409.442 29.19 408.966 28.566 408.012 28.566C407.527 28.566 407.128 28.748 406.816 29.112C406.513 29.476 406.361 29.996 406.361 30.672V34H404.983V30.438C404.983 29.19 404.502 28.566 403.54 28.566C403.064 28.566 402.669 28.748 402.357 29.112C402.054 29.476 401.902 29.996 401.902 30.672V34H400.524ZM415.449 34.156C414.833 34.156 414.279 34.0173 413.785 33.74C413.299 33.454 412.914 33.0597 412.628 32.557C412.342 32.0457 412.199 31.452 412.199 30.776C412.199 30.1 412.342 29.5107 412.628 29.008C412.922 28.4967 413.317 28.1023 413.811 27.825C414.305 27.539 414.855 27.396 415.462 27.396C416.077 27.396 416.627 27.539 417.113 27.825C417.607 28.1023 417.997 28.4967 418.283 29.008C418.577 29.5107 418.725 30.1 418.725 30.776C418.725 31.452 418.577 32.0457 418.283 32.557C417.997 33.0597 417.607 33.454 417.113 33.74C416.619 34.0173 416.064 34.156 415.449 34.156ZM415.449 32.973C415.778 32.973 416.081 32.8907 416.359 32.726C416.645 32.5613 416.874 32.3187 417.048 31.998C417.221 31.6687 417.308 31.2613 417.308 30.776C417.308 30.2907 417.221 29.8877 417.048 29.567C416.883 29.2377 416.658 28.9907 416.372 28.826C416.094 28.6613 415.791 28.579 415.462 28.579C415.132 28.579 414.825 28.6613 414.539 28.826C414.261 28.9907 414.036 29.2377 413.863 29.567C413.689 29.8877 413.603 30.2907 413.603 30.776C413.603 31.2613 413.689 31.6687 413.863 31.998C414.036 32.3187 414.261 32.5613 414.539 32.726C414.816 32.8907 415.119 32.973 415.449 32.973ZM420.215 34V27.552H421.437L421.541 28.683C421.74 28.2843 422.03 27.9723 422.412 27.747C422.802 27.513 423.248 27.396 423.751 27.396C424.531 27.396 425.142 27.6387 425.584 28.124C426.034 28.6093 426.26 29.333 426.26 30.295V34H424.895V30.438C424.895 29.19 424.383 28.566 423.361 28.566C422.849 28.566 422.425 28.748 422.087 29.112C421.757 29.476 421.593 29.996 421.593 30.672V34H420.215ZM430.587 34C429.954 34 429.451 33.8483 429.079 33.545C428.706 33.233 428.52 32.6827 428.52 31.894V28.709H427.415V27.552H428.52L428.689 25.914H429.898V27.552H431.718V28.709H429.898V31.894C429.898 32.2493 429.971 32.4963 430.119 32.635C430.275 32.765 430.539 32.83 430.912 32.83H431.653V34H430.587ZM433.139 34V24.64H434.517V28.592C434.733 28.2193 435.032 27.929 435.414 27.721C435.804 27.5043 436.233 27.396 436.701 27.396C437.472 27.396 438.079 27.6387 438.521 28.124C438.963 28.6093 439.184 29.333 439.184 30.295V34H437.819V30.438C437.819 29.19 437.32 28.566 436.324 28.566C435.804 28.566 435.37 28.748 435.024 29.112C434.686 29.476 434.517 29.996 434.517 30.672V34H433.139Z"
          fill="#E0E4E7"/>
    <path d="M324.742 62.216C323.818 62.216 323.02 62.054 322.348 61.73C321.688 61.406 321.166 60.962 320.782 60.398C320.41 59.822 320.194 59.174 320.134 58.454H322.384C322.492 58.97 322.756 59.402 323.176 59.75C323.596 60.086 324.118 60.254 324.742 60.254C325.414 60.254 325.96 60.008 326.38 59.516C326.812 59.024 327.028 58.412 327.028 57.68C327.028 56.924 326.812 56.324 326.38 55.88C325.96 55.436 325.426 55.214 324.778 55.214C324.238 55.214 323.77 55.346 323.374 55.61C322.978 55.874 322.696 56.204 322.528 56.6H320.314L321.394 49.4H328.378V51.416H323.122L322.546 54.332C322.81 54.044 323.17 53.81 323.626 53.63C324.082 53.438 324.592 53.342 325.156 53.342C326.056 53.342 326.806 53.546 327.406 53.954C328.006 54.35 328.462 54.878 328.774 55.538C329.086 56.186 329.242 56.894 329.242 57.662C329.242 58.538 329.05 59.318 328.666 60.002C328.294 60.686 327.766 61.226 327.082 61.622C326.41 62.018 325.63 62.216 324.742 62.216ZM336.552 62.216C335.388 62.216 334.392 61.946 333.564 61.406C332.736 60.854 332.094 60.092 331.638 59.12C331.194 58.136 330.972 56.996 330.972 55.7C330.972 54.416 331.194 53.282 331.638 52.298C332.094 51.314 332.736 50.552 333.564 50.012C334.392 49.46 335.388 49.184 336.552 49.184C337.716 49.184 338.712 49.46 339.54 50.012C340.368 50.552 341.004 51.314 341.448 52.298C341.904 53.282 342.132 54.416 342.132 55.7C342.132 56.996 341.904 58.136 341.448 59.12C341.004 60.092 340.368 60.854 339.54 61.406C338.712 61.946 337.716 62.216 336.552 62.216ZM336.552 60.146C337.5 60.146 338.274 59.75 338.874 58.958C339.474 58.166 339.774 57.08 339.774 55.7C339.774 54.32 339.474 53.234 338.874 52.442C338.274 51.65 337.5 51.254 336.552 51.254C335.592 51.254 334.812 51.65 334.212 52.442C333.624 53.234 333.33 54.32 333.33 55.7C333.33 57.08 333.624 58.166 334.212 58.958C334.812 59.75 335.592 60.146 336.552 60.146ZM348.454 62V49.4H350.758V54.494L355.42 49.4H358.264L353.62 54.404L358.39 62H355.564L351.964 56.168L350.758 57.482V62H348.454ZM359.914 62V53.072H361.948L362.146 54.278C362.434 53.846 362.812 53.504 363.28 53.252C363.76 52.988 364.312 52.856 364.936 52.856C366.316 52.856 367.294 53.39 367.87 54.458C368.194 53.966 368.626 53.576 369.166 53.288C369.718 53 370.318 52.856 370.966 52.856C372.13 52.856 373.024 53.204 373.648 53.9C374.272 54.596 374.584 55.616 374.584 56.96V62H372.28V57.176C372.28 56.408 372.13 55.82 371.83 55.412C371.542 55.004 371.092 54.8 370.48 54.8C369.856 54.8 369.352 55.028 368.968 55.484C368.596 55.94 368.41 56.576 368.41 57.392V62H366.106V57.176C366.106 56.408 365.956 55.82 365.656 55.412C365.356 55.004 364.894 54.8 364.27 54.8C363.658 54.8 363.16 55.028 362.776 55.484C362.404 55.94 362.218 56.576 362.218 57.392V62H359.914Z"
          fill="white"/>
    <defs>
        <linearGradient id="paint0_linear_551_56" x1="279" y1="-10.5" x2="279" y2="162" gradientUnits="userSpaceOnUse">
            <stop stop-color="#F6876A"/>
            <stop offset="1" stop-color="#F6876A"/>
        </linearGradient>
        <linearGradient id="paint1_linear_551_56" x1="285.234" y1="-38.9565" x2="290.057" y2="176.032"
                        gradientUnits="userSpaceOnUse">
            <stop stop-color="#A162F7" stop-opacity="0.38"/>
            <stop offset="1" stop-color="#A162F7" stop-opacity="0"/>
        </linearGradient>
    </defs>
</svg>
