<svg width="24" height="24" viewBox="0 0 24 24" fill="none" xmlns="http://www.w3.org/2000/svg">
<circle cx="12" cy="12" r="12" fill="#406A8C"/>
<g clip-path="url(#clip0_430_30063)">
<g opacity="0.468875" filter="url(#filter0_f_430_30063)">
<path d="M16.992 4.95953H9.75248C8.65328 4.95953 7.76221 5.85061 7.76221 6.94981V14.2292C7.76221 15.3284 8.65328 16.2194 9.75248 16.2194H16.992C18.0912 16.2194 18.9823 15.3284 18.9823 14.2292V6.94981C18.9823 5.85061 18.0912 4.95953 16.992 4.95953Z" fill="#545454"/>
</g>
<path d="M8.60733 16.4451C7.7799 16.4451 7.10665 15.7719 7.10665 14.9444V9.15024C7.10665 8.32281 7.7799 7.64955 8.60733 7.64955H14.4015C15.229 7.64955 15.9022 8.32281 15.9022 9.15024V14.9444C15.9022 15.7719 15.229 16.4451 14.4015 16.4451H8.60733ZM20.0921 18.5824L17.4699 16.3341C17.663 15.9096 17.773 15.4402 17.773 14.9444V9.15024C17.773 7.28808 16.2637 5.77875 14.4015 5.77875H8.60733C6.74519 5.77875 5.23584 7.28808 5.23584 9.15024V14.9444C5.23584 16.8066 6.74519 18.3164 8.60733 18.3164H14.4015C14.9577 18.3164 15.4816 18.1785 15.9445 17.9389L16.9745 18.8216C17.9013 19.6167 19.297 19.5096 20.0921 18.5824Z" fill="white"/>
<path d="M13.5396 14.0699H10.8539L14.1727 10.058V9.14807H9.06862V10.2916H12.3269L8.99951 14.304V15.2139H13.5396H14.3031H14.3639V12.3706H13.5395L13.5396 14.0699Z" fill="white"/>
<path d="M13.9516 11.0546C13.645 11.0546 13.439 11.2552 13.439 11.5145C13.439 11.7736 13.6449 11.9744 13.9516 11.9744C14.2578 11.9744 14.4642 11.7735 14.4642 11.4985C14.4642 11.245 14.2578 11.0546 13.9516 11.0546Z" fill="white"/>
</g>
<defs>
<filter id="filter0_f_430_30063" x="-153.224" y="-156.027" width="333.193" height="333.233" filterUnits="userSpaceOnUse" color-interpolation-filters="sRGB">
<feFlood flood-opacity="0" result="BackgroundImageFix"/>
<feBlend mode="normal" in="SourceGraphic" in2="BackgroundImageFix" result="shape"/>
<feGaussianBlur stdDeviation="80.4932" result="effect1_foregroundBlur_430_30063"/>
</filter>
<clipPath id="clip0_430_30063">
<rect width="22" height="22" fill="white" transform="translate(1 1)"/>
</clipPath>
</defs>
</svg>
