<svg width="124" height="31" viewBox="0 0 124 31" fill="none" xmlns="http://www.w3.org/2000/svg">
    <g clip-path="url(#clip0_380_2024)">
        <path d="M58.3115 19.7171V23.5983H40.4133V20.5133L51.6399 6.90411H40.6485V3.02289H57.8783V6.10796L46.6765 19.7171H58.3115Z"
              fill="#01000F"/>
        <path d="M61.3564 3.02289H66.0971V23.5983H61.3564V3.02289Z" fill="#01000F"/>
        <path d="M93.0929 25.8002C91.7437 27.4422 89.8128 28.3254 87.56 28.3254C84.5151 28.3254 82.3862 27.2059 79.2298 23.8596C73.6104 23.1505 69.6619 18.8961 69.6619 13.3106C69.6619 7.20265 74.4025 2.67456 80.8637 2.67456C87.3249 2.67456 92.0655 7.16533 92.0655 13.3106C92.0655 18.1248 89.1073 21.9563 84.7503 23.362C85.7405 24.4193 86.6193 24.805 87.6467 24.805C88.9092 24.805 90.0108 24.3074 90.9763 23.2749L93.0805 25.8002H93.0929ZM80.8637 19.8913C84.5151 19.8913 87.263 17.2167 87.263 13.3106C87.263 9.4045 84.5151 6.72994 80.8637 6.72994C77.2123 6.72994 74.4644 9.4045 74.4644 13.3106C74.4644 17.2167 77.2123 19.8913 80.8637 19.8913Z"
              fill="#01000F"/>
        <path d="M114.407 3.02289V23.5983H110.521L100.309 11.1088V23.5983H95.6304V3.02289H99.5541L109.729 15.5125V3.02289H114.407Z"
              fill="#01000F"/>
        <path d="M119.259 3.02289H124V23.5983H119.259V3.02289Z" fill="#01000F"/>
        <path d="M33.754 29.2335L27.8004 24.0959C28.2336 23.1256 28.4935 22.0558 28.4935 20.9238V7.70024C28.4935 3.44583 25.0649 0 20.8317 0H7.66181C3.42863 0 0 3.44583 0 7.70024V20.9362C0 25.1906 3.42863 28.6364 7.66181 28.6364H20.8317C22.0942 28.6364 23.2825 28.3254 24.3346 27.7781L26.674 29.7933C28.7782 31.6096 31.9469 31.3608 33.754 29.246V29.2335ZM7.66181 24.3571C5.7804 24.3571 4.25794 22.8146 4.25794 20.9362V7.70024C4.25794 5.80939 5.79277 4.27929 7.66181 4.27929H20.8317C22.7131 4.27929 24.2356 5.82183 24.2356 7.70024V20.9362C24.2356 22.827 22.7007 24.3571 20.8317 24.3571H7.66181Z"
              fill="#5C52C1"/>
        <path d="M18.8636 18.9334H12.7614L20.3118 9.77767V7.70023H8.71389V10.3001H16.1158L8.55298 19.4683V21.5457H18.8636H20.5965H20.745V15.0522H18.8636V18.9334Z"
              fill="#5C52C1"/>
        <path d="M19.8044 12.0542C19.1112 12.0542 18.6409 12.5144 18.6409 13.0991C18.6409 13.6838 19.1112 14.1441 19.8044 14.1441C20.4975 14.1441 20.9679 13.6838 20.9679 13.0618C20.9679 12.4771 20.4975 12.0542 19.8044 12.0542Z"
              fill="#5C52C1"/>
    </g>
    <defs>
        <clipPath id="clip0_380_2024">
            <rect width="124" height="31" fill="white"/>
        </clipPath>
    </defs>
</svg>
