<svg version="1.0" xmlns="http://www.w3.org/2000/svg"
     width="2646.000000pt" height="514.000000pt" viewBox="0 0 2646.000000 514.000000"
     preserveAspectRatio="xMidYMid meet">

    <g transform="translate(0.000000,514.000000) scale(0.100000,-0.100000)"
       fill="#ffffff" stroke="none">
        <path d="M1085 5125 c-482 -76 -876 -413 -1023 -875 -59 -187 -57 -137 -57
-1485 0 -1160 1 -1245 18 -1325 58 -272 164 -469 356 -661 185 -186 378 -291
651 -355 69 -16 170 -18 1265 -22 801 -2 1224 0 1295 7 126 13 262 48 376 97
l84 36 57 -48 c31 -27 127 -109 213 -182 85 -74 188 -154 228 -179 258 -161
602 -162 868 -2 57 34 194 154 194 169 0 6 -927 807 -978 846 -2 1 15 55 37
121 73 212 71 176 71 1503 0 1285 0 1286 -55 1467 -147 480 -554 824 -1058
892 -120 17 -2436 13 -2542 -4z m2514 -710 c148 -35 293 -147 363 -281 72
-137 68 -62 68 -1357 0 -807 -3 -1182 -11 -1219 -21 -101 -75 -196 -158 -278
-88 -87 -148 -123 -257 -150 -75 -19 -114 -20 -1233 -20 -1273 0 -1217 -2
-1350 63 -89 43 -205 159 -248 248 -66 135 -64 75 -61 1382 l3 1182 26 67 c36
93 80 157 154 227 68 64 164 116 248 137 40 9 314 12 1222 13 1009 1 1179 -1
1234 -14z"/>
        <path d="M1450 3650 l0 -220 611 -2 612 -3 -627 -755 -626 -755 2 -170 3 -170
1013 -3 1012 -2 0 540 0 540 -155 0 -155 0 0 -320 0 -320 -506 0 -506 0 40 48
c22 26 303 366 626 756 l586 708 0 174 0 174 -965 0 -965 0 0 -220z"/>
        <path d="M3228 3136 c-60 -22 -84 -42 -108 -91 -74 -152 102 -301 265 -226
150 69 138 270 -19 316 -60 18 -89 18 -138 1z"/>
        <path d="M7160 4690 l0 -450 1269 -2 1268 -3 -1298 -1565 -1299 -1565 3 -355
2 -355 2073 -3 2072 -2 0 450 0 450 -1345 2 -1344 3 1294 1565 1295 1565 0
357 0 358 -1995 0 -1995 0 0 -450z"/>
        <path d="M11950 2765 l0 -2375 550 0 550 0 0 2375 0 2375 -550 0 -550 0 0
-2375z"/>
        <path d="M15030 5133 c-506 -56 -922 -384 -1084 -851 -75 -216 -71 -133 -71
-1517 0 -1147 1 -1247 18 -1327 52 -255 158 -462 329 -643 179 -189 385 -308
648 -373 l105 -26 1205 -4 c793 -2 1236 0 1295 7 119 14 239 45 354 92 51 21
99 35 105 32 6 -4 103 -86 216 -183 113 -96 228 -189 255 -207 125 -79 255
-121 405 -130 172 -10 328 28 473 112 71 42 207 157 207 175 0 6 -894 778
-979 846 -2 2 15 59 37 126 71 217 67 132 67 1508 l0 1245 -23 105 c-60 268
-185 487 -383 674 -171 161 -362 261 -614 319 -89 21 -110 21 -1310 23 -671 0
-1236 -1 -1255 -3z m2119 -923 c246 -31 433 -184 518 -425 l28 -80 0 -930 c0
-759 -3 -940 -14 -985 -46 -185 -172 -338 -344 -419 -124 -58 -92 -56 -1102
-56 l-930 0 -80 28 c-246 87 -396 274 -426 529 -7 62 -9 383 -7 958 4 963 0
905 74 1052 49 98 163 212 259 260 88 44 127 57 207 67 96 13 1718 13 1817 1z"/>
        <path d="M19882 2768 l3 -2373 540 0 540 0 5 1433 5 1434 1179 -1436 1179
-1436 449 0 448 0 0 2375 0 2375 -542 -2 -543 -3 -5 -1429 -5 -1429 -1170
1429 -1171 1429 -457 3 -457 2 2 -2372z"/>
        <path d="M25352 2768 l3 -2373 548 -3 547 -2 0 2375 0 2375 -550 0 -550 0 2
-2372z"/>
    </g>
</svg>

