<svg width="44" height="59" viewBox="0 0 44 59" fill="none" xmlns="http://www.w3.org/2000/svg">
<g clip-path="url(#clip0_478_1473)">
<path d="M31.5771 44.797C28.5738 46.2607 25.2529 47.0311 21.8166 47.0311C18.3802 47.0311 15.0593 46.2607 12.056 44.797L9.97689 56.42C9.74587 57.7104 10.4967 58.7504 11.6614 58.7504H31.9717C33.1364 58.7504 33.8872 57.7104 33.6562 56.42L31.5771 44.797Z" fill="#F2F4F5"/>
<path d="M24.5503 3.45703L23.9727 5.77777C24.6465 5.85481 25.3011 5.96074 25.9653 6.10518L23.6069 14.9259C23.0294 14.82 22.4326 14.7622 21.8166 14.7622C21.2005 14.7622 20.6037 14.82 20.0262 14.9259L17.6679 6.10518C18.3224 5.96074 18.9866 5.84518 19.6604 5.77777L19.0828 3.45703C8.55227 4.80518 0.428143 13.7896 0.428143 24.6711C0.428143 36.4867 10.0058 46.0585 21.8069 46.0585C33.6081 46.0585 43.1857 36.477 43.1857 24.6711C43.1857 13.7896 35.0616 4.80518 24.5503 3.45703ZM39.3162 17.2756C39.5568 17.8437 39.7589 18.4118 39.9418 18.9896L31.1247 21.3489C30.7204 20.203 30.1043 19.1533 29.3343 18.2481L35.7835 11.7963C37.2659 13.4141 38.4595 15.2437 39.3065 17.2659L39.3162 17.2756ZM27.4957 6.51926C28.0733 6.70222 28.6508 6.91407 29.2091 7.14518C31.2305 8.00222 33.0691 9.18666 34.6766 10.6696L28.2273 17.1215C27.3225 16.3511 26.2733 15.7348 25.1278 15.3304L27.4861 6.50963L27.4957 6.51926ZM14.4144 7.14518C14.9823 6.90444 15.5502 6.69259 16.1277 6.51926L18.486 15.34C17.3406 15.7444 16.2914 16.3607 15.3866 17.1311L8.9373 10.6793C10.5544 9.19629 12.3833 8.00222 14.4047 7.15481L14.4144 7.14518ZM4.29769 17.2756C5.15439 15.2533 6.33835 13.4141 7.82072 11.8059L14.27 18.2578C13.4999 19.163 12.8839 20.2126 12.4796 21.3585L3.66239 18.9993C3.84528 18.4215 4.05705 17.8437 4.28807 17.2852L4.29769 17.2756ZM2.8057 24.6807C2.8057 23.2652 2.95971 21.8785 3.25811 20.5304L12.0753 22.8896C11.9694 23.4674 11.9117 24.0644 11.9117 24.6807C11.9117 25.297 11.9694 25.8941 12.0753 26.4718L3.25811 28.8311C2.95971 27.4733 2.8057 26.0867 2.8057 24.6807ZM4.29769 32.0859C4.05705 31.5178 3.84528 30.9496 3.67202 30.3718L12.4892 28.0126C12.8935 29.1585 13.5095 30.2081 14.2796 31.1133L7.83034 37.5652C6.33835 35.9474 5.15439 34.1178 4.30732 32.0956L4.29769 32.0859ZM14.4144 42.2067C12.3929 41.3496 10.5544 40.1652 8.94693 38.6822L15.3962 32.2304C16.301 33.0007 17.3502 33.617 18.4957 34.0215L16.1374 42.8422C15.5598 42.6593 14.9823 42.4474 14.424 42.2163L14.4144 42.2067ZM21.8166 43.6993C20.4016 43.6993 19.0155 43.5452 17.6679 43.2467L20.0262 34.4259C20.6037 34.5318 21.2005 34.5896 21.8166 34.5896C22.4326 34.5896 23.0294 34.5318 23.6069 34.4259L25.9653 43.2467C24.608 43.5452 23.2219 43.6993 21.8166 43.6993ZM29.2188 42.2067C28.6508 42.4474 28.0829 42.6496 27.5054 42.8326L25.1471 34.0118C26.2925 33.6074 27.3417 32.9911 28.2466 32.2207L34.6958 38.6726C33.0787 40.1556 31.2498 41.3496 29.2284 42.197L29.2188 42.2067ZM39.3354 32.0859C38.4787 34.1081 37.2948 35.9474 35.8124 37.5556L29.3631 31.1037C30.1332 30.1985 30.7493 29.1489 31.1535 28.003L39.9707 30.3622C39.7878 30.94 39.5761 31.5178 39.345 32.0763L39.3354 32.0859ZM31.5578 26.4718C31.6637 25.8941 31.7214 25.297 31.7214 24.6807C31.7214 24.0644 31.6637 23.4674 31.5578 22.8896L40.375 20.5304C40.6734 21.8881 40.8274 23.2748 40.8274 24.6807C40.8274 26.0867 40.6734 27.483 40.375 28.8311L31.5578 26.4718Z" fill="#F2F4F5"/>
<path d="M21.2198 9.69703C21.3256 10.1207 21.4989 10.4674 21.6144 10.4674H22.0091C22.115 10.4674 22.2882 10.1207 22.4037 9.69703L24.3866 1.73333C24.4925 1.30963 24.223 0.962959 23.7898 0.962959H19.8336C19.4005 0.962959 19.131 1.30963 19.2369 1.73333L21.2294 9.70666L21.2198 9.69703Z" fill="#F2F4F5"/>
</g>
<defs>
<clipPath id="clip0_478_1473">
<rect width="42.7672" height="57.7778" fill="white" transform="translate(0.428143 0.962959)"/>
</clipPath>
</defs>
</svg>
