<svg width="43" height="46" viewBox="0 0 43 46" fill="none" xmlns="http://www.w3.org/2000/svg">
<path d="M21.1109 0.712036C15.4736 0.712036 10.9036 5.28199 10.9036 10.9193C10.9036 16.5567 15.4736 21.1266 21.1109 21.1266C26.7483 21.1266 31.3182 16.5567 31.3182 10.9193C31.3182 5.28199 26.7483 0.712036 21.1109 0.712036Z" fill="#F6876A"/>
<path d="M10.2232 26.5705C4.58583 26.5705 0.0158691 31.1405 0.0158691 36.7778V40.0122C0.0158691 42.0625 1.50173 43.8106 3.52519 44.141C15.1719 46.0425 27.0499 46.0425 38.6967 44.141C40.7201 43.8106 42.206 42.0625 42.206 40.0122V36.7778C42.206 31.1405 37.636 26.5705 31.9987 26.5705H31.0709C30.5687 26.5705 30.0697 26.6499 29.5923 26.8058L27.2364 27.5751C23.2562 28.8747 18.9657 28.8747 14.9854 27.5751L12.6296 26.8058C12.1522 26.6499 11.6532 26.5705 11.151 26.5705H10.2232Z" fill="#F6876A"/>
</svg>
