<svg width="116" height="170" viewBox="0 0 116 170" fill="none" xmlns="http://www.w3.org/2000/svg">
    <path d="M116 86.8577C116 111.357 96.1475 131.218 71.6582 131.218C70.012 131.218 68.3868 131.128 66.7872 130.953C44.5897 128.527 27.3165 109.71 27.3165 86.8577C27.3165 63.7124 45.0353 44.7072 67.6432 42.6773C68.9657 42.5586 70.3049 42.4979 71.6582 42.4979C96.1475 42.4979 116 62.3585 116 86.8577Z"
          fill="#5D53C2"/>
    <path d="M66.7872 130.953C44.5897 128.527 27.3165 109.71 27.3165 86.8577C27.3165 63.7124 45.0353 44.7072 67.6432 42.6773C48.7384 42.893 11.7019 34.5559 0 0.5V86.8577V169.5C6.39163 155.113 30.8214 130.237 66.7872 130.953Z"
          fill="#5D53C2"/>
</svg>
