<svg width="28" height="30" viewBox="0 0 28 30" fill="none" xmlns="http://www.w3.org/2000/svg">
    <path fill-rule="evenodd" clip-rule="evenodd"
          d="M17.375 5.25C17.375 2.55761 19.5576 0.375 22.25 0.375C24.9424 0.375 27.125 2.55761 27.125 5.25C27.125 7.94239 24.9424 10.125 22.25 10.125C20.8106 10.125 19.5168 9.50114 18.6245 8.50905L14.5485 10.7323L9.98772 13.3385C10.3933 14.0496 10.625 14.8727 10.625 15.75C10.625 16.1945 10.5655 16.6252 10.454 17.0344L18.6245 21.4909C19.5168 20.4989 20.8106 19.875 22.25 19.875C24.9424 19.875 27.125 22.0576 27.125 24.75C27.125 27.4424 24.9424 29.625 22.25 29.625C19.5576 29.625 17.375 27.4424 17.375 24.75C17.375 24.3055 17.4345 23.8748 17.546 23.4656L9.37556 19.009C8.48318 20.0011 7.18944 20.625 5.75 20.625C3.05761 20.625 0.875 18.4424 0.875 15.75C0.875 13.0576 3.05761 10.875 5.75 10.875C6.72602 10.875 7.63504 11.1618 8.39739 11.6558L13.4515 8.7677L17.546 6.53437C17.4345 6.12516 17.375 5.69453 17.375 5.25ZM22.25 2.625C20.8003 2.625 19.625 3.80025 19.625 5.25C19.625 6.69975 20.8003 7.875 22.25 7.875C23.6997 7.875 24.875 6.69975 24.875 5.25C24.875 3.80025 23.6997 2.625 22.25 2.625ZM5.75 13.125C4.30025 13.125 3.125 14.3003 3.125 15.75C3.125 17.1997 4.30025 18.375 5.75 18.375C7.19975 18.375 8.375 17.1997 8.375 15.75C8.375 14.3003 7.19975 13.125 5.75 13.125ZM19.625 24.75C19.625 23.3003 20.8003 22.125 22.25 22.125C23.6997 22.125 24.875 23.3003 24.875 24.75C24.875 26.1997 23.6997 27.375 22.25 27.375C20.8003 27.375 19.625 26.1997 19.625 24.75Z"
          fill="#737478"/>
</svg>
