<svg width="52" height="42" viewBox="0 0 52 42" fill="none" xmlns="http://www.w3.org/2000/svg">
<g clip-path="url(#clip0_478_1464)">
<path d="M25.1274 0.888885H11.1078L16.1885 14.2884L25.1274 0.888885Z" fill="white"/>
<path d="M9.65687 1.73302L0.615269 15.2624H14.7888L9.65687 1.73302Z" fill="white"/>
<path d="M26.1212 40.4846L35.0601 16.909H17.1822L26.1212 40.4846Z" fill="white"/>
<path d="M0.867203 16.909L24.6749 41.3333L15.414 16.909H0.867203Z" fill="white"/>
<path d="M51.6317 15.2624L42.5855 1.73302L37.4582 15.2624H51.6317Z" fill="white"/>
<path d="M41.1345 0.888885H27.1149L36.0539 14.2884L41.1345 0.888885Z" fill="white"/>
<path d="M26.1212 2.37772L17.5275 15.2624H34.7149L26.1212 2.37772Z" fill="white"/>
<path d="M27.5721 41.3333L51.3798 16.909H36.833L27.5721 41.3333Z" fill="white"/>
</g>
<defs>
<clipPath id="clip0_478_1464">
<rect width="51.0165" height="40.4444" fill="white" transform="translate(0.615269 0.888885)"/>
</clipPath>
</defs>
</svg>
