<svg width="22" height="22" viewBox="0 0 22 22" fill="none" xmlns="http://www.w3.org/2000/svg">
    <path fill-rule="evenodd" clip-rule="evenodd"
          d="M15.798 13.6346C15.4067 13.6346 14.8538 13.6887 14.2783 13.7675C14.0094 13.8043 13.8043 14.0094 13.7675 14.2783C13.6887 14.8538 13.6346 15.4067 13.6346 15.798C13.6346 16.1893 13.6887 16.7422 13.7675 17.3178C13.8043 17.5867 14.0094 17.7918 14.2783 17.8286C14.8538 17.9074 15.4067 17.9615 15.798 17.9615C16.1893 17.9615 16.7422 17.9074 17.3178 17.8286C17.5867 17.7918 17.7918 17.5867 17.8286 17.3178C17.9074 16.7422 17.9615 16.1893 17.9615 15.798C17.9615 15.4067 17.9074 14.8538 17.8286 14.2783C17.7918 14.0094 17.5867 13.8043 17.3178 13.7675C16.7422 13.6887 16.1893 13.6346 15.798 13.6346ZM14.0434 12.0527C13.005 12.1949 12.1949 13.005 12.0527 14.0434C11.9712 14.639 11.9038 15.2859 11.9038 15.798C11.9038 16.3102 11.9712 16.9571 12.0527 17.5527C12.1949 18.591 13.005 19.4011 14.0434 19.5433C14.639 19.6249 15.2859 19.6923 15.798 19.6923C16.3102 19.6923 16.9571 19.6249 17.5527 19.5433C18.591 19.4011 19.4011 18.591 19.5433 17.5527C19.6249 16.9571 19.6923 16.3102 19.6923 15.798C19.6923 15.2859 19.6249 14.639 19.5433 14.0434C19.4011 13.005 18.591 12.1949 17.5527 12.0527C16.9571 11.9712 16.3102 11.9038 15.798 11.9038C15.2859 11.9038 14.639 11.9712 14.0434 12.0527Z"
          fill="white"/>
    <path fill-rule="evenodd" clip-rule="evenodd"
          d="M6.27875 13.6346C5.88744 13.6346 5.33455 13.6887 4.75897 13.7675C4.49007 13.8043 4.28504 14.0094 4.24821 14.2783C4.16938 14.8538 4.11529 15.4067 4.11529 15.798C4.11529 16.1893 4.16938 16.7422 4.24821 17.3178C4.28504 17.5867 4.49007 17.7918 4.75897 17.8286C5.33455 17.9074 5.88744 17.9615 6.27875 17.9615C6.67006 17.9615 7.22295 17.9074 7.79853 17.8286C8.06743 17.7918 8.27247 17.5867 8.30929 17.3178C8.38812 16.7422 8.44221 16.1893 8.44221 15.798C8.44221 15.4067 8.38812 14.8538 8.30929 14.2783C8.27247 14.0094 8.06743 13.8043 7.79853 13.7675C7.22295 13.6887 6.67006 13.6346 6.27875 13.6346ZM4.52413 12.0527C3.48575 12.1949 2.67566 13.005 2.53345 14.0434C2.45188 14.639 2.38452 15.2859 2.38452 15.798C2.38452 16.3102 2.45188 16.9571 2.53345 17.5527C2.67566 18.591 3.48575 19.4011 4.52413 19.5433C5.1197 19.6249 5.76658 19.6923 6.27875 19.6923C6.79092 19.6923 7.43781 19.6249 8.03337 19.5433C9.07175 19.4011 9.88185 18.591 10.0241 17.5527C10.1056 16.9571 10.173 16.3102 10.173 15.798C10.173 15.2859 10.1056 14.639 10.0241 14.0434C9.88185 13.005 9.07175 12.1949 8.03337 12.0527C7.43781 11.9712 6.79092 11.9038 6.27875 11.9038C5.76658 11.9038 5.1197 11.9712 4.52413 12.0527Z"
          fill="white"/>
    <path fill-rule="evenodd" clip-rule="evenodd"
          d="M15.798 4.11529C15.4067 4.11529 14.8538 4.16938 14.2783 4.24821C14.0094 4.28504 13.8043 4.49007 13.7675 4.75897C13.6887 5.33455 13.6346 5.88744 13.6346 6.27875C13.6346 6.67006 13.6887 7.22295 13.7675 7.79853C13.8043 8.06743 14.0094 8.27247 14.2783 8.30929C14.8538 8.38812 15.4067 8.44221 15.798 8.44221C16.1893 8.44221 16.7422 8.38812 17.3178 8.30929C17.5867 8.27247 17.7918 8.06743 17.8286 7.79853C17.9074 7.22295 17.9615 6.67006 17.9615 6.27875C17.9615 5.88744 17.9074 5.33455 17.8286 4.75897C17.7918 4.49007 17.5867 4.28504 17.3178 4.24821C16.7422 4.16938 16.1893 4.11529 15.798 4.11529ZM14.0434 2.53345C13.005 2.67566 12.1949 3.48575 12.0527 4.52413C11.9712 5.1197 11.9038 5.76658 11.9038 6.27875C11.9038 6.79092 11.9712 7.43781 12.0527 8.03337C12.1949 9.07175 13.005 9.88185 14.0434 10.0241C14.639 10.1056 15.2859 10.173 15.798 10.173C16.3102 10.173 16.9571 10.1056 17.5527 10.0241C18.591 9.88185 19.4011 9.07175 19.5433 8.03337C19.6249 7.43781 19.6923 6.79092 19.6923 6.27875C19.6923 5.76658 19.6249 5.1197 19.5433 4.52413C19.4011 3.48575 18.591 2.67566 17.5527 2.53345C16.9571 2.45188 16.3102 2.38452 15.798 2.38452C15.2859 2.38452 14.639 2.45188 14.0434 2.53345Z"
          fill="white"/>
    <path fill-rule="evenodd" clip-rule="evenodd"
          d="M6.27875 4.11529C5.88744 4.11529 5.33455 4.16938 4.75897 4.24821C4.49007 4.28504 4.28504 4.49007 4.24821 4.75897C4.16938 5.33455 4.11529 5.88744 4.11529 6.27875C4.11529 6.67006 4.16938 7.22295 4.24821 7.79853C4.28504 8.06743 4.49007 8.27247 4.75897 8.30929C5.33455 8.38812 5.88744 8.44221 6.27875 8.44221C6.67006 8.44221 7.22295 8.38812 7.79853 8.30929C8.06743 8.27247 8.27247 8.06743 8.30929 7.79853C8.38812 7.22295 8.44221 6.67006 8.44221 6.27875C8.44221 5.88744 8.38812 5.33455 8.30929 4.75897C8.27247 4.49007 8.06743 4.28504 7.79853 4.24821C7.22295 4.16938 6.67006 4.11529 6.27875 4.11529ZM4.52413 2.53345C3.48575 2.67566 2.67566 3.48575 2.53345 4.52413C2.45188 5.1197 2.38452 5.76658 2.38452 6.27875C2.38452 6.79092 2.45188 7.43781 2.53345 8.03337C2.67566 9.07175 3.48575 9.88185 4.52413 10.0241C5.1197 10.1056 5.76658 10.173 6.27875 10.173C6.79092 10.173 7.43781 10.1056 8.03337 10.0241C9.07175 9.88185 9.88185 9.07175 10.0241 8.03337C10.1056 7.43781 10.173 6.79092 10.173 6.27875C10.173 5.76658 10.1056 5.1197 10.0241 4.52413C9.88185 3.48575 9.07175 2.67566 8.03337 2.53345C7.43781 2.45188 6.79092 2.38452 6.27875 2.38452C5.76658 2.38452 5.1197 2.45188 4.52413 2.53345Z"
          fill="white"/>
</svg>
