<svg width="124" height="124" viewBox="0 0 124 124" fill="none" xmlns="http://www.w3.org/2000/svg">
<g opacity="0.4" filter="url(#filter0_f_476_16801)">
<circle cx="62" cy="62" r="37" fill="url(#paint0_radial_476_16801)"/>
</g>
<path opacity="0.5" d="M99 62C99 82.4345 82.4345 99 62 99C41.5655 99 25 82.4345 25 62" stroke="url(#paint1_linear_476_16801)"/>
<path d="M41.2134 72.0748C42.2731 76.5829 43.107 78.2006 43.7747 78.5329C44.4425 78.8652 65.6099 82.0409 67.3373 80.5926C69.0647 79.1442 83.7145 54.1897 83.7145 54.1897L83.1001 50.8478L81.9119 45.5653C81.9119 45.5653 56.5404 45.976 55.3616 46.9478C54.1829 47.9197 41.2134 72.0717 41.2134 72.0717V72.0748Z" fill="#E6B4BE"/>
<path d="M64.8293 73.6862C65.9955 76.1472 67.0771 79.1756 66.5003 79.5361C65.9266 79.8966 45.4582 78.0094 44.4738 77.3667C43.4863 76.7209 40.7369 72.357 41.2103 72.0748C41.6868 71.7927 64.3277 72.6297 64.8293 73.6862Z" fill="#C45E83"/>
<g style="mix-blend-mode:multiply" opacity="0.4">
<path d="M42.0473 73.7175C43.4675 75.6769 66.0551 78.2006 65.6664 76.9748C65.2776 75.749 66.5128 74.0153 55.8632 73.7175C45.2137 73.4228 41.1006 72.4102 42.0473 73.7175Z" fill="#C37886"/>
</g>
<path d="M87 54.9138C87 55.5251 83.1001 62.3218 79.9243 67.1685C74.3346 75.6988 69.676 82.9312 68.9518 83.6554C68.2277 84.3796 42.4517 80.5894 42.0066 80.2539C41.5614 79.9185 36.4859 72.4352 37.0439 70.874C39.9375 62.7732 55.3899 43.214 56.8445 42.4867C58.738 41.5399 80.8241 41.7813 82.1282 42.3644C82.7897 42.6622 82.8493 45.0605 82.8493 45.6185C82.8493 46.0229 82.0561 47.6813 79.6767 52.0264C78.78 53.6629 77.7424 55.5282 76.5855 57.5848C72.3533 65.1056 65.3341 74.7959 65.3341 74.7959C64.5597 74.9056 43.1603 73.2629 42.8875 73.2347L41.7746 73.081C41.7746 73.081 43.4957 77.1346 44.0537 77.5233C44.6118 77.9121 66.8357 79.9749 66.8357 79.9749C73.6857 69.8928 83.3791 54.0172 83.3791 54.0172C83.2913 53.6692 83.3038 51.9669 83.1628 51.2333C83.122 51.0264 83.1001 50.8978 83.1001 50.8978C83.1001 50.8978 86.1473 51.3681 86.4984 51.622C86.7398 51.7976 87 54.2397 87 54.9075V54.9138Z" fill="url(#paint2_linear_476_16801)"/>
<path opacity="0.56" d="M67.8671 81.7305C67.0301 82.229 45.0914 79.5266 43.9221 79.3605C42.7527 79.1943 39.486 73.5168 39.6522 73.1281C39.8184 72.7394 41.7746 73.0842 41.7746 73.0842C41.7746 73.0842 43.4957 77.1378 44.0537 77.5265C44.6118 77.9152 66.8357 79.9781 66.8357 79.9781C73.6857 69.8959 83.3791 54.0203 83.3791 54.0203C83.2913 53.6723 83.3038 51.97 83.1628 51.2365C84.3729 51.3775 85.7585 51.6032 85.9121 51.9011C86.1912 52.4403 68.701 81.2289 67.864 81.7274L67.8671 81.7305Z" fill="url(#paint3_linear_476_16801)"/>
<path opacity="0.56" d="M37.5925 70.3443C37.4295 71.1312 63.939 73.4072 64.7196 72.5169C65.5002 71.6265 82.3226 42.8504 81.9056 42.631C81.4887 42.4115 59.1644 41.5494 57.2583 42.7595C55.3522 43.9696 38.7368 64.7985 37.5956 70.3412L37.5925 70.3443Z" fill="url(#paint4_linear_476_16801)"/>
<g style="mix-blend-mode:soft-light">
<path d="M80.7049 43.3833C79.175 42.1324 68.7857 42.5462 67.3373 43.3833C65.8889 44.2203 59.0923 53.5783 60.5971 55.0141C62.1019 56.4499 71.626 56.6945 72.8518 55.8606C74.0776 55.0235 81.3194 43.8849 80.7049 43.3833Z" fill="#8DFFFF"/>
</g>
<g style="mix-blend-mode:multiply" opacity="0.4">
<path d="M70.9488 57.4249C66.6163 56.7352 49.6497 53.7162 48.634 54.7069C47.6182 55.6975 36.9248 68.3974 39.3199 69.62C41.715 70.8458 62.1583 73.2974 63.8857 71.7362C65.6131 70.1749 71.7451 57.5503 70.9488 57.4249Z" fill="#635EC0"/>
</g>
<g style="mix-blend-mode:soft-light">
<path d="M58.5656 54.1332C53.4901 54.2116 50.4648 52.8228 50.6309 52.0296C50.7971 51.2365 58.1487 42.471 59.039 42.5933C59.9293 42.7156 65.82 42.6121 66.0018 43.5495C66.1836 44.49 60.3588 54.105 58.5656 54.1332Z" fill="#8DFFFF"/>
</g>
<g style="mix-blend-mode:multiply" opacity="0.6">
<path d="M82.2724 42.9757C81.9307 43.2955 77.2658 51.2772 77.3285 51.9481C77.3912 52.619 78.1907 53.7413 78.5387 53.5971C78.8898 53.4529 82.843 46.186 82.7364 45.6217C82.633 45.0542 82.5483 42.7187 82.2724 42.9757Z" fill="#905EC0"/>
</g>
<g style="mix-blend-mode:soft-light">
<path d="M44.2481 77.6739C43.549 77.8087 43.5647 78.8777 43.9409 79.1473C44.3171 79.4169 64.7666 81.7556 67.1147 81.5989C67.5317 81.5707 67.143 80.4734 66.447 80.2571C65.751 80.0408 44.9441 77.5422 44.2481 77.677V77.6739Z" fill="#8DFFFF"/>
</g>
<g style="mix-blend-mode:multiply" opacity="0.6">
<path d="M39.2635 71.1187C38.6521 71.0685 37.1756 71.1845 37.326 71.7112C38.0251 74.1314 41.6053 80.2258 42.0066 80.254C42.411 80.2854 44.107 80.5801 43.8844 80.2509C43.6619 79.9217 40.2353 75.5233 39.4014 73.5169C39.1694 72.9589 39.95 72.9307 40.9532 72.9746C41.9564 73.0216 43.7183 73.3508 43.9973 73.1C44.2763 72.8492 44.2795 71.824 43.502 71.7112C42.7214 71.5983 39.6522 71.15 39.2635 71.1187Z" fill="#905EC0"/>
</g>
<g style="mix-blend-mode:soft-light">
<path d="M64.8858 72.5168C64.6914 72.962 65.2839 74.6611 65.4469 74.495C65.6099 74.3288 69.9143 68.225 69.839 67.6701C69.7607 67.1152 69.7042 65.5885 69.3155 65.7954C68.9268 66.0023 65.0833 72.0716 64.8889 72.5199L64.8858 72.5168Z" fill="#8DFFFF"/>
</g>
<g style="mix-blend-mode:soft-light">
<path d="M68.1085 81.9845C68.0866 82.4579 68.5349 83.6053 68.8421 83.5175C69.1494 83.4298 73.0211 77.5861 73.1465 77.0281C73.2719 76.4701 73.1308 75.1252 72.5477 75.3289C71.9614 75.5327 68.1305 81.5958 68.1117 81.9845H68.1085Z" fill="#8DFFFF"/>
</g>
<g style="mix-blend-mode:multiply" opacity="0.6">
<path d="M68.2559 83.5238C67.817 83.6021 60.7068 83.1288 60.6253 82.8215C60.5407 82.5143 61.2335 81.555 61.5972 81.602C61.9608 81.649 67.2809 81.8309 67.7543 82.2353C68.2277 82.6397 68.4534 83.4861 68.2559 83.5206V83.5238Z" fill="#905EC0"/>
</g>
<g style="mix-blend-mode:multiply" opacity="0.6">
<path d="M64.4719 72.962C64.1396 72.8366 57.7286 72.3381 57.4496 72.7206C57.1705 73.103 56.5843 73.9714 57.0577 74.1501C57.5311 74.3319 64.8826 74.8868 64.9829 74.6329C65.0833 74.379 64.7635 73.0685 64.4751 72.9588L64.4719 72.962Z" fill="#905EC0"/>
</g>
<g style="mix-blend-mode:multiply" opacity="0.6">
<path d="M86.4169 52.0296C86.0344 52.1644 83.0374 57.8387 83.0844 58.2839C83.1314 58.7291 83.633 60.5505 83.8556 60.447C84.0782 60.3436 86.4859 55.895 86.7241 55.0517C86.9655 54.2115 86.6959 51.9293 86.4169 52.0296Z" fill="#905EC0"/>
</g>
<path d="M41.7746 73.0874C41.7746 73.0874 42.5709 76.2412 44.0537 77.5297L45.4175 77.7397C45.4175 77.7397 43.4205 77.1472 42.4862 74.4668C42.0473 73.2097 42.411 73.1846 42.411 73.1846L41.7746 73.0874Z" fill="#301F5C"/>
<g style="mix-blend-mode:multiply" opacity="0.7">
<path d="M78.0308 55.0048L77.0934 56.6789L77.9399 62.8015H79.7394L80.52 66.1999L80.9839 65.4412L82.5389 62.8015L79.4384 52.5752L78.0308 55.0048Z" fill="#BE5286"/>
</g>
<path d="M55.4745 45.4148C55.4745 45.4148 55.7535 44.9258 55.9197 44.9258C56.0858 44.9258 53.4963 49.8258 51.5526 51.1644C51.5526 51.1644 51.8661 50.4904 52.0762 49.9857C52.2862 49.4809 55.4745 45.4148 55.4745 45.4148Z" fill="#4D3982"/>
<path d="M45.2795 61.372C45.2795 61.372 45.941 60.7763 46.1072 60.8171C46.2733 60.8578 42.8938 66.6262 41.4109 67.6858C41.4109 67.6858 41.5018 66.6325 42.759 64.8361C44.0161 63.0398 45.2795 61.372 45.2795 61.372Z" fill="#301F5C"/>
<path d="M55.6689 45.6123C55.6689 45.6123 54.7221 44.5746 53.8851 44.4147C53.048 44.2548 51.8066 43.8724 51.4053 44.2643C50.7846 44.8724 47.9223 48.7316 47.9223 49.3053C47.9223 49.879 48.9819 51.9074 48.9819 51.9074L50.4397 49.9982C50.4397 49.9982 51.3645 49.5687 52.3646 50.1267L52.6373 50.1361C52.6373 50.1361 54.3553 47.9824 55.6658 45.6123H55.6689Z" fill="url(#paint5_linear_476_16801)"/>
<path d="M45.5993 61.6446C45.5993 61.6446 43.991 60.215 43.1571 60.0551C42.3201 59.8953 41.2103 59.9266 40.809 60.3185C40.1883 60.9267 37.326 64.7858 37.326 65.3596C37.326 65.9333 38.232 68.1936 38.232 68.1936L39.4578 66.0273C39.4578 66.0273 41.2134 65.742 42.2166 66.3001H42.6963C43.1352 65.7765 44.2105 64.1589 45.5993 61.6477V61.6446Z" fill="url(#paint6_linear_476_16801)"/>
<path d="M82.4887 66.9052C82.3696 66.9553 82.1941 66.9961 81.9903 67.0306H81.9872C81.1815 67.1622 79.9306 67.1717 79.9306 67.1717L80.9902 65.4443C80.9902 65.4443 77.2094 51.6409 76.8865 51.5876C76.5636 51.5343 73.9302 51.8259 73.6387 51.7005C73.3471 51.5751 71.9677 49.9449 71.9677 49.6533C71.9677 49.3618 71.7608 48.1109 71.9677 47.857C72.1778 47.6062 75.0996 46.3522 76.1028 45.8913C77.106 45.4305 80.1532 45.7001 80.1532 45.7001C80.6955 45.8474 84.7491 62.4347 84.8337 62.6855C84.9184 62.9363 83.0781 66.6544 82.4919 66.9052H82.4887Z" fill="url(#paint7_linear_476_16801)"/>
<path d="M82.4887 66.9053L81.9903 67.0307H81.9872C81.1815 67.1623 79.9306 67.1717 79.9306 67.1717L80.9902 65.4444C80.9902 65.4444 77.2094 51.641 76.8865 51.5877C76.5636 51.5344 73.9302 51.826 73.6387 51.7006C73.3471 51.5752 71.9677 49.945 71.9677 49.6534C71.9677 49.3619 71.7608 48.111 71.9677 47.8571C72.1339 48.901 73.2687 50.1174 73.8268 50.3619C74.5792 50.6974 77.6515 49.7882 77.9838 50.2773C78.3192 50.7663 83.0813 65.2343 82.495 66.9053H82.4887Z" fill="url(#paint8_linear_476_16801)"/>
<path d="M42.6963 66.2971C42.6963 66.2971 41.2542 65.0399 40.3764 64.9678C39.4986 64.8957 37.7618 64.5948 37.5894 65.2312C37.417 65.8676 38.2289 68.1906 38.2289 68.1906L39.4547 66.0243C39.4547 66.0243 40.5457 65.9836 41.2103 66.156C41.8749 66.3284 42.2135 66.2971 42.2135 66.2971H42.6932H42.6963Z" fill="url(#paint9_linear_476_16801)"/>
<path d="M52.6405 50.1329C52.6405 50.1329 51.5746 48.346 50.9037 48.4745C50.2328 48.603 48.1951 48.6846 48.1888 49.4401C48.1825 50.1956 48.9819 51.9042 48.9819 51.9042L50.4397 49.995C50.4397 49.995 51.0698 49.8163 51.5714 49.9009C52.073 49.9856 52.3646 50.1235 52.3646 50.1235L52.6373 50.1329H52.6405Z" fill="url(#paint10_linear_476_16801)"/>
<g style="mix-blend-mode:soft-light">
<path d="M77.8928 49.8727C77.2031 50.3179 74.2437 50.5687 73.7985 50.1518C73.3534 49.7348 72.3345 48.1422 73.0085 47.6406C73.6825 47.139 76.1184 45.9132 77.0934 45.8568C78.0684 45.8004 79.7895 45.6687 79.8146 46.0324C79.8428 46.3929 78.4007 49.5498 77.8928 49.8759V49.8727Z" fill="white"/>
</g>
<g style="mix-blend-mode:multiply" opacity="0.2">
<path d="M78.3505 49.8163C78.7267 51.0703 81.1376 60.3123 81.4511 60.2339C81.7614 60.1555 83.2443 58.1554 83.0687 57.1741C82.8932 56.1929 80.4416 46.1829 80.1093 46.5152C79.777 46.8475 78.1719 49.2207 78.3505 49.8163Z" fill="#DA0553"/>
</g>
<g style="mix-blend-mode:soft-light">
<path d="M81.7363 61.1493C81.9965 62.3751 82.4668 65.1026 83.0687 65.0242C83.4919 64.9678 84.4544 63.51 84.4105 62.7231C84.3697 61.9331 83.6142 57.5786 83.2976 57.8952C82.9809 58.2119 81.5765 60.3969 81.7363 61.1493Z" fill="white"/>
</g>
<g style="mix-blend-mode:soft-light">
<path d="M73.0179 47.9981C73.7484 48.8038 79.0716 47.8789 79.429 47.0325C79.7864 46.186 78.6045 45.7597 76.8332 46.0544C75.062 46.3491 72.4035 47.3178 73.0179 47.9949V47.9981Z" fill="white"/>
</g>
<g style="mix-blend-mode:soft-light">
<path d="M82.3414 66.6105C82.517 65.6167 81.3194 64.7734 80.984 65.4411C80.6485 66.1089 79.9181 66.9616 80.3162 67.0525C80.7143 67.1434 82.2787 66.9648 82.3414 66.6105Z" fill="white"/>
</g>
<g style="mix-blend-mode:multiply" opacity="0.3">
<path d="M80.0027 56.8983C79.5356 55.5001 78.2596 54.6097 78.1436 54.8073C78.0308 55.0048 80.7332 64.9646 81.0247 65.0242C81.3163 65.0838 81.9056 64.9176 82.0279 64.4599C82.1502 64.0022 80.335 57.9015 80.0027 56.8983Z" fill="#B30053"/>
</g>
<g style="mix-blend-mode:multiply" opacity="0.3">
<path d="M77.7674 50.528C77.3693 51.2365 77.1185 51.4058 76.4194 51.4685C75.7203 51.5312 73.5916 51.7412 73.6731 51.5719C73.7578 51.4058 73.717 50.622 74.0901 50.528C74.4663 50.4339 78.059 50.0044 77.7674 50.528Z" fill="#B30053"/>
</g>
<g style="mix-blend-mode:soft-light">
<path d="M72.2122 48.9261C71.9332 48.6471 71.974 49.5374 72.184 49.8446C72.3941 50.1519 73.4506 51.6943 73.5916 51.4874C73.7327 51.2836 73.8362 50.7224 73.6732 50.4998C73.5101 50.2773 72.5446 49.2553 72.2122 48.9261Z" fill="white"/>
</g>
<g style="mix-blend-mode:soft-light">
<path d="M80.8084 47.4117C81.4009 51.18 79.8365 54.9326 79.4071 54.3808L80.8429 59.0488C80.8429 59.0488 80.777 48.7974 82.2756 52.6785L80.8115 47.4149L80.8084 47.4117Z" fill="white"/>
</g>
<g style="mix-blend-mode:multiply" opacity="0.5">
<path d="M49.8629 75.8682C49.8629 75.8682 62.6442 77.0156 65.3184 77.6394C65.3184 77.6394 63.1051 77.8244 56.7943 77.2946C50.4867 76.7616 49.8629 75.8682 49.8629 75.8682Z" fill="#913F67"/>
</g>
<g style="mix-blend-mode:multiply" opacity="0.7">
<path d="M37 71.1185C37.21 72.1625 38.0784 75.1909 42.0066 80.257C42.0066 80.257 64.2494 83.925 68.7104 83.7275L67.8671 81.7305C67.8671 81.7305 62.5627 81.3167 60.1582 79.4576C60.1582 79.4576 65.889 79.8119 66.8357 79.978C66.8357 79.978 66.563 76.5139 65.6695 75.3853L66.8765 72.6233L65.3309 74.799C65.3309 74.799 65.0864 72.476 64.7196 72.5136C62.7822 72.7174 60.5124 72.5011 50.9883 72.3757C41.4642 72.2503 37 71.1185 37 71.1185Z" fill="#BE5286"/>
</g>
<path d="M78.6609 47.3209C78.7487 48.299 77.733 49.1893 76.388 49.3116C75.0431 49.4339 73.8832 48.7379 73.7954 47.7598C73.7076 46.7817 74.7234 45.8913 76.0683 45.7691C77.4132 45.6468 78.5731 46.3428 78.6609 47.3209Z" fill="url(#paint11_linear_476_16801)"/>
<g style="mix-blend-mode:soft-light">
<path d="M74.7202 46.3208C73.8832 46.9603 74.9459 46.7158 76.0087 46.7284C77.0715 46.7409 78.1405 47.0136 77.9932 46.6249C77.7235 45.907 76.0244 45.3207 74.7171 46.3208H74.7202Z" fill="white"/>
</g>
<g style="mix-blend-mode:multiply" opacity="0.3">
<path d="M78.2157 47.1045C77.9681 46.7502 74.4631 46.9007 74.3597 47.001C73.7954 47.5465 74.7265 48.6594 76.3222 48.5528C77.9179 48.4431 78.5637 47.5967 78.2189 47.1045H78.2157Z" fill="#B30053"/>
</g>
<path d="M75.7705 45.9383C75.8112 46.2455 76.388 46.3991 76.5981 46.3427C76.8081 46.2863 77.0119 45.9696 76.8708 45.9195C76.7298 45.8724 75.7516 45.8003 75.7705 45.9383Z" fill="white"/>
<g style="mix-blend-mode:multiply" opacity="0.7">
<path d="M73.8048 47.4493C74.2845 48.9855 77.6264 49.0983 78.6358 47.719C78.6358 47.719 78.7111 48.7943 77.3223 49.4871C75.9335 50.1799 74.6324 49.9542 74.0807 49.4557C73.5289 48.9541 73.8017 47.4493 73.8017 47.4493H73.8048Z" fill="#BE5286"/>
</g>
<g style="mix-blend-mode:multiply" opacity="0.2">
<path d="M54.5183 44.9289C53.6437 45.1452 51.4617 48.1642 51.631 48.4683C51.8034 48.7724 52.2831 49.7317 52.5652 49.5467C52.8474 49.3586 55.4024 45.9916 55.4369 45.7032C55.4714 45.4148 54.6845 44.8881 54.5183 44.9289Z" fill="#DA0553"/>
</g>
<g style="mix-blend-mode:soft-light">
<path d="M51.3238 48.1862C50.8065 48.5435 48.6653 48.553 48.6496 48.3617C48.6371 48.1705 51.2674 44.2862 51.6247 44.258C51.979 44.2298 53.9885 44.5214 54.0544 44.6906C54.1233 44.8568 51.7407 47.8977 51.3238 48.1862Z" fill="white"/>
</g>
<g style="mix-blend-mode:soft-light">
<path d="M43.4675 60.3249C42.4392 60.096 41.4266 60.0333 40.9814 60.3249C40.5363 60.6164 37.5988 64.648 37.9311 64.6919C38.2634 64.7358 40.229 64.8581 40.7714 64.5446C41.3138 64.2311 43.8092 60.4001 43.4675 60.3249Z" fill="white"/>
</g>
<g style="mix-blend-mode:multiply" opacity="0.2">
<path d="M43.7402 60.5756C43.433 60.8985 40.9344 64.6292 41.157 64.8361C41.3796 65.0461 42.1383 65.8456 42.5646 65.7547C42.9878 65.6637 45.2858 62.0177 45.2858 61.7763C45.2858 61.5349 43.9848 60.3186 43.7402 60.5725V60.5756Z" fill="#DA0553"/>
</g>
<path d="M77.0934 58.0081C77.0934 58.0081 75.8332 59.4314 73.6763 60.2841C71.4943 61.1462 68.0552 61.1493 68.0145 61.1493L67.8734 59.3875C68.0897 59.1053 68.2433 58.7323 68.2433 58.7323L67.4502 58.6351C67.4502 58.6351 66.5254 60.6227 63.5471 63.0648C60.5125 65.554 56.5028 66.0305 56.5028 66.0305C56.2551 66.2656 56.1203 66.7108 56.1203 66.7108C56.5906 66.739 57.7693 66.7892 58.2521 66.7108L58.5625 68.7266C58.5625 68.7266 57.9104 69.5887 55.672 71.3569C53.186 73.3194 50.7375 74.1533 50.7375 74.1533C50.0792 73.3915 49.076 72.3663 48.634 71.313C48.333 70.5982 48.1198 69.3787 48.1919 68.7047C48.3675 67.0212 48.9914 65.9396 48.9914 65.9396C48.9914 65.9396 50.772 66.3848 51.3677 66.2061C51.6216 66.1277 52.5684 64.4442 52.5684 64.4442C52.5684 64.4442 51.6624 64.0586 51.0197 62.7106C50.0071 60.5882 50.3363 58.0206 50.3363 58.0206C50.3363 58.0206 49.6842 57.8106 49.3676 57.8921C49.0509 57.9705 47.775 60.328 47.775 60.328C45.9724 59.4878 43.6368 57.0488 43.6368 57.0488C43.0662 55.3182 43.2543 54.7101 43.2543 54.7101C48.2139 52.0704 50.9946 51.7349 51.3739 51.55C51.4022 51.5374 51.4366 51.528 51.4492 51.55C51.7972 52.1895 52.2423 53.1927 52.2423 53.1927C52.2423 53.1927 53.1954 51.6472 56.9887 48.6C60.7507 45.5778 63.7258 45.6374 63.7258 45.6374L64.1647 45.0856L62.2775 45.1483L62.2712 43.167C65.03 40.3831 68.8233 39.057 69.1556 39.0006C69.3437 38.9693 70.0083 40.1543 70.535 41.4302C70.9426 42.4115 70.9739 43.0667 70.9394 43.6404C70.8579 44.9571 70.1024 45.791 70.1024 45.791C69.3375 45.5151 68.1681 45.3333 68.1681 45.3333L67.143 46.8883C69.4033 48.2332 69.8328 51.6691 69.7607 52.8322C69.6917 53.9577 69.8014 54.0454 69.7607 54.1364L70.5664 54.1395L71.1056 52.898C73.8581 52.6723 76.5479 55.9296 76.7611 56.1929C76.8332 56.2838 76.8959 56.5221 76.9461 56.798C77.0433 57.334 77.0966 58.0112 77.0966 58.0112L77.0934 58.0081Z" fill="url(#paint12_linear_476_16801)"/>
<path d="M50.6278 56.5722L50.3331 58.0175C50.3331 58.0175 49.3707 57.8733 49.3174 57.9642C49.2202 58.1209 47.7718 60.3248 47.7718 60.3248C45.9692 59.4846 43.6336 57.0456 43.6336 57.0456C43.0631 55.3151 43.2512 54.7069 43.2512 54.7069C44.6306 56.3967 46.6464 57.7134 46.9223 57.7134C47.1981 57.7134 48.6277 56.1615 48.6277 56.1615L50.6247 56.5722H50.6278Z" fill="url(#paint13_linear_476_16801)"/>
<path d="M52.2423 53.1864L51.9821 53.4216L50.4146 53.1331L51.3739 51.5437H51.4492C51.8693 52.2303 52.2423 53.1864 52.2423 53.1864Z" fill="url(#paint14_linear_476_16801)"/>
<path d="M65.1522 43.5088L64.1647 45.0794L62.2774 45.1421L62.2712 43.1608C63.8669 43.1232 65.1554 43.5088 65.1554 43.5088H65.1522Z" fill="url(#paint15_linear_476_16801)"/>
<path d="M68.1681 45.327L67.143 46.882C69.4033 48.2269 69.8328 51.6628 69.7607 52.8259C69.6917 53.9514 69.8014 54.0392 69.7607 54.1301L67.9267 54.1332C69.6259 47.8099 65.6758 46.0198 65.6758 46.0198L66.9925 43.7156L70.3312 43.6153C70.3312 43.6153 70.9144 42.7469 70.5382 41.424C70.9457 42.4052 70.9771 43.0604 70.9426 43.631C70.8611 44.9477 70.1055 45.7816 70.1055 45.7816C69.2685 45.5621 68.1712 45.3239 68.1712 45.3239L68.1681 45.327Z" fill="url(#paint16_linear_476_16801)"/>
<path d="M77.0934 58.0081C77.0934 58.0081 75.8332 59.4314 73.6763 60.2842C71.4943 61.1463 68.0552 61.1494 68.0145 61.1494L67.8734 59.3875C72.4254 59.0991 74.0211 58.0803 76.8332 56.3403C76.9304 56.8764 77.0934 58.0081 77.0934 58.0081Z" fill="url(#paint17_linear_476_16801)"/>
<path d="M69.1368 56.9327L68.2433 58.7291L67.4502 58.6319C67.4502 58.6319 66.5254 60.6195 63.5471 63.0617C60.5124 65.5508 56.5028 66.0274 56.5028 66.0274C56.2551 66.2625 56.1203 66.7077 56.1203 66.7077C55.5153 66.7327 54.0575 66.5133 54.0575 66.5133L55.2895 64.8361C55.2895 64.8361 58.7631 64.0743 62.1489 61.6446C64.6851 59.8263 66.657 56.7164 66.657 56.7164L69.1305 56.9359L69.1368 56.9327Z" fill="url(#paint18_linear_476_16801)"/>
<path d="M58.5656 68.7235C58.5656 68.7235 57.9762 69.6671 55.6752 71.3538C52.9947 73.3163 50.7407 74.1502 50.7407 74.1502C50.0823 73.3884 48.1794 71.8303 48.1794 68.921C48.5838 71.1218 49.75 71.7895 50.3802 72.0184C50.3802 72.0184 53.7973 71.9055 58.2584 66.7077C58.2991 66.6607 58.5688 68.7235 58.5688 68.7235H58.5656Z" fill="url(#paint19_linear_476_16801)"/>
<path d="M66.3968 51.5061C66.4062 52.7569 65.9924 54.2178 65.1021 55.7226C62.6474 59.8608 57.4997 62.9488 54.2331 61.3499C54.1735 61.3217 54.1171 61.2904 54.0606 61.259C50.8974 59.5097 52.2988 54.3777 56.1862 50.8132C59.2177 48.0356 62.8292 47.1798 64.8011 48.346C65.8263 48.9511 66.3843 50.0891 66.3968 51.5061Z" fill="url(#paint20_linear_476_16801)"/>
<path d="M55.6814 58.4689C55.6814 58.4689 56.6282 59.5599 58.6346 58.8295C60.641 58.099 62.1426 53.4185 62.1426 52.6379C62.1426 51.8572 60.083 52.0547 59.4685 52.4027C58.8572 52.7507 56.7881 55.0079 57.459 55.2995C58.1299 55.591 59.2459 54.1991 59.2459 54.1991C59.2459 54.1991 59.4121 55.87 59.3023 56.4814C59.1926 57.0927 55.6658 57.1773 55.1171 56.9422C54.5685 56.7039 59.6911 50.2427 60.4717 50.0483C61.2523 49.854 64.2431 52.083 64.4187 52.6379C64.5942 53.1959 61.0297 58.447 59.3023 59.0803C57.575 59.7135 56.462 59.2276 55.6814 58.4658V58.4689Z" fill="#47FFFF"/>
<path d="M66.3968 51.5061C65.9579 48.8789 62.4906 47.3679 58.3117 50.0389C54.1327 52.7099 52.3521 58.6695 54.0575 61.259C50.8943 59.5097 52.2956 54.3777 56.183 50.8132C59.2146 48.0356 62.8261 47.1798 64.798 48.346C65.8231 48.9511 66.3812 50.0891 66.3937 51.5061H66.3968Z" fill="url(#paint21_linear_476_16801)"/>
<g style="mix-blend-mode:multiply" opacity="0.5">
<path d="M53.418 58.7448C55.9604 52.5343 58.807 49.2395 62.268 49.4683C65.7322 49.6972 65.8012 53.3902 65.7071 54.5501C65.7071 54.5501 68.2433 48.7723 63.7101 47.9384C59.1769 47.1045 55.5215 51.4183 55.0764 51.9512C54.6312 52.4842 53.4963 55.2273 53.3709 56.5753C53.2455 57.9234 53.418 58.7479 53.418 58.7479V58.7448Z" fill="#D42F55"/>
</g>
<path d="M60.6817 50.3649C59.0171 51.3775 55.4463 56.011 55.4181 56.3966C55.3899 56.7822 58.5123 57.0957 58.9261 56.3966C59.34 55.6975 59.0923 54.4153 59.0923 54.4153L59.2459 54.2021C59.2459 54.2021 59.6785 55.8261 59.3023 56.4844C58.9261 57.1428 55.5153 57.3591 55.1171 56.9452C54.719 56.5314 59.5594 50.2395 60.3808 49.926C61.2021 49.6094 64.0362 51.9293 64.4186 52.644C64.8011 53.3588 61.2837 57.428 61.2837 57.428C61.2837 57.428 64.2744 53.7507 64.0519 52.8572C63.8293 51.9637 61.1363 50.089 60.6786 50.368L60.6817 50.3649Z" fill="#479DFF"/>
<path d="M55.6814 58.4689C56.3554 58.9861 57.7536 59.8106 59.6346 58.9172C59.6346 58.9172 57.6941 60.143 56.6909 59.6069C55.6877 59.0708 55.6814 58.4689 55.6814 58.4689Z" fill="#3645F4"/>
<path d="M58.0358 53.8073C57.9762 53.8825 56.7316 55.1428 57.0671 55.5597C57.4025 55.9767 58.481 55.0989 59.2459 54.1991C59.2459 54.1991 57.7443 55.6788 57.6565 55.1239C57.5687 54.5659 58.0358 53.8073 58.0358 53.8073Z" fill="#3645F4"/>
<path d="M59.4716 52.4028C59.8322 52.1144 61.1489 51.8541 61.6003 51.9043C62.1489 51.967 62.7069 52.1551 62.6223 52.5721C62.5377 52.989 61.1802 55.6663 61.1802 55.6663C61.1802 55.6663 62.2179 52.8856 62.1458 52.6379C61.848 51.619 59.3839 52.4749 59.4716 52.4028Z" fill="white"/>
<g style="mix-blend-mode:soft-light" opacity="0.68">
<path d="M55.7755 53.7225C55.5247 54.4341 64.7541 54.1645 65.2682 53.4153C65.7824 52.666 66.2526 49.5749 64.2588 48.6218C62.2053 47.6406 57.0984 49.9511 55.7755 53.7225Z" fill="white"/>
</g>
<g style="mix-blend-mode:multiply" opacity="0.3">
<path d="M53.3709 55.2493C51.0009 59.0803 54.4619 61.234 55.6689 61.3626C58.3148 61.6447 63.3245 58.538 64.3246 56.8858C65.2024 55.4343 54.0606 54.1364 53.3741 55.2493H53.3709Z" fill="#912774"/>
</g>
<path d="M63.4374 49.7599C61.9106 49.8853 65.1146 52.5281 65.4469 52.0077C65.7761 51.4873 65.7761 49.5687 63.4374 49.7599Z" fill="white"/>
<g style="mix-blend-mode:soft-light">
<path d="M67.0144 43.0102C68.1869 43.1356 70.1087 43.4961 70.3312 43.0541C70.5538 42.6121 69.8923 39.3642 68.9801 39.289C68.4189 39.2451 66.632 42.9694 67.0144 43.0102Z" fill="white"/>
</g>
<g style="mix-blend-mode:soft-light">
<path d="M71.3094 53.1363C70.9645 53.1707 70.7419 55.5784 71.0209 55.8543C71.3 56.1302 76.3003 56.6098 76.3034 56.1396C76.3034 55.6693 73.4035 52.9293 71.3094 53.1363Z" fill="white"/>
</g>
<g style="mix-blend-mode:multiply" opacity="0.2">
<path d="M71.0178 56.2524C70.0993 56.8293 68.1744 58.889 68.4565 59.1053C68.7387 59.3185 73.8957 58.5472 76.1184 56.5722C76.3849 56.3371 71.5194 55.9389 71.0209 56.2524H71.0178Z" fill="#DA0553"/>
</g>
<g style="mix-blend-mode:soft-light">
<path d="M48.3017 54.4405C45.6275 54.4436 43.9691 54.5878 44.3328 54.3245C46.0601 53.0611 50.7281 51.6566 50.7125 52.2679C50.6968 52.8792 48.75 54.4405 48.3048 54.4405H48.3017Z" fill="white"/>
</g>
<g style="mix-blend-mode:multiply" opacity="0.2">
<path d="M47.1448 57.425C46.1134 57.425 43.4894 55.0581 43.6775 54.8073C43.8656 54.5565 48.217 54.4436 48.3644 54.8073C48.5117 55.1709 47.5148 57.425 47.148 57.425H47.1448Z" fill="#DA0553"/>
</g>
<g style="mix-blend-mode:multiply" opacity="0.2">
<path d="M52.2423 66.8331C52.3176 66.5164 49.17 65.8518 48.9098 66.275C48.6496 66.6983 47.3016 70.6797 50.2642 71.7895C50.7407 71.9682 52.1357 67.2782 52.2423 66.8331Z" fill="#DA0553"/>
</g>
<g style="mix-blend-mode:soft-light">
<path d="M52.559 66.833C52.0292 67.3283 50.5306 71.5731 50.9037 71.7079C51.2768 71.8427 56.6972 68.3159 56.6125 67.6857C56.5279 67.0556 52.9885 66.4317 52.559 66.833Z" fill="white"/>
</g>
<g style="mix-blend-mode:multiply" opacity="0.2">
<path d="M66.3341 42.8943C65.7604 43.1325 62.7979 42.8943 62.8261 42.7406C62.8543 42.5839 66.1021 40.1982 68.4252 39.3799C68.8296 39.2357 66.6852 42.75 66.3373 42.8943H66.3341Z" fill="#DA0553"/>
</g>
<g style="mix-blend-mode:multiply" opacity="0.6">
<path d="M62.9922 42.9978C64.2713 43.2392 65.889 43.6781 66.2369 43.6498C66.5849 43.6216 70.0522 43.5119 69.9676 43.4116C69.8829 43.3144 67.0458 43.0009 66.3059 42.9978C65.5661 42.9946 62.7602 42.9539 62.9922 42.9978Z" fill="#B30053"/>
</g>
<g style="mix-blend-mode:multiply" opacity="0.6">
<path d="M50.283 53.2868C49.9851 53.4247 48.5775 54.4311 48.5117 54.5753C48.4114 54.7947 47.8126 56.7384 48.1073 56.5723C48.4051 56.4061 50.6999 53.0955 50.283 53.2868Z" fill="#B30053"/>
</g>
<g style="mix-blend-mode:multiply" opacity="0.6">
<path d="M51.3363 66.319C50.6748 65.9773 54.5936 66.7328 54.2205 66.7077C53.8443 66.6826 52.8004 66.83 52.4649 66.7077C52.1295 66.5855 51.5025 66.4036 51.3363 66.319Z" fill="#B30053"/>
</g>
<g style="mix-blend-mode:multiply" opacity="0.6">
<path d="M70.5632 54.2462C70.1996 54.6098 68.5788 57.8639 68.9957 57.7573C69.4127 57.6508 70.8548 56.262 70.8955 56.0394C70.9363 55.8136 70.8579 53.9546 70.5632 54.2462Z" fill="#B30053"/>
</g>
<g style="mix-blend-mode:soft-light">
<path d="M53.7377 51.7632C53.8349 51.9231 54.6187 52.0704 54.7691 51.898C55.3272 51.2522 60.2021 46.9353 63.6161 47.7222C67.0301 48.5091 66.3968 50.829 66.3968 52.8259C66.3968 53.3714 67.7762 52.9294 67.9424 52.688C68.6666 51.6378 67.7606 46.2456 64.7635 45.86C61.7664 45.4744 59.5312 46.6845 57.7725 48.0012C56.0137 49.3179 53.5872 51.5187 53.7377 51.7663V51.7632Z" fill="white"/>
</g>
<g style="mix-blend-mode:soft-light">
<path d="M51.7972 53.6598C51.8379 53.9733 51.0103 56.2932 50.6247 56.2305C50.2391 56.1678 48.9569 56.0267 49.1794 55.6693C49.402 55.3119 50.2359 53.4184 50.6247 53.4247C51.0134 53.4309 51.7501 53.2836 51.7972 53.6598Z" fill="white"/>
</g>
<g style="mix-blend-mode:soft-light">
<path d="M66.9266 56.5723C67.1241 56.7667 68.7543 56.8921 69.0365 56.7165C69.3186 56.5409 70.3939 54.475 70.1024 54.3715C69.8108 54.2681 68.1054 54.1615 67.9455 54.3715C67.7856 54.5816 66.7417 56.3905 66.9298 56.5723H66.9266Z" fill="white"/>
</g>
<g style="mix-blend-mode:soft-light">
<path d="M64.0236 45.6218C64.334 45.8757 65.4908 45.9949 65.6037 45.7848C65.7165 45.5748 66.8357 44.0825 66.4752 43.8631C66.1147 43.6436 65.4845 43.6875 65.1522 43.8631C64.8168 44.0386 63.7979 45.4337 64.0236 45.6218Z" fill="white"/>
</g>
<g style="mix-blend-mode:soft-light">
<path d="M51.7972 65.9646C52.1044 66.0681 53.443 66.3785 53.9102 66.2311C54.3773 66.0838 55.1892 64.9426 54.7691 64.836C54.3522 64.7326 52.7314 64.5069 52.559 64.626C52.3865 64.7451 51.6091 65.8988 51.7972 65.9615V65.9646Z" fill="white"/>
</g>
<g style="mix-blend-mode:multiply" opacity="0.2">
<path d="M51.9288 56.7164C51.8473 56.4625 50.9977 56.2462 50.8473 56.5848C50.6968 56.9202 50.0917 60.1837 51.1764 62.4598C52.2611 64.7358 54.4964 64.6198 56.0858 64.3439C57.6753 64.068 62.2336 61.4283 63.2023 60.5443C64.171 59.6602 65.6068 57.6695 65.6726 57.5159C65.7385 57.3623 64.8701 56.9359 64.45 57.1115C64.0299 57.287 61.2742 61.513 56.6156 61.8892C51.9571 62.2654 52.0135 56.9767 51.9288 56.7196V56.7164Z" fill="#DA0553"/>
</g>
<g style="mix-blend-mode:soft-light" opacity="0.3">
<path d="M52.8568 57.7604C52.6373 61.0083 55.8382 61.2309 57.9229 60.7011C60.0077 60.1713 57.8822 59.7512 56.2927 58.1053C54.7064 56.4594 52.9979 55.66 52.8537 57.7604H52.8568Z" fill="white"/>
</g>
<g style="mix-blend-mode:soft-light">
<path d="M61.1677 46.3741C62.2116 45.6687 64.3779 45.4744 65.9015 46.5873C67.4282 47.7002 67.5317 49.4778 67.3906 49.5718C67.2495 49.6659 66.4721 49.5436 66.3937 49.437C66.3153 49.3304 65.1428 47.7911 63.8199 47.5403C62.4969 47.2895 61.5533 47.3805 61.4686 47.2488C61.384 47.1171 60.9608 46.5089 61.1614 46.3741H61.1677Z" fill="white"/>
</g>
<path d="M65.9329 46.3115C65.1303 46.1767 65.5065 47.5404 65.6507 47.7818C65.7918 48.0232 67.0646 48.3806 67.1994 47.9667C67.3342 47.5529 66.284 46.371 65.9329 46.3115Z" fill="white"/>
<path d="M68.3092 40.1449C68.9989 40.2922 68.8672 42.0635 67.6163 41.982C67.2307 41.9569 68.1806 40.1166 68.3092 40.1449Z" fill="white"/>
<g style="mix-blend-mode:multiply" opacity="0.3">
<path d="M67.2746 58.5692C67.6195 57.7854 66.9298 56.7603 66.6602 56.939C66.3906 57.1177 65.0958 60.3906 61.0485 62.4566C57.0044 64.5225 55.4996 64.8141 55.5811 64.9614C55.6657 65.1088 55.8444 65.7891 57.0075 65.7922C58.1706 65.7953 61.4216 64.8204 64.0895 62.4566C66.6319 60.2025 67.1618 58.82 67.2746 58.5692Z" fill="#B30053"/>
</g>
<g style="mix-blend-mode:multiply" opacity="0.3">
<path d="M48.7186 56.4092C48.4647 56.5033 46.9787 57.588 47.0602 57.8795C47.1448 58.1711 47.4552 60.2872 47.7029 60.1273C47.9505 59.9674 49.2735 58.0049 49.2735 57.7824C49.2735 57.5598 49.0039 56.3026 48.7155 56.4092H48.7186Z" fill="#B30053"/>
</g>
<g style="mix-blend-mode:soft-light">
<path d="M50.4742 72.2409C50.5871 72.5638 50.9977 74.078 50.8473 74.0059C50.6968 73.937 48.8816 72.0152 48.8597 71.36C48.8503 71.1186 50.4303 72.1093 50.4742 72.2409Z" fill="white"/>
</g>
<g style="mix-blend-mode:soft-light">
<path d="M46.8721 58.099C47.0445 58.5661 47.3674 59.8828 47.148 59.8107C46.9285 59.7417 44.966 58.494 44.8532 57.8544C44.7403 57.2149 44.8218 56.7164 44.988 56.7164C45.2419 56.7164 46.7185 57.6757 46.8721 58.099Z" fill="white"/>
</g>
<g style="mix-blend-mode:soft-light">
<path d="M67.2088 43.9476C67.422 44.2737 67.7606 45.3458 67.679 45.5653C67.5944 45.7847 67.2276 46.7252 66.9611 46.6406C66.6978 46.5559 65.751 46.0543 66.005 45.7847C66.2589 45.512 67.0426 43.6906 67.2088 43.9476Z" fill="white"/>
</g>
<g style="mix-blend-mode:multiply" opacity="0.3">
<path d="M67.6916 43.9225C67.8044 44.3708 67.9455 45.3897 68.1681 45.327C68.3907 45.2643 69.8547 45.6907 70.1024 45.5653C70.3501 45.4399 70.5005 43.794 70.1024 43.7156C69.7042 43.6373 67.6289 43.6686 67.6916 43.9225Z" fill="#B30053"/>
</g>
<g style="mix-blend-mode:multiply" opacity="0.3">
<path d="M76.6608 56.8011C76.2062 56.4562 74.3221 58.1585 72.6073 58.7103C70.8955 59.262 69.1619 59.3843 68.5255 59.5128C67.8891 59.6414 68.1148 60.8922 68.306 61.0176C68.4973 61.143 71.6856 60.8985 73.9835 59.9141C76.2815 58.9297 76.7392 58.1146 76.8238 57.9892C76.9085 57.8638 76.805 56.9139 76.6577 56.8042L76.6608 56.8011Z" fill="#B30053"/>
</g>
<g style="mix-blend-mode:soft-light">
<path d="M53.5308 44.8034C50.493 43.9475 50.6592 48.0606 51.2391 47.9979C51.8191 47.9352 54.1233 44.9695 53.5308 44.8034Z" fill="white"/>
</g>
<g style="mix-blend-mode:soft-light">
<path d="M43.0913 60.701C41.6711 60.7575 40.5676 63.6417 40.878 64.1307C41.1884 64.6198 44.1572 60.6572 43.0913 60.701Z" fill="white"/>
</g>
<g style="mix-blend-mode:multiply" opacity="0.3">
<path d="M38.9688 66.0274C38.5894 65.2562 37.9813 64.9082 37.7869 65.344C37.5925 65.7829 38.1349 67.8771 38.301 67.7799C38.4672 67.6827 39.1569 66.4068 38.9688 66.0243V66.0274Z" fill="#B30053"/>
</g>
<g style="mix-blend-mode:multiply" opacity="0.3">
<path d="M50.0416 49.6627C48.797 48.9135 48.4647 49.1266 48.3706 49.5687C48.2766 50.0107 49.0948 51.6848 49.2077 51.5218C49.3205 51.3619 50.54 49.9605 50.0447 49.6627H50.0416Z" fill="#B30053"/>
</g>
<g style="mix-blend-mode:multiply" opacity="0.7">
<path d="M38.2321 68.1937C38.2321 68.1937 37.2853 65.8612 37.326 65.3596C37.3668 64.858 39.693 64.5257 40.7024 64.8392C40.7024 64.8392 42.0034 65.5697 42.6931 66.3001L42.1665 66.9522L41.574 67.04H38.881L38.2289 68.1937H38.2321Z" fill="#BE5286"/>
</g>
<g style="mix-blend-mode:multiply" opacity="0.7">
<path d="M50.9037 48.4745C49.5682 48.4557 47.9004 49.1203 47.9223 49.3022C47.9443 49.484 48.4176 50.9825 48.9819 51.9042L49.9224 50.6721L51.794 50.6283L52.0856 50.7254L52.6405 50.1329C52.6405 50.1329 51.7219 48.4871 50.9037 48.4745Z" fill="#BE5286"/>
</g>
<g style="mix-blend-mode:multiply" opacity="0.7">
<path d="M71.9614 47.8538C71.9614 47.8538 71.811 48.5152 71.8705 48.8726C71.8705 48.8726 71.1746 49.7191 71.1651 49.8946C71.1557 50.0702 72.1872 51.7474 72.6605 52.0797C73.1339 52.4089 76.1184 52.4089 76.4225 52.5782C76.7266 52.7443 77.4508 56.0612 77.4508 56.0612L78.0339 55.0109L80.9871 65.4473L79.9275 67.1747C79.9275 67.1747 82.4417 67.2468 82.4887 66.9114C82.5358 66.5759 81.9903 62.4127 80.2033 56.9108C78.4133 51.4088 78.2565 50.4589 77.7863 50.2802C77.316 50.1015 74.5509 50.8696 73.8205 50.368C73.09 49.8664 71.9614 47.8632 71.9614 47.8632V47.8538Z" fill="#BE5286"/>
</g>
<g style="mix-blend-mode:multiply" opacity="0.7">
<path d="M43.2543 54.7038C43.1947 54.5909 43.1979 56.1647 43.6368 57.0425L44.5867 57.9673L43.9973 58.8231C43.9973 58.8231 46.637 61.3499 47.4991 61.6007C47.4991 61.6007 48.8409 60.7888 49.007 60.8201C49.1732 60.8515 50.0635 63.9583 50.9037 64.7545L50.1638 66.1433C50.1638 66.1433 51.1639 66.3941 51.3677 66.2029C51.5714 66.0117 52.5684 64.441 52.5684 64.441C52.5684 64.441 50.515 63.1996 50.3363 60.074C50.1576 56.9484 50.631 56.5722 50.631 56.5722L48.634 56.1615C48.634 56.1615 47.8502 57.0331 46.9285 57.7133C46.9285 57.7133 43.9033 55.9452 43.2574 54.7069L43.2543 54.7038Z" fill="#BE5286"/>
</g>
<g style="mix-blend-mode:multiply" opacity="0.7">
<path d="M62.268 43.1607V43.9225C62.268 43.9225 60.5971 45.327 60.5344 45.4712C60.4717 45.6154 60.5344 46.1045 60.5344 46.1045C60.5344 46.1045 57.8759 47.1923 55.5811 49.4338C53.2863 51.6753 52.6405 52.6597 52.6405 52.6597C52.6405 52.6597 58.5155 45.6436 63.7227 45.6311C63.7227 45.6311 64.9202 44.0291 65.1491 43.5087C65.1491 43.5087 63.1239 43.0855 62.2649 43.1607H62.268Z" fill="#BE5286"/>
</g>
<g style="mix-blend-mode:multiply" opacity="0.7">
<path d="M70.3281 43.6154C70.6667 44.258 70.1024 45.7848 70.1024 45.7848L67.3718 46.534L67.143 46.882L65.6726 46.023L66.9893 43.7188L70.3281 43.6185V43.6154Z" fill="#BE5286"/>
</g>
<g style="mix-blend-mode:multiply" opacity="0.7">
<path d="M77.0934 58.0081L76.8332 56.3403C76.8332 56.3403 73.6449 59.0991 67.8734 59.3875L69.1368 56.9328L66.6633 56.7134C66.6633 56.7134 66.1523 58.7417 62.4154 61.4504C58.6785 64.159 55.2927 64.8362 55.2927 64.8362L54.0606 66.5134C54.0606 66.5134 55.3334 66.7046 57.2834 66.7548C57.2834 66.7548 60.7413 65.7171 62.7822 64.5258C64.8231 63.3345 67.0646 61.1494 67.0646 61.1494L66.9987 61.7764C66.9987 61.7764 69.3186 62.0523 71.3062 61.6447C71.3062 61.6447 72.1401 62.2122 72.927 62.1275C73.7139 62.0429 74.1309 61.7137 74.1309 61.7137L75.6294 59.2433C75.6294 59.2433 76.8238 58.3467 77.0934 58.0081Z" fill="#BE5286"/>
</g>
<g style="mix-blend-mode:multiply" opacity="0.7">
<path d="M48.6308 66.7548L47.173 67.0369C47.173 67.0369 46.1134 69.2032 46.894 72.2379L47.0602 73.5452L50.4961 73.8743L50.7375 74.1502L50.377 72.0184C50.377 72.0184 48.8597 70.9306 48.3769 69.733C47.8941 68.5354 48.6277 66.7579 48.6277 66.7579L48.6308 66.7548Z" fill="#BE5286"/>
</g>
<g style="mix-blend-mode:multiply" opacity="0.7">
<path d="M67.8734 71.1969C68.0364 72.3757 68.9487 76.8274 68.9487 76.8274C68.9487 76.8274 70.6635 77.0719 70.8548 77.2913C71.0429 77.5108 71.7984 79.5767 71.7984 79.5767L73.5101 77.0531L70.6918 67.0493L67.8734 71.1938V71.1969Z" fill="#BE5286"/>
</g>
<path d="M73.7703 80.116C73.6512 80.1567 73.4756 80.1912 73.2719 80.2194H73.2687C72.463 80.326 71.4065 80.1693 71.4065 80.1693L72.3533 78.7397C72.3533 78.7397 68.4314 67.134 68.1085 67.0901C67.7856 67.0462 65.1522 67.2876 64.8607 67.1841C64.5691 67.0807 63.1897 65.7326 63.1897 65.4912C63.1897 65.2498 62.9828 64.2153 63.1897 64.0052C63.3998 63.7983 66.5504 62.2497 67.5536 61.8703C68.5568 61.491 71.604 61.7136 71.604 61.7136C72.1495 61.8358 76.3348 75.4887 76.4194 75.6956C76.504 75.9025 74.3597 79.9122 73.7735 80.1191L73.7703 80.116Z" fill="url(#paint22_linear_476_16801)"/>
<path d="M73.7703 80.116L73.2719 80.2194H73.2687C72.463 80.326 71.4065 80.1693 71.4065 80.1693L72.3533 78.7397C72.3533 78.7397 68.4314 67.134 68.1085 67.0901C67.7856 67.0462 65.1522 67.2876 64.8607 67.1841C64.5691 67.0807 63.1897 65.7326 63.1897 65.4912C63.1897 65.2498 62.9828 64.2153 63.1897 64.0052C63.4531 64.441 64.8607 66.0775 65.4469 65.9395C66.0332 65.8016 68.7042 65.626 69.0396 66.0273C69.3751 66.4317 74.3597 78.7334 73.7735 80.116H73.7703Z" fill="url(#paint23_linear_476_16801)"/>
<g style="mix-blend-mode:soft-light">
<path d="M63.2148 64.5351C63.1615 65.0304 63.2712 65.4693 63.4249 65.6762C63.5785 65.8862 64.776 67.1591 64.9014 67.0493C65.0268 66.9427 64.9955 66.4035 64.8889 66.1966C64.7792 65.9866 63.2336 64.3783 63.2179 64.5319L63.2148 64.5351Z" fill="white"/>
</g>
<g style="mix-blend-mode:soft-light">
<path d="M63.6474 64.2718C64.5315 65.3408 65.0895 65.6073 65.5065 65.6073C65.9235 65.6073 68.5568 65.5854 68.9738 65.3565C69.3908 65.1277 71.8768 62.0993 71.1871 61.93C70.4974 61.7638 68.7418 61.7669 67.8703 61.93C66.9988 62.093 63.2368 63.7765 63.6443 64.2687L63.6474 64.2718Z" fill="white"/>
</g>
<g style="mix-blend-mode:soft-light">
<path d="M64.0957 64.0022C65.4501 64.6355 68.9268 64.2875 69.6227 63.7075C70.3187 63.1276 71.6918 62.3344 70.9488 62.1463C70.2058 61.9582 69.4158 61.8046 67.8734 62.1463C66.3279 62.488 63.6976 63.8141 64.0957 63.9991V64.0022Z" fill="white"/>
</g>
<g style="mix-blend-mode:multiply" opacity="0.2">
<path d="M71.6542 62.3782C71.1965 62.2497 69.2528 64.8549 69.3155 65.7923C69.3782 66.7296 72.7013 74.7709 73.1465 74.6329C73.5916 74.495 74.7265 72.0936 74.8017 71.4572C74.877 70.8208 72.1934 62.5287 71.6542 62.3782Z" fill="#DA0553"/>
</g>
<g style="mix-blend-mode:soft-light">
<path d="M73.1527 75.7992C73.2875 76.3509 73.786 79.4264 74.0713 79.4577C74.3566 79.4922 76.2439 76.0531 76.2031 75.655C76.1623 75.2568 75.2626 71.6892 74.9083 72.0184C74.5541 72.3475 73.0305 75.2944 73.1559 75.7992H73.1527Z" fill="white"/>
</g>
<g style="mix-blend-mode:soft-light">
<path d="M72.6041 64.0022L74.4193 69.3944C74.4193 69.3944 74.3001 67.3911 72.7703 68.0024C71.2373 68.6138 72.1746 73.8743 72.1746 73.8743L69.8391 67.8112C69.8391 67.8112 71.9207 68.4946 72.3533 66.5165C72.7859 64.5383 72.6072 64.0022 72.6072 64.0022H72.6041Z" fill="white"/>
</g>
<g style="mix-blend-mode:multiply" opacity="0.3">
<path d="M70.1494 69.2564C69.9927 69.0307 69.3907 69.617 69.7575 70.7048C70.1212 71.7895 72.2655 78.5579 72.5163 78.7555C72.7671 78.953 73.4192 77.7084 73.297 77.2945C73.1747 76.8807 70.651 69.9806 70.1494 69.2564Z" fill="#B30053"/>
</g>
<g style="mix-blend-mode:multiply" opacity="0.3">
<path d="M69.0365 66.0273C69.187 66.7013 68.1023 66.9553 67.6069 66.9521C67.1147 66.9458 65.1366 67.1528 65.1648 66.9521C65.193 66.7515 64.776 66.1966 65.5817 65.9991C66.3906 65.8016 68.9236 65.532 69.0365 66.0273Z" fill="#B30053"/>
</g>
<g style="mix-blend-mode:soft-light">
<path d="M73.4349 78.467C72.7797 78.5705 72.3815 78.9153 72.1934 79.1567C72.0053 79.3981 71.5069 79.8684 71.6918 80.0439C71.8768 80.2195 73.5101 80.1693 73.6669 79.9718C73.8236 79.7743 73.6073 78.4419 73.438 78.467H73.4349Z" fill="white"/>
</g>
<path d="M69.6886 62.8955C69.7764 63.8736 68.7606 64.7639 67.4157 64.8862C66.0708 65.0085 64.9108 64.3125 64.8231 63.3344C64.7353 62.3562 65.751 61.4659 67.0959 61.3436C68.4408 61.2214 69.6008 61.9173 69.6886 62.8955Z" fill="url(#paint24_linear_476_16801)"/>
<g style="mix-blend-mode:soft-light">
<path d="M65.7479 61.8954C64.9108 62.5349 65.9736 62.2904 67.0364 62.3029C68.0991 62.3155 69.1682 62.5882 69.0208 62.1995C68.7512 61.4816 67.052 60.8953 65.7448 61.8954H65.7479Z" fill="white"/>
</g>
<g style="mix-blend-mode:multiply" opacity="0.3">
<path d="M69.2434 62.6792C68.9957 62.3249 65.4908 62.4754 65.3874 62.5757C64.8231 63.1212 65.7542 64.2341 67.3499 64.1275C68.9456 64.021 69.5914 63.1714 69.2465 62.6792H69.2434Z" fill="#B30053"/>
</g>
<path d="M66.7981 61.513C66.8389 61.8202 67.4157 61.9738 67.6257 61.9174C67.8358 61.861 68.0396 61.5443 67.8985 61.4942C67.7574 61.4472 66.7793 61.3751 66.7981 61.513Z" fill="white"/>
<g style="mix-blend-mode:multiply" opacity="0.7">
<path d="M64.8325 63.024C65.3121 64.5602 68.654 64.6731 69.6635 63.2937C69.6635 63.2937 69.7387 64.369 68.3499 65.0618C66.9611 65.7546 65.6601 65.5289 65.1083 65.0304C64.5597 64.5288 64.8293 63.024 64.8293 63.024H64.8325Z" fill="#BE5286"/>
</g>
<g style="mix-blend-mode:multiply" opacity="0.7">
<path d="M63.1866 64.0022L63.0957 65.0242C63.0957 65.0242 62.4906 66.0462 62.4624 66.3911C62.4342 66.7359 64.0487 68.5981 64.3716 68.504C64.6914 68.4069 67.0207 68.2031 67.2746 68.3692C67.5317 68.5354 68.4565 70.338 68.4565 70.338L69.0929 69.4226L72.3533 78.7398L71.4065 80.1694C71.4065 80.1694 73.4568 80.3919 73.7735 80.1161C74.087 79.8402 72.5195 75.1001 71.1651 71.2534C69.8108 67.4068 69.3312 66.4067 69.0396 66.0305C68.7481 65.6543 65.7071 66.0305 65.2212 65.9239C64.7353 65.8205 63.1897 64.0053 63.1897 64.0053L63.1866 64.0022Z" fill="#BE5286"/>
</g>
<g style="mix-blend-mode:multiply" opacity="0.7">
<path d="M56.8445 82.552L59.7506 82.9282L59.1769 78.7743L57.5906 79.3072L56.8445 82.552Z" fill="#BE5286"/>
</g>
<path d="M62.152 77.1471L57.4997 76.7271C57.4997 76.7271 57.2865 77.3352 55.5027 83.9908C55.487 84.0504 55.6689 84.1789 55.6689 84.1789L58.6158 80.1097L59.4277 84.3263L59.6127 84.5959L62.152 78.1629V77.1503V77.1471Z" fill="#479DFF"/>
<g style="mix-blend-mode:multiply" opacity="0.7">
<path d="M59.4277 84.3263C59.4277 84.3263 61.0046 79.5016 60.9388 79.3103C60.3181 77.4293 57.2834 77.3384 57.2834 77.3384L57.4966 76.7302L62.1489 77.1503L62.7791 78.9812V79.6364L61.8197 81.4045L61.7915 83.2416L60.2585 83.0472L59.6064 84.5991L59.4215 84.3294L59.4277 84.3263Z" fill="#BE5286"/>
</g>
<g style="mix-blend-mode:multiply" opacity="0.7">
<path d="M55.4996 83.9909L58.4747 79.7053L58.6158 80.1097L55.6689 84.179L55.4996 83.9909Z" fill="#BE5286"/>
</g>
<path d="M76.2376 42.5432C75.8802 42.7909 76.1561 44.1264 76.5855 44.1797C77.015 44.233 79.8553 43.1733 79.4572 42.8097C79.0591 42.446 76.5228 42.3488 76.2376 42.5432Z" fill="#D2FFF1"/>
<defs>
<filter id="filter0_f_476_16801" x="0" y="0" width="124" height="124" filterUnits="userSpaceOnUse" color-interpolation-filters="sRGB">
<feFlood flood-opacity="0" result="BackgroundImageFix"/>
<feBlend mode="normal" in="SourceGraphic" in2="BackgroundImageFix" result="shape"/>
<feGaussianBlur stdDeviation="12.5" result="effect1_foregroundBlur_476_16801"/>
</filter>
<radialGradient id="paint0_radial_476_16801" cx="0" cy="0" r="1" gradientUnits="userSpaceOnUse" gradientTransform="translate(62 62) rotate(90) scale(37)">
<stop stop-color="#38ACCF"/>
<stop offset="1" stop-color="#38ACCF" stop-opacity="0"/>
</radialGradient>
<linearGradient id="paint1_linear_476_16801" x1="60.0956" y1="62" x2="62" y2="131.103" gradientUnits="userSpaceOnUse">
<stop stop-color="#38ACCF" stop-opacity="0"/>
<stop offset="1" stop-color="#38ACCF" stop-opacity="0.58"/>
</linearGradient>
<linearGradient id="paint2_linear_476_16801" x1="62.0016" y1="83.7494" x2="62.0016" y2="41.8534" gradientUnits="userSpaceOnUse">
<stop stop-color="#512EFF"/>
<stop offset="1" stop-color="#6B2ED8"/>
</linearGradient>
<linearGradient id="paint3_linear_476_16801" x1="39.6459" y1="66.5164" x2="85.9184" y2="66.5164" gradientUnits="userSpaceOnUse">
<stop offset="0.04" stop-color="#9190FF"/>
<stop offset="0.99" stop-color="#7A8BFF"/>
</linearGradient>
<linearGradient id="paint4_linear_476_16801" x1="37.5894" y1="57.425" x2="81.9119" y2="57.425" gradientUnits="userSpaceOnUse">
<stop offset="0.04" stop-color="#9190FF"/>
<stop offset="0.99" stop-color="#7A8BFF"/>
</linearGradient>
<linearGradient id="paint5_linear_476_16801" x1="53.8004" y1="49.8947" x2="48.3048" y2="45.5151" gradientUnits="userSpaceOnUse">
<stop stop-color="#FFEA34"/>
<stop offset="0.63" stop-color="#FF8100"/>
<stop offset="0.7" stop-color="#FFA400"/>
<stop offset="1" stop-color="#FFBA00"/>
</linearGradient>
<linearGradient id="paint6_linear_476_16801" x1="42.9878" y1="65.6009" x2="38.5769" y2="62.5537" gradientUnits="userSpaceOnUse">
<stop stop-color="#FFEA34"/>
<stop offset="0.63" stop-color="#FF8100"/>
<stop offset="0.7" stop-color="#FFA400"/>
<stop offset="1" stop-color="#FFBA00"/>
</linearGradient>
<linearGradient id="paint7_linear_476_16801" x1="81.2191" y1="66.8268" x2="75.7046" y2="45.7722" gradientUnits="userSpaceOnUse">
<stop stop-color="#FFEA34"/>
<stop offset="0.63" stop-color="#FF8100"/>
<stop offset="0.7" stop-color="#FFA400"/>
<stop offset="1" stop-color="#FFBA00"/>
</linearGradient>
<linearGradient id="paint8_linear_476_16801" x1="73.0462" y1="49.1926" x2="83.6581" y2="66.319" gradientUnits="userSpaceOnUse">
<stop offset="0.04" stop-color="#EF6300"/>
<stop offset="1" stop-color="#E13E00"/>
</linearGradient>
<linearGradient id="paint9_linear_476_16801" x1="41.3263" y1="67.3159" x2="56.1517" y2="72.9182" gradientUnits="userSpaceOnUse">
<stop offset="0.04" stop-color="#EF6300"/>
<stop offset="1" stop-color="#E13E00"/>
</linearGradient>
<linearGradient id="paint10_linear_476_16801" x1="47.9505" y1="49.4025" x2="62.7947" y2="55.0141" gradientUnits="userSpaceOnUse">
<stop offset="0.04" stop-color="#EF6300"/>
<stop offset="1" stop-color="#E13E00"/>
</linearGradient>
<linearGradient id="paint11_linear_476_16801" x1="76.2439" y1="46.1676" x2="76.2019" y2="49.0138" gradientUnits="userSpaceOnUse">
<stop offset="0.04" stop-color="#FF9000"/>
<stop offset="1" stop-color="#E13E00"/>
</linearGradient>
<linearGradient id="paint12_linear_476_16801" x1="62.4436" y1="42.098" x2="57.6188" y2="72.382" gradientUnits="userSpaceOnUse">
<stop stop-color="#FFEA34"/>
<stop offset="0.63" stop-color="#FF8100"/>
<stop offset="0.7" stop-color="#FFA400"/>
<stop offset="1" stop-color="#FFBA00"/>
</linearGradient>
<linearGradient id="paint13_linear_476_16801" x1="46.6182" y1="57.6507" x2="50.5024" y2="33.3357" gradientUnits="userSpaceOnUse">
<stop offset="0.04" stop-color="#EF6300"/>
<stop offset="1" stop-color="#E13E00"/>
</linearGradient>
<linearGradient id="paint14_linear_476_16801" x1="50.515" y1="58.2557" x2="54.3898" y2="33.9971" gradientUnits="userSpaceOnUse">
<stop stop-color="#FF5900"/>
<stop offset="0.23" stop-color="#FE6800"/>
<stop offset="0.66" stop-color="#FA9300"/>
<stop offset="0.85" stop-color="#F66A00"/>
<stop offset="1" stop-color="#F63F00"/>
</linearGradient>
<linearGradient id="paint15_linear_476_16801" x1="64.149" y1="42.2704" x2="51.1451" y2="73.8994" gradientUnits="userSpaceOnUse">
<stop offset="0.04" stop-color="#EF6300"/>
<stop offset="1" stop-color="#E13E00"/>
</linearGradient>
<linearGradient id="paint16_linear_476_16801" x1="69.5663" y1="45.5715" x2="59.1707" y2="70.8584" gradientUnits="userSpaceOnUse">
<stop offset="0.04" stop-color="#EF6300"/>
<stop offset="1" stop-color="#E13E00"/>
</linearGradient>
<linearGradient id="paint17_linear_476_16801" x1="72.0022" y1="61.7012" x2="76.1843" y2="35.5397" gradientUnits="userSpaceOnUse">
<stop offset="0.04" stop-color="#EF6300"/>
<stop offset="1" stop-color="#E13E00"/>
</linearGradient>
<linearGradient id="paint18_linear_476_16801" x1="61.9326" y1="59.6288" x2="65.9611" y2="34.4172" gradientUnits="userSpaceOnUse">
<stop offset="0.04" stop-color="#EF6300"/>
<stop offset="1" stop-color="#E13E00"/>
</linearGradient>
<linearGradient id="paint19_linear_476_16801" x1="63.6067" y1="43.9226" x2="54.0073" y2="67.2751" gradientUnits="userSpaceOnUse">
<stop offset="0.04" stop-color="#EF6300"/>
<stop offset="1" stop-color="#E13E00"/>
</linearGradient>
<linearGradient id="paint20_linear_476_16801" x1="52.3176" y1="54.8072" x2="66.3968" y2="54.8072" gradientUnits="userSpaceOnUse">
<stop stop-color="#3D069A"/>
<stop offset="1" stop-color="#6509BA"/>
</linearGradient>
<linearGradient id="paint21_linear_476_16801" x1="60.1864" y1="52.1362" x2="47.0915" y2="83.994" gradientUnits="userSpaceOnUse">
<stop offset="0.04" stop-color="#EF6300"/>
<stop offset="1" stop-color="#E13E00"/>
</linearGradient>
<linearGradient id="paint22_linear_476_16801" x1="72.3" y1="80.1348" x2="67.4753" y2="61.7073" gradientUnits="userSpaceOnUse">
<stop stop-color="#FFEA34"/>
<stop offset="0.63" stop-color="#FF8100"/>
<stop offset="0.7" stop-color="#FFA400"/>
<stop offset="1" stop-color="#FFBA00"/>
</linearGradient>
<linearGradient id="paint23_linear_476_16801" x1="65.9642" y1="63.7388" x2="68.9738" y2="73.8491" gradientUnits="userSpaceOnUse">
<stop offset="0.04" stop-color="#EF6300"/>
<stop offset="1" stop-color="#E13E00"/>
</linearGradient>
<linearGradient id="paint24_linear_476_16801" x1="67.2692" y1="61.744" x2="67.2269" y2="64.5871" gradientUnits="userSpaceOnUse">
<stop offset="0.04" stop-color="#FF9000"/>
<stop offset="1" stop-color="#E13E00"/>
</linearGradient>
</defs>
</svg>
