<svg width="18" height="18" viewBox="0 0 18 18" fill="none" xmlns="http://www.w3.org/2000/svg">
<path d="M3.58332 13.5833H2.33332V4.41666H8.83332L8.16666 5.08332C7.99999 5.24999 7.91666 5.41666 7.91666 5.66666C7.91666 6.16666 8.24999 6.49999 8.74999 6.49999C8.99999 6.49999 9.16666 6.41666 9.33332 6.24999L11.4167 4.16666C11.75 3.83332 11.75 3.33332 11.4167 2.99999L9.33332 0.916657C8.99999 0.583323 8.49999 0.583323 8.16666 0.916657C7.83332 1.24999 7.83332 1.74999 8.16666 2.08332L8.83332 2.74999H1.49999C0.99999 2.74999 0.666656 3.08332 0.666656 3.58332V14.4167C0.666656 14.9167 0.99999 15.25 1.49999 15.25H3.58332C4.08332 15.25 4.41666 14.9167 4.41666 14.4167C4.41666 13.9167 4.08332 13.5833 3.58332 13.5833ZM16.5 2.74999H14.4167C13.9167 2.74999 13.5833 3.08332 13.5833 3.58332C13.5833 4.08332 13.9167 4.41666 14.4167 4.41666H15.6667V13.5833H8.66666L9.33332 12.9167C9.66666 12.5833 9.66666 12.0833 9.33332 11.75C8.99999 11.4167 8.49999 11.4167 8.16666 11.75L6.08332 13.8333C5.74999 14.1667 5.74999 14.6667 6.08332 15L8.16666 17.0833C8.33332 17.25 8.49999 17.3333 8.74999 17.3333C8.99999 17.3333 9.16666 17.25 9.33332 17.0833C9.66666 16.75 9.66666 16.25 9.33332 15.9167L8.66666 15.25H16.5C17 15.25 17.3333 14.9167 17.3333 14.4167V3.58332C17.3333 3.08332 17 2.74999 16.5 2.74999Z" fill="#ABA7D9"/>
</svg>
