<svg width="12" height="14" viewBox="0 0 12 14" fill="none" xmlns="http://www.w3.org/2000/svg">
<path d="M11.2253 5.38741C11.1701 5.27774 11.0855 5.18552 10.981 5.12096C10.8766 5.0564 10.7563 5.02203 10.6335 5.02166H7.30846V1.03166C7.31559 0.88581 7.27453 0.74167 7.1916 0.621483C7.10867 0.501297 6.98849 0.411746 6.84961 0.366655C6.71609 0.322727 6.57209 0.322233 6.43828 0.365245C6.30446 0.408256 6.18772 0.49256 6.1048 0.606055L0.784797 7.92107C0.718141 8.0174 0.678117 8.12964 0.668775 8.24641C0.659433 8.36319 0.681105 8.48036 0.731597 8.58607C0.778095 8.70693 0.85887 8.81159 0.964008 8.88719C1.06915 8.9628 1.19407 9.00606 1.32345 9.01167H4.64845V13.0017C4.64856 13.1419 4.69299 13.2785 4.7754 13.392C4.85781 13.5054 4.97398 13.59 5.1073 13.6334C5.17412 13.6541 5.24352 13.6653 5.31345 13.6667C5.41838 13.6669 5.52188 13.6424 5.6155 13.595C5.70912 13.5476 5.7902 13.4787 5.8521 13.394L11.1721 6.07901C11.2438 5.97979 11.2866 5.86272 11.296 5.7407C11.3054 5.61867 11.2809 5.49642 11.2253 5.38741ZM5.97845 10.9535V8.34667C5.97845 8.1703 5.90839 8.00115 5.78368 7.87644C5.65897 7.75173 5.48982 7.68167 5.31345 7.68167H2.65345L5.97845 3.07986V5.68666C5.97845 5.86303 6.04852 6.03218 6.17323 6.15689C6.29794 6.2816 6.46709 6.35166 6.64346 6.35166H9.30346L5.97845 10.9535Z" fill="#ABA7D9"/>
</svg>
