<svg width="14" height="14" viewBox="0 0 14 14" fill="none" xmlns="http://www.w3.org/2000/svg">
<path d="M8.33721 6.33721H7.67054V5.67054C7.67054 5.49373 7.6003 5.32416 7.47528 5.19914C7.35026 5.07411 7.18069 5.00388 7.00388 5.00388C6.82706 5.00388 6.6575 5.07411 6.53247 5.19914C6.40745 5.32416 6.33721 5.49373 6.33721 5.67054V6.33721H5.67054C5.49373 6.33721 5.32416 6.40745 5.19914 6.53247C5.07411 6.6575 5.00388 6.82706 5.00388 7.00388C5.00388 7.18069 5.07411 7.35026 5.19914 7.47528C5.32416 7.6003 5.49373 7.67054 5.67054 7.67054H6.33721V8.33721C6.33721 8.51402 6.40745 8.68359 6.53247 8.80861C6.6575 8.93364 6.82706 9.00388 7.00388 9.00388C7.18069 9.00388 7.35026 8.93364 7.47528 8.80861C7.6003 8.68359 7.67054 8.51402 7.67054 8.33721V7.67054H8.33721C8.51402 7.67054 8.68359 7.6003 8.80861 7.47528C8.93364 7.35026 9.00388 7.18069 9.00388 7.00388C9.00388 6.82706 8.93364 6.6575 8.80861 6.53247C8.68359 6.40745 8.51402 6.33721 8.33721 6.33721ZM13.4772 6.53054L11.9105 5.00388V2.76388C11.9105 2.58706 11.8403 2.4175 11.7153 2.29247C11.5903 2.16745 11.4207 2.09721 11.2439 2.09721H9.03721L7.47721 0.530542C7.41523 0.468057 7.3415 0.418461 7.26026 0.384615C7.17902 0.350769 7.09188 0.333344 7.00388 0.333344C6.91587 0.333344 6.82873 0.350769 6.74749 0.384615C6.66625 0.418461 6.59252 0.468057 6.53054 0.530542L5.00388 2.09721H2.76388C2.58706 2.09721 2.4175 2.16745 2.29247 2.29247C2.16745 2.4175 2.09721 2.58706 2.09721 2.76388V5.00388L0.530542 6.53054C0.468057 6.59252 0.418461 6.66625 0.384615 6.74749C0.350769 6.82873 0.333344 6.91587 0.333344 7.00388C0.333344 7.09188 0.350769 7.17902 0.384615 7.26026C0.418461 7.3415 0.468057 7.41523 0.530542 7.47721L2.09721 9.03721V11.2439C2.09721 11.4207 2.16745 11.5903 2.29247 11.7153C2.4175 11.8403 2.58706 11.9105 2.76388 11.9105H5.00388L6.56388 13.4772C6.62585 13.5397 6.69959 13.5893 6.78082 13.6231C6.86206 13.657 6.9492 13.6744 7.03721 13.6744C7.12522 13.6744 7.21235 13.657 7.29359 13.6231C7.37483 13.5893 7.44857 13.5397 7.51054 13.4772L9.07054 11.9105H11.2772C11.454 11.9105 11.6236 11.8403 11.7486 11.7153C11.8736 11.5903 11.9439 11.4207 11.9439 11.2439V9.03721L13.5105 7.47721C13.5709 7.41306 13.6179 7.33759 13.649 7.25515C13.68 7.17272 13.6943 7.08495 13.6912 6.99693C13.6881 6.9089 13.6676 6.82237 13.6309 6.74232C13.5942 6.66226 13.5419 6.59029 13.4772 6.53054ZM10.7772 8.29054C10.7142 8.35229 10.6641 8.42592 10.6298 8.50717C10.5954 8.58842 10.5776 8.67567 10.5772 8.76388V10.5772H8.76388C8.67567 10.5776 8.58842 10.5954 8.50717 10.6298C8.42592 10.6641 8.35229 10.7142 8.29054 10.7772L7.00388 12.0639L5.71721 10.7772C5.65547 10.7142 5.58184 10.6641 5.50059 10.6298C5.41934 10.5954 5.33208 10.5776 5.24388 10.5772H3.43054V8.76388C3.43018 8.67567 3.41231 8.58842 3.37798 8.50717C3.34365 8.42592 3.29353 8.35229 3.23054 8.29054L1.94388 7.00388L3.23054 5.71721C3.29353 5.65547 3.34365 5.58184 3.37798 5.50059C3.41231 5.41934 3.43018 5.33208 3.43054 5.24388V3.43054H5.24388C5.33208 3.43018 5.41934 3.41231 5.50059 3.37798C5.58184 3.34365 5.65547 3.29353 5.71721 3.23054L7.00388 1.94388L8.29054 3.23054C8.35229 3.29353 8.42592 3.34365 8.50717 3.37798C8.58842 3.41231 8.67567 3.43018 8.76388 3.43054H10.5772V5.24388C10.5776 5.33208 10.5954 5.41934 10.6298 5.50059C10.6641 5.58184 10.7142 5.65547 10.7772 5.71721L12.0639 7.00388L10.7772 8.29054Z" fill="#ABA7D9"/>
</svg>
