<svg width="11" height="14" viewBox="0 0 11 14" fill="none" xmlns="http://www.w3.org/2000/svg">
    <path d="M10.2548 5.06649C10.2012 4.96007 10.1191 4.87058 10.0178 4.80793C9.9164 4.74529 9.79966 4.71193 9.68049 4.71157H6.45394V0.839704C6.46086 0.698176 6.42101 0.558304 6.34054 0.441676C6.26007 0.325048 6.14344 0.238149 6.00867 0.194392C5.87911 0.151765 5.73937 0.151286 5.60952 0.193024C5.47967 0.234762 5.36638 0.31657 5.28592 0.426704L0.123432 7.52513C0.0587492 7.61861 0.0199098 7.72753 0.0108444 7.84084C0.00177899 7.95416 0.0228093 8.06786 0.0718067 8.17044C0.116928 8.28773 0.195312 8.38929 0.297336 8.46265C0.399361 8.53602 0.520587 8.578 0.646134 8.58344H3.87269V12.4553C3.87279 12.5914 3.91591 12.724 3.99588 12.8341C4.07585 12.9442 4.18858 13.0262 4.31796 13.0684C4.38279 13.0885 4.45014 13.0993 4.518 13.1006C4.61982 13.1009 4.72026 13.0771 4.81111 13.0311C4.90195 12.9851 4.98063 12.9183 5.0407 12.836L10.2032 5.73762C10.2727 5.64134 10.3143 5.52773 10.3234 5.40932C10.3326 5.29091 10.3088 5.17228 10.2548 5.06649ZM5.16331 10.4678V7.93813C5.16331 7.76698 5.09532 7.60285 4.97431 7.48183C4.85329 7.36081 4.68915 7.29282 4.518 7.29282H1.93676L5.16331 2.82726V5.35688C5.16331 5.52803 5.2313 5.69217 5.35232 5.81319C5.47334 5.93421 5.63748 6.0022 5.80862 6.0022H8.38987L5.16331 10.4678Z"
          fill="#FFE9E5"/>
</svg>
