<svg width="17" height="17" viewBox="0 0 17 17" fill="none" xmlns="http://www.w3.org/2000/svg">
    <path d="M3.3557 13.079H2.14271V4.18371H8.45026L7.80333 4.83064C7.6416 4.99237 7.56073 5.1541 7.56073 5.3967C7.56073 5.88189 7.88419 6.20536 8.36939 6.20536C8.61199 6.20536 8.77372 6.12449 8.93545 5.96276L10.9571 3.94111C11.2806 3.61765 11.2806 3.13245 10.9571 2.80899L8.93545 0.787337C8.61199 0.463873 8.12679 0.463873 7.80333 0.787337C7.47986 1.1108 7.47986 1.596 7.80333 1.91946L8.45026 2.56639H1.33405C0.848855 2.56639 0.525391 2.88985 0.525391 3.37505V13.8876C0.525391 14.3728 0.848855 14.6963 1.33405 14.6963H3.3557C3.8409 14.6963 4.16436 14.3728 4.16436 13.8876C4.16436 13.4024 3.8409 13.079 3.3557 13.079ZM15.8899 2.56639H13.8683C13.3831 2.56639 13.0596 2.88985 13.0596 3.37505C13.0596 3.86024 13.3831 4.18371 13.8683 4.18371H15.0813V13.079H8.28852L8.93545 12.432C9.25892 12.1086 9.25892 11.6234 8.93545 11.2999C8.61199 10.9764 8.12679 10.9764 7.80333 11.2999L5.78168 13.3216C5.45821 13.645 5.45821 14.1302 5.78168 14.4537L7.80333 16.4753C7.96506 16.6371 8.12679 16.7179 8.36939 16.7179C8.61199 16.7179 8.77372 16.6371 8.93545 16.4753C9.25892 16.1519 9.25892 15.6667 8.93545 15.3432L8.28852 14.6963H15.8899C16.3751 14.6963 16.6986 14.3728 16.6986 13.8876V3.37505C16.6986 2.88985 16.3751 2.56639 15.8899 2.56639Z"
          fill="#FFE9E5"/>
</svg>
