<svg width="14" height="14" viewBox="0 0 14 14" fill="none" xmlns="http://www.w3.org/2000/svg">
    <path d="M8.42948 5.98817H7.78255V5.34124C7.78255 5.16966 7.7144 5.00512 7.59307 4.88379C7.47175 4.76247 7.3072 4.69431 7.13563 4.69431C6.96405 4.69431 6.7995 4.76247 6.67818 4.88379C6.55686 5.00512 6.4887 5.16966 6.4887 5.34124V5.98817H5.84177C5.67019 5.98817 5.50565 6.05633 5.38432 6.17765C5.263 6.29897 5.19484 6.46352 5.19484 6.6351C5.19484 6.80667 5.263 6.97122 5.38432 7.09254C5.50565 7.21387 5.67019 7.28202 5.84177 7.28202H6.4887V7.92895C6.4887 8.10053 6.55686 8.26508 6.67818 8.3864C6.7995 8.50772 6.96405 8.57588 7.13563 8.57588C7.3072 8.57588 7.47175 8.50772 7.59307 8.3864C7.7144 8.26508 7.78255 8.10053 7.78255 7.92895V7.28202H8.42948C8.60106 7.28202 8.76561 7.21387 8.88693 7.09254C9.00825 6.97122 9.07641 6.80667 9.07641 6.6351C9.07641 6.46352 9.00825 6.29897 8.88693 6.17765C8.76561 6.05633 8.60106 5.98817 8.42948 5.98817ZM13.4173 6.17578L11.897 4.69431V2.52064C11.897 2.34906 11.8289 2.18451 11.7075 2.06319C11.5862 1.94187 11.4217 1.87371 11.2501 1.87371H9.10876L7.59494 0.353428C7.5348 0.292792 7.46325 0.244664 7.38442 0.211821C7.30559 0.178977 7.22103 0.162067 7.13563 0.162067C7.05022 0.162067 6.96567 0.178977 6.88683 0.211821C6.808 0.244664 6.73645 0.292792 6.67631 0.353428L5.19484 1.87371H3.02117C2.84959 1.87371 2.68504 1.94187 2.56372 2.06319C2.4424 2.18451 2.37424 2.34906 2.37424 2.52064V4.69431L0.853958 6.17578C0.793322 6.23592 0.745195 6.30747 0.712351 6.3863C0.679507 6.46514 0.662598 6.54969 0.662598 6.6351C0.662598 6.7205 0.679507 6.80506 0.712351 6.88389C0.745195 6.96272 0.793322 7.03427 0.853958 7.09442L2.37424 8.60823V10.7496C2.37424 10.9211 2.4424 11.0857 2.56372 11.207C2.68504 11.3283 2.84959 11.3965 3.02117 11.3965H5.19484L6.70865 12.9168C6.76879 12.9774 6.84034 13.0255 6.91918 13.0584C6.99801 13.0912 7.08257 13.1081 7.16797 13.1081C7.25337 13.1081 7.33793 13.0912 7.41677 13.0584C7.4956 13.0255 7.56715 12.9774 7.62729 12.9168L9.1411 11.3965H11.2824C11.454 11.3965 11.6186 11.3283 11.7399 11.207C11.8612 11.0857 11.9294 10.9211 11.9294 10.7496V8.60823L13.4496 7.09442C13.5082 7.03217 13.5539 6.95893 13.584 6.87893C13.6141 6.79894 13.628 6.71377 13.625 6.62835C13.622 6.54293 13.6021 6.45896 13.5664 6.38128C13.5308 6.3036 13.4801 6.23375 13.4173 6.17578ZM10.7972 7.88367C10.7361 7.94358 10.6875 8.01503 10.6542 8.09388C10.6209 8.17272 10.6035 8.25739 10.6032 8.34299V10.1026H8.84352C8.75792 10.103 8.67325 10.1203 8.59441 10.1536C8.51556 10.187 8.44411 10.2356 8.3842 10.2967L7.13563 11.5453L5.88706 10.2967C5.82714 10.2356 5.75569 10.187 5.67685 10.1536C5.598 10.1203 5.51333 10.103 5.42774 10.1026H3.66809V8.34299C3.66774 8.25739 3.6504 8.17272 3.61709 8.09388C3.58377 8.01503 3.53514 7.94358 3.47402 7.88367L2.22544 6.6351L3.47402 5.38653C3.53514 5.32661 3.58377 5.25516 3.61709 5.17632C3.6504 5.09747 3.66774 5.0128 3.66809 4.92721V3.16756H5.42774C5.51333 3.16721 5.598 3.14987 5.67685 3.11656C5.75569 3.08324 5.82714 3.03461 5.88706 2.97349L7.13563 1.72491L8.3842 2.97349C8.44411 3.03461 8.51556 3.08324 8.59441 3.11656C8.67325 3.14987 8.75792 3.16721 8.84352 3.16756H10.6032V4.92721C10.6035 5.0128 10.6209 5.09747 10.6542 5.17632C10.6875 5.25516 10.7361 5.32661 10.7972 5.38653L12.0458 6.6351L10.7972 7.88367Z"
          fill="#FFE9E5"/>
</svg>
