<svg width="21" height="21" viewBox="0 0 21 21" fill="none" xmlns="http://www.w3.org/2000/svg">
    <path d="M7.15642 4.48711H5.40972C6.8653 3.2256 8.61201 2.54633 10.5528 2.54633C10.8439 2.54633 11.135 2.54633 11.4261 2.64337C11.9113 2.74041 12.3965 2.35225 12.4936 1.77002C12.5906 1.28482 12.2025 0.799623 11.6202 0.702584C11.2321 0.605545 10.941 0.605545 10.5528 0.605545C8.22385 0.605545 5.99195 1.4789 4.24525 2.93448V1.57594C4.24525 0.993702 3.85709 0.605545 3.27486 0.605545C2.69262 0.605545 2.30446 0.993702 2.30446 1.57594V5.4575C2.30446 6.03974 2.69262 6.42789 3.27486 6.42789H7.15642C7.73866 6.42789 8.12681 6.03974 8.12681 5.4575C8.12681 4.87527 7.73866 4.48711 7.15642 4.48711ZM5.70084 12.7354C5.1186 12.7354 4.73044 13.1236 4.73044 13.7058V15.4525C3.46893 13.9969 2.78966 12.2502 2.78966 10.3095C2.78966 10.0183 2.78966 9.72723 2.8867 9.43611C2.98374 8.95091 2.59558 8.46572 2.01335 8.36868C1.52815 8.27164 1.04296 8.65979 0.945916 9.24203C0.848877 9.63019 0.848877 9.9213 0.848877 10.3095C0.848877 12.6384 1.72223 14.8703 3.17782 16.617H1.81927C1.23703 16.617 0.848877 17.0052 0.848877 17.5874C0.848877 18.1696 1.23703 18.5578 1.81927 18.5578H5.70084C5.99195 18.5578 6.28307 18.3637 6.47715 18.1696C6.47715 18.0726 6.57419 17.9756 6.57419 17.8785C6.57419 17.7815 6.57419 17.7815 6.57419 17.6844V17.5874V13.7058C6.67123 13.1236 6.28307 12.7354 5.70084 12.7354ZM19.2863 4.00192C19.8686 4.00192 20.2567 3.61376 20.2567 3.03152C20.2567 2.44929 19.8686 2.06113 19.2863 2.06113H15.4048C15.3077 2.06113 15.3077 2.06113 15.2107 2.06113C15.1136 2.06113 15.0166 2.15817 14.9196 2.15817C14.8225 2.25521 14.7255 2.25521 14.7255 2.35225C14.7255 2.44929 14.6284 2.54633 14.6284 2.54633C14.6284 2.64337 14.6284 2.64337 14.6284 2.74041V2.83745V6.71901C14.6284 7.30125 15.0166 7.6894 15.5988 7.6894C16.1811 7.6894 16.5692 7.30125 16.5692 6.71901V5.16639C17.8307 6.52493 18.51 8.36868 18.51 10.3095C18.51 10.6006 18.51 10.8917 18.413 11.1828C18.3159 11.668 18.7041 12.1532 19.2863 12.2502H19.3834C19.8686 12.2502 20.2567 11.8621 20.3537 11.3769C20.3537 10.9887 20.4508 10.6976 20.4508 10.3095C20.4508 7.98052 19.5774 5.74862 18.1218 4.00192H19.2863ZM18.607 14.6762C18.51 14.5792 18.413 14.4821 18.3159 14.3851C18.2189 14.2881 18.1218 14.2881 18.0248 14.2881H17.9278H17.8307H13.9492C13.3669 14.2881 12.9788 14.6762 12.9788 15.2585C12.9788 15.8407 13.3669 16.2288 13.9492 16.2288H15.6959C14.3373 17.4904 12.4936 18.1696 10.5528 18.1696C10.2617 18.1696 9.97056 18.1696 9.67944 18.0726C9.19425 17.9756 8.70905 18.3637 8.61201 18.9459C8.51497 19.5282 8.90313 19.9163 9.48536 20.0134C9.87352 20.0134 10.1646 20.1104 10.5528 20.1104C12.8817 20.1104 15.1136 19.2371 16.8603 17.7815V19.043C16.8603 19.6252 17.2485 20.0134 17.8307 20.0134C18.413 20.0134 18.8011 19.6252 18.8011 19.043V15.1614C18.8011 14.9673 18.7041 14.7733 18.607 14.6762Z"
          fill="#FFE9E5"/>
</svg>
