<svg width="26" height="18" viewBox="0 0 26 18" fill="none" xmlns="http://www.w3.org/2000/svg">
<path d="M5.8467 15.9616H1.64926C1.36864 15.9616 1.17102 15.7245 1.17102 15.4478C1.17102 15.1711 1.41212 14.9735 1.64926 14.9735H5.8467C6.12732 14.9735 6.32494 15.2107 6.32494 15.4873C6.36446 15.7245 6.12337 15.9616 5.8467 15.9616Z" fill="#253241" stroke="#253241" stroke-width="0.2"/>
<path d="M12.5658 15.9616H11.0046C10.724 15.9616 10.5263 15.7245 10.5263 15.4478C10.5263 15.1711 10.7674 14.9735 11.0046 14.9735H12.1626L12.3642 14.183C11.965 13.9854 11.5658 13.6692 11.4433 13.5507C11.3642 13.5111 11.3247 13.4321 11.3247 13.353C10.9255 12.4045 8.56596 11.8906 7.16681 11.7721C7.08776 11.7721 6.96524 11.7326 6.92571 11.693L3.96537 9.51921C3.56618 9.20302 2.7678 9.04493 2.48718 9.0054H1.5307C1.25008 9.0054 1.05246 8.76826 1.05246 8.49159C1.05246 8.21492 1.29356 8.0173 1.5307 8.0173H2.6097C2.72827 8.0173 3.9298 8.21492 4.60961 8.72873L7.44743 10.8235C8.24581 10.9025 11.4077 11.2978 12.2456 12.8787C12.5658 13.1159 12.965 13.3926 13.127 13.3926C13.2456 13.4321 13.4076 13.5111 13.4867 13.5902C13.5657 13.7087 13.6053 13.8668 13.5657 13.9854L13.1665 15.5664C12.965 15.8035 12.7673 15.9616 12.5658 15.9616Z" fill="#253241" stroke="#253241" stroke-width="0.2"/>
<path d="M8.40786 17.1868C7.44743 17.1868 6.64905 16.3964 6.68857 15.4478C6.68857 14.4992 7.48695 13.7483 8.40786 13.7483C8.8861 13.7483 9.32877 13.9459 9.64891 14.2621C9.96906 14.5783 10.1667 15.013 10.1667 15.4873C10.1667 16.3964 9.36829 17.1868 8.40786 17.1868ZM8.40786 14.7364C8.00867 14.7364 7.649 15.0526 7.649 15.4478C7.649 15.843 7.96915 16.1988 8.36834 16.1988C8.76753 16.1988 9.08767 15.8826 9.08767 15.4873C9.08767 15.2897 9.00863 15.0921 8.89005 14.9735C8.81101 14.8154 8.60943 14.7364 8.41181 14.7364H8.40786Z" fill="#253241"/>
<path d="M8.36834 16.1988C7.96915 16.1988 7.649 15.843 7.649 15.4478C7.649 15.0526 8.00867 14.7364 8.40786 14.7364H8.41181C8.60943 14.7364 8.81101 14.8154 8.89005 14.9735C9.00863 15.0921 9.08767 15.2897 9.08767 15.4873C9.08767 15.8826 8.76753 16.1988 8.36834 16.1988ZM8.36834 16.1988V16.7126M8.40786 17.1868C7.44743 17.1868 6.64905 16.3964 6.68857 15.4478C6.68857 14.4992 7.48695 13.7483 8.40786 13.7483C8.8861 13.7483 9.32877 13.9459 9.64891 14.2621C9.96906 14.5783 10.1667 15.013 10.1667 15.4873C10.1667 16.3964 9.36829 17.1868 8.40786 17.1868Z" stroke="#253241" stroke-width="0.2"/>
<path d="M5.12738 12.2859C5.00881 12.2859 4.92581 12.2464 4.84676 12.2068C4.64519 12.0487 4.44757 11.9302 4.28552 11.8116C2.6848 10.6654 2.5267 10.5468 1.56627 10.6654C1.28565 10.7049 1.04456 10.5073 1.00503 10.2306C0.96551 9.95398 1.16313 9.71684 1.44375 9.67731C2.80337 9.51922 3.24209 9.83541 4.88233 10.9816C5.04042 11.1002 5.242 11.2187 5.44357 11.3768C5.68466 11.5349 5.72419 11.8511 5.56214 12.0487C5.44357 12.2068 5.28152 12.2859 5.12343 12.2859H5.12738Z" fill="#253241" stroke="#253241" stroke-width="0.2"/>
<path d="M3.88633 13.0764H1.49118C1.21056 13.0764 1.01294 12.8392 1.01294 12.5626C1.01294 12.2859 1.25404 12.0883 1.49118 12.0883H3.89028C4.1709 12.0883 4.36852 12.3254 4.36852 12.6021C4.36852 12.8788 4.16695 13.0764 3.89028 13.0764H3.88633Z" fill="#253241" stroke="#253241" stroke-width="0.2"/>
<path d="M20.0793 15.9616C19.7987 15.9616 19.601 15.7245 19.5576 15.4873C19.5576 15.2107 19.7987 14.9735 20.0358 14.9735H24.2332C24.5139 14.9735 24.7115 15.2107 24.755 15.4478C24.755 15.7245 24.5139 15.9616 24.2767 15.9616H20.0793Z" fill="#253241" stroke="#253241" stroke-width="0.2"/>
<path d="M13.3642 15.9616C13.1231 15.9616 12.9254 15.8035 12.8859 15.6059L12.4867 14.0249C12.4472 13.9064 12.4867 13.7483 12.5658 13.6297C12.6448 13.5111 12.7634 13.4321 12.9254 13.4321C13.0835 13.3926 13.4867 13.1554 13.8068 12.9183C14.6052 11.3373 17.8066 10.9421 18.605 10.863L21.4428 8.76826C22.1227 8.21493 23.3202 8.05683 23.4428 8.05683H24.5218C24.8024 8.05683 25 8.29398 25 8.53112C25 8.80779 24.7589 9.04493 24.5218 9.04493H23.5613C23.2412 9.08445 22.4823 9.24255 22.0831 9.55874L19.1228 11.7326C19.0437 11.7721 18.9607 11.8116 18.8422 11.8116C17.443 11.9302 15.0834 12.444 14.6843 13.3926C14.6447 13.4716 14.6052 13.5111 14.5657 13.5902C14.3641 13.6692 13.9649 13.9854 13.5657 14.183L13.7673 14.9735H14.9254C15.206 14.9735 15.4036 15.2107 15.4471 15.4478C15.4471 15.7245 15.206 15.9616 14.9688 15.9616H13.3681H13.3642Z" fill="#253241" stroke="#253241" stroke-width="0.2"/>
<path d="M17.5221 17.1868C16.5616 17.1868 15.8028 16.4359 15.8028 15.4873C15.8028 15.013 15.9609 14.5783 16.3245 14.2621C16.6446 13.9459 17.0833 13.7483 17.5655 13.7483C18.526 13.7483 19.3243 14.4992 19.3243 15.4478C19.2453 16.3964 18.4864 17.1868 17.526 17.1868H17.5221ZM17.5221 14.7364C17.3205 14.7364 17.1229 14.8154 17.0043 14.934C16.8422 15.0921 16.7632 15.2502 16.7632 15.4478C16.7632 15.843 17.0833 16.1592 17.4825 16.1592C17.8817 16.1592 18.2019 15.843 18.2019 15.4083C18.2414 15.0526 17.9212 14.7364 17.5221 14.7364Z" fill="#253241"/>
<path d="M17.4825 16.1592C17.0833 16.1592 16.7632 15.843 16.7632 15.4478C16.7632 15.2502 16.8422 15.0921 17.0043 14.934C17.1229 14.8154 17.3205 14.7364 17.5221 14.7364C17.9212 14.7364 18.2414 15.0526 18.2019 15.4083C18.2019 15.843 17.8817 16.1592 17.4825 16.1592ZM17.4825 16.1592V16.673M17.5221 17.1868C16.5616 17.1868 15.8028 16.4359 15.8028 15.4873C15.8028 15.013 15.9609 14.5783 16.3245 14.2621C16.6446 13.9459 17.0833 13.7483 17.5655 13.7483C18.526 13.7483 19.3243 14.4992 19.3243 15.4478C19.2453 16.3964 18.4864 17.1868 17.526 17.1868H17.5221Z" stroke="#253241" stroke-width="0.2"/>
<path d="M20.7986 12.2859C20.6405 12.2859 20.4785 12.2068 20.3994 12.0883C20.2413 11.8511 20.2809 11.5745 20.518 11.4164C20.7196 11.2583 20.9172 11.1397 21.0792 11.0211C22.7195 9.87493 23.1582 9.55874 24.5178 9.71683C24.7984 9.75636 24.9961 9.9935 24.9565 10.2702C24.917 10.5468 24.6759 10.7445 24.3953 10.7049C23.4349 10.5864 23.2768 10.7049 21.676 11.8511C21.5179 11.9697 21.3164 12.1278 21.1148 12.2464C20.9962 12.2464 20.9132 12.2859 20.7947 12.2859H20.7986Z" fill="#253241" stroke="#253241" stroke-width="0.2"/>
<path d="M22.0397 13.0764C21.759 13.0764 21.5614 12.8392 21.5179 12.6021C21.5179 12.3254 21.759 12.0883 21.9962 12.0883H24.3953C24.6759 12.0883 24.8735 12.3254 24.8735 12.5626C24.8735 12.8392 24.6324 13.0764 24.3953 13.0764H22.0357H22.0397Z" fill="#253241" stroke="#253241" stroke-width="0.2"/>
<path d="M11.0712 9.51988C10.9689 9.46002 10.9172 9.38401 10.8547 9.25591L8.79924 4.29938C8.72263 4.11722 8.77069 3.87061 8.9421 3.74192C9.1101 3.61123 9.34396 3.61064 9.51455 3.7104L11.9185 5.29941L12.6914 1.99693C12.723 1.78644 12.945 1.64159 13.1789 1.64099C13.4128 1.64039 13.5975 1.79422 13.6576 2.0125L14.5115 5.30481L16.8797 3.71365C17.0477 3.58296 17.3156 3.60232 17.4697 3.73819C17.6237 3.87407 17.7145 4.1103 17.6489 4.30085L15.7185 9.26154C15.613 9.52032 15.3192 9.62327 15.0946 9.53767C14.8324 9.43012 14.724 9.13783 14.8096 8.91316L16.1466 5.43691L14.4879 6.52728C14.3399 6.62385 14.1942 6.63023 14.0378 6.58454C13.8779 6.53686 13.7814 6.38881 13.7389 6.2266L13.2211 4.18389L12.7221 6.22719C12.6764 6.38361 12.5625 6.50013 12.4344 6.56258C12.2722 6.60508 12.1265 6.61146 11.99 6.53165L10.3235 5.41971L11.7758 8.87882C11.87 9.11705 11.7786 9.4299 11.4849 9.53285C11.3568 9.5953 11.177 9.58173 11.0746 9.52188L11.0712 9.51988Z" fill="#253241" stroke="#253241" stroke-width="0.2"/>
<path d="M13.0628 9.99773C12.9229 9.91593 12.8263 9.76788 12.8038 9.57155L12.7758 7.08272C12.759 6.7982 12.9869 6.56517 13.2548 6.58452C13.5428 6.56976 13.7792 6.79961 13.7619 7.06417L13.7899 9.55301C13.8066 9.83752 13.5788 10.0706 13.3108 10.0512C13.2226 10.0454 13.1344 10.0396 13.0628 9.99773Z" fill="#253241" stroke="#253241" stroke-width="0.2"/>
</svg>
