<svg width="24" height="24" viewBox="0 0 24 24" fill="none" xmlns="http://www.w3.org/2000/svg">
<path fill-rule="evenodd" clip-rule="evenodd" d="M7.14609 14.2548C7.14609 14.2548 7.35355 14.2995 7.70038 14.4258C7.8738 14.4981 8.08446 14.5875 8.32171 14.7348C8.55684 14.8913 8.8292 15.0754 9.0856 15.4751C9.2154 15.6619 9.31967 15.9643 9.3335 16.301C9.33882 16.4627 9.31009 16.6337 9.27817 16.7928L9.2037 17.0071L9.1622 17.1136L9.14093 17.1676L9.09731 17.2425L9.06114 17.307C9.05263 17.3254 9.03773 17.3517 9.00475 17.3924C8.95368 17.4608 8.88559 17.5476 8.83665 17.5923C8.73877 17.6922 8.63876 17.7725 8.53769 17.8448C8.33448 17.9763 8.13446 18.0683 7.93551 18.1486C7.39254 18.3593 6.84655 18.4699 6.31762 18.577C6.07754 18.6256 5.84097 18.6735 5.60979 18.7298L5.57416 18.739C5.22262 18.8304 4.87894 18.9198 4.62886 19.0559C4.50331 19.1243 4.41182 19.2058 4.38629 19.2453C4.3806 19.2565 4.37699 19.2628 4.37471 19.2668C4.37242 19.2709 4.37117 19.2743 4.37117 19.2743C4.37117 19.2743 4.37102 19.2767 4.37113 19.2788C4.37132 19.2824 4.37165 19.2885 4.37093 19.3009L4.37777 19.3794L4.39267 19.5477C4.39498 19.5991 4.40175 19.6133 4.40813 19.6267C4.41057 19.6318 4.41295 19.6368 4.41501 19.6437C4.42139 19.6647 4.42778 19.6858 4.43097 19.7082C4.42833 19.7302 4.44412 19.7725 4.46055 19.8165C4.4706 19.8434 4.48089 19.8709 4.48735 19.8949C4.50568 19.9616 4.53571 20.0271 4.56623 20.0937L4.57034 20.1027C4.69056 20.3814 4.85654 20.6536 5.03102 20.8969C5.37573 21.3913 5.72789 21.7964 5.97471 22.0791C6.22367 22.3697 6.36623 22.5354 6.36623 22.5354L6.36942 22.5393C6.4556 22.6406 6.45986 22.8089 6.37794 22.9168C6.329 22.9799 6.25984 23.0075 6.19495 22.9983C6.19495 22.9983 5.97897 22.9667 5.62681 22.8287C5.45339 22.7563 5.24061 22.663 5.00868 22.5223C4.77674 22.3802 4.51502 22.2093 4.25117 21.9607C3.98519 21.7162 3.70538 21.4084 3.46387 20.9784C3.40003 20.8732 3.33939 20.7641 3.29045 20.6339C3.27455 20.5912 3.258 20.5526 3.24143 20.5139C3.20588 20.4308 3.17019 20.3474 3.14044 20.2236C3.11703 20.1408 3.09682 20.0553 3.07873 19.9698C3.06064 19.8896 3.03723 19.7844 3.03723 19.7423L3.01915 19.574L3.01064 19.4898L3.00638 19.4478L3.00532 19.4373L3.00425 19.4307L3 19.3439L3.00106 19.3044C2.99043 18.9007 3.14895 18.401 3.38833 18.1065C3.62346 17.8027 3.87454 17.6436 4.10541 17.5226C4.56502 17.2991 4.9874 17.2031 5.4002 17.1347C5.73162 17.0807 6.05794 17.0412 6.372 17.0033C6.83021 16.9479 7.26232 16.8957 7.64612 16.8059C7.96423 16.7205 8.22277 16.6126 8.32171 16.4759C8.41534 16.3391 8.44832 16.2589 8.37703 16.0485C8.29937 15.8394 8.11637 15.629 7.95147 15.4633C7.80136 15.3085 7.64695 15.1887 7.51682 15.0878L7.47377 15.0543C7.18864 14.8374 7.01842 14.7388 7.01842 14.7388C6.91415 14.6796 6.86947 14.527 6.91841 14.3968C6.95884 14.2903 7.05139 14.2351 7.14076 14.2535L7.14609 14.2548ZM4.37033 19.3111V19.3137C4.37204 19.3423 4.37151 19.3322 4.37033 19.3111ZM18.3662 14.4258C18.0194 14.2995 17.8119 14.2548 17.8119 14.2548L17.8066 14.2535C17.7173 14.2351 17.6247 14.2903 17.5843 14.3968C17.5353 14.527 17.58 14.6796 17.6843 14.7388C17.6843 14.7388 17.8545 14.8374 18.1396 15.0543C18.1536 15.0653 18.168 15.0764 18.1827 15.0878C18.3128 15.1887 18.4672 15.3085 18.6173 15.4633C18.7822 15.629 18.9652 15.8394 19.0429 16.0485C19.1142 16.2589 19.0812 16.3391 18.9876 16.4759C18.8886 16.6126 18.6301 16.7205 18.312 16.8059C17.9282 16.8957 17.4961 16.9479 17.0379 17.0033C16.7238 17.0412 16.3975 17.0807 16.0661 17.1347C15.6533 17.2031 15.2309 17.2991 14.7713 17.5226C14.5404 17.6436 14.2893 17.8027 14.0542 18.1065C13.8148 18.401 13.6563 18.9007 13.6669 19.3044L13.6659 19.3439L13.6701 19.4307L13.6712 19.4373L13.6722 19.4478L13.6765 19.4898L13.685 19.574L13.7031 19.7423C13.7031 19.7844 13.7265 19.8896 13.7446 19.9698C13.7627 20.0553 13.7829 20.1408 13.8063 20.2236C13.836 20.3474 13.8717 20.4308 13.9073 20.5139C13.9239 20.5526 13.9404 20.5912 13.9563 20.6339C14.0052 20.7641 14.0659 20.8732 14.1297 20.9784C14.3712 21.4084 14.651 21.7162 14.917 21.9607C15.1809 22.2093 15.4426 22.3802 15.6745 22.5223C15.9065 22.663 16.1193 22.7563 16.2927 22.8287C16.6448 22.9667 16.8608 22.9983 16.8608 22.9983C16.9257 23.0075 16.9949 22.9799 17.0438 22.9168C17.1257 22.8089 17.1215 22.6406 17.0353 22.5393L17.0321 22.5354C17.0321 22.5354 16.8895 22.3697 16.6406 22.0791C16.3937 21.7964 16.0416 21.3913 15.6969 20.8969C15.5224 20.6536 15.3564 20.3814 15.2362 20.1027L15.2321 20.0937C15.2016 20.0271 15.1715 19.9616 15.1532 19.8949C15.1468 19.8709 15.1365 19.8434 15.1264 19.8165C15.11 19.7725 15.0942 19.7302 15.0968 19.7082C15.0936 19.6858 15.0873 19.6647 15.0809 19.6437C15.0788 19.6368 15.0764 19.6318 15.074 19.6267C15.0676 19.6133 15.0608 19.5991 15.0585 19.5477L15.0436 19.3794L15.0368 19.3009C15.0379 19.2811 15.0364 19.2775 15.037 19.2743C15.0377 19.2708 15.0407 19.2677 15.0521 19.2453C15.0777 19.2058 15.1692 19.1243 15.2947 19.0559C15.5448 18.9198 15.8885 18.8304 16.24 18.739L16.2757 18.7298C16.5068 18.6735 16.7434 18.6256 16.9835 18.577C17.5124 18.4699 18.0584 18.3593 18.6014 18.1486C18.8003 18.0683 19.0003 17.9763 19.2035 17.8448C19.3046 17.7725 19.4046 17.6922 19.5025 17.5923C19.5514 17.5476 19.6195 17.4608 19.6706 17.3924C19.7036 17.3517 19.7185 17.3254 19.727 17.307L19.7632 17.2425L19.8068 17.1676L19.8281 17.1136L19.8696 17.0071L19.944 16.7928C19.976 16.6337 20.0047 16.4627 19.9994 16.301C19.9855 15.9643 19.8813 15.6619 19.7515 15.4751C19.4951 15.0754 19.2227 14.8913 18.9876 14.7348C18.7503 14.5875 18.5397 14.4981 18.3662 14.4258ZM15.0362 19.3111V19.3137C15.0379 19.3423 15.0374 19.3322 15.0362 19.3111Z" fill="#253241"/>
<path d="M14.8064 1H9.70642C7.90642 1 7.50643 1.90001 7.27643 3.01001L6.45642 6.92999H18.0564L17.2364 3.01001C17.0064 1.90001 16.6064 1 14.8064 1Z" stroke="#253241" stroke-width="1.5" stroke-linecap="round" stroke-linejoin="round"/>
<path d="M19.4964 13.32C19.5764 14.17 18.8964 14.9 18.0264 14.9H16.6664C15.8864 14.9 15.7764 14.57 15.6364 14.15L15.4864 13.72C15.2864 13.13 15.1564 12.73 14.1064 12.73H10.3964C9.3564 12.73 9.1964 13.18 9.0164 13.72L8.8664 14.15C8.7264 14.56 8.6164 14.9 7.8364 14.9H6.4764C5.6064 14.9 4.9264 14.17 5.0064 13.32L5.41641 8.90002C5.51641 7.81002 5.7264 6.91998 7.6264 6.91998H16.8764C18.7764 6.91998 18.9864 7.81002 19.0864 8.90002L19.4964 13.32Z" stroke="#253241" stroke-width="1.5" stroke-linecap="round" stroke-linejoin="round"/>
<path d="M6.45641 4.75H5.72641" stroke="#253241" stroke-width="1.5" stroke-linecap="round" stroke-linejoin="round"/>
<path d="M18.7864 4.75H18.0564" stroke="#253241" stroke-width="1.5" stroke-linecap="round" stroke-linejoin="round"/>
<path d="M7.9064 9.83002H10.0764" stroke="#253241" stroke-width="1.5" stroke-linecap="round" stroke-linejoin="round"/>
<path d="M14.4364 9.83002H16.6064" stroke="#253241" stroke-width="1.5" stroke-linecap="round" stroke-linejoin="round"/>
</svg>
