<svg width="24" height="24" viewBox="0 0 24 24" fill="none" xmlns="http://www.w3.org/2000/svg">
<path d="M17.0115 3.345C15.4893 2.46149 13.76 1.99739 12 2C6.477 2 2 6.477 2 12C2 17.523 6.477 22 12 22C17.523 22 22 17.523 22 12C22 10.1865 21.517 8.485 20.673 7.019" stroke="#253241" stroke-width="1.5" stroke-linecap="round" stroke-linejoin="round"/>
<path d="M15.975 8.02499C15.975 8.02499 14.281 12.5475 13.5 13.3285C13.1249 13.7036 12.6162 13.9143 12.0857 13.9143C11.5553 13.9143 11.0466 13.7036 10.6715 13.3285C10.2964 12.9534 10.0857 12.4447 10.0857 11.9142C10.0857 11.3838 10.2964 10.8751 10.6715 10.5C11.4525 9.71899 15.975 8.02499 15.975 8.02499Z" stroke="#253241" stroke-width="1.5" stroke-linejoin="round"/>
</svg>
