<svg width="220" height="220" viewBox="0 0 124 124" fill="none" xmlns="http://www.w3.org/2000/svg">
<g opacity="0.4" filter="url(#filter0_f_476_16723)">
<circle cx="62" cy="62" r="37" fill="url(#paint0_radial_476_16723)"/>
</g>
<g clip-path="url(#clip0_476_16723)">
<path fill-rule="evenodd" clip-rule="evenodd" d="M78.2084 57.863C77.9007 59.8416 77.2428 62.1183 75.9506 64.4139L74.6442 58.9233C74.6442 58.9233 74.6442 58.9233 74.6442 58.9186L74.559 58.5541L72.6609 59.2688V53.977C72.6609 53.977 75.127 51.9512 78.1658 51.5725C78.1658 51.5725 78.7764 54.2232 78.2084 57.863Z" fill="url(#paint1_radial_476_16723)"/>
<path fill-rule="evenodd" clip-rule="evenodd" d="M75.5577 64.4091H75.9506L74.559 58.5493L72.6609 59.264V59.7705L74.3081 59.0558L75.5577 64.4091Z" fill="url(#paint2_linear_476_16723)"/>
<path fill-rule="evenodd" clip-rule="evenodd" d="M51.4653 53.9723V59.2641L49.5672 58.5494L48.1757 64.4092C47.3237 62.8993 46.7509 61.3988 46.3675 59.9883C45.738 57.6548 45.6339 55.5579 45.6907 54.0433C45.7475 52.5144 45.9605 51.5725 45.9605 51.5725C47.3379 51.7429 48.5922 52.2541 49.5578 52.7606C50.7222 53.3712 51.4606 53.977 51.4606 53.977L51.4653 53.9723Z" fill="url(#paint3_radial_476_16723)"/>
<path fill-rule="evenodd" clip-rule="evenodd" d="M51.4653 59.264V59.7705L49.8181 59.0558L48.5685 64.4091H48.1757L49.5672 58.5493L51.4653 59.264Z" fill="url(#paint4_linear_476_16723)"/>
<path style="mix-blend-mode:multiply" fill-rule="evenodd" clip-rule="evenodd" d="M51.4653 53.9723V59.7706L49.8229 59.0559L48.5733 64.4092H48.1804C47.3284 62.8993 46.7557 61.3988 46.3723 59.9883C46.3723 59.9883 48.1804 56.694 49.5625 52.7559C50.7269 53.3665 51.4653 53.9723 51.4653 53.9723Z" fill="url(#paint5_linear_476_16723)"/>
<path d="M72.0314 48.8509L52.4261 49.2295C52.4261 49.2295 52.5397 48.7704 52.7717 48.0415C53.4201 46.0156 55.0011 41.8929 57.718 39.6493C58.8492 38.7122 60.1793 38.1016 61.7176 38.1016C68.2969 38.1016 72.0267 48.8556 72.0267 48.8556L72.0314 48.8509Z" fill="url(#paint6_radial_476_16723)"/>
<path fill-rule="evenodd" clip-rule="evenodd" d="M73.21 65.2659H51.2428C50.5944 59.7564 51.0109 54.9663 51.328 52.5618C51.4653 51.511 51.5789 50.9193 51.5789 50.9193L62.224 49.6555L66.5266 50.1667L69.5606 50.5264L72.8739 50.9193C72.8739 50.9193 74.1377 57.3518 73.21 65.2659Z" fill="url(#paint7_radial_476_16723)"/>
<path style="mix-blend-mode:screen" opacity="0.5" fill-rule="evenodd" clip-rule="evenodd" d="M71.0469 65.5168C70.3653 57.8631 70.1665 53.7546 70.673 52.7559C70.9759 52.1595 73.139 51.369 73.139 51.369L65.4522 49.684C66.5976 50.5691 67.1135 51.0708 67.1798 52.5287C67.3786 56.8123 66.0202 65.105 66.0202 65.105L71.0422 65.5168H71.0469Z" fill="url(#paint8_radial_476_16723)"/>
<path style="mix-blend-mode:screen" opacity="0.5" fill-rule="evenodd" clip-rule="evenodd" d="M58.8966 51.9938C59.422 55.3828 59.067 59.6854 59.067 59.6854L58.8966 51.9938Z" fill="url(#paint9_radial_476_16723)"/>
<path style="mix-blend-mode:multiply" fill-rule="evenodd" clip-rule="evenodd" d="M58.7924 50.4933V59.4771C58.7924 59.4771 53.6663 60.1113 50.9068 60.6178V60.8071C50.9068 60.8071 55.1478 60.0924 59.067 59.6901C59.067 59.6901 58.854 52.415 58.8966 50.4128L58.7924 50.498V50.4933Z" fill="url(#paint10_linear_476_16723)"/>
<path style="mix-blend-mode:screen" opacity="0.3" fill-rule="evenodd" clip-rule="evenodd" d="M53.1172 65.266L51.3328 65.5168C50.902 56.4715 52.1138 51.033 52.1138 51.033C51.8913 55.629 52.9421 64.4234 53.1172 65.266Z" fill="url(#paint11_radial_476_16723)"/>
<path fill-rule="evenodd" clip-rule="evenodd" d="M50.4003 52.2636L51.328 52.5571L51.3659 52.2636C51.3659 52.2636 55.5454 51.1229 62.2193 51.1229C68.8933 51.1229 73.1295 52.5571 73.1295 52.5571L73.1911 53.0588C73.1911 53.0588 74.0573 52.5997 74.0573 52.2589C74.0573 52.2589 68.685 50.2756 62.2193 50.2756C55.7536 50.2756 50.4003 52.2589 50.4003 52.2589V52.2636Z" fill="url(#paint12_linear_476_16723)"/>
<path style="mix-blend-mode:multiply" fill-rule="evenodd" clip-rule="evenodd" d="M50.4003 52.2635C50.4003 52.2635 52.1705 50.1146 62.2288 50.1146C72.287 50.1146 74.0573 52.2635 74.0573 52.2635C74.0573 52.2635 74.0336 52.5333 73.6123 52.7984L73.1911 53.0635L73.1485 52.8457C73.1485 52.8457 71.2078 51.9133 66.1195 51.6766C59.8905 51.3831 51.9339 51.9985 51.2097 53.5699L51.328 52.5617L50.4003 52.2683V52.2635Z" fill="url(#paint13_linear_476_16723)"/>
<path fill-rule="evenodd" clip-rule="evenodd" d="M62.2288 47.3977C62.2288 47.3977 56.2222 47.1469 50.4003 49.2342V52.2683C50.4003 52.2683 56.3453 50.7489 62.2288 50.7489C68.1123 50.7489 74.0573 52.2683 74.0573 52.2683V49.2342C68.2401 47.1469 62.2288 47.3977 62.2288 47.3977Z" fill="url(#paint14_radial_476_16723)"/>
<path fill-rule="evenodd" clip-rule="evenodd" d="M46.6657 73.2651C46.2208 73.4355 53.7278 75.3714 62.2241 75.3714C70.7203 75.3714 77.7824 73.2651 77.7824 73.2651C77.7824 73.2651 71.3924 71.4949 61.1922 71.4949C50.992 71.4949 46.6657 73.2651 46.6657 73.2651Z" fill="url(#paint15_linear_476_16723)"/>
<path fill-rule="evenodd" clip-rule="evenodd" d="M65.0451 63.5856H64.444L64.8889 51.5677H65.3954C65.3954 51.5677 66.1527 55.2313 65.0498 63.5856H65.0451Z" fill="url(#paint16_radial_476_16723)"/>
<path fill-rule="evenodd" clip-rule="evenodd" d="M62.9861 54.0386C62.9861 54.0386 63.876 52.2162 64.8842 51.5725C64.8842 51.5725 65.4522 57.8346 64.4392 63.5903L63.7434 59.1647L62.9861 59.2925V54.0433V54.0386Z" fill="url(#paint17_linear_476_16723)"/>
<path style="mix-blend-mode:multiply" fill-rule="evenodd" clip-rule="evenodd" d="M64.8842 51.5725C63.876 52.2162 62.9861 54.0385 62.9861 54.0385L52.8806 65.9427L62.2288 65.2659L63.7482 59.1599L64.444 63.5856C65.4569 57.8299 64.8889 51.5677 64.8889 51.5677L64.8842 51.5725Z" fill="url(#paint18_linear_476_16723)"/>
<path fill-rule="evenodd" clip-rule="evenodd" d="M74.8761 65.1949C74.8761 65.1949 69.1205 63.9642 62.2241 63.9642C55.3277 63.9642 49.572 65.1949 49.572 65.1949L46.661 73.2651C56.9701 71.7458 62.2193 71.9351 62.2193 71.9351C62.2193 71.9351 67.4685 71.7458 77.7776 73.2651L74.8667 65.1949H74.8761Z" fill="url(#paint19_radial_476_16723)"/>
<path fill-rule="evenodd" clip-rule="evenodd" d="M55.8389 73.8994C55.8389 73.8994 61.6561 72.5693 68.4909 73.8994C68.4909 73.8994 67.2934 75.0401 62.2288 75.1016C57.1642 75.1632 55.8389 73.8994 55.8389 73.8994Z" fill="url(#paint20_radial_476_16723)"/>
<path style="mix-blend-mode:multiply" opacity="0.71" fill-rule="evenodd" clip-rule="evenodd" d="M49.2974 59.6854L48.1757 64.4092C45.9226 60.4096 45.6007 56.4762 45.6907 54.0433C46.2776 59.6381 47.6929 60.3244 49.2974 59.6901V59.6854Z" fill="url(#paint21_linear_476_16723)"/>
<path style="mix-blend-mode:multiply" opacity="0.71" fill-rule="evenodd" clip-rule="evenodd" d="M78.2084 57.863C77.9007 59.8416 77.2428 62.1183 75.9506 64.4139L74.6442 58.9233C75.1601 61.0627 77.4463 58.715 78.2036 57.8678L78.2084 57.863Z" fill="url(#paint22_linear_476_16723)"/>
<path style="mix-blend-mode:multiply" fill-rule="evenodd" clip-rule="evenodd" d="M61.9117 63.969C61.9117 63.969 62.3755 68.3189 61.9117 71.9304H62.5459C62.5459 71.9304 62.0395 65.6304 62.2288 63.969H61.9117Z" fill="url(#paint23_linear_476_16723)"/>
<path style="mix-blend-mode:multiply" fill-rule="evenodd" clip-rule="evenodd" d="M53.6805 64.5322C53.3728 68.3283 52.18 72.5504 52.18 72.5504L52.7149 72.4936C52.7149 72.4936 53.3681 66.506 54.0875 64.4849L53.6852 64.5369L53.6805 64.5322Z" fill="url(#paint24_linear_476_16723)"/>
<path style="mix-blend-mode:multiply" fill-rule="evenodd" clip-rule="evenodd" d="M70.9522 64.5559C71.2599 68.352 72.4527 72.5505 72.4527 72.5505L71.9178 72.4937C71.9178 72.4937 71.2126 66.5203 70.4931 64.4991L70.9522 64.5559Z" fill="url(#paint25_linear_476_16723)"/>
<path style="mix-blend-mode:screen" opacity="0.5" fill-rule="evenodd" clip-rule="evenodd" d="M62.2288 63.969H62.3992C62.3992 63.969 62.4749 65.796 62.5459 68.2053C62.6169 70.6192 62.6926 71.9304 62.6926 71.9304H62.5459C62.5459 71.9304 62.314 69.8288 62.2524 67.3391C62.1909 64.8541 62.2288 63.9642 62.2288 63.9642V63.969Z" fill="url(#paint26_radial_476_16723)"/>
<path style="mix-blend-mode:screen" opacity="0.5" fill-rule="evenodd" clip-rule="evenodd" d="M70.9522 64.5559C70.9522 64.5559 72.216 70.0891 72.4527 72.5504C72.4527 72.5504 71.9888 70.8843 71.4729 68.2905C70.957 65.6966 70.9522 64.5559 70.9522 64.5559Z" fill="url(#paint27_radial_476_16723)"/>
<path style="mix-blend-mode:screen" opacity="0.5" fill-rule="evenodd" clip-rule="evenodd" d="M54.0828 64.485C54.0828 64.485 53.4817 69.8904 52.7101 72.4937C52.7101 72.4937 53.0083 70.0655 53.3681 67.6799C53.7278 65.2943 54.0828 64.4802 54.0828 64.4802V64.485Z" fill="url(#paint28_radial_476_16723)"/>
<path style="mix-blend-mode:multiply" fill-rule="evenodd" clip-rule="evenodd" d="M61.7507 47.3883C61.7507 47.3883 62.0347 48.7326 61.7507 50.7537H62.2241C62.2241 50.7537 62.0016 48.6332 62.2241 47.3978L61.7507 47.3883Z" fill="url(#paint29_linear_476_16723)"/>
<path style="mix-blend-mode:multiply" fill-rule="evenodd" clip-rule="evenodd" d="M54.2248 48.1598C54.2248 48.1598 54.4662 50.0626 54.3905 51.4589L54.7597 51.3974L54.4946 48.103L54.2295 48.1598H54.2248Z" fill="url(#paint30_linear_476_16723)"/>
<path style="mix-blend-mode:multiply" fill-rule="evenodd" clip-rule="evenodd" d="M69.7216 48.0557L69.5038 51.369L69.1205 51.3122C69.1205 51.3122 69.3761 49.7786 69.4234 48.0037L69.7263 48.0605L69.7216 48.0557Z" fill="url(#paint31_linear_476_16723)"/>
<path style="mix-blend-mode:screen" opacity="0.5" fill-rule="evenodd" clip-rule="evenodd" d="M54.4946 48.103L54.6224 48.0793L54.8212 51.3879L54.4946 48.103Z" fill="url(#paint32_radial_476_16723)"/>
<path style="mix-blend-mode:screen" opacity="0.5" fill-rule="evenodd" clip-rule="evenodd" d="M62.2288 47.3977C62.2288 47.3977 62.5128 49.3431 62.2288 50.7489C62.2288 50.7489 62.1057 50.0909 62.1341 49.0449C62.1578 47.9988 62.2288 47.3977 62.2288 47.3977Z" fill="url(#paint33_radial_476_16723)"/>
<path style="mix-blend-mode:screen" opacity="0.5" fill-rule="evenodd" clip-rule="evenodd" d="M69.7216 48.0557C69.7216 48.0557 69.8494 48.5953 69.8162 49.5277C69.7831 50.4602 69.5038 51.3642 69.5038 51.3642C69.5038 51.3642 69.5654 50.427 69.6127 49.4331C69.66 48.4391 69.7216 48.0557 69.7216 48.0557Z" fill="url(#paint34_radial_476_16723)"/>
<path style="mix-blend-mode:screen" opacity="0.5" fill-rule="evenodd" clip-rule="evenodd" d="M66.006 64.0826C66.7586 64.324 66.9242 64.6174 67.0331 66.5155C67.1372 68.4135 67.1798 71.1541 67.0331 71.4902C66.8863 71.8262 65.6415 72.0014 65.6415 72.0014C65.6415 72.0014 68.6897 72.096 70.9522 72.4889C70.9522 72.4889 70.0198 72.2049 69.821 71.6984C69.6269 71.192 68.9453 65.4978 69.1157 65.1618C69.2861 64.8257 70.4931 64.4896 70.4931 64.4896C70.4931 64.4896 69.3855 64.3429 68.0744 64.2293C66.7633 64.1157 66.006 64.0731 66.006 64.0731V64.0826Z" fill="url(#paint35_radial_476_16723)"/>
<path style="mix-blend-mode:screen" opacity="0.5" fill-rule="evenodd" clip-rule="evenodd" d="M66.432 47.5728C66.432 47.5728 66.7159 47.535 66.7633 48.1361C66.8106 48.7372 66.6544 50.3371 66.5976 50.5643C66.5408 50.7915 65.7362 50.9051 65.7362 50.9051C65.7362 50.9051 67.5443 51.0707 68.685 51.2459C68.685 51.2459 68.3111 51.1559 68.2306 50.8578C68.1501 50.5596 68.2164 48.1314 68.4057 48.0556C68.5951 47.9799 69.1157 47.942 69.1157 47.942C69.1157 47.942 68.4531 47.819 67.6626 47.7148C66.8721 47.6107 66.432 47.5681 66.432 47.5681V47.5728Z" fill="url(#paint36_radial_476_16723)"/>
<path style="mix-blend-mode:screen" fill-rule="evenodd" clip-rule="evenodd" d="M55.8389 73.8994C55.8389 73.8994 56.776 85.5386 61.7507 85.5386C66.7254 85.5386 68.4862 73.8994 68.4862 73.8994C68.4862 73.8994 61.9495 72.3374 55.8341 73.8994H55.8389Z" fill="url(#paint37_radial_476_16723)"/>
<g style="mix-blend-mode:screen" opacity="0.3">
<path fill-rule="evenodd" clip-rule="evenodd" d="M59.5639 38.5228C59.5639 38.5228 58.002 44.5672 52.7717 48.0367C53.4201 46.0109 55.001 41.8929 57.718 39.6446L59.5592 38.5228H59.5639Z" fill="white"/>
</g>
<path fill-rule="evenodd" clip-rule="evenodd" d="M64.0132 39.8056C64.2073 41.1783 64.8842 42.4941 65.7361 42.745C66.5881 42.9958 66.6828 42.0492 66.3988 41.2729C66.1148 40.4967 63.8712 38.7927 64.0132 39.8009V39.8056Z" fill="white"/>
<path style="mix-blend-mode:screen" d="M65.7931 46.9017C68.3311 46.1552 69.7834 43.4926 69.0369 40.9547C68.2904 38.4167 65.6278 36.9644 63.0898 37.7109C60.5519 38.4574 59.0996 41.1199 59.8461 43.6579C60.5925 46.1959 63.2551 47.6482 65.7931 46.9017Z" fill="url(#paint38_radial_476_16723)"/>
<path style="mix-blend-mode:screen" opacity="0.5" fill-rule="evenodd" clip-rule="evenodd" d="M78.1658 51.5725C76.4618 51.9559 73.3378 53.4895 73.3378 53.4895C73.3378 53.4895 74.6253 52.5949 75.7518 52.2162C76.8783 51.8376 78.1658 51.5772 78.1658 51.5772V51.5725Z" fill="url(#paint39_radial_476_16723)"/>
<path fill-rule="evenodd" clip-rule="evenodd" d="M75.7518 52.2116C75.127 52.8127 76.6558 52.2873 77.2664 51.9702C77.735 51.7288 77.2664 51.7288 77.2664 51.7288L75.7518 52.2068V52.2116Z" fill="white"/>
<path fill-rule="evenodd" clip-rule="evenodd" d="M67.5821 64.1962C66.7585 64.305 68.4862 64.6837 69.0353 64.6411C69.5843 64.5985 69.9157 64.4234 69.2956 64.3571C68.6708 64.2908 67.5821 64.1962 67.5821 64.1962Z" fill="white"/>
<path fill-rule="evenodd" clip-rule="evenodd" d="M67.0993 47.6486C67.0568 48.1312 68.9921 48.1549 68.6136 47.8804L67.0993 47.6486Z" fill="white"/>
<path style="mix-blend-mode:screen" d="M61.7507 86.4853C68.0377 86.4853 73.1343 81.3887 73.1343 75.1017C73.1343 68.8147 68.0377 63.7181 61.7507 63.7181C55.4637 63.7181 50.3672 68.8147 50.3672 75.1017C50.3672 81.3887 55.4637 86.4853 61.7507 86.4853Z" fill="url(#paint40_radial_476_16723)"/>
<path style="mix-blend-mode:multiply" fill-rule="evenodd" clip-rule="evenodd" d="M58.4041 52.2919C58.4041 52.4386 58.2858 52.5617 58.1344 52.5617C57.983 52.5617 57.8647 52.4434 57.8647 52.2919C57.8647 52.1405 57.983 52.0222 58.1344 52.0222C58.2858 52.0222 58.4041 52.1405 58.4041 52.2919Z" fill="url(#paint41_linear_476_16723)"/>
<path fill-rule="evenodd" clip-rule="evenodd" d="M58.3805 52.2919C58.3805 52.4102 58.2858 52.5049 58.1675 52.5049C58.0492 52.5049 57.9546 52.4102 57.9546 52.2919C57.9546 52.1736 58.0492 52.079 58.1675 52.079C58.2858 52.079 58.3805 52.1736 58.3805 52.2919Z" fill="url(#paint42_linear_476_16723)"/>
<path style="mix-blend-mode:multiply" d="M58.1628 59.335C58.3118 59.335 58.4325 59.2142 58.4325 59.0653C58.4325 58.9163 58.3118 58.7955 58.1628 58.7955C58.0139 58.7955 57.8931 58.9163 57.8931 59.0653C57.8931 59.2142 58.0139 59.335 58.1628 59.335Z" fill="url(#paint43_linear_476_16723)"/>
<path d="M58.1912 59.2782C58.3088 59.2782 58.4041 59.1828 58.4041 59.0652C58.4041 58.9476 58.3088 58.8523 58.1912 58.8523C58.0736 58.8523 57.9783 58.9476 57.9783 59.0652C57.9783 59.1828 58.0736 59.2782 58.1912 59.2782Z" fill="url(#paint44_linear_476_16723)"/>
<path style="mix-blend-mode:multiply" fill-rule="evenodd" clip-rule="evenodd" d="M53.1502 59.6852C53.1502 59.8319 53.0319 59.955 52.8805 59.955C52.729 59.955 52.6107 59.8367 52.6107 59.6852C52.6107 59.5338 52.729 59.4155 52.8805 59.4155C53.0319 59.4155 53.1502 59.5338 53.1502 59.6852Z" fill="url(#paint45_linear_476_16723)"/>
<path d="M52.9089 59.8982C53.0265 59.8982 53.1218 59.8028 53.1218 59.6852C53.1218 59.5676 53.0265 59.4723 52.9089 59.4723C52.7913 59.4723 52.6959 59.5676 52.6959 59.6852C52.6959 59.8028 52.7913 59.8982 52.9089 59.8982Z" fill="url(#paint46_linear_476_16723)"/>
</g>
<path opacity="0.5" d="M99 62C99 82.4345 82.4345 99 62 99C41.5655 99 25 82.4345 25 62" stroke="url(#paint47_linear_476_16723)"/>
<defs>
<filter id="filter0_f_476_16723" x="0" y="0" width="124" height="124" filterUnits="userSpaceOnUse" color-interpolation-filters="sRGB">
<feFlood flood-opacity="0" result="BackgroundImageFix"/>
<feBlend mode="normal" in="SourceGraphic" in2="BackgroundImageFix" result="shape"/>
<feGaussianBlur stdDeviation="12.5" result="effect1_foregroundBlur_476_16723"/>
</filter>
<radialGradient id="paint0_radial_476_16723" cx="0" cy="0" r="1" gradientUnits="userSpaceOnUse" gradientTransform="translate(62 62) rotate(90) scale(37)">
<stop stop-color="#38ACCF"/>
<stop offset="1" stop-color="#38ACCF" stop-opacity="0"/>
</radialGradient>
<radialGradient id="paint1_radial_476_16723" cx="0" cy="0" r="1" gradientUnits="userSpaceOnUse" gradientTransform="translate(75.3684 49.3857) scale(20.0123 20.0123)">
<stop stop-color="#B0B4BC"/>
<stop offset="0.14" stop-color="#AAADBC"/>
<stop offset="0.34" stop-color="#9A99BD"/>
<stop offset="0.57" stop-color="#7F7ABF"/>
<stop offset="0.75" stop-color="#685EC1"/>
<stop offset="0.97" stop-color="#7A75D7"/>
</radialGradient>
<linearGradient id="paint2_linear_476_16723" x1="72.6609" y1="61.4792" x2="75.9506" y2="61.4792" gradientUnits="userSpaceOnUse">
<stop stop-color="#5B58A3"/>
<stop offset="0.44" stop-color="#5E59A2"/>
<stop offset="0.85" stop-color="#695CA2"/>
<stop offset="0.99" stop-color="#705EA2"/>
</linearGradient>
<radialGradient id="paint3_radial_476_16723" cx="0" cy="0" r="1" gradientUnits="userSpaceOnUse" gradientTransform="translate(42.5194 45.9304) scale(20.0123)">
<stop stop-color="#B0B4BC"/>
<stop offset="0.14" stop-color="#AAADBC"/>
<stop offset="0.34" stop-color="#9A99BD"/>
<stop offset="0.57" stop-color="#7F7ABF"/>
<stop offset="0.75" stop-color="#685EC1"/>
<stop offset="0.97" stop-color="#7A75D7"/>
</radialGradient>
<linearGradient id="paint4_linear_476_16723" x1="48.1757" y1="61.4792" x2="51.4653" y2="61.4792" gradientUnits="userSpaceOnUse">
<stop stop-color="#5B58A3"/>
<stop offset="0.44" stop-color="#5E59A2"/>
<stop offset="0.85" stop-color="#695CA2"/>
<stop offset="0.99" stop-color="#705EA2"/>
</linearGradient>
<linearGradient id="paint5_linear_476_16723" x1="50.9778" y1="55.4254" x2="47.3095" y2="62.0047" gradientUnits="userSpaceOnUse">
<stop stop-color="#B2A5DA"/>
<stop offset="0.41" stop-color="#A485BC"/>
<stop offset="0.76" stop-color="#9C70A9"/>
<stop offset="1" stop-color="#9969A3"/>
</linearGradient>
<radialGradient id="paint6_radial_476_16723" cx="0" cy="0" r="1" gradientUnits="userSpaceOnUse" gradientTransform="translate(64.3446 39.4884) scale(9.20624)">
<stop stop-color="#FFCC00"/>
<stop offset="0.22" stop-color="#FEC802"/>
<stop offset="0.41" stop-color="#FBBE08"/>
<stop offset="0.58" stop-color="#F7AC12"/>
<stop offset="0.75" stop-color="#F19321"/>
<stop offset="0.91" stop-color="#EA7434"/>
<stop offset="1" stop-color="#E55E42"/>
</radialGradient>
<radialGradient id="paint7_radial_476_16723" cx="0" cy="0" r="1" gradientUnits="userSpaceOnUse" gradientTransform="translate(80.1111 57.1388) scale(24.6841 24.6841)">
<stop stop-color="#FF99FF"/>
<stop offset="0.09" stop-color="#FB93FF"/>
<stop offset="0.21" stop-color="#F082FF"/>
<stop offset="0.34" stop-color="#DF66FF"/>
<stop offset="0.49" stop-color="#C63FFF"/>
<stop offset="0.64" stop-color="#A70FFF"/>
<stop offset="0.68" stop-color="#9E00FF"/>
<stop offset="0.83" stop-color="#9C00FD"/>
<stop offset="0.88" stop-color="#9600F6"/>
<stop offset="0.92" stop-color="#8B00EA"/>
<stop offset="0.95" stop-color="#7C00D9"/>
<stop offset="0.98" stop-color="#6900C3"/>
<stop offset="1" stop-color="#5200AA"/>
</radialGradient>
<radialGradient id="paint8_radial_476_16723" cx="0" cy="0" r="1" gradientUnits="userSpaceOnUse" gradientTransform="translate(68.8696 36.7573) scale(16.2446)">
<stop stop-color="white"/>
<stop offset="1" stop-color="#623964"/>
</radialGradient>
<radialGradient id="paint9_radial_476_16723" cx="0" cy="0" r="1" gradientUnits="userSpaceOnUse" gradientTransform="translate(59.0386 55.8419) scale(2.72164 2.72164)">
<stop stop-color="white"/>
<stop offset="1" stop-color="#623964"/>
</radialGradient>
<linearGradient id="paint10_linear_476_16723" x1="50.902" y1="55.6053" x2="59.0622" y2="55.6053" gradientUnits="userSpaceOnUse">
<stop stop-color="#B2A5DA"/>
<stop offset="0.41" stop-color="#A485BC"/>
<stop offset="0.76" stop-color="#9C70A9"/>
<stop offset="1" stop-color="#9969A3"/>
</linearGradient>
<radialGradient id="paint11_radial_476_16723" cx="0" cy="0" r="1" gradientUnits="userSpaceOnUse" gradientTransform="translate(46.0552 57.3566) scale(4.10849)">
<stop stop-color="white"/>
<stop offset="1" stop-color="#623964"/>
</radialGradient>
<linearGradient id="paint12_linear_476_16723" x1="50.4003" y1="51.6767" x2="74.0525" y2="51.6767" gradientUnits="userSpaceOnUse">
<stop stop-color="#5B58A2"/>
<stop offset="0.44" stop-color="#5E59A1"/>
<stop offset="0.85" stop-color="#695CA1"/>
<stop offset="0.99" stop-color="#705EA1"/>
</linearGradient>
<linearGradient id="paint13_linear_476_16723" x1="50.4003" y1="51.8423" x2="74.0525" y2="51.8423" gradientUnits="userSpaceOnUse">
<stop stop-color="#B2A5DA"/>
<stop offset="0.41" stop-color="#A485BC"/>
<stop offset="0.76" stop-color="#9C70A9"/>
<stop offset="1" stop-color="#9969A3"/>
</linearGradient>
<radialGradient id="paint14_radial_476_16723" cx="0" cy="0" r="1" gradientUnits="userSpaceOnUse" gradientTransform="translate(65.5894 50.6684) scale(10.5316)">
<stop stop-color="#B0B4BC"/>
<stop offset="0.14" stop-color="#AAADBC"/>
<stop offset="0.34" stop-color="#9A99BD"/>
<stop offset="0.57" stop-color="#7F7ABF"/>
<stop offset="0.75" stop-color="#685EC1"/>
<stop offset="0.97" stop-color="#7A75D7"/>
</radialGradient>
<linearGradient id="paint15_linear_476_16723" x1="46.6468" y1="73.4355" x2="77.7871" y2="73.4355" gradientUnits="userSpaceOnUse">
<stop stop-color="#5B58A3"/>
<stop offset="0.44" stop-color="#5E59A2"/>
<stop offset="0.85" stop-color="#695CA2"/>
<stop offset="0.99" stop-color="#705EA2"/>
</linearGradient>
<radialGradient id="paint16_radial_476_16723" cx="0" cy="0" r="1" gradientUnits="userSpaceOnUse" gradientTransform="translate(66.2048 53.8918) scale(18.3699 18.3699)">
<stop stop-color="#B0B4BC"/>
<stop offset="0.14" stop-color="#AAADBC"/>
<stop offset="0.34" stop-color="#9A99BD"/>
<stop offset="0.57" stop-color="#7F7ABF"/>
<stop offset="0.75" stop-color="#685EC1"/>
<stop offset="0.97" stop-color="#7A75D7"/>
</radialGradient>
<linearGradient id="paint17_linear_476_16723" x1="62.9861" y1="57.5791" x2="65.0451" y2="57.5791" gradientUnits="userSpaceOnUse">
<stop stop-color="#5B58A2"/>
<stop offset="0.44" stop-color="#5E59A1"/>
<stop offset="0.85" stop-color="#695CA1"/>
<stop offset="0.99" stop-color="#705EA1"/>
</linearGradient>
<linearGradient id="paint18_linear_476_16723" x1="52.8806" y1="58.7576" x2="65.0451" y2="58.7576" gradientUnits="userSpaceOnUse">
<stop stop-color="#B2A5DA"/>
<stop offset="0.41" stop-color="#A485BC"/>
<stop offset="0.76" stop-color="#9C70A9"/>
<stop offset="1" stop-color="#9969A3"/>
</linearGradient>
<radialGradient id="paint19_radial_476_16723" cx="0" cy="0" r="1" gradientUnits="userSpaceOnUse" gradientTransform="translate(66.6497 70.2169) scale(14.1147 14.1147)">
<stop stop-color="#B1B5BD"/>
<stop offset="0.14" stop-color="#ABAEBD"/>
<stop offset="0.34" stop-color="#9B9ABE"/>
<stop offset="0.57" stop-color="#807BC0"/>
<stop offset="0.75" stop-color="#685EC2"/>
<stop offset="0.97" stop-color="#7A75D8"/>
</radialGradient>
<radialGradient id="paint20_radial_476_16723" cx="0" cy="0" r="1" gradientUnits="userSpaceOnUse" gradientTransform="translate(61.7507 73) scale(9.21098 9.21098)">
<stop stop-color="#60DAFF"/>
<stop offset="0.18" stop-color="#56D3FF"/>
<stop offset="0.48" stop-color="#3CC2FF"/>
<stop offset="0.86" stop-color="#11A7FF"/>
<stop offset="1" stop-color="#009CFF"/>
</radialGradient>
<linearGradient id="paint21_linear_476_16723" x1="47.4846" y1="64.2814" x2="47.4846" y2="58.0524" gradientUnits="userSpaceOnUse">
<stop stop-color="#9969A3"/>
<stop offset="0.13" stop-color="#A174AA"/>
<stop offset="0.38" stop-color="#B694BD"/>
<stop offset="0.69" stop-color="#D9C7DD"/>
<stop offset="1" stop-color="white"/>
</linearGradient>
<linearGradient id="paint22_linear_476_16723" x1="76.4286" y1="64.2814" x2="76.4286" y2="58.0524" gradientUnits="userSpaceOnUse">
<stop stop-color="#9969A3"/>
<stop offset="0.13" stop-color="#A174AA"/>
<stop offset="0.38" stop-color="#B694BD"/>
<stop offset="0.69" stop-color="#D9C7DD"/>
<stop offset="1" stop-color="white"/>
</linearGradient>
<linearGradient id="paint23_linear_476_16723" x1="61.9117" y1="67.9497" x2="62.5412" y2="67.9497" gradientUnits="userSpaceOnUse">
<stop stop-color="#B2A5DA"/>
<stop offset="0.41" stop-color="#A485BC"/>
<stop offset="0.76" stop-color="#9C70A9"/>
<stop offset="1" stop-color="#9969A3"/>
</linearGradient>
<linearGradient id="paint24_linear_476_16723" x1="52.1753" y1="68.5176" x2="54.0828" y2="68.5176" gradientUnits="userSpaceOnUse">
<stop stop-color="#B2A5DA"/>
<stop offset="0.41" stop-color="#A485BC"/>
<stop offset="0.76" stop-color="#9C70A9"/>
<stop offset="1" stop-color="#9969A3"/>
</linearGradient>
<linearGradient id="paint25_linear_476_16723" x1="72.448" y1="68.5272" x2="70.4931" y2="68.5272" gradientUnits="userSpaceOnUse">
<stop stop-color="#B2A5DA"/>
<stop offset="0.41" stop-color="#A485BC"/>
<stop offset="0.76" stop-color="#9C70A9"/>
<stop offset="1" stop-color="#9969A3"/>
</linearGradient>
<radialGradient id="paint26_radial_476_16723" cx="0" cy="0" r="1" gradientUnits="userSpaceOnUse" gradientTransform="translate(62.4512 67.9497) scale(2.82104)">
<stop stop-color="white"/>
<stop offset="1" stop-color="#623964"/>
</radialGradient>
<radialGradient id="paint27_radial_476_16723" cx="0" cy="0" r="1" gradientUnits="userSpaceOnUse" gradientTransform="translate(71.7001 68.5555) scale(2.87784)">
<stop stop-color="white"/>
<stop offset="1" stop-color="#623964"/>
</radialGradient>
<radialGradient id="paint28_radial_476_16723" cx="0" cy="0" r="1" gradientUnits="userSpaceOnUse" gradientTransform="translate(53.3965 68.4893) scale(2.87311)">
<stop stop-color="white"/>
<stop offset="1" stop-color="#623964"/>
</radialGradient>
<linearGradient id="paint29_linear_476_16723" x1="61.7507" y1="49.0686" x2="62.2288" y2="49.0686" gradientUnits="userSpaceOnUse">
<stop stop-color="#B2A5DA"/>
<stop offset="0.41" stop-color="#A485BC"/>
<stop offset="0.76" stop-color="#9C70A9"/>
<stop offset="1" stop-color="#9969A3"/>
</linearGradient>
<linearGradient id="paint30_linear_476_16723" x1="54.2248" y1="49.7833" x2="54.7597" y2="49.7833" gradientUnits="userSpaceOnUse">
<stop stop-color="#B2A5DA"/>
<stop offset="0.41" stop-color="#A485BC"/>
<stop offset="0.76" stop-color="#9C70A9"/>
<stop offset="1" stop-color="#9969A3"/>
</linearGradient>
<linearGradient id="paint31_linear_476_16723" x1="69.1157" y1="49.684" x2="69.7216" y2="49.684" gradientUnits="userSpaceOnUse">
<stop stop-color="#B2A5DA"/>
<stop offset="0.41" stop-color="#A485BC"/>
<stop offset="0.76" stop-color="#9C70A9"/>
<stop offset="1" stop-color="#9969A3"/>
</linearGradient>
<radialGradient id="paint32_radial_476_16723" cx="0" cy="0" r="1" gradientUnits="userSpaceOnUse" gradientTransform="translate(54.6603 49.736) scale(1.17386 1.17386)">
<stop stop-color="white"/>
<stop offset="1" stop-color="#623964"/>
</radialGradient>
<radialGradient id="paint33_radial_476_16723" cx="0" cy="0" r="1" gradientUnits="userSpaceOnUse" gradientTransform="translate(62.2383 49.0733) scale(1.18806 1.18806)">
<stop stop-color="white"/>
<stop offset="1" stop-color="#623964"/>
</radialGradient>
<radialGradient id="paint34_radial_476_16723" cx="0" cy="0" r="1" gradientUnits="userSpaceOnUse" gradientTransform="translate(69.66 49.7123) scale(1.17859)">
<stop stop-color="white"/>
<stop offset="1" stop-color="#623964"/>
</radialGradient>
<radialGradient id="paint35_radial_476_16723" cx="0" cy="0" r="1" gradientUnits="userSpaceOnUse" gradientTransform="translate(68.2969 68.2905) scale(3.51683)">
<stop stop-color="white"/>
<stop offset="1" stop-color="#623964"/>
</radialGradient>
<radialGradient id="paint36_radial_476_16723" cx="0" cy="0" r="1" gradientUnits="userSpaceOnUse" gradientTransform="translate(67.4259 49.4094) scale(1.76552)">
<stop stop-color="white"/>
<stop offset="1" stop-color="#623964"/>
</radialGradient>
<radialGradient id="paint37_radial_476_16723" cx="0" cy="0" r="1" gradientUnits="userSpaceOnUse" gradientTransform="translate(62.0395 65.6162) scale(23.2546 23.2546)">
<stop stop-color="#067FFF"/>
<stop offset="0.17" stop-color="#0462C4"/>
<stop offset="0.4" stop-color="#033F7F"/>
<stop offset="0.6" stop-color="#012448"/>
<stop offset="0.78" stop-color="#001021"/>
<stop offset="0.92" stop-color="#000408"/>
<stop offset="1"/>
</radialGradient>
<radialGradient id="paint38_radial_476_16723" cx="0" cy="0" r="1" gradientUnits="userSpaceOnUse" gradientTransform="translate(64.4416 42.3111) rotate(3.63) scale(4.79009)">
<stop stop-color="#F3FF09"/>
<stop offset="0.07" stop-color="#DDE808"/>
<stop offset="0.27" stop-color="#9BA205"/>
<stop offset="0.46" stop-color="#636803"/>
<stop offset="0.63" stop-color="#383B02"/>
<stop offset="0.78" stop-color="#191B00"/>
<stop offset="0.91" stop-color="#060700"/>
<stop offset="1"/>
</radialGradient>
<radialGradient id="paint39_radial_476_16723" cx="0" cy="0" r="1" gradientUnits="userSpaceOnUse" gradientTransform="translate(75.7518 52.5286) scale(1.83652)">
<stop stop-color="white"/>
<stop offset="1" stop-color="#623964"/>
</radialGradient>
<radialGradient id="paint40_radial_476_16723" cx="0" cy="0" r="1" gradientUnits="userSpaceOnUse" gradientTransform="translate(61.7507 75.1017) scale(11.3836)">
<stop stop-color="#067FFF"/>
<stop offset="0.17" stop-color="#0462C4"/>
<stop offset="0.4" stop-color="#033F7F"/>
<stop offset="0.6" stop-color="#012448"/>
<stop offset="0.78" stop-color="#001021"/>
<stop offset="0.92" stop-color="#000408"/>
<stop offset="1"/>
</radialGradient>
<linearGradient id="paint41_linear_476_16723" x1="57.8694" y1="52.2919" x2="58.4041" y2="52.2919" gradientUnits="userSpaceOnUse">
<stop stop-color="#B2A5DA"/>
<stop offset="0.41" stop-color="#A485BC"/>
<stop offset="0.76" stop-color="#9C70A9"/>
<stop offset="1" stop-color="#9969A3"/>
</linearGradient>
<linearGradient id="paint42_linear_476_16723" x1="57.9499" y1="52.2919" x2="58.3805" y2="52.2919" gradientUnits="userSpaceOnUse">
<stop stop-color="#5B58A2"/>
<stop offset="0.44" stop-color="#5E59A1"/>
<stop offset="0.85" stop-color="#695CA1"/>
<stop offset="0.99" stop-color="#705EA1"/>
</linearGradient>
<linearGradient id="paint43_linear_476_16723" x1="57.8931" y1="59.0653" x2="58.4325" y2="59.0653" gradientUnits="userSpaceOnUse">
<stop stop-color="#B2A5DA"/>
<stop offset="0.41" stop-color="#A485BC"/>
<stop offset="0.76" stop-color="#9C70A9"/>
<stop offset="1" stop-color="#9969A3"/>
</linearGradient>
<linearGradient id="paint44_linear_476_16723" x1="57.9783" y1="59.0652" x2="58.4041" y2="59.0652" gradientUnits="userSpaceOnUse">
<stop stop-color="#5B58A2"/>
<stop offset="0.44" stop-color="#5E59A1"/>
<stop offset="0.85" stop-color="#695CA1"/>
<stop offset="0.99" stop-color="#705EA1"/>
</linearGradient>
<linearGradient id="paint45_linear_476_16723" x1="52.6107" y1="59.6852" x2="53.1502" y2="59.6852" gradientUnits="userSpaceOnUse">
<stop stop-color="#B2A5DA"/>
<stop offset="0.41" stop-color="#A485BC"/>
<stop offset="0.76" stop-color="#9C70A9"/>
<stop offset="1" stop-color="#9969A3"/>
</linearGradient>
<linearGradient id="paint46_linear_476_16723" x1="52.6959" y1="59.6852" x2="53.1218" y2="59.6852" gradientUnits="userSpaceOnUse">
<stop stop-color="#5B58A2"/>
<stop offset="0.44" stop-color="#5E59A1"/>
<stop offset="0.85" stop-color="#695CA1"/>
<stop offset="0.99" stop-color="#705EA1"/>
</linearGradient>
<linearGradient id="paint47_linear_476_16723" x1="60.0956" y1="62" x2="62" y2="131.103" gradientUnits="userSpaceOnUse">
<stop stop-color="#38ACCF" stop-opacity="0"/>
<stop offset="1" stop-color="#38ACCF" stop-opacity="0.58"/>
</linearGradient>
<clipPath id="clip0_476_16723">
<rect width="32.7733" height="48.9706" fill="white" transform="translate(45.6765 37.5146)"/>
</clipPath>
</defs>
</svg>
