<svg width="220" height="220" viewBox="0 0 124 124" fill="none" xmlns="http://www.w3.org/2000/svg">
<g opacity="0.4" filter="url(#filter0_f_476_16881)">
<circle cx="62" cy="62" r="37" fill="url(#paint0_radial_476_16881)"/>
</g>
<path opacity="0.15" fill-rule="evenodd" clip-rule="evenodd" d="M69.4079 50.2195C70.4131 49.1544 71.4184 48.0833 72.4177 47.0123L72.5254 46.8986L78.8382 53.2114L78.7245 53.3191C77.6534 54.3184 76.5823 55.3236 75.5172 56.3289C75.1463 56.6819 75.0804 57.2444 75.3676 57.6693L75.4395 57.771C76.5584 59.4404 78.0364 62.2289 77.9167 64.2813C77.8928 64.6822 77.803 65.0711 77.6295 65.4361C77.5397 65.6276 77.3602 65.837 77.2286 65.9986C77.091 66.1602 76.9473 66.3217 76.8037 66.4773C76.1874 67.1535 75.4454 67.71 74.7872 68.3442C72.9742 70.0855 70.9995 71.6652 69.0907 73.3047C67.1699 74.9503 65.8715 76.0752 63.8669 77.619C63.1369 78.1815 62.4009 78.732 61.641 79.2526C61.4615 79.3722 61.2879 79.4979 61.1084 79.6116C60.9289 79.7253 60.7195 79.8569 60.522 79.9347C57.1592 80.6348 52.8569 77.2959 50.6549 75.0879C48.4529 72.8799 45.1139 68.5836 45.8021 65.2447C45.8858 65.0233 46.0175 64.8138 46.1312 64.6343C46.2449 64.4548 46.3705 64.2753 46.4902 64.1018C47.0048 63.3418 47.5613 62.6058 48.1238 61.8758C49.6676 59.8653 50.7925 58.5728 52.438 56.652C54.0716 54.7432 55.6513 52.7686 57.3985 50.9555C58.0328 50.2973 58.5893 49.5553 59.2654 48.939C59.421 48.7954 59.5826 48.6518 59.7441 48.5142C59.9057 48.3765 60.1151 48.203 60.3066 48.1133C60.6716 47.9397 61.0606 47.85 61.4615 47.826C63.5139 47.7064 66.3023 49.1843 67.9718 50.3033L68.0735 50.3751C68.4983 50.6623 69.0608 50.5965 69.4138 50.2255L69.4079 50.2195Z" fill="url(#paint1_linear_476_16881)"/>
<path fill-rule="evenodd" clip-rule="evenodd" d="M63.1309 65.1489C55.5196 65.1489 49.3504 63.2939 49.3504 61.0082C49.3504 60.685 49.4701 60.3739 49.6975 60.0747C48.2315 61.9536 46.9809 63.6829 46.2688 64.9036C45.6944 65.8969 45.5388 66.5192 45.9038 67.8595C46.6458 70.5881 48.9974 73.4483 50.6369 75.0939C52.2764 76.7334 55.1427 79.085 57.8652 79.827C59.2056 80.192 59.8339 80.0424 60.8212 79.462C64.8303 77.1283 74.3384 68.9605 76.6721 66.3816C77.3243 65.6635 77.6893 65.2865 77.7492 64.2753C77.815 63.1683 77.3961 61.8279 76.8217 60.5773C76.8696 60.7209 76.8935 60.8646 76.8935 61.0082C76.8935 63.2939 70.7243 65.1489 63.113 65.1489H63.1309Z" fill="url(#paint2_linear_476_16881)"/>
<g opacity="0.65">
<path style="mix-blend-mode:screen" opacity="0.45" fill-rule="evenodd" clip-rule="evenodd" d="M52.2166 67.345C52.2166 68.44 51.331 69.3256 50.236 69.3256C49.141 69.3256 48.2554 68.44 48.2554 67.345C48.2554 66.25 49.141 65.3644 50.236 65.3644C51.331 65.3644 52.2166 66.25 52.2166 67.345Z" fill="url(#paint3_radial_476_16881)"/>
<path style="mix-blend-mode:screen" fill-rule="evenodd" clip-rule="evenodd" d="M50.236 65.9388C50.966 65.9388 51.5225 66.3816 51.5225 67.0877C51.5225 67.7938 50.8643 68.2665 50.236 68.2665C49.6077 68.2665 48.9495 67.7938 48.9495 67.0877C48.9495 66.3816 49.5 65.9388 50.236 65.9388Z" fill="url(#paint4_radial_476_16881)"/>
<path style="mix-blend-mode:screen" fill-rule="evenodd" clip-rule="evenodd" d="M50.236 65.9089C51.0677 65.9089 51.6721 66.5492 51.6721 67.345C51.6721 68.1409 51.0917 68.7811 50.236 68.7811C49.3803 68.7811 48.7999 68.1409 48.7999 67.345C48.7999 66.5492 49.4043 65.9089 50.236 65.9089Z" fill="url(#paint5_radial_476_16881)"/>
</g>
<g opacity="0.65">
<path style="mix-blend-mode:screen" opacity="0.45" fill-rule="evenodd" clip-rule="evenodd" d="M61.3837 69.7086C61.3837 71.6174 59.8399 73.1612 57.9311 73.1612C56.0223 73.1612 54.4785 71.6174 54.4785 69.7086C54.4785 67.7998 56.0223 66.256 57.9311 66.256C59.8399 66.256 61.3837 67.7998 61.3837 69.7086Z" fill="url(#paint6_radial_476_16881)"/>
<path style="mix-blend-mode:screen" fill-rule="evenodd" clip-rule="evenodd" d="M57.9311 67.2552C59.2056 67.2552 60.169 68.0212 60.169 69.2598C60.169 70.4984 59.0201 71.3122 57.9311 71.3122C56.842 71.3122 55.6931 70.4924 55.6931 69.2598C55.6931 68.0271 56.6565 67.2552 57.9311 67.2552Z" fill="url(#paint7_radial_476_16881)"/>
<path style="mix-blend-mode:screen" fill-rule="evenodd" clip-rule="evenodd" d="M57.9311 67.2074C59.3791 67.2074 60.4323 68.3264 60.4323 69.7086C60.4323 71.0908 59.421 72.2098 57.9311 72.2098C56.4411 72.2098 55.4299 71.0908 55.4299 69.7086C55.4299 68.3264 56.477 67.2074 57.9311 67.2074Z" fill="url(#paint8_radial_476_16881)"/>
</g>
<g opacity="0.65">
<path style="mix-blend-mode:screen" opacity="0.45" fill-rule="evenodd" clip-rule="evenodd" d="M57.2908 72.5209C57.2908 73.4244 56.5548 74.1604 55.6513 74.1604C54.7477 74.1604 54.0117 73.4244 54.0117 72.5209C54.0117 71.6173 54.7477 70.8813 55.6513 70.8813C56.5548 70.8813 57.2908 71.6173 57.2908 72.5209Z" fill="url(#paint9_radial_476_16881)"/>
<path style="mix-blend-mode:screen" fill-rule="evenodd" clip-rule="evenodd" d="M55.6513 71.354C56.2556 71.354 56.7164 71.719 56.7164 72.3054C56.7164 72.8918 56.1718 73.2808 55.6513 73.2808C55.1307 73.2808 54.5862 72.8918 54.5862 72.3054C54.5862 71.719 55.0469 71.354 55.6513 71.354Z" fill="url(#paint10_radial_476_16881)"/>
<path style="mix-blend-mode:screen" fill-rule="evenodd" clip-rule="evenodd" d="M55.6513 71.3301C56.3394 71.3301 56.842 71.8626 56.842 72.5208C56.842 73.179 56.3574 73.7116 55.6513 73.7116C54.9452 73.7116 54.4605 73.179 54.4605 72.5208C54.4605 71.8626 54.9572 71.3301 55.6513 71.3301Z" fill="url(#paint11_radial_476_16881)"/>
</g>
<g opacity="0.25">
<path style="mix-blend-mode:screen" opacity="0.45" d="M69.2403 70.5343C70.5391 70.5343 71.5919 69.4814 71.5919 68.1827C71.5919 66.8839 70.5391 65.8311 69.2403 65.8311C67.9416 65.8311 66.8887 66.8839 66.8887 68.1827C66.8887 69.4814 67.9416 70.5343 69.2403 70.5343Z" fill="url(#paint12_radial_476_16881)"/>
<path style="mix-blend-mode:screen" fill-rule="evenodd" clip-rule="evenodd" d="M69.2403 66.5132C70.1079 66.5132 70.7661 67.0338 70.7661 67.8775C70.7661 68.7212 69.9823 69.2777 69.2403 69.2777C68.4983 69.2777 67.7144 68.7212 67.7144 67.8775C67.7144 67.0338 68.3727 66.5132 69.2403 66.5132Z" fill="url(#paint13_radial_476_16881)"/>
<path style="mix-blend-mode:screen" fill-rule="evenodd" clip-rule="evenodd" d="M69.2403 66.4773C70.2276 66.4773 70.9397 67.2372 70.9397 68.1767C70.9397 69.1161 70.2516 69.8761 69.2403 69.8761C68.2291 69.8761 67.5409 69.1161 67.5409 68.1767C67.5409 67.2372 68.253 66.4773 69.2403 66.4773Z" fill="url(#paint14_radial_476_16881)"/>
</g>
<g opacity="0.35">
<path style="mix-blend-mode:screen" opacity="0.45" fill-rule="evenodd" clip-rule="evenodd" d="M64.8482 74.4237C64.8482 75.3332 64.1122 76.0692 63.2027 76.0692C62.2932 76.0692 61.5572 75.3332 61.5572 74.4237C61.5572 73.5142 62.2932 72.7782 63.2027 72.7782C64.1122 72.7782 64.8482 73.5142 64.8482 74.4237Z" fill="url(#paint15_radial_476_16881)"/>
<path style="mix-blend-mode:screen" fill-rule="evenodd" clip-rule="evenodd" d="M63.2027 73.2509C63.813 73.2509 64.2678 73.6159 64.2678 74.2082C64.2678 74.8006 63.7173 75.1896 63.2027 75.1896C62.6881 75.1896 62.1376 74.8006 62.1376 74.2082C62.1376 73.6159 62.5984 73.2509 63.2027 73.2509Z" fill="url(#paint16_radial_476_16881)"/>
<path style="mix-blend-mode:screen" fill-rule="evenodd" clip-rule="evenodd" d="M63.2027 73.2269C63.8968 73.2269 64.3935 73.7595 64.3935 74.4177C64.3935 75.0759 63.9088 75.6085 63.2027 75.6085C62.4966 75.6085 62.012 75.0759 62.012 74.4177C62.012 73.7595 62.5146 73.2269 63.2027 73.2269Z" fill="url(#paint17_radial_476_16881)"/>
</g>
<mask id="mask0_476_16881" style="mask-type:luminance" maskUnits="userSpaceOnUse" x="45" y="60" width="33" height="21">
<path d="M63.1309 65.1489C55.5196 65.1489 49.3504 63.2939 49.3504 61.0082C49.3504 60.685 49.4701 60.3739 49.6975 60.0747C48.2315 61.9536 46.9809 63.6829 46.2688 64.9036C45.6944 65.8969 45.5388 66.5192 45.9038 67.8595C46.6458 70.5881 48.9974 73.4483 50.6369 75.0939C52.2764 76.7334 55.1427 79.085 57.8652 79.827C59.2056 80.192 59.8339 80.0424 60.8212 79.462C64.8303 77.1283 74.3384 68.9605 76.6721 66.3816C77.3243 65.6635 77.6893 65.2865 77.7492 64.2753C77.815 63.1683 77.3961 61.8279 76.8217 60.5773C76.8696 60.7209 76.8935 60.8646 76.8935 61.0082C76.8935 63.2939 70.7243 65.1489 63.113 65.1489H63.1309Z" fill="white"/>
</mask>
<g mask="url(#mask0_476_16881)">
<path style="mix-blend-mode:multiply" fill-rule="evenodd" clip-rule="evenodd" d="M63.1309 65.1489C55.5196 65.1489 49.3504 63.2939 49.3504 61.0082C49.3504 60.685 49.4701 60.3739 49.6975 60.0747C48.2315 61.9536 46.9809 63.6829 46.2688 64.9036C45.6944 65.8969 45.5388 66.5192 45.9038 67.8595C46.6458 70.5881 48.9974 73.4483 50.6369 75.0939C52.2764 76.7334 55.1427 79.085 57.8652 79.827C59.2056 80.192 59.8339 80.0424 60.8212 79.462C64.8303 77.1283 74.3384 68.9605 76.6721 66.3816C77.3243 65.6635 77.6893 65.2865 77.7492 64.2753C77.815 63.1683 77.3961 61.8279 76.8217 60.5773C76.8696 60.7209 76.8935 60.8646 76.8935 61.0082C76.8935 63.2939 70.7243 65.1489 63.113 65.1489H63.1309Z" fill="url(#paint18_radial_476_16881)"/>
</g>
<path fill-rule="evenodd" clip-rule="evenodd" d="M63.1309 56.8615C70.7422 56.8615 76.9114 58.7164 76.9114 61.0022C76.9114 63.288 70.7422 65.1429 63.1309 65.1429C55.5196 65.1429 49.3504 63.288 49.3504 61.0022C49.3504 58.7164 55.5196 56.8615 63.1309 56.8615Z" fill="url(#paint19_radial_476_16881)"/>
<g style="mix-blend-mode:screen">
<path fill-rule="evenodd" clip-rule="evenodd" d="M64.9499 66.3576C64.9559 66.2739 65.0277 66.2559 65.0995 66.2679C65.1833 66.2798 65.2312 66.3696 65.2192 66.4474C65.2132 66.5132 65.1175 66.5431 65.0636 66.5252C64.9799 66.4953 64.938 66.4474 64.9499 66.3576Z" fill="#18FFFF"/>
</g>
<g style="mix-blend-mode:screen">
<path fill-rule="evenodd" clip-rule="evenodd" d="M64.3336 68.3681C64.3396 68.2844 64.4114 68.2664 64.4832 68.2784C64.567 68.2903 64.6149 68.3801 64.6029 68.4579C64.5969 68.5237 64.5012 68.5536 64.4473 68.5357C64.3636 68.5058 64.3217 68.4579 64.3336 68.3681Z" fill="#18FFFF"/>
</g>
<g style="mix-blend-mode:screen" opacity="0.5">
<path fill-rule="evenodd" clip-rule="evenodd" d="M74.6555 60.5056C74.6555 60.4398 74.7154 60.4278 74.7752 60.4398C74.841 60.4517 74.8769 60.5176 74.871 60.5774C74.871 60.6253 74.7932 60.6492 74.7513 60.6372C74.6855 60.6133 74.6555 60.5774 74.6615 60.5056H74.6555Z" fill="#18FFFF"/>
</g>
<g style="mix-blend-mode:screen" opacity="0.6">
<path fill-rule="evenodd" clip-rule="evenodd" d="M55.1905 69.146C55.1965 69.0563 55.2683 69.0383 55.3461 69.0503C55.4358 69.0623 55.4837 69.152 55.4717 69.2358C55.4658 69.3016 55.364 69.3375 55.3102 69.3136C55.2264 69.2837 55.1785 69.2298 55.1905 69.1401V69.146Z" fill="#18FFFF"/>
</g>
<g style="mix-blend-mode:screen" opacity="0.5">
<path fill-rule="evenodd" clip-rule="evenodd" d="M67.505 67.5185C67.511 67.4287 67.5828 67.4108 67.6606 67.4227C67.7503 67.4347 67.7982 67.5245 67.7862 67.6142C67.7802 67.68 67.6785 67.7159 67.6247 67.692C67.5409 67.6621 67.493 67.6082 67.505 67.5185Z" fill="#18FFFF"/>
</g>
<g style="mix-blend-mode:screen" opacity="0.5">
<path fill-rule="evenodd" clip-rule="evenodd" d="M69.9943 60.3261C70.0002 60.2363 70.072 60.2184 70.1498 60.2304C70.2396 60.2423 70.2875 60.3321 70.2755 60.4159C70.2695 60.4817 70.1678 60.5176 70.1139 60.4936C70.0302 60.4637 69.9823 60.4099 69.9943 60.3201V60.3261Z" fill="#18FFFF"/>
</g>
<g style="mix-blend-mode:screen" opacity="0.5">
<path fill-rule="evenodd" clip-rule="evenodd" d="M72.2322 67.7878C72.2382 67.698 72.31 67.6801 72.3877 67.692C72.4775 67.704 72.5254 67.7938 72.5134 67.8775C72.5074 67.9433 72.4057 67.9792 72.3518 67.9553C72.2681 67.9254 72.2202 67.8715 72.2322 67.7818V67.7878Z" fill="#18FFFF"/>
</g>
<g style="mix-blend-mode:screen" opacity="0.5">
<path fill-rule="evenodd" clip-rule="evenodd" d="M60.7075 63.7846C60.7135 63.6948 60.7853 63.6769 60.8631 63.6889C60.9528 63.7008 61.0007 63.7906 60.9887 63.8744C60.9828 63.9402 60.881 63.9761 60.8272 63.9521C60.7434 63.9222 60.6955 63.8684 60.7075 63.7786V63.7846Z" fill="#18FFFF"/>
</g>
<g style="mix-blend-mode:screen">
<path fill-rule="evenodd" clip-rule="evenodd" d="M52.6953 72.3654C52.7073 72.2457 52.803 72.2218 52.9107 72.2397C53.0304 72.2577 53.1022 72.3833 53.0902 72.497C53.0782 72.5868 52.9406 72.6346 52.8628 72.6047C52.7432 72.5628 52.6833 72.491 52.6953 72.3654Z" fill="#18FFFF"/>
</g>
<g style="mix-blend-mode:screen">
<path fill-rule="evenodd" clip-rule="evenodd" d="M53.1261 60.8527C53.1381 60.733 53.2338 60.7091 53.3415 60.727C53.4612 60.745 53.533 60.8706 53.521 60.9843C53.5091 61.0741 53.3714 61.1219 53.2936 61.092C53.174 61.0501 53.1141 60.9783 53.1261 60.8527Z" fill="#18FFFF"/>
</g>
<g style="mix-blend-mode:screen">
<path fill-rule="evenodd" clip-rule="evenodd" d="M48.0519 67.9673C48.0639 67.8476 48.1596 67.8237 48.2673 67.8416C48.387 67.8596 48.4588 67.9852 48.4468 68.0989C48.4349 68.1887 48.2973 68.2366 48.2195 68.2066C48.0998 68.1648 48.04 68.0929 48.0519 67.9673Z" fill="#17A027"/>
</g>
<g style="mix-blend-mode:screen">
<path fill-rule="evenodd" clip-rule="evenodd" d="M48.1716 64.2993C48.1716 64.2514 48.2135 64.2395 48.2614 64.2454C48.3092 64.2514 48.3391 64.3053 48.3332 64.3531C48.3332 64.389 48.2733 64.407 48.2434 64.395C48.1955 64.3771 48.1716 64.3472 48.1776 64.2993H48.1716Z" fill="#18FFFF"/>
</g>
<g style="mix-blend-mode:screen">
<path fill-rule="evenodd" clip-rule="evenodd" d="M49.7573 63.8803C49.7573 63.8325 49.7992 63.8205 49.847 63.8265C49.8949 63.8325 49.9248 63.8863 49.9189 63.9342C49.9189 63.9701 49.859 63.9881 49.8291 63.9761C49.7812 63.9581 49.7573 63.9282 49.7633 63.8803H49.7573Z" fill="#18FFFF"/>
</g>
<g style="mix-blend-mode:screen" opacity="0.4">
<path fill-rule="evenodd" clip-rule="evenodd" d="M73.4229 64.7001C73.4708 64.6762 73.6144 64.6881 73.6563 64.7001C73.6981 64.7001 73.8298 64.736 73.8597 64.7839C73.8298 64.8317 73.7819 64.8736 73.74 64.9035C73.7041 64.9275 73.6084 64.9813 73.5665 64.9753C73.4887 64.9514 73.4169 64.8078 73.4229 64.73V64.7061V64.7001Z" fill="#18FFFF"/>
</g>
<g style="mix-blend-mode:screen" opacity="0.4">
<path fill-rule="evenodd" clip-rule="evenodd" d="M60.3664 66.226C60.3964 66.2559 60.4143 66.3696 60.4143 66.4055C60.4143 66.4414 60.4203 66.5491 60.3904 66.579C60.3485 66.567 60.3066 66.5371 60.2707 66.5072C60.2468 66.4833 60.1869 66.4234 60.1809 66.3875C60.1809 66.3277 60.2827 66.2379 60.3425 66.226H60.3605H60.3664Z" fill="#18FFFF"/>
</g>
<g style="mix-blend-mode:screen">
<path fill-rule="evenodd" clip-rule="evenodd" d="M58.8944 67.8835C58.9184 67.8357 59.038 67.7639 59.0799 67.7459C59.1158 67.728 59.2415 67.6741 59.2894 67.698C59.2894 67.7519 59.2774 67.8117 59.2594 67.8656C59.2475 67.9015 59.1996 68.0032 59.1577 68.0212C59.0859 68.0451 58.9423 67.9733 58.9064 67.9075L58.8944 67.8895V67.8835Z" fill="#17A027"/>
</g>
<g style="mix-blend-mode:screen">
<path fill-rule="evenodd" clip-rule="evenodd" d="M56.6385 63.0726C56.6625 63.0248 56.7822 62.953 56.824 62.935C56.8599 62.9171 56.9856 62.8632 57.0335 62.8871C57.0335 62.941 57.0215 63.0008 57.0036 63.0547C56.9916 63.0906 56.9437 63.1923 56.9018 63.2103C56.83 63.2342 56.6864 63.1624 56.6505 63.0966L56.6385 63.0786V63.0726Z" fill="#17A027"/>
</g>
<g style="mix-blend-mode:screen">
<path fill-rule="evenodd" clip-rule="evenodd" d="M66.0869 59.0276C66.1108 58.9797 66.2305 58.9079 66.2723 58.89C66.3082 58.872 66.4339 58.8182 66.4818 58.8421C66.4818 58.8959 66.4698 58.9558 66.4519 59.0096C66.4399 59.0455 66.392 59.1473 66.3501 59.1652C66.2783 59.1891 66.1347 59.1173 66.0988 59.0515L66.0869 59.0336V59.0276Z" fill="#17A027"/>
</g>
<g style="mix-blend-mode:screen">
<path fill-rule="evenodd" clip-rule="evenodd" d="M59.8638 71.0728C59.8039 71.1087 59.7561 71.1087 59.7262 71.0429C59.6903 70.9711 59.7022 70.9232 59.78 70.8813C59.8458 70.8454 59.8937 70.8514 59.9176 70.9232C59.9476 71.001 59.9416 71.0309 59.8638 71.0728Z" fill="#18FFFF"/>
</g>
<g style="mix-blend-mode:screen">
<path fill-rule="evenodd" clip-rule="evenodd" d="M57.2669 74.5553C57.1831 74.6032 57.1173 74.6032 57.0694 74.5134C57.0215 74.4117 57.0395 74.3459 57.1412 74.292C57.2369 74.2441 57.2968 74.2501 57.3327 74.3519C57.3686 74.4536 57.3626 74.5014 57.2609 74.5553H57.2669Z" fill="#18FFFF"/>
</g>
<g style="mix-blend-mode:screen">
<path fill-rule="evenodd" clip-rule="evenodd" d="M55.2623 77.0864C55.2623 77.0864 55.3162 77.1403 55.3281 77.1642C55.3401 77.1941 55.3401 77.254 55.3042 77.2719C55.2683 77.2899 55.2144 77.254 55.2025 77.2181C55.1785 77.1642 55.2264 77.1163 55.2683 77.0864H55.2623Z" fill="#18FFFF"/>
</g>
<g style="mix-blend-mode:screen">
<path fill-rule="evenodd" clip-rule="evenodd" d="M53.5869 62.7854C53.5869 62.7854 53.6407 62.8393 53.6527 62.8632C53.6647 62.8931 53.6647 62.9529 53.6288 62.9709C53.5929 62.9888 53.539 62.9529 53.527 62.917C53.5031 62.8632 53.551 62.8153 53.5929 62.7854H53.5869Z" fill="#18FFFF"/>
</g>
<g style="mix-blend-mode:screen">
<path fill-rule="evenodd" clip-rule="evenodd" d="M69.8925 70.5881C69.9165 70.648 69.8925 70.6899 69.8387 70.7138C69.7848 70.7377 69.731 70.6958 69.713 70.648C69.6951 70.5941 69.719 70.5283 69.7729 70.5103C69.8267 70.4924 69.8746 70.5343 69.8925 70.5821V70.5881Z" fill="#18FFFF"/>
</g>
<path style="mix-blend-mode:screen" fill-rule="evenodd" clip-rule="evenodd" d="M70.1379 70.618C70.1379 70.8035 69.9883 70.9531 69.8028 70.9531C69.6173 70.9531 69.4677 70.8035 69.4677 70.618C69.4677 70.4326 69.6173 70.283 69.8028 70.283C69.9883 70.283 70.1379 70.4326 70.1379 70.618Z" fill="url(#paint20_radial_476_16881)"/>
<g style="mix-blend-mode:screen">
<path fill-rule="evenodd" clip-rule="evenodd" d="M71.9509 62.0254C71.9748 62.0852 71.9509 62.1271 71.8971 62.151C71.8432 62.175 71.7893 62.1331 71.7714 62.0852C71.7534 62.0314 71.7774 61.9656 71.8312 61.9476C71.8851 61.9297 71.933 61.9715 71.9509 62.0194V62.0254Z" fill="#18FFFF"/>
</g>
<path style="mix-blend-mode:screen" fill-rule="evenodd" clip-rule="evenodd" d="M72.1962 62.0553C72.1962 62.2408 72.0466 62.3904 71.8611 62.3904C71.6757 62.3904 71.5261 62.2408 71.5261 62.0553C71.5261 61.8698 71.6757 61.7202 71.8611 61.7202C72.0466 61.7202 72.1962 61.8698 72.1962 62.0553Z" fill="url(#paint21_radial_476_16881)"/>
<g style="mix-blend-mode:screen">
<path fill-rule="evenodd" clip-rule="evenodd" d="M61.1683 74.8067C61.282 74.7529 61.3717 74.7888 61.4495 74.8845C61.5034 74.9503 61.5153 75.1119 61.4315 75.1538C61.3238 75.2076 61.1922 75.1837 61.1324 75.076C61.0785 74.9803 61.0606 74.8666 61.1742 74.8127L61.1683 74.8067Z" fill="#18FFFF"/>
</g>
<path style="mix-blend-mode:screen" opacity="0.5" fill-rule="evenodd" clip-rule="evenodd" d="M61.8564 74.9802C61.8564 75.2913 61.6051 75.5427 61.2939 75.5427C60.9828 75.5427 60.7314 75.2913 60.7314 74.9802C60.7314 74.669 60.9828 74.4177 61.2939 74.4177C61.6051 74.4177 61.8564 74.669 61.8564 74.9802Z" fill="url(#paint22_radial_476_16881)"/>
<g style="mix-blend-mode:screen">
<path fill-rule="evenodd" clip-rule="evenodd" d="M53.0244 67.0936C53.0663 67.1833 53.0423 67.2492 52.9645 67.309C52.9107 67.3509 52.791 67.3569 52.7611 67.291C52.7192 67.2073 52.7431 67.1055 52.8209 67.0577C52.8927 67.0158 52.9825 67.0038 53.0244 67.0876V67.0936Z" fill="#17A027"/>
</g>
<path style="mix-blend-mode:screen" fill-rule="evenodd" clip-rule="evenodd" d="M52.8927 67.6142C52.6534 67.6142 52.4619 67.4227 52.4619 67.1834C52.4619 66.944 52.6534 66.7526 52.8927 66.7526C53.1321 66.7526 53.3236 66.944 53.3236 67.1834C53.3236 67.4227 53.1321 67.6142 52.8927 67.6142Z" fill="url(#paint23_radial_476_16881)"/>
<path style="mix-blend-mode:screen" opacity="0.75" fill-rule="evenodd" clip-rule="evenodd" d="M61.4615 62.6836C61.7427 61.8818 62.8018 61.3672 64.0524 61.3672C65.315 61.3672 66.398 61.8758 66.6553 62.6956C66.7271 62.9289 66.6553 63.1683 66.4758 63.3298C65.9193 63.8085 64.5012 63.9222 64.0584 63.9222C63.6156 63.9222 62.2094 63.8026 61.647 63.3358C61.4495 63.1743 61.3837 62.917 61.4674 62.6776L61.4615 62.6836Z" fill="url(#paint24_radial_476_16881)"/>
<path style="mix-blend-mode:screen" fill-rule="evenodd" clip-rule="evenodd" d="M61.4615 62.6836C61.7427 61.8818 62.8018 61.3672 64.0524 61.3672C65.315 61.3672 66.398 61.8758 66.6553 62.6956C66.7271 62.9289 66.6553 63.1683 66.4758 63.3298C65.9193 63.8085 64.5012 63.9222 64.0584 63.9222C63.6156 63.9222 62.2094 63.8026 61.647 63.3358C61.4495 63.1743 61.3837 62.917 61.4674 62.6776L61.4615 62.6836ZM61.6829 62.6836C61.9282 61.8938 62.8617 61.3911 63.9627 61.3911C65.0637 61.3911 66.027 61.8938 66.2544 62.6956C66.3202 62.923 66.2544 63.1623 66.0929 63.3179C65.6022 63.7846 64.3516 63.9043 63.9627 63.9043C63.5737 63.9043 62.3351 63.7906 61.8384 63.3239C61.6649 63.1623 61.6051 62.917 61.6769 62.6776L61.6829 62.6836Z" fill="url(#paint25_radial_476_16881)"/>
<path style="mix-blend-mode:screen" opacity="0.6" fill-rule="evenodd" clip-rule="evenodd" d="M55.023 60.2961C55.023 58.5668 56.4292 57.1606 58.1585 57.1606C59.8877 57.1606 61.2939 58.5668 61.2939 60.2961C61.2939 60.9723 59.8877 61.5168 58.1585 61.5168C56.4292 61.5168 55.023 60.9723 55.023 60.2961Z" fill="url(#paint26_radial_476_16881)"/>
<path style="mix-blend-mode:screen" fill-rule="evenodd" clip-rule="evenodd" d="M55.023 60.2961C55.023 58.5668 56.4292 57.1606 58.1585 57.1606C59.8877 57.1606 61.2939 58.5668 61.2939 60.2961C61.2939 60.9723 59.8877 61.5168 58.1585 61.5168C56.4292 61.5168 55.023 60.9723 55.023 60.2961ZM55.2922 60.2782C55.2922 58.5728 56.5369 57.1965 58.0747 57.1965C59.6125 57.1965 60.8571 58.5788 60.8571 60.2782C60.8571 60.9424 59.6125 61.4809 58.0747 61.4809C56.5369 61.4809 55.2922 60.9424 55.2922 60.2782Z" fill="url(#paint27_radial_476_16881)"/>
<path style="mix-blend-mode:screen" opacity="0.45" fill-rule="evenodd" clip-rule="evenodd" d="M68.1213 58.7583C68.1213 57.6932 68.983 56.8315 70.0481 56.8315C71.1132 56.8315 71.9749 57.6932 71.9749 58.7583C71.9749 59.1712 71.1132 59.5123 70.0481 59.5123C68.983 59.5123 68.1213 59.1772 68.1213 58.7583Z" fill="url(#paint28_radial_476_16881)"/>
<path style="mix-blend-mode:screen" fill-rule="evenodd" clip-rule="evenodd" d="M68.1213 58.7583C68.1213 57.6932 68.983 56.8315 70.0481 56.8315C71.1132 56.8315 71.9749 57.6932 71.9749 58.7583C71.9749 59.1712 71.1132 59.5123 70.0481 59.5123C68.983 59.5123 68.1213 59.1772 68.1213 58.7583ZM68.2829 58.7463C68.2829 57.6992 69.0488 56.8495 69.9942 56.8495C70.9397 56.8495 71.7056 57.6992 71.7056 58.7463C71.7056 59.1532 70.9397 59.4883 69.9942 59.4883C69.0488 59.4883 68.2829 59.1592 68.2829 58.7463Z" fill="url(#paint29_radial_476_16881)"/>
<path opacity="0.75" fill-rule="evenodd" clip-rule="evenodd" d="M68.7018 50.7342C69.3301 50.5546 69.4318 50.4051 69.8447 49.9682L72.5254 47.12L71.574 46.1686C71.1611 46.5994 69.0369 48.8792 68.63 49.31C66.6793 47.9996 63.7173 46.4917 61.3837 46.6353C60.8272 46.6712 60.2946 46.7969 59.792 47.0302C57.3865 48.1612 44.3899 63.5633 43.989 65.4601C43.1692 69.3316 46.6936 73.9749 49.2307 76.512C51.7678 79.0491 56.4112 82.5736 60.2827 81.7538C62.1795 81.3529 77.5756 68.3562 78.7125 65.9508C78.9519 65.4481 79.0775 64.9156 79.1075 64.3591C79.2451 62.0254 77.7372 59.0695 76.4327 57.1128C76.8636 56.6999 79.1434 54.5757 79.5742 54.1688L78.6228 53.2174L75.7745 55.8981C75.3317 56.311 75.1821 56.4127 75.0086 57.041C74.6316 58.3694 74.494 59.0456 72.6091 58.3096C72.0945 58.1061 71.5919 57.8189 71.173 57.5436C73.1237 59.0635 74.9607 59.7157 75.6549 59.0216C75.7386 58.9378 75.8044 58.8361 75.8523 58.7164C76.8336 60.356 77.8688 62.5939 77.7671 64.2873C77.7073 65.2985 77.3423 65.6755 76.69 66.3936C74.3564 68.9666 64.8423 77.1403 60.8392 79.474C59.8459 80.0484 59.2235 80.204 57.8832 79.839C55.1546 79.097 52.2944 76.7454 50.6549 75.1059C49.0153 73.4663 46.6637 70.6001 45.9217 67.8715C45.5567 66.5312 45.7063 65.9029 46.2867 64.9156C48.6204 60.9065 56.7882 51.3984 59.3672 49.0647C60.0852 48.4125 60.4622 48.0475 61.4734 47.9876C63.1668 47.8859 65.4047 48.9211 67.0443 49.9024C66.9246 49.9503 66.8229 50.0161 66.7391 50.0999C66.045 50.794 66.6972 52.625 68.2171 54.5817C67.9418 54.1628 67.6546 53.6662 67.4512 53.1456C66.7092 51.2607 67.3913 51.1231 68.7197 50.7461L68.7018 50.7342Z" fill="url(#paint30_radial_476_16881)"/>
<path fill-rule="evenodd" clip-rule="evenodd" d="M83.4277 52.8404L79.8794 55.7725C78.7425 56.7119 75.7745 55.4374 73.034 52.6968C70.2934 49.9563 69.0249 46.9884 69.9584 45.8514L72.8904 42.3031L83.4277 52.8404Z" fill="url(#paint31_radial_476_16881)"/>
<g opacity="0.45">
<path fill-rule="evenodd" clip-rule="evenodd" d="M76.8815 48.8552C75.5651 47.5387 74.7573 46.1206 74.7992 45.3128C74.7992 45.223 74.6975 45.1812 74.6376 45.247L72.6271 47.6106L72.4476 47.82C72.1364 48.4782 72.9203 50.01 74.3265 51.4162C75.7327 52.8224 77.2645 53.6062 77.9227 53.2951L78.1321 53.1156L80.5196 51.0811C80.6214 50.9914 80.5735 50.8238 80.4359 50.8118C79.7956 50.746 78.4313 50.4169 76.8815 48.8612V48.8552Z" fill="#7F5319"/>
</g>
<path style="mix-blend-mode:multiply" opacity="0.65" fill-rule="evenodd" clip-rule="evenodd" d="M69.9464 48.2569C71.3167 46.6652 72.6929 45.0736 74.0632 43.4759L72.8904 42.3031L69.9584 45.8514C69.5455 46.3541 69.5634 47.2098 69.9464 48.2509V48.2569Z" fill="url(#paint32_linear_476_16881)"/>
<path style="mix-blend-mode:multiply" fill-rule="evenodd" clip-rule="evenodd" d="M81.3214 50.7341C79.64 52.2301 77.9646 53.732 76.2831 55.2279C77.8449 56.1015 79.1972 56.3409 79.8794 55.7724L83.4277 52.8404L81.3214 50.7341Z" fill="url(#paint33_linear_476_16881)"/>
<path fill-rule="evenodd" clip-rule="evenodd" d="M80.0409 45.6958C82.949 48.6039 84.4689 51.8052 83.4277 52.8464C82.3866 53.8875 79.1912 52.3677 76.2772 49.4596C73.3691 46.5515 71.8492 43.3502 72.8904 42.309C73.9316 41.2679 77.1269 42.7877 80.0409 45.6958Z" fill="url(#paint34_linear_476_16881)"/>
<path style="mix-blend-mode:screen" fill-rule="evenodd" clip-rule="evenodd" d="M72.5732 43.0809C73.3391 46.8567 76.9832 50.2794 79.4306 52.0027C76.8097 50.8598 72.5074 46.7011 72.5732 43.0809Z" fill="url(#paint35_radial_476_16881)"/>
<path style="mix-blend-mode:multiply" fill-rule="evenodd" clip-rule="evenodd" d="M80.6333 51.2367L83.7508 51.7334C83.6611 50.4708 82.6139 48.556 80.9385 46.6472L78.4911 49.0946L80.6333 51.2367Z" fill="url(#paint36_linear_476_16881)"/>
<path fill-rule="evenodd" clip-rule="evenodd" d="M79.3588 46.3779C81.3095 48.3286 82.3566 50.4469 81.6924 51.1051C81.0342 51.7633 78.916 50.7221 76.9653 48.7714C75.0146 46.8207 73.9674 44.7025 74.6316 44.0443C75.2898 43.3861 77.4081 44.4273 79.3588 46.3779Z" fill="url(#paint37_linear_476_16881)"/>
<path fill-rule="evenodd" clip-rule="evenodd" d="M74.9009 44.3195C75.9899 43.0989 77.067 41.8842 78.0543 40.5618C80.9265 42.4407 83.7987 44.3136 86.6709 46.1925C84.7501 47.7063 83.0747 49.2801 81.4172 50.8358C80.8128 51.4043 78.8921 50.4409 77.0969 48.6458C75.3018 46.8507 74.3504 44.9478 74.9069 44.3255L74.9009 44.3195Z" fill="url(#paint38_linear_476_16881)"/>
<path style="mix-blend-mode:multiply" opacity="0.75" fill-rule="evenodd" clip-rule="evenodd" d="M74.9009 44.3195C75.9899 43.0989 77.067 41.8842 78.0543 40.5618C80.9265 42.4407 83.7987 44.3136 86.6709 46.1925C84.7501 47.7063 83.0747 49.2801 81.4172 50.8358C80.8128 51.4043 78.8921 50.4409 77.0969 48.6458C75.3018 46.8507 74.3504 44.9478 74.9069 44.3255L74.9009 44.3195Z" fill="url(#paint39_radial_476_16881)"/>
<path fill-rule="evenodd" clip-rule="evenodd" d="M80.0589 52.3737L80.017 51.3804L80.5974 52.6489L78.8083 54.0312L80.0589 52.3737Z" fill="url(#paint40_linear_476_16881)"/>
<path fill-rule="evenodd" clip-rule="evenodd" d="M79.0177 48.8493C79.2271 49.2741 79.5802 49.5194 80.0768 49.3878C80.5735 49.2562 80.9684 48.8672 80.9864 48.4783C81.0043 48.0893 80.2922 47.838 79.6999 47.9098C79.1075 47.9816 78.8083 48.4244 79.0177 48.8493Z" fill="url(#paint41_radial_476_16881)"/>
<path fill-rule="evenodd" clip-rule="evenodd" d="M77.5218 42.686C76.9593 42.5783 75.984 43.3382 75.7506 44.1939C75.5172 45.0496 76.0139 45.8095 76.4926 45.9771C76.9713 46.1446 77.6474 45.4086 77.9346 44.5769C78.2219 43.7451 78.0842 42.7997 77.5218 42.692V42.686Z" fill="url(#paint42_radial_476_16881)"/>
<path fill-rule="evenodd" clip-rule="evenodd" d="M84.0261 41.7047C86.3956 43.2724 87.5924 45.265 86.7068 46.1566C85.8212 47.0481 83.1764 46.4917 80.8128 44.9239C78.4433 43.3562 77.2465 41.3636 78.1321 40.472C78.5928 40.0113 79.5263 39.9395 80.6512 40.1908C80.9145 40.7952 81.9677 41.4474 82.5361 40.861C83.0328 41.0943 83.5354 41.3756 84.0261 41.7047Z" fill="url(#paint43_radial_476_16881)"/>
<path fill-rule="evenodd" clip-rule="evenodd" d="M81.7583 45.4983C81.6206 45.9351 81.842 46.4438 82.4883 46.6951C83.1345 46.9464 83.7449 46.7609 83.9004 46.36C84.056 45.9591 83.6072 45.3846 82.9789 45.1154C82.3506 44.8401 81.8899 45.0615 81.7523 45.4983H81.7583Z" fill="url(#paint44_radial_476_16881)"/>
<path fill-rule="evenodd" clip-rule="evenodd" d="M83.9603 42.6501C84.8159 43.2186 85.2528 43.9426 84.9296 44.2657C84.6065 44.5889 83.6491 44.3854 82.7934 43.817C81.9378 43.2485 81.501 42.5245 81.8241 42.2013C82.1472 41.8782 83.1046 42.0817 83.9603 42.6501Z" fill="url(#paint45_radial_476_16881)"/>
<path fill-rule="evenodd" clip-rule="evenodd" d="M85.4023 45.0855C85.7973 45.3488 85.9947 45.6779 85.8451 45.8215C85.6955 45.9711 85.2587 45.8753 84.8638 45.618C84.4689 45.3547 84.2714 45.0256 84.421 44.882C84.5706 44.7324 85.0074 44.8282 85.4023 45.0855Z" fill="url(#paint46_radial_476_16881)"/>
<path fill-rule="evenodd" clip-rule="evenodd" d="M79.6161 44.0144C78.9519 44.7384 78.2997 45.636 77.8449 46.4318C78.6228 45.8693 79.4665 45.0855 80.1367 44.4392C80.3521 44.3375 80.5675 44.2537 81.0163 43.9845C80.4718 43.9007 79.9512 43.9186 79.6161 44.0144Z" fill="url(#paint47_linear_476_16881)"/>
<path opacity="0.5" d="M99 62C99 82.4345 82.4345 99 62 99C41.5655 99 25 82.4345 25 62" stroke="url(#paint48_linear_476_16881)"/>
<defs>
<filter id="filter0_f_476_16881" x="0" y="0" width="124" height="124" filterUnits="userSpaceOnUse" color-interpolation-filters="sRGB">
<feFlood flood-opacity="0" result="BackgroundImageFix"/>
<feBlend mode="normal" in="SourceGraphic" in2="BackgroundImageFix" result="shape"/>
<feGaussianBlur stdDeviation="12.5" result="effect1_foregroundBlur_476_16881"/>
</filter>
<radialGradient id="paint0_radial_476_16881" cx="0" cy="0" r="1" gradientUnits="userSpaceOnUse" gradientTransform="translate(62 62) rotate(90) scale(37)">
<stop stop-color="#38ACCF"/>
<stop offset="1" stop-color="#38ACCF" stop-opacity="0"/>
</radialGradient>
<linearGradient id="paint1_linear_476_16881" x1="50.6489" y1="75.0871" x2="75.6803" y2="50.0557" gradientUnits="userSpaceOnUse">
<stop stop-color="#A3FFFF"/>
<stop offset="1" stop-color="#2F9ABA"/>
</linearGradient>
<linearGradient id="paint2_linear_476_16881" x1="52.8448" y1="56.9313" x2="69.5028" y2="73.5892" gradientUnits="userSpaceOnUse">
<stop stop-color="#0099DB"/>
<stop offset="0.33" stop-color="#18FFFF"/>
<stop offset="0.43" stop-color="#14E1EE"/>
<stop offset="0.82" stop-color="#0578B3"/>
<stop offset="1" stop-color="#004E9C"/>
</linearGradient>
<radialGradient id="paint3_radial_476_16881" cx="0" cy="0" r="1" gradientUnits="userSpaceOnUse" gradientTransform="translate(50.236 67.345) scale(1.98061)">
<stop offset="0.39" stop-color="#080808"/>
<stop offset="0.42" stop-color="#090B0D"/>
<stop offset="0.46" stop-color="#0D151C"/>
<stop offset="0.5" stop-color="#142636"/>
<stop offset="0.54" stop-color="#1E3E59"/>
<stop offset="0.59" stop-color="#2B5C87"/>
<stop offset="0.64" stop-color="#3B81BF"/>
<stop offset="0.69" stop-color="#4DACFF"/>
<stop offset="0.7" stop-color="#48A1EE"/>
<stop offset="0.78" stop-color="#316B9D"/>
<stop offset="0.84" stop-color="#1F405D"/>
<stop offset="0.89" stop-color="#12222F"/>
<stop offset="0.94" stop-color="#0A0F12"/>
<stop offset="0.96" stop-color="#080808"/>
</radialGradient>
<radialGradient id="paint4_radial_476_16881" cx="0" cy="0" r="1" gradientUnits="userSpaceOnUse" gradientTransform="translate(50.248 66.2739) scale(2.01053)">
<stop stop-color="#9B52CF"/>
<stop offset="0.03" stop-color="#924DC3"/>
<stop offset="0.16" stop-color="#6B3990"/>
<stop offset="0.3" stop-color="#4A2763"/>
<stop offset="0.44" stop-color="#2F193F"/>
<stop offset="0.58" stop-color="#1A0E23"/>
<stop offset="0.72" stop-color="#0B060F"/>
<stop offset="0.86" stop-color="#020103"/>
<stop offset="1"/>
</radialGradient>
<radialGradient id="paint5_radial_476_16881" cx="0" cy="0" r="1" gradientUnits="userSpaceOnUse" gradientTransform="translate(50.236 67.345) scale(1.41814)">
<stop offset="0.29" stop-color="#080808"/>
<stop offset="0.33" stop-color="#081111"/>
<stop offset="0.41" stop-color="#0A2B2B"/>
<stop offset="0.51" stop-color="#0D5656"/>
<stop offset="0.63" stop-color="#109191"/>
<stop offset="0.76" stop-color="#15DBDB"/>
<stop offset="0.82" stop-color="#18FFFF"/>
<stop offset="0.99" stop-color="#080808"/>
</radialGradient>
<radialGradient id="paint6_radial_476_16881" cx="0" cy="0" r="1" gradientUnits="userSpaceOnUse" gradientTransform="translate(57.9311 69.7086) scale(3.45261)">
<stop offset="0.39" stop-color="#080808"/>
<stop offset="0.42" stop-color="#090B0D"/>
<stop offset="0.46" stop-color="#0D151C"/>
<stop offset="0.5" stop-color="#142636"/>
<stop offset="0.54" stop-color="#1E3E59"/>
<stop offset="0.59" stop-color="#2B5C87"/>
<stop offset="0.64" stop-color="#3B81BF"/>
<stop offset="0.69" stop-color="#4DACFF"/>
<stop offset="0.7" stop-color="#48A1EE"/>
<stop offset="0.78" stop-color="#316B9D"/>
<stop offset="0.84" stop-color="#1F405D"/>
<stop offset="0.89" stop-color="#12222F"/>
<stop offset="0.94" stop-color="#0A0F12"/>
<stop offset="0.96" stop-color="#080808"/>
</radialGradient>
<radialGradient id="paint7_radial_476_16881" cx="0" cy="0" r="1" gradientUnits="userSpaceOnUse" gradientTransform="translate(57.955 67.8357) scale(3.50048 3.50048)">
<stop stop-color="#18FFFF"/>
<stop offset="0.12" stop-color="#12C3C3"/>
<stop offset="0.25" stop-color="#0D9090"/>
<stop offset="0.37" stop-color="#096363"/>
<stop offset="0.5" stop-color="#063F3F"/>
<stop offset="0.62" stop-color="#032323"/>
<stop offset="0.75" stop-color="#010F0F"/>
<stop offset="0.87" stop-color="#000303"/>
<stop offset="1"/>
</radialGradient>
<radialGradient id="paint8_radial_476_16881" cx="0" cy="0" r="1" gradientUnits="userSpaceOnUse" gradientTransform="translate(57.9311 69.7086) scale(2.47128)">
<stop offset="0.29" stop-color="#080808"/>
<stop offset="0.33" stop-color="#081111"/>
<stop offset="0.41" stop-color="#0A2B2B"/>
<stop offset="0.51" stop-color="#0D5656"/>
<stop offset="0.63" stop-color="#109191"/>
<stop offset="0.76" stop-color="#15DBDB"/>
<stop offset="0.82" stop-color="#18FFFF"/>
<stop offset="0.99" stop-color="#080808"/>
</radialGradient>
<radialGradient id="paint9_radial_476_16881" cx="0" cy="0" r="1" gradientUnits="userSpaceOnUse" gradientTransform="translate(55.6513 72.5209) scale(1.63954)">
<stop offset="0.39" stop-color="#080808"/>
<stop offset="0.42" stop-color="#090B0D"/>
<stop offset="0.46" stop-color="#0D151C"/>
<stop offset="0.5" stop-color="#142636"/>
<stop offset="0.54" stop-color="#1E3E59"/>
<stop offset="0.59" stop-color="#2B5C87"/>
<stop offset="0.64" stop-color="#3B81BF"/>
<stop offset="0.69" stop-color="#4DACFF"/>
<stop offset="0.7" stop-color="#48A1EE"/>
<stop offset="0.78" stop-color="#316B9D"/>
<stop offset="0.84" stop-color="#1F405D"/>
<stop offset="0.89" stop-color="#12222F"/>
<stop offset="0.94" stop-color="#0A0F12"/>
<stop offset="0.96" stop-color="#080808"/>
</radialGradient>
<radialGradient id="paint10_radial_476_16881" cx="0" cy="0" r="1" gradientUnits="userSpaceOnUse" gradientTransform="translate(55.6632 71.6352) scale(1.66348)">
<stop stop-color="#9B52CF"/>
<stop offset="0.03" stop-color="#924DC3"/>
<stop offset="0.16" stop-color="#6B3990"/>
<stop offset="0.3" stop-color="#4A2763"/>
<stop offset="0.44" stop-color="#2F193F"/>
<stop offset="0.58" stop-color="#1A0E23"/>
<stop offset="0.72" stop-color="#0B060F"/>
<stop offset="0.86" stop-color="#020103"/>
<stop offset="1"/>
</radialGradient>
<radialGradient id="paint11_radial_476_16881" cx="0" cy="0" r="1" gradientUnits="userSpaceOnUse" gradientTransform="translate(55.6513 72.5208) scale(1.17281)">
<stop offset="0.29" stop-color="#080808"/>
<stop offset="0.33" stop-color="#081111"/>
<stop offset="0.41" stop-color="#0A2B2B"/>
<stop offset="0.51" stop-color="#0D5656"/>
<stop offset="0.63" stop-color="#109191"/>
<stop offset="0.76" stop-color="#15DBDB"/>
<stop offset="0.82" stop-color="#18FFFF"/>
<stop offset="0.99" stop-color="#080808"/>
</radialGradient>
<radialGradient id="paint12_radial_476_16881" cx="0" cy="0" r="1" gradientUnits="userSpaceOnUse" gradientTransform="translate(69.2403 68.1827) scale(2.3516)">
<stop offset="0.39" stop-color="#080808"/>
<stop offset="0.42" stop-color="#090B0D"/>
<stop offset="0.46" stop-color="#0D151C"/>
<stop offset="0.5" stop-color="#142636"/>
<stop offset="0.54" stop-color="#1E3E59"/>
<stop offset="0.59" stop-color="#2B5C87"/>
<stop offset="0.64" stop-color="#3B81BF"/>
<stop offset="0.69" stop-color="#4DACFF"/>
<stop offset="0.7" stop-color="#48A1EE"/>
<stop offset="0.78" stop-color="#316B9D"/>
<stop offset="0.84" stop-color="#1F405D"/>
<stop offset="0.89" stop-color="#12222F"/>
<stop offset="0.94" stop-color="#0A0F12"/>
<stop offset="0.96" stop-color="#080808"/>
</radialGradient>
<radialGradient id="paint13_radial_476_16881" cx="0" cy="0" r="1" gradientUnits="userSpaceOnUse" gradientTransform="translate(69.2523 66.9081) scale(2.38152)">
<stop stop-color="#9B52CF"/>
<stop offset="0.03" stop-color="#924DC3"/>
<stop offset="0.16" stop-color="#6B3990"/>
<stop offset="0.3" stop-color="#4A2763"/>
<stop offset="0.44" stop-color="#2F193F"/>
<stop offset="0.58" stop-color="#1A0E23"/>
<stop offset="0.72" stop-color="#0B060F"/>
<stop offset="0.86" stop-color="#020103"/>
<stop offset="1"/>
</radialGradient>
<radialGradient id="paint14_radial_476_16881" cx="0" cy="0" r="1" gradientUnits="userSpaceOnUse" gradientTransform="translate(69.2403 68.1827) scale(1.68143)">
<stop offset="0.29" stop-color="#080808"/>
<stop offset="0.33" stop-color="#081111"/>
<stop offset="0.41" stop-color="#0A2B2B"/>
<stop offset="0.51" stop-color="#0D5656"/>
<stop offset="0.63" stop-color="#109191"/>
<stop offset="0.76" stop-color="#15DBDB"/>
<stop offset="0.82" stop-color="#18FFFF"/>
<stop offset="0.99" stop-color="#080808"/>
</radialGradient>
<radialGradient id="paint15_radial_476_16881" cx="0" cy="0" r="1" gradientUnits="userSpaceOnUse" gradientTransform="translate(63.2027 74.4237) scale(1.64552)">
<stop offset="0.39" stop-color="#080808"/>
<stop offset="0.42" stop-color="#090B0D"/>
<stop offset="0.46" stop-color="#0D151C"/>
<stop offset="0.5" stop-color="#142636"/>
<stop offset="0.54" stop-color="#1E3E59"/>
<stop offset="0.59" stop-color="#2B5C87"/>
<stop offset="0.64" stop-color="#3B81BF"/>
<stop offset="0.69" stop-color="#4DACFF"/>
<stop offset="0.7" stop-color="#48A1EE"/>
<stop offset="0.78" stop-color="#316B9D"/>
<stop offset="0.84" stop-color="#1F405D"/>
<stop offset="0.89" stop-color="#12222F"/>
<stop offset="0.94" stop-color="#0A0F12"/>
<stop offset="0.96" stop-color="#080808"/>
</radialGradient>
<radialGradient id="paint16_radial_476_16881" cx="0" cy="0" r="1" gradientUnits="userSpaceOnUse" gradientTransform="translate(63.2147 73.5321) scale(1.66946 1.66946)">
<stop stop-color="#9B52CF"/>
<stop offset="0.03" stop-color="#924DC3"/>
<stop offset="0.16" stop-color="#6B3990"/>
<stop offset="0.3" stop-color="#4A2763"/>
<stop offset="0.44" stop-color="#2F193F"/>
<stop offset="0.58" stop-color="#1A0E23"/>
<stop offset="0.72" stop-color="#0B060F"/>
<stop offset="0.86" stop-color="#020103"/>
<stop offset="1"/>
</radialGradient>
<radialGradient id="paint17_radial_476_16881" cx="0" cy="0" r="1" gradientUnits="userSpaceOnUse" gradientTransform="translate(63.2027 74.4237) scale(1.17879)">
<stop offset="0.29" stop-color="#080808"/>
<stop offset="0.33" stop-color="#081111"/>
<stop offset="0.41" stop-color="#0A2B2B"/>
<stop offset="0.51" stop-color="#0D5656"/>
<stop offset="0.63" stop-color="#109191"/>
<stop offset="0.76" stop-color="#15DBDB"/>
<stop offset="0.82" stop-color="#18FFFF"/>
<stop offset="0.99" stop-color="#080808"/>
</radialGradient>
<radialGradient id="paint18_radial_476_16881" cx="0" cy="0" r="1" gradientUnits="userSpaceOnUse" gradientTransform="translate(51.0254 48.249) rotate(45) scale(33.3892)">
<stop offset="0.68" stop-color="white"/>
<stop offset="0.72" stop-color="#FBFCFE"/>
<stop offset="0.76" stop-color="#EFF5FC"/>
<stop offset="0.8" stop-color="#DBEAF8"/>
<stop offset="0.84" stop-color="#BFDAF4"/>
<stop offset="0.88" stop-color="#9BC5EE"/>
<stop offset="0.92" stop-color="#6FABE6"/>
<stop offset="0.96" stop-color="#3B8DDE"/>
<stop offset="1" stop-color="#006BD4"/>
</radialGradient>
<radialGradient id="paint19_radial_476_16881" cx="0" cy="0" r="1" gradientUnits="userSpaceOnUse" gradientTransform="translate(59.3372 64.4548) scale(38.3796 38.3796)">
<stop stop-color="#18FFFF"/>
<stop offset="0.25" stop-color="#0DB0D2"/>
<stop offset="0.58" stop-color="#004E9C"/>
<stop offset="0.63" stop-color="#0156A2"/>
<stop offset="0.73" stop-color="#066FB4"/>
<stop offset="0.85" stop-color="#0D96D2"/>
<stop offset="0.99" stop-color="#17CCFA"/>
<stop offset="1" stop-color="#18D2FF"/>
</radialGradient>
<radialGradient id="paint20_radial_476_16881" cx="0" cy="0" r="1" gradientUnits="userSpaceOnUse" gradientTransform="translate(69.8028 70.618) scale(0.335089)">
<stop stop-color="#18FFFF"/>
<stop offset="0.26" stop-color="#11B5B5"/>
<stop offset="0.63" stop-color="#075454"/>
<stop offset="0.88" stop-color="#021717"/>
<stop offset="1"/>
</radialGradient>
<radialGradient id="paint21_radial_476_16881" cx="0" cy="0" r="1" gradientUnits="userSpaceOnUse" gradientTransform="translate(71.8612 62.0553) scale(0.335088)">
<stop stop-color="#18FFFF"/>
<stop offset="0.26" stop-color="#11B5B5"/>
<stop offset="0.63" stop-color="#075454"/>
<stop offset="0.88" stop-color="#021717"/>
<stop offset="1"/>
</radialGradient>
<radialGradient id="paint22_radial_476_16881" cx="0" cy="0" r="1" gradientUnits="userSpaceOnUse" gradientTransform="translate(61.2939 74.9802) scale(0.56247)">
<stop stop-color="#18FFFF"/>
<stop offset="0.26" stop-color="#11B5B5"/>
<stop offset="0.63" stop-color="#075454"/>
<stop offset="0.88" stop-color="#021717"/>
<stop offset="1"/>
</radialGradient>
<radialGradient id="paint23_radial_476_16881" cx="0" cy="0" r="1" gradientUnits="userSpaceOnUse" gradientTransform="translate(52.8927 67.1834) rotate(90) scale(0.430828)">
<stop stop-color="#18FFFF"/>
<stop offset="0.26" stop-color="#11B5B5"/>
<stop offset="0.63" stop-color="#075454"/>
<stop offset="0.88" stop-color="#021717"/>
<stop offset="1"/>
</radialGradient>
<radialGradient id="paint24_radial_476_16881" cx="0" cy="0" r="1" gradientUnits="userSpaceOnUse" gradientTransform="translate(65.1055 64.359) scale(3.26113)">
<stop stop-color="#18FFFF"/>
<stop offset="0.26" stop-color="#12C2C0"/>
<stop offset="0.86" stop-color="#032B24"/>
<stop offset="1" stop-color="#000800"/>
</radialGradient>
<radialGradient id="paint25_radial_476_16881" cx="0" cy="0" r="1" gradientUnits="userSpaceOnUse" gradientTransform="translate(62.6941 61.5467) scale(4.14672)">
<stop stop-color="#00D0FF"/>
<stop offset="0.26" stop-color="#009EC0"/>
<stop offset="0.86" stop-color="#002424"/>
<stop offset="1" stop-color="#000800"/>
</radialGradient>
<radialGradient id="paint26_radial_476_16881" cx="0" cy="0" r="1" gradientUnits="userSpaceOnUse" gradientTransform="translate(59.9655 61.6484) scale(4.86477 4.86477)">
<stop stop-color="#18FFFF"/>
<stop offset="0.26" stop-color="#12C2C0"/>
<stop offset="0.86" stop-color="#032B24"/>
<stop offset="1" stop-color="#000800"/>
</radialGradient>
<radialGradient id="paint27_radial_476_16881" cx="0" cy="0" r="1" gradientUnits="userSpaceOnUse" gradientTransform="translate(57.213 57.8428) scale(4.96649 4.96649)">
<stop stop-color="#00D0FF"/>
<stop offset="0.26" stop-color="#009EC0"/>
<stop offset="0.86" stop-color="#002424"/>
<stop offset="1" stop-color="#000800"/>
</radialGradient>
<radialGradient id="paint28_radial_476_16881" cx="0" cy="0" r="1" gradientUnits="userSpaceOnUse" gradientTransform="translate(71.1252 59.3268) scale(4.76903 4.76903)">
<stop stop-color="#18FFFF"/>
<stop offset="0.26" stop-color="#12C2C0"/>
<stop offset="0.86" stop-color="#032B24"/>
<stop offset="1" stop-color="#000800"/>
</radialGradient>
<radialGradient id="paint29_radial_476_16881" cx="0" cy="0" r="1" gradientUnits="userSpaceOnUse" gradientTransform="translate(68.9112 57.1487) scale(3.59024 3.59023)">
<stop stop-color="#00D0FF"/>
<stop offset="0.26" stop-color="#009EC0"/>
<stop offset="0.86" stop-color="#002424"/>
<stop offset="1" stop-color="#000800"/>
</radialGradient>
<radialGradient id="paint30_radial_476_16881" cx="0" cy="0" r="1" gradientUnits="userSpaceOnUse" gradientTransform="translate(48.5248 57.2317) rotate(45) scale(31.8933)">
<stop stop-color="#61DCFF"/>
<stop offset="1" stop-color="#095675"/>
</radialGradient>
<radialGradient id="paint31_radial_476_16881" cx="0" cy="0" r="1" gradientUnits="userSpaceOnUse" gradientTransform="translate(75.181 46.9924) rotate(45) scale(10.1364)">
<stop stop-color="#A6EBFF"/>
<stop offset="1" stop-color="#2E7A96"/>
</radialGradient>
<linearGradient id="paint32_linear_476_16881" x1="70.6706" y1="44.5299" x2="72.1684" y2="46.0277" gradientUnits="userSpaceOnUse">
<stop stop-color="#8AA6BA"/>
<stop offset="1" stop-color="#F2FFFF"/>
</linearGradient>
<linearGradient id="paint33_linear_476_16881" x1="78.6717" y1="52.844" x2="81.0496" y2="55.2219" gradientUnits="userSpaceOnUse">
<stop stop-color="#F2FFFF"/>
<stop offset="1" stop-color="#3F6C8C"/>
</linearGradient>
<linearGradient id="paint34_linear_476_16881" x1="74.1994" y1="47.5762" x2="81.8366" y2="47.572" gradientUnits="userSpaceOnUse">
<stop stop-color="#8ED5F0"/>
<stop offset="1" stop-color="#417BA3"/>
</linearGradient>
<radialGradient id="paint35_radial_476_16881" cx="0" cy="0" r="1" gradientUnits="userSpaceOnUse" gradientTransform="translate(74.1993 47.2631) rotate(45) scale(12.2786)">
<stop stop-color="#E0FFFF"/>
<stop offset="0.09" stop-color="#BAD5D4"/>
<stop offset="0.23" stop-color="#899F9C"/>
<stop offset="0.37" stop-color="#5F716C"/>
<stop offset="0.5" stop-color="#3D4B45"/>
<stop offset="0.63" stop-color="#222D27"/>
<stop offset="0.76" stop-color="#0F1811"/>
<stop offset="0.89" stop-color="#030C04"/>
<stop offset="1" stop-color="#000800"/>
</radialGradient>
<linearGradient id="paint36_linear_476_16881" x1="80.4699" y1="51.0627" x2="82.9113" y2="48.6213" gradientUnits="userSpaceOnUse">
<stop stop-color="#8AA6BA"/>
<stop offset="1" stop-color="#F2FFFF"/>
</linearGradient>
<linearGradient id="paint37_linear_476_16881" x1="74.4282" y1="47.5747" x2="81.8899" y2="47.5747" gradientUnits="userSpaceOnUse">
<stop stop-color="#3C84B5"/>
<stop offset="1" stop-color="#1B89B3"/>
</linearGradient>
<linearGradient id="paint38_linear_476_16881" x1="76.5476" y1="42.0715" x2="83.6686" y2="49.1925" gradientUnits="userSpaceOnUse">
<stop stop-color="#9E5B39"/>
<stop offset="0.31" stop-color="#AD704E"/>
<stop offset="0.52" stop-color="#9E6342"/>
<stop offset="0.92" stop-color="#774125"/>
<stop offset="1" stop-color="#703B20"/>
</linearGradient>
<radialGradient id="paint39_radial_476_16881" cx="0" cy="0" r="1" gradientUnits="userSpaceOnUse" gradientTransform="translate(82.3908 40.451) rotate(45) scale(10.7767)">
<stop offset="0.61" stop-color="white"/>
<stop offset="0.65" stop-color="#FAF9F9"/>
<stop offset="0.7" stop-color="#EEEBE9"/>
<stop offset="0.76" stop-color="#DAD4CE"/>
<stop offset="0.83" stop-color="#BDB3A9"/>
<stop offset="0.9" stop-color="#99897A"/>
<stop offset="0.95" stop-color="#7D6854"/>
</radialGradient>
<linearGradient id="paint40_linear_476_16881" x1="79.0525" y1="52.3447" x2="79.9791" y2="53.2713" gradientUnits="userSpaceOnUse">
<stop stop-color="#104061"/>
<stop offset="0.4" stop-color="#0E5385"/>
<stop offset="0.49" stop-color="#115788"/>
<stop offset="0.59" stop-color="#1B6594"/>
<stop offset="0.7" stop-color="#2B7BA7"/>
<stop offset="0.81" stop-color="#429AC1"/>
<stop offset="0.92" stop-color="#5FC2E2"/>
<stop offset="1" stop-color="#78E4FF"/>
</linearGradient>
<radialGradient id="paint41_radial_476_16881" cx="0" cy="0" r="1" gradientUnits="userSpaceOnUse" gradientTransform="translate(79.9664 49.7807) rotate(45) scale(1.93873)">
<stop stop-color="#945C3F"/>
<stop offset="1" stop-color="#632F1C"/>
</radialGradient>
<radialGradient id="paint42_radial_476_16881" cx="0" cy="0" r="1" gradientUnits="userSpaceOnUse" gradientTransform="translate(77.0638 46.108) rotate(45) scale(3.84753)">
<stop stop-color="#AB7357"/>
<stop offset="1" stop-color="#632F1C"/>
</radialGradient>
<radialGradient id="paint43_radial_476_16881" cx="0" cy="0" r="1" gradientUnits="userSpaceOnUse" gradientTransform="translate(78.7817 42.9093) rotate(45) scale(9.75945)">
<stop stop-color="#C47F5A"/>
<stop offset="1" stop-color="#573124"/>
</radialGradient>
<radialGradient id="paint44_radial_476_16881" cx="0" cy="0" r="1" gradientUnits="userSpaceOnUse" gradientTransform="translate(83.8336 46.4126) rotate(45) scale(2.78243)">
<stop stop-color="#945C3F"/>
<stop offset="1" stop-color="#632F1C"/>
</radialGradient>
<radialGradient id="paint45_radial_476_16881" cx="0" cy="0" r="1" gradientUnits="userSpaceOnUse" gradientTransform="translate(86.5796 43.4805) rotate(45) scale(5.89995)">
<stop stop-color="#C47F5A"/>
<stop offset="1" stop-color="#573124"/>
</radialGradient>
<radialGradient id="paint46_radial_476_16881" cx="0" cy="0" r="1" gradientUnits="userSpaceOnUse" gradientTransform="translate(87.4047 45.4057) rotate(45) scale(3.17137)">
<stop stop-color="#C47F5A"/>
<stop offset="1" stop-color="#573124"/>
</radialGradient>
<linearGradient id="paint47_linear_476_16881" x1="78.9255" y1="44.7033" x2="79.611" y2="45.3887" gradientUnits="userSpaceOnUse">
<stop stop-color="#9E5B39"/>
<stop offset="1" stop-color="#692D0D"/>
</linearGradient>
<linearGradient id="paint48_linear_476_16881" x1="60.0956" y1="62" x2="62" y2="131.103" gradientUnits="userSpaceOnUse">
<stop stop-color="#38ACCF" stop-opacity="0"/>
<stop offset="1" stop-color="#38ACCF" stop-opacity="0.58"/>
</linearGradient>
</defs>
</svg>
