<svg width="286" height="286" viewBox="0 0 286 286" fill="none" xmlns="http://www.w3.org/2000/svg">
<g opacity="0.5" filter="url(#filter0_f_559_37636)">
<circle cx="143" cy="143" r="68" fill="url(#paint0_radial_559_37636)"/>
</g>
<g clip-path="url(#clip0_559_37636)">
<path d="M150.045 170.306L150.281 169.474C151.599 169.518 155.45 170.859 157.452 171.676C156.422 168.738 163.071 166.367 165.677 168.164C166.185 168.51 164.624 171.823 161.281 172.537C160.516 172.699 159.742 172.677 159.021 172.559C161.046 173.73 162.967 175.188 164.381 176.808C165.243 176.425 166.833 176.138 169.418 177.198C173.438 178.84 176.206 186.873 175.279 187.448C173.703 188.427 168.578 188.427 165.095 184.613C162.334 181.587 162.872 178.914 163.314 177.839C162.319 176.764 161.016 174.658 156.768 172.648C156.473 172.508 156.127 172.478 155.869 172.339C157.327 173.487 158.815 175.188 159.551 177.449C160.655 180.836 159.985 182.816 159.301 183.17C156.716 184.502 151.503 180.063 150.774 178.295C149.78 175.902 150.259 171.264 151.871 170.586C150.56 170.196 150.045 170.306 150.045 170.306Z" fill="url(#paint1_linear_559_37636)"/>
<g style="mix-blend-mode:soft-light" opacity="0.5">
<path d="M165 177.346C167.886 176.16 171.17 177.699 173.269 181.314C175.433 185.033 175.419 187.205 175.006 187.264C174.226 187.374 170.051 187.595 166.759 184.341C163.174 180.791 164.543 177.706 164.735 177.758C164.926 177.809 171.487 184.193 170.566 181.999C169.675 179.878 164.764 177.434 164.985 177.338L165 177.346Z" fill="white"/>
</g>
<g style="mix-blend-mode:soft-light" opacity="0.5">
<path d="M159.308 182.684C158.27 182.809 154.036 180.026 152.725 177.25C151.415 174.474 152.18 171.072 152.504 171.168C152.828 171.256 153.02 175.232 155.766 177.154C157.659 178.479 153.358 171.411 153.358 171.411C153.358 171.411 156.112 171.934 158.321 175.328C160.53 178.722 160.081 182.595 159.293 182.684H159.308Z" fill="white"/>
</g>
<g style="mix-blend-mode:soft-light" opacity="0.5">
<path d="M158.734 170.417C160.059 167.913 165.257 167.471 165.375 168.399C165.493 169.327 164.558 172.699 158.645 172.221C158.645 172.221 162.717 171.197 163.129 170.034C163.542 168.863 158.439 171.992 158.439 171.992C158.439 171.992 158.365 171.109 158.734 170.417Z" fill="white"/>
</g>
<g style="mix-blend-mode:soft-light" opacity="0.5">
<path d="M170.898 183.103C174.491 184.952 175.028 187.013 173.946 187.131C172.856 187.242 169.793 186.638 167.577 184.745C165.36 182.861 164.727 179.628 165.007 179.392C165.279 179.157 168.991 182.117 170.905 183.103H170.898Z" fill="white"/>
</g>
<g style="mix-blend-mode:multiply" opacity="0.5">
<path d="M163.085 180.158C163.041 179.415 163.939 179.253 164.138 179.488C164.337 179.724 164.3 184.782 171.759 187.197C171.914 187.249 171.317 187.647 170.456 187.624C169.889 187.61 167.209 186.653 165.434 184.79C163.66 182.927 163.152 181.219 163.085 180.166V180.158Z" fill="#5F5B9C"/>
</g>
<g style="mix-blend-mode:multiply" opacity="0.5">
<path d="M151.01 178.266C150.936 177.854 152.534 177.463 152.659 177.588C152.784 177.714 155.03 181.145 158.999 182.853C159.205 182.942 158.248 183.17 157.71 183.155C155.464 183.074 151.297 179.923 151.01 178.266Z" fill="#5F5B9C"/>
</g>
<g style="mix-blend-mode:soft-light" opacity="0.5">
<path d="M158.336 175.328C160.214 178.421 159.588 180.298 158.505 180.659C158.167 180.769 157.011 177.993 156.407 176.668C155.803 175.343 154.964 174.128 155.199 173.981C155.435 173.841 157.209 173.487 158.329 175.328H158.336Z" fill="white"/>
</g>
<path style="mix-blend-mode:multiply" opacity="0.5" d="M152.49 177.206C152.306 177.375 150.796 177.795 150.686 177.618C150.465 177.287 150.185 174.187 150.634 172.906C151.083 171.617 151.702 171.514 151.937 171.72C152.173 171.919 151.775 172.802 151.901 174.253C152.033 175.704 152.652 177.058 152.49 177.213V177.206Z" fill="url(#paint2_linear_559_37636)"/>
<path d="M136.497 170.306L136.261 169.474C134.943 169.518 131.092 170.859 129.09 171.676C130.12 168.738 123.471 166.367 120.865 168.164C120.357 168.51 121.918 171.823 125.261 172.537C126.026 172.699 126.8 172.677 127.521 172.559C125.496 173.73 123.574 175.188 122.161 176.808C121.299 176.425 119.709 176.138 117.124 177.198C113.104 178.84 110.336 186.873 111.263 187.448C112.839 188.427 117.964 188.427 121.447 184.613C124.208 181.587 123.67 178.914 123.228 177.839C124.222 176.764 125.526 174.658 129.774 172.648C130.069 172.508 130.415 172.478 130.673 172.339C129.215 173.487 127.727 175.188 126.991 177.449C125.887 180.836 126.557 182.816 127.241 183.17C129.826 184.502 135.039 180.063 135.768 178.295C136.762 175.902 136.283 171.264 134.671 170.586C135.981 170.196 136.497 170.306 136.497 170.306Z" fill="url(#paint3_linear_559_37636)"/>
<g style="mix-blend-mode:soft-light" opacity="0.5">
<path d="M121.542 177.346C118.656 176.16 115.372 177.699 113.273 181.314C111.109 185.033 111.123 187.205 111.536 187.264C112.316 187.374 116.491 187.595 119.782 184.341C123.368 180.791 121.999 177.706 121.807 177.758C121.616 177.809 115.055 184.193 115.976 181.999C116.867 179.878 121.778 177.434 121.557 177.338L121.542 177.346Z" fill="white"/>
</g>
<g style="mix-blend-mode:soft-light" opacity="0.5">
<path d="M127.234 182.684C128.272 182.809 132.506 180.026 133.817 177.25C135.127 174.474 134.362 171.072 134.038 171.168C133.714 171.256 133.522 175.232 130.776 177.154C128.883 178.479 133.183 171.411 133.183 171.411C133.183 171.411 130.43 171.934 128.221 175.328C126.012 178.722 126.461 182.595 127.249 182.684H127.234Z" fill="white"/>
</g>
<g style="mix-blend-mode:soft-light" opacity="0.5">
<path d="M127.808 170.417C126.483 167.913 121.285 167.471 121.167 168.399C121.049 169.327 121.984 172.699 127.897 172.221C127.897 172.221 123.825 171.197 123.412 170.034C123 168.863 128.103 171.992 128.103 171.992C128.103 171.992 128.176 171.109 127.808 170.417Z" fill="white"/>
</g>
<g style="mix-blend-mode:soft-light" opacity="0.5">
<path d="M115.644 183.103C112.051 184.952 111.514 187.013 112.596 187.131C113.686 187.242 116.749 186.638 118.965 184.745C121.181 182.861 121.815 179.628 121.535 179.392C121.262 179.157 117.551 182.117 115.637 183.103H115.644Z" fill="white"/>
</g>
<g style="mix-blend-mode:multiply" opacity="0.5">
<path d="M123.464 180.158C123.508 179.415 122.61 179.253 122.411 179.488C122.205 179.724 122.249 184.782 114.79 187.197C114.636 187.249 115.232 187.647 116.094 187.624C116.66 187.61 119.341 186.653 121.115 184.79C122.89 182.927 123.398 181.219 123.464 180.166V180.158Z" fill="#5F5B9C"/>
</g>
<g style="mix-blend-mode:multiply" opacity="0.5">
<path d="M135.532 178.266C135.606 177.854 134.008 177.463 133.883 177.588C133.758 177.714 131.512 181.145 127.543 182.853C127.337 182.942 128.294 183.17 128.832 183.155C131.078 183.074 135.245 179.923 135.532 178.266Z" fill="#5F5B9C"/>
</g>
<g style="mix-blend-mode:soft-light" opacity="0.5">
<path d="M128.206 175.328C126.328 178.421 126.954 180.298 128.037 180.659C128.375 180.769 129.531 177.993 130.135 176.668C130.739 175.343 131.578 174.128 131.343 173.981C131.107 173.841 129.332 173.487 128.213 175.328H128.206Z" fill="white"/>
</g>
<path style="mix-blend-mode:multiply" opacity="0.5" d="M134.06 177.206C134.244 177.375 135.753 177.795 135.864 177.618C136.085 177.287 136.364 174.187 135.915 172.906C135.466 171.617 134.847 171.514 134.612 171.72C134.376 171.919 134.774 172.802 134.649 174.253C134.516 175.704 133.898 177.058 134.06 177.213V177.206Z" fill="url(#paint4_linear_559_37636)"/>
<path d="M143.271 165.329C156.239 165.329 166.752 154.816 166.752 141.848C166.752 128.879 156.239 118.367 143.271 118.367C130.303 118.367 119.79 128.879 119.79 141.848C119.79 154.816 130.303 165.329 143.271 165.329Z" fill="url(#paint5_linear_559_37636)"/>
<g style="mix-blend-mode:multiply" opacity="0.2">
<path d="M129.605 143.431C132.535 147.186 133.448 154.903 129.605 153.194C125.761 151.486 122.787 140.206 125.194 140.758C127.602 141.31 128.773 142.363 129.605 143.431Z" fill="#8680E8"/>
</g>
<g style="mix-blend-mode:multiply" opacity="0.2">
<path d="M136.887 158.731C139.582 160.985 152.902 159.424 149.979 156.824C147.056 154.225 143.61 152.532 141.342 153.445C139.074 154.358 135.591 157.649 136.887 158.731Z" fill="#8680E8"/>
</g>
<g style="mix-blend-mode:multiply" opacity="0.2">
<path d="M153.344 145.272C152.887 150.639 155.383 154.004 158.226 151.479C161.06 148.953 162.496 143.659 161.097 142.179C159.698 140.699 153.55 142.886 153.344 145.272Z" fill="#8680E8"/>
</g>
<path d="M160.714 136.075L154.33 135.147L152.585 134.897L148.44 134.293L142.954 123.175L137.469 134.293L125.194 136.075L134.074 144.734L131.976 156.957L142.954 151.184L153.933 156.957L151.834 144.734L160.714 136.075Z" fill="url(#paint6_linear_559_37636)"/>
<path d="M125.128 136.075L143.212 140.802L134.008 144.734L125.128 136.075Z" fill="url(#paint7_linear_559_37636)"/>
<path d="M160.655 136.075L143.212 140.802L151.768 144.734L160.655 136.075Z" fill="url(#paint8_linear_559_37636)"/>
<path style="mix-blend-mode:multiply" opacity="0.5" d="M142.888 151.184L143.212 140.802L131.917 156.957L142.888 151.184Z" fill="url(#paint9_linear_559_37636)"/>
<path style="mix-blend-mode:multiply" opacity="0.5" d="M153.867 156.957L143.212 140.802L142.888 151.184L153.867 156.957Z" fill="url(#paint10_linear_559_37636)"/>
<path style="mix-blend-mode:color-dodge" opacity="0.5" d="M142.954 123.175L143.212 140.802L148.44 134.293L142.954 123.175Z" fill="url(#paint11_linear_559_37636)"/>
<path style="mix-blend-mode:color-dodge" opacity="0.5" d="M160.655 136.075L143.212 140.802L148.381 134.293L160.655 136.075Z" fill="url(#paint12_linear_559_37636)"/>
<path style="mix-blend-mode:color-dodge" opacity="0.5" d="M160.655 136.075L143.212 140.802L148.381 134.293L160.655 136.075Z" fill="url(#paint13_linear_559_37636)"/>
<path style="mix-blend-mode:color-dodge" opacity="0.5" d="M137.403 134.293L143.212 140.802L125.128 136.075L137.403 134.293Z" fill="url(#paint14_linear_559_37636)"/>
<g style="mix-blend-mode:color-dodge" opacity="0.8">
<path d="M148.381 138.159C147.468 138.932 148.248 139.433 148.248 139.433L152.946 138.159C152.946 138.159 150.487 136.369 148.381 138.159Z" fill="white"/>
</g>
<path style="mix-blend-mode:multiply" opacity="0.3" d="M125.128 136.075L143.212 140.802L133.051 150.698L132.653 145.308L125.128 136.075Z" fill="url(#paint15_linear_559_37636)"/>
<path style="mix-blend-mode:multiply" opacity="0.3" d="M160.655 136.075L143.212 140.802L149.368 150.08L153.285 153.437L152.946 145.139L160.655 136.075Z" fill="url(#paint16_linear_559_37636)"/>
<path style="mix-blend-mode:multiply" opacity="0.3" d="M131.976 156.957L143.212 140.802L153.933 156.957L142.954 151.184L131.976 156.957Z" fill="url(#paint17_linear_559_37636)"/>
<g style="mix-blend-mode:soft-light" opacity="0.4">
<path d="M138.868 132.371C137.697 135.611 142.144 137.872 142.748 136.87C143.345 135.876 142.969 130.317 142.218 129.566C141.467 128.815 139.346 131.046 138.875 132.371H138.868Z" fill="#F7FFFF"/>
</g>
<g style="mix-blend-mode:soft-light" opacity="0.4">
<path d="M135.23 148.953C137.594 149.277 138.919 146.582 139.413 144.727C140.215 141.745 130.93 148.364 135.23 148.953Z" fill="#F7FFFF"/>
</g>
<path style="mix-blend-mode:multiply" opacity="0.5" d="M142.888 151.184L133.301 156.228L139.118 153.673L142.895 151.994L146.408 153.673L149.905 154.873L142.888 151.184Z" fill="url(#paint18_linear_559_37636)"/>
<path style="mix-blend-mode:multiply" opacity="0.5" d="M125.194 136.075L133.264 149.432L143.212 140.802L131.917 156.957L142.837 155.698L153.867 156.957L143.212 140.802L152.674 149.638L160.324 136.075L143.212 140.802L125.194 136.075Z" fill="url(#paint19_linear_559_37636)"/>
<path style="mix-blend-mode:color-dodge" opacity="0.6" d="M152.681 143.843C155.999 143.843 158.689 141.153 158.689 137.835C158.689 134.516 155.999 131.826 152.681 131.826C149.363 131.826 146.673 134.516 146.673 137.835C146.673 141.153 149.363 143.843 152.681 143.843Z" fill="url(#paint20_radial_559_37636)"/>
<path style="mix-blend-mode:color-dodge" opacity="0.6" d="M144.368 155.035C142.822 157.973 139.523 159.276 137.012 157.944C134.494 156.618 133.714 153.157 135.26 150.227C136.806 147.296 140.105 145.986 142.616 147.318C145.134 148.644 145.914 152.105 144.368 155.035Z" fill="url(#paint21_radial_559_37636)"/>
<path style="mix-blend-mode:color-dodge" opacity="0.5" d="M135.834 141.575C134.509 144.093 130.768 144.727 127.484 142.996C124.2 141.266 122.617 137.82 123.943 135.302C125.268 132.784 129.009 132.15 132.292 133.881C135.576 135.611 137.16 139.057 135.834 141.575Z" fill="url(#paint22_radial_559_37636)"/>
<path style="mix-blend-mode:multiply" opacity="0.5" d="M138.986 139.653L138.08 143.004L141.18 143.814L143.124 146.729L145.502 144.138L148.138 143.004L147.586 139.653L143.138 140.994L138.986 139.653Z" fill="url(#paint23_linear_559_37636)"/>
<path d="M147.49 140.677C146.378 142.783 143.219 145.242 143.219 145.242C143.219 145.242 139.972 142.856 138.779 140.78C139.891 138.674 143.043 136.163 143.043 136.163C143.043 136.163 146.29 138.601 147.483 140.684L147.49 140.677Z" fill="url(#paint24_linear_559_37636)"/>
<path style="mix-blend-mode:multiply" opacity="0.5" d="M138.779 140.773C139.972 142.849 143.219 145.235 143.219 145.235L143.404 144.093C141.386 142.798 139.891 140.809 139.891 140.809C139.891 140.809 139.398 140.736 138.779 140.773Z" fill="url(#paint25_linear_559_37636)"/>
<path d="M143.411 144.093C143.411 144.093 140.812 142.319 139.899 140.809C139.899 140.809 140.731 139.064 143.183 137.297C143.183 137.297 145.635 138.623 146.849 140.677C146.849 140.677 145.804 142.26 143.411 144.093Z" fill="url(#paint26_linear_559_37636)"/>
<path d="M145.414 138.402C145.333 138.578 144.479 137.754 144.604 137.651C144.729 137.548 145.517 138.181 145.414 138.402Z" fill="url(#paint27_linear_559_37636)"/>
<path d="M141.298 140.007C140.554 141.553 142.903 144.734 145.045 142.319C147.416 139.639 142.918 136.671 141.298 140.007Z" fill="url(#paint28_linear_559_37636)"/>
<path d="M141.909 139.992C141.445 140.92 141.791 141.862 142.63 142.437C143.595 143.099 144.78 142.319 145.193 141.502C145.782 140.346 144.663 139.138 143.97 138.939C143.278 138.74 142.233 139.329 141.901 139.985L141.909 139.992Z" fill="url(#paint29_linear_559_37636)"/>
<g style="mix-blend-mode:multiply" opacity="0.4">
<path d="M141.747 140.809C141.71 140.957 141.747 141.767 142.365 142.194C142.984 142.613 143.418 142.687 143.47 142.621C143.514 142.555 143.514 141.988 143.484 141.958C143.455 141.929 142.976 141.693 142.741 141.376C142.505 141.052 142.432 140.942 142.365 140.935C142.299 140.935 141.776 140.714 141.754 140.809H141.747Z" fill="#B82774"/>
</g>
<g style="mix-blend-mode:soft-light">
<path d="M142.49 140.89C142.402 141.266 143.477 141.965 143.573 141.951C144.037 141.884 144.596 140.861 144.604 140.53C144.604 140.309 143.742 139.58 143.47 139.668C143.19 139.757 142.557 140.596 142.49 140.89Z" fill="white"/>
</g>
<g style="mix-blend-mode:multiply" opacity="0.8">
<path d="M143.573 141.958C143.448 142.01 143.492 142.591 143.536 142.599C144.022 142.658 144.523 142.385 145.009 141.752C145.406 141.237 145.369 140.544 145.2 140.331C145.141 140.25 144.604 140.449 144.604 140.537C144.589 141.089 143.993 141.781 143.573 141.958Z" fill="#B82774"/>
</g>
<path opacity="0.75" d="M141.71 140.677C141.71 140.765 142.343 140.971 142.395 140.92C142.476 140.832 143.44 139.698 143.44 139.624C143.44 139.514 143.477 138.961 143.308 138.954C143.256 138.954 142.557 139.16 142.137 139.661C141.717 140.162 141.717 140.566 141.71 140.677Z" fill="white"/>
<path d="M141.909 139.992C141.909 139.992 142.211 139.484 142.733 139.19C142.733 139.19 143.021 139.278 142.792 139.639C142.571 140 141.901 139.992 141.901 139.992H141.909Z" fill="white"/>
<path d="M143.249 141.781C143.249 141.781 143.433 142.216 143.492 142.201C143.551 142.186 143.764 141.877 143.735 141.877C143.705 141.877 143.286 141.708 143.249 141.781Z" fill="white"/>
<path d="M144.515 140.353C144.434 140.456 144.508 140.809 144.552 140.817C144.596 140.832 144.81 140.427 144.788 140.404C144.758 140.382 144.596 140.257 144.515 140.353Z" fill="white"/>
<path d="M142.77 143.07C142.77 143.07 143.934 143.431 145.038 142.312C146.054 141.288 145.635 140.147 145.59 140.036C145.59 140.036 146.341 141.384 145.023 142.613C143.889 143.674 142.763 143.07 142.763 143.07H142.77Z" fill="#F0CFFF"/>
<g style="mix-blend-mode:multiply" opacity="0.5">
<path d="M142.365 142.864C141.732 142.061 141.202 140.655 142.299 139.521C143.396 138.387 144.78 139.219 145.259 139.44C145.259 139.44 143.602 137.179 141.695 138.527C140.76 139.182 140.664 140.279 140.952 141.045C141.364 142.157 142.365 142.864 142.365 142.864Z" fill="#5F5B9C"/>
</g>
<path d="M120.909 135.051V137.54C120.909 137.54 116.027 136.288 112.206 131.848C108.392 127.408 108.789 121.349 108.789 121.349C108.789 121.356 108.789 121.363 108.789 121.371C108.833 121.68 109.349 125.03 111.867 128.8C112.375 129.559 113.016 130.251 113.73 130.884C114.923 131.944 116.307 132.82 117.537 133.49C119.392 134.499 120.902 135.044 120.902 135.044L120.909 135.051Z" fill="url(#paint30_linear_559_37636)"/>
<path d="M140.738 104.465C140.738 104.465 137.042 107.454 135.503 113.102C133.964 118.757 135.171 119.692 135.171 119.692H151.768C151.768 119.692 151.901 116.172 150.833 112.616C149.765 109.052 146.629 105.385 145.981 104.686L140.745 104.472L140.738 104.465Z" fill="url(#paint31_linear_559_37636)"/>
<path d="M108.826 162.59C108.826 162.59 115.784 166.006 124.672 160.852L126.601 161.92C126.601 161.92 122.411 164.526 117.713 164.931C113.016 165.336 108.826 162.59 108.826 162.59Z" fill="url(#paint32_linear_559_37636)"/>
<path d="M177.745 121.349C177.745 121.349 178.143 127.408 174.329 131.848C170.515 136.288 165.626 137.54 165.626 137.54V135.051C165.626 135.051 172.017 132.754 174.66 128.807C177.304 124.853 177.745 121.356 177.745 121.356V121.349Z" fill="url(#paint33_linear_559_37636)"/>
<path d="M177.716 162.59C177.716 162.59 170.758 166.006 161.87 160.852L159.941 161.92C159.941 161.92 164.131 164.526 168.829 164.931C173.526 165.336 177.716 162.59 177.716 162.59Z" fill="url(#paint34_linear_559_37636)"/>
<path d="M134.671 167.435C134.671 167.435 134.656 176.329 143.352 181.506C143.352 181.506 151.849 177.22 151.849 167.435H134.678H134.671Z" fill="url(#paint35_linear_559_37636)"/>
<path d="M176 156.603C175.743 156.117 175.455 155.624 175.117 155.138C173.055 152.156 169.881 149.984 169.462 149.704C169.359 144.513 169.359 139.329 169.462 134.138C169.808 133.903 171.649 132.644 173.401 130.781C173.997 130.148 174.579 129.455 175.095 128.704C177.547 125.141 177.694 121.297 177.694 121.297C177.694 121.297 174.233 119.618 169.933 120.104C166.833 120.45 163.88 121.812 162.828 122.343C158.564 120.038 154.279 117.763 150.008 115.465C149.92 114.28 149.559 111.062 148.271 108.235C146.474 104.303 143.256 102.197 143.256 102.197C143.256 102.197 140.039 104.303 138.242 108.235C136.953 111.055 136.6 114.273 136.504 115.465C132.219 117.77 127.919 120.053 123.641 122.365C123.383 122.232 123.008 122.055 122.551 121.857C121.13 121.238 118.877 120.406 116.543 120.148C112.243 119.677 108.789 121.356 108.789 121.356C108.789 121.356 108.826 122.269 109.15 123.624C109.489 125.038 110.144 126.937 111.403 128.756C111.904 129.478 112.471 130.155 113.045 130.766C113.281 131.016 113.509 131.252 113.745 131.48C115.306 133.004 116.786 134.006 117.065 134.19C117.169 139.381 117.169 144.565 117.065 149.756C116.602 150.065 113.465 152.23 111.433 155.19C111.101 155.668 110.814 156.147 110.564 156.626C108.944 159.711 108.826 162.597 108.826 162.597C108.826 162.597 112.287 164.276 116.587 163.79C116.624 163.79 116.66 163.783 116.697 163.775C119.753 163.407 122.647 162.074 123.692 161.551C127.963 163.856 132.248 166.131 136.519 168.429C136.556 168.775 136.622 169.29 136.74 169.931C136.975 171.197 137.417 172.942 138.249 174.754C140.046 178.686 143.264 180.254 143.264 180.254C143.264 180.254 146.481 178.686 148.278 174.754C149.081 173.001 149.522 171.315 149.758 170.063C149.89 169.364 149.964 168.797 150.001 168.429C154.294 166.124 158.586 163.841 162.872 161.522C163.91 162.037 166.723 163.326 169.712 163.709C169.793 163.716 169.881 163.731 169.97 163.738C174.27 164.21 177.723 162.531 177.723 162.531C177.723 162.531 177.605 159.674 175.993 156.596L176 156.603ZM150.214 159.394C147.895 160.683 145.583 161.971 143.264 163.274C140.9 161.949 138.536 160.631 136.173 159.313C132.337 157.178 128.5 155.05 124.679 152.892C124.745 149.829 124.775 146.759 124.789 143.696C124.804 139.462 124.767 135.228 124.679 131.002C130.857 127.512 137.079 124.095 143.271 120.62C149.463 124.095 155.678 127.512 161.863 131.002C161.775 135.243 161.738 139.484 161.753 143.733C161.76 146.788 161.797 149.837 161.863 152.892C157.99 155.079 154.102 157.237 150.222 159.394H150.214Z" fill="url(#paint36_linear_559_37636)"/>
<g style="mix-blend-mode:soft-light" opacity="0.5">
<path d="M109.275 121.695C110.299 123.094 117.986 127.379 121.601 128.8C122.242 129.05 123.39 122.91 122.787 122.549C116.403 118.69 108.738 120.966 109.275 121.695Z" fill="white"/>
</g>
<path d="M143.264 118.411C136.431 122.225 129.546 125.965 122.728 129.794C122.927 137.886 122.927 145.986 122.728 154.078C129.553 157.914 136.431 161.647 143.264 165.461C150.097 161.647 156.981 157.907 163.807 154.078C163.608 145.986 163.608 137.886 163.807 129.794C156.981 125.958 150.104 122.225 143.264 118.411ZM161.856 152.885C155.671 156.375 149.456 159.792 143.264 163.267C137.071 159.792 130.857 156.375 124.672 152.885C124.819 145.588 124.819 138.291 124.672 130.994C130.849 127.504 137.071 124.088 143.264 120.612C149.456 124.088 155.671 127.504 161.856 130.994C161.708 138.291 161.708 145.588 161.856 152.885Z" fill="url(#paint37_linear_559_37636)"/>
<g style="mix-blend-mode:soft-light" opacity="0.5">
<path d="M122.985 128.8C123.957 128.8 139.737 120.347 141.298 119.073C142.144 118.381 136.615 116.482 135.989 116.459C134.774 116.415 134.155 117.1 129.782 119.397C126.939 120.885 126.881 120.782 124.097 122.387C122.875 123.094 122.47 128.8 122.985 128.793V128.8Z" fill="white"/>
</g>
<path style="mix-blend-mode:multiply" opacity="0.5" d="M149.78 167.803C150.354 168.105 152.092 166.971 156.171 164.821C160.221 162.685 161.362 162.177 161.878 161.574C162.481 160.859 164.131 154.63 162.835 155.249C159.197 156.979 156.201 158.952 152.902 160.859C149.662 162.73 143.978 165.483 144.25 165.807C144.869 166.558 149.338 167.582 149.78 167.818V167.803Z" fill="url(#paint38_linear_559_37636)"/>
<g style="mix-blend-mode:soft-light" opacity="0.5">
<path d="M137.108 167.766C136.637 168.002 134.987 167.148 130.717 164.939C127.882 163.473 127.448 163.157 124.672 161.574C123.582 160.948 121.447 154.129 122.713 154.534C123.714 154.858 127.683 157.421 131.122 159.313C134.281 161.051 141.828 165.034 141.887 165.8C141.924 166.249 137.447 167.604 137.115 167.766H137.108Z" fill="white"/>
</g>
<path style="mix-blend-mode:multiply" opacity="0.5" d="M124.407 131.134C124.333 130.575 122.713 129.551 122.728 130.03C122.941 137.938 122.787 152.009 122.934 153.864C122.934 153.931 124.289 153.342 124.414 152.679C124.672 151.331 124.679 144.086 124.672 140.544C124.672 137.01 124.672 133.093 124.414 131.134H124.407Z" fill="url(#paint39_linear_559_37636)"/>
<path style="mix-blend-mode:multiply" opacity="0.5" d="M162.077 130.965C161.767 138.048 161.848 150.809 162.077 152.988C162.099 153.194 163.799 154.137 163.792 153.783C163.689 149.785 163.667 145.338 163.652 141.332C163.637 137.467 163.733 131.061 163.557 129.949C163.534 129.794 162.106 130.391 162.084 130.958L162.077 130.965Z" fill="url(#paint40_linear_559_37636)"/>
<path style="mix-blend-mode:multiply" opacity="0.5" d="M143.264 118.691C143.588 118.595 143.455 120.421 143.102 120.62C139.707 122.49 129.774 127.858 129.163 128.093C127.992 128.55 127.175 127.563 127.632 127.305C130.165 125.877 132.712 124.375 135.26 122.939C137.69 121.577 142.63 118.882 143.264 118.691Z" fill="url(#paint41_linear_559_37636)"/>
<path style="mix-blend-mode:multiply" opacity="0.5" d="M117.515 150.809C117.728 151.515 122.072 154.277 122.323 153.342C123.17 150.212 122.595 145.389 122.573 141.443C122.551 137.835 122.698 131.009 122.426 130.501C121.984 129.698 117.618 133.594 117.331 134.573C117.205 134.985 117.161 134.521 117.227 139.212C117.301 144.049 117.139 149.564 117.515 150.809Z" fill="url(#paint42_linear_559_37636)"/>
<path style="mix-blend-mode:multiply" opacity="0.5" d="M164.278 153.886C164.374 154.129 168.247 150.816 168.829 149.785C169.123 149.262 169.086 145.456 169.101 141.023C169.116 136.524 169.226 136.126 169.005 135.449C168.733 134.61 164.455 129.603 164.146 130.928C163.453 133.925 164.013 138.166 163.976 142.083C163.939 145.897 163.836 152.789 164.278 153.886Z" fill="url(#paint43_linear_559_37636)"/>
<path d="M122.72 154.085L142.962 165.8C142.962 165.8 152.593 161.154 163.799 154.085C163.799 154.085 149.596 161.92 142.962 165.307C142.962 165.307 138.286 162.715 122.713 154.085H122.72Z" fill="white"/>
<path d="M131.306 125.126C130.142 124.787 129.229 125.501 128.743 126.054C128.25 126.613 128.545 126.959 129.178 126.871C129.811 126.775 131.799 125.266 131.313 125.126H131.306Z" fill="#394773"/>
<path style="mix-blend-mode:multiply" opacity="0.5" d="M131.306 125.126C130.518 124.839 129.546 125.317 129.244 125.582C128.942 125.848 129.568 126.643 129.98 126.495C130.393 126.341 131.667 125.258 131.306 125.126Z" fill="url(#paint44_linear_559_37636)"/>
<path d="M129.023 125.774C129.023 125.774 127.742 126.584 127.904 127.011C128.059 127.438 129.598 126.716 129.598 126.716C129.598 126.716 128.795 126.952 128.604 126.591C128.412 126.223 129.023 125.774 129.023 125.774Z" fill="white"/>
<path d="M163.52 137.57C163.328 137.953 163.196 139.734 163.483 139.86C163.77 139.992 164.411 139.433 164.366 139.079C164.322 138.726 163.645 137.312 163.512 137.562L163.52 137.57Z" fill="#394773"/>
<path d="M162.43 134.286C162.57 134.934 163.424 136.598 163.858 136.001C164.455 135.177 164.006 131.981 163.579 131.856C163.409 131.804 162.238 133.454 162.423 134.293L162.43 134.286Z" fill="#394773"/>
<g style="mix-blend-mode:multiply" opacity="0.5">
<path d="M163.336 139.44C163.468 140.029 164.278 138.88 164.123 138.483C163.969 138.085 163.601 137.334 163.52 137.57C163.439 137.813 163.262 139.116 163.336 139.44Z" fill="#912774"/>
</g>
<path d="M163.417 139.793C163.417 139.793 163.711 139.911 164.042 139.661C164.308 139.462 164.403 139.167 164.352 139.005C164.352 139.005 164.44 139.44 164.131 139.727C163.645 140.176 163.417 139.786 163.417 139.786V139.793Z" fill="#DAE1EF"/>
<g style="mix-blend-mode:multiply" opacity="0.5">
<path d="M162.562 133.8C162.975 135.331 164.079 135.258 164.16 134.632C164.241 134.006 163.969 131.767 163.579 131.848C163.188 131.929 162.474 133.461 162.562 133.792V133.8Z" fill="#912774"/>
</g>
<path d="M162.43 134.286C162.43 134.286 162.975 135.817 163.498 135.78C164.013 135.744 164.131 135.199 164.131 135.199C164.131 135.199 164.278 136.752 163.741 136.598C162.813 136.325 162.43 134.286 162.43 134.286Z" fill="#DAE1EF"/>
<path d="M127.131 121.223C127.116 121.614 131.792 121.12 133.021 120.494C133.986 120.001 134.251 117.962 133.795 118.028C131.873 118.293 127.138 120.87 127.124 121.223H127.131Z" fill="white"/>
<g style="mix-blend-mode:soft-light" opacity="0.5">
<path d="M128.044 154.785C129.612 156.132 129.193 157.671 129.193 157.671L133.058 159.806C133.058 159.806 137.601 160.329 135.473 158.915L128.051 154.777L128.044 154.785Z" fill="white"/>
</g>
<g style="mix-blend-mode:soft-light" opacity="0.5">
<path d="M120.511 154.785C120.136 155.484 108.988 162.789 109.26 161.655C109.533 160.513 109.776 155.484 115.961 151.346C116.808 150.779 121.13 153.629 120.511 154.785Z" fill="white"/>
</g>
<g style="mix-blend-mode:soft-light" opacity="0.5">
<path d="M163.365 122.63C162.261 123.248 162.724 128.336 163.792 128.211C164.86 128.086 177.723 121.665 176.788 121.349C175.853 121.032 169.837 119 163.365 122.63Z" fill="white"/>
</g>
<g style="mix-blend-mode:soft-light" opacity="0.5">
<path d="M169.329 150.323C168.718 150.323 164.816 154.181 165.478 154.785C166.141 155.389 176.788 163.002 177.075 161.831C177.672 159.394 172.311 150.33 169.322 150.323H169.329Z" fill="white"/>
</g>
<path d="M113.34 120.34C112.949 120.686 115.585 121.835 116.086 121.901C116.587 121.967 118.494 120.87 118.251 120.612C118.015 120.362 113.914 119.824 113.332 120.34H113.34Z" fill="white"/>
<path d="M169.565 120.693C169.175 121.039 171.811 122.188 172.311 122.254C172.812 122.321 174.719 121.223 174.476 120.966C174.24 120.715 170.139 120.178 169.557 120.693H169.565Z" fill="white"/>
<path style="mix-blend-mode:multiply" opacity="0.5" d="M120.57 129.912C118.914 127.99 109.246 121.768 109.062 122.63C108.878 123.491 109.533 126.687 110.785 129.448C112.036 132.209 115.917 134.978 116.359 134.757C116.808 134.536 121.115 130.553 120.57 129.919V129.912Z" fill="url(#paint45_linear_559_37636)"/>
<path style="mix-blend-mode:multiply" opacity="0.5" d="M164.374 128.918C164.146 129.964 169.248 134.337 170.073 134.61C170.603 134.786 175.581 130.862 176.449 127.291C177.443 123.204 177.208 122.674 176.449 122.77C175.691 122.873 164.58 127.924 164.366 128.911L164.374 128.918Z" fill="url(#paint46_linear_559_37636)"/>
<path style="mix-blend-mode:multiply" opacity="0.5" d="M120.909 155.484C119.922 155.757 109.275 162.42 109.798 162.914C110.321 163.407 114.952 165.395 119.12 164.467C123.287 163.54 123.876 162.634 123.891 162.413C123.979 161.235 121.557 155.3 120.902 155.484H120.909Z" fill="url(#paint47_linear_559_37636)"/>
<path style="mix-blend-mode:multiply" opacity="0.5" d="M162.658 162.737C163.461 163.031 167.076 164.769 170.964 164.372C174.859 163.974 176.273 162.766 176.008 162.45C175.743 162.141 166.237 154.998 164.374 155.47C163.439 155.705 162.135 162.538 162.658 162.73V162.737Z" fill="url(#paint48_linear_559_37636)"/>
<g style="mix-blend-mode:soft-light" opacity="0.5">
<path d="M142.1 166.514C140.952 166.698 135.525 168.576 135.275 169.327C135.024 170.078 136.858 176.72 141.703 179.945C143.043 180.836 143.219 174.054 143.352 172.272C143.485 170.49 143.595 166.286 142.1 166.514Z" fill="white"/>
</g>
<path style="mix-blend-mode:multiply" opacity="0.5" d="M144.022 166.963C143.617 168.289 143.08 180.615 143.801 180.703C144.515 180.799 148.771 177.103 150.133 173.833C151.577 170.365 151.164 168.966 150.001 168.429C148.838 167.891 144.243 166.22 144.022 166.963Z" fill="url(#paint49_linear_559_37636)"/>
<g style="mix-blend-mode:soft-light" opacity="0.5">
<path d="M135.473 115.208C136.166 116.025 142.196 118.197 142.594 117.571C142.999 116.945 143.043 103.559 142.505 103.603C141.968 103.648 138.713 106.858 136.791 110.429C134.87 114 134.995 114.648 135.466 115.2L135.473 115.208Z" fill="white"/>
</g>
<path style="mix-blend-mode:multiply" opacity="0.5" d="M143.264 117.682C143.801 118.573 150.627 115.605 150.848 115.075C151.069 114.538 149.088 105.908 143.713 103.206C143.345 103.022 142.726 116.791 143.264 117.682Z" fill="url(#paint50_linear_559_37636)"/>
<path style="mix-blend-mode:multiply" opacity="0.5" d="M138.772 167.184C138.772 167.184 137.285 169.85 135.105 170.439C134.509 168.915 134.708 167.788 134.671 167.442C130.393 165.145 127.956 163.856 123.685 161.551C122.647 162.074 119.746 163.407 116.69 163.775C117.036 160.565 116.005 158.334 116.005 158.334C114.297 157.288 111.801 156.81 110.549 156.626C110.799 156.147 111.087 155.668 111.418 155.19C113.45 152.23 116.587 150.065 117.051 149.756C117.154 144.565 117.154 139.381 117.051 134.19C116.771 134.006 115.298 132.997 113.73 131.48C113.494 131.252 113.266 131.016 113.03 130.766C114.319 130.052 115.32 129.573 115.666 129.581C116.977 129.632 122.573 137.96 121.807 141.222C121.064 144.381 119.363 146.531 119.252 146.663C121.27 145.08 123.17 144.189 124.76 143.688C124.753 146.752 124.716 149.815 124.65 152.885C128.471 155.042 132.307 157.17 136.143 159.306C136.467 159.873 136.703 160.403 136.799 160.845C137.285 163.127 136.011 164.894 136.011 164.894L138.75 167.177L138.772 167.184Z" fill="url(#paint51_linear_559_37636)"/>
<path style="mix-blend-mode:multiply" opacity="0.5" d="M170.404 158.326C170.404 158.326 169.388 160.535 169.719 163.709C166.73 163.326 163.917 162.037 162.879 161.522C158.594 163.834 156.142 165.13 151.849 167.435C151.812 167.803 151.702 169.732 151.569 170.431C149.073 169.577 147.645 167.177 147.645 167.177L150.384 164.894C150.384 164.894 149.11 163.127 149.596 160.845C149.684 160.418 149.905 159.917 150.207 159.387C154.095 157.222 157.983 155.065 161.848 152.885C161.789 149.829 161.753 146.774 161.738 143.725C163.306 144.226 165.169 145.117 167.142 146.671C167.039 146.538 165.331 144.388 164.587 141.229C163.822 137.967 169.418 129.64 170.728 129.588C171.074 129.573 172.083 130.059 173.386 130.788C171.634 132.651 169.793 133.91 169.447 134.146C169.344 139.337 169.344 144.52 169.447 149.712C169.867 149.991 173.048 152.156 175.102 155.146C175.441 155.632 175.728 156.125 175.986 156.611C174.785 156.78 172.164 157.251 170.39 158.334L170.404 158.326Z" fill="url(#paint52_linear_559_37636)"/>
<path style="mix-blend-mode:multiply" opacity="0.5" d="M122.75 134.242L124.679 135.405C124.679 135.405 137.108 127.769 143.72 127.769C150.332 127.769 161.679 133.947 161.679 133.947L163.829 130.722L163.733 129.757L143.19 118.374L122.654 129.757L122.742 134.242H122.75Z" fill="url(#paint53_linear_559_37636)"/>
<path d="M139.391 110.267C138.028 113.072 142.314 118.867 146.202 114.464C150.509 109.59 142.328 104.2 139.391 110.267Z" fill="url(#paint54_linear_559_37636)"/>
<path d="M140.51 110.245C139.67 111.931 140.296 113.639 141.828 114.692C143.588 115.9 145.745 114.471 146.489 112.999C147.556 110.893 145.524 108.706 144.265 108.345C143.006 107.984 141.106 109.052 140.51 110.252V110.245Z" fill="url(#paint55_linear_559_37636)"/>
<g style="mix-blend-mode:multiply" opacity="0.4">
<path d="M140.215 111.725C140.156 111.99 140.215 113.47 141.342 114.236C142.468 115.002 143.264 115.134 143.345 115.009C143.433 114.884 143.426 113.86 143.374 113.809C143.322 113.757 142.446 113.33 142.019 112.748C141.6 112.167 141.452 111.961 141.334 111.953C141.217 111.938 140.259 111.548 140.215 111.732V111.725Z" fill="#B82774"/>
</g>
<g style="mix-blend-mode:soft-light">
<path d="M141.563 111.88C141.408 112.564 143.359 113.831 143.536 113.809C144.375 113.691 145.392 111.828 145.414 111.224C145.428 110.819 143.853 109.501 143.352 109.656C142.851 109.811 141.688 111.342 141.563 111.88Z" fill="white"/>
</g>
<g style="mix-blend-mode:multiply" opacity="0.8">
<path d="M143.536 113.809C143.3 113.904 143.389 114.965 143.47 114.972C144.353 115.075 145.266 114.582 146.15 113.426C146.872 112.491 146.813 111.224 146.503 110.841C146.393 110.701 145.421 111.055 145.414 111.224C145.384 112.233 144.302 113.485 143.536 113.809Z" fill="#B82774"/>
</g>
<path opacity="0.75" d="M140.149 111.489C140.142 111.651 141.305 112.027 141.393 111.931C141.533 111.769 143.293 109.7 143.3 109.575C143.315 109.369 143.367 108.367 143.065 108.353C142.962 108.353 141.695 108.728 140.929 109.641C140.164 110.554 140.164 111.291 140.149 111.489Z" fill="white"/>
<path d="M140.51 110.245C140.51 110.245 141.055 109.317 142.012 108.787C142.012 108.787 142.527 108.942 142.122 109.597C141.717 110.252 140.51 110.238 140.51 110.238V110.245Z" fill="white"/>
<path d="M142.947 113.499C142.91 113.558 143.286 114.287 143.389 114.265C143.492 114.243 143.882 113.669 143.838 113.676C143.794 113.684 143.028 113.374 142.947 113.499Z" fill="white"/>
<path d="M145.252 110.893C145.097 111.077 145.237 111.718 145.318 111.74C145.406 111.762 145.789 111.033 145.745 110.989C145.701 110.944 145.392 110.724 145.252 110.893Z" fill="white"/>
<path d="M142.071 115.841C142.071 115.841 144.191 116.489 146.202 114.464C148.05 112.601 147.291 110.525 147.21 110.326C147.21 110.326 148.58 112.778 146.179 115.016C144.118 116.945 142.071 115.848 142.071 115.848V115.841Z" fill="#F0CFFF"/>
<g style="mix-blend-mode:multiply" opacity="0.5">
<path d="M141.334 115.465C140.186 114.008 139.221 111.445 141.217 109.391C143.205 107.329 145.723 108.846 146.599 109.244C146.599 109.244 143.595 105.135 140.12 107.579C138.419 108.772 138.249 110.768 138.765 112.159C139.516 114.177 141.342 115.465 141.342 115.465H141.334Z" fill="#5F5B9C"/>
</g>
<path d="M139.391 172.051C138.028 174.857 142.314 180.652 146.202 176.248C150.509 171.374 142.328 165.984 139.391 172.051Z" fill="url(#paint56_linear_559_37636)"/>
<path d="M140.51 172.037C139.67 173.723 140.296 175.431 141.828 176.484C143.588 177.692 145.745 176.263 146.489 174.79C147.556 172.685 145.524 170.498 144.265 170.137C143.006 169.776 141.106 170.844 140.51 172.044V172.037Z" fill="url(#paint57_linear_559_37636)"/>
<g style="mix-blend-mode:multiply" opacity="0.4">
<path d="M140.215 173.517C140.156 173.782 140.215 175.262 141.342 176.027C142.468 176.793 143.264 176.926 143.345 176.801C143.433 176.675 143.426 175.652 143.374 175.6C143.322 175.549 142.446 175.122 142.019 174.54C141.6 173.958 141.452 173.752 141.334 173.745C141.217 173.73 140.259 173.34 140.215 173.524V173.517Z" fill="#B82774"/>
</g>
<g style="mix-blend-mode:soft-light">
<path d="M141.563 173.671C141.408 174.356 143.359 175.623 143.536 175.6C144.375 175.483 145.392 173.62 145.414 173.016C145.428 172.611 143.853 171.293 143.352 171.448C142.851 171.602 141.688 173.134 141.563 173.671Z" fill="white"/>
</g>
<g style="mix-blend-mode:multiply" opacity="0.8">
<path d="M143.536 175.6C143.3 175.696 143.389 176.756 143.47 176.764C144.353 176.867 145.266 176.374 146.15 175.218C146.872 174.282 146.813 173.016 146.503 172.633C146.393 172.493 145.421 172.847 145.414 173.016C145.384 174.025 144.302 175.276 143.536 175.6Z" fill="#B82774"/>
</g>
<path opacity="0.75" d="M140.149 173.281C140.142 173.443 141.305 173.819 141.393 173.723C141.533 173.561 143.293 171.492 143.3 171.367C143.315 171.16 143.367 170.159 143.065 170.144C142.962 170.144 141.695 170.52 140.929 171.433C140.164 172.346 140.164 173.082 140.149 173.281Z" fill="white"/>
<path d="M140.51 172.037C140.51 172.037 141.055 171.109 142.012 170.579C142.012 170.579 142.527 170.733 142.122 171.389C141.717 172.044 140.51 172.029 140.51 172.029V172.037Z" fill="white"/>
<path d="M142.947 175.291C142.91 175.35 143.286 176.079 143.389 176.057C143.492 176.035 143.882 175.461 143.838 175.468C143.786 175.468 143.028 175.166 142.947 175.291Z" fill="white"/>
<path d="M145.252 172.685C145.097 172.869 145.237 173.509 145.318 173.531C145.406 173.553 145.789 172.825 145.745 172.78C145.701 172.736 145.392 172.515 145.252 172.685Z" fill="white"/>
<path d="M142.071 177.633C142.071 177.633 144.191 178.281 146.202 176.256C148.05 174.393 147.291 172.316 147.21 172.118C147.21 172.118 148.58 174.57 146.179 176.808C144.118 178.737 142.071 177.64 142.071 177.64V177.633Z" fill="#F0CFFF"/>
<g style="mix-blend-mode:multiply" opacity="0.5">
<path d="M141.334 177.25C140.186 175.792 139.221 173.229 141.217 171.175C143.205 169.113 145.723 170.63 146.599 171.028C146.599 171.028 143.595 166.919 140.12 169.364C138.419 170.557 138.249 172.552 138.765 173.944C139.516 175.961 141.342 177.25 141.342 177.25H141.334Z" fill="#5F5B9C"/>
</g>
<path d="M174.859 126.783C169.918 127.607 166.428 136.649 166.826 139.631C167.363 143.644 169.793 146.523 170.787 146.656C171.781 146.788 175.846 145.75 177.539 142.304C180.286 136.716 177.274 126.378 174.859 126.775V126.783Z" fill="url(#paint58_linear_559_37636)"/>
<g style="mix-blend-mode:soft-light" opacity="0.5">
<path d="M169.837 144.071C169.609 144.565 172.422 144.197 174.211 142.643C175.389 141.619 177.156 139.16 177.112 134.838C177.068 130.508 175.463 127.121 174.66 127.121C173.858 127.121 168.306 129.448 167.209 138.321C166.951 140.39 168.32 143.674 168.946 143.806C169.572 143.939 168.409 139.705 171.715 134.256C171.715 134.256 172.716 137.827 169.845 144.071H169.837Z" fill="white"/>
</g>
<path style="mix-blend-mode:multiply" opacity="0.5" d="M169.241 143.88C169.55 143.961 170.868 140.824 171.398 139.094C172.157 136.642 171.884 134.536 171.715 134.565C171.546 134.595 169.962 137.533 169.661 139.226C169.359 140.92 168.976 143.806 169.241 143.873V143.88Z" fill="url(#paint59_linear_559_37636)"/>
<g style="mix-blend-mode:soft-light" opacity="0.5">
<path d="M171.766 143.453C172.09 144.587 176.081 141.774 176.84 137.754C177.554 133.962 173.909 130.177 173.909 134.58C173.909 138.983 171.369 142.076 171.766 143.46V143.453Z" fill="white"/>
</g>
<g style="mix-blend-mode:soft-light" opacity="0.5">
<path d="M168.166 141.708C168.519 142.282 169.823 138.078 170.522 136.156C172.26 131.385 175.396 125.015 170.861 129.581C168.689 131.767 165.788 137.894 168.166 141.708Z" fill="white"/>
</g>
<path style="mix-blend-mode:multiply" opacity="0.5" d="M169.962 144.859C170.213 145.537 170.979 146.486 171.339 146.472C172.068 146.442 174.086 145.905 176.236 143.887C177.37 142.82 177.51 141.48 177.407 141.126C177.304 140.773 176.773 139.572 176.538 139.874C176.302 140.176 175.367 142.385 173.261 143.431C171.155 144.484 169.823 144.469 169.97 144.859H169.962Z" fill="url(#paint60_linear_559_37636)"/>
<path d="M179.476 149.918C178.629 148.754 171.715 149.167 169.742 150.426C169.285 150.72 168.748 151.169 168.195 151.692C169.373 149.844 170.787 146.656 170.787 146.656C170.124 145.492 169.749 145.942 169.749 145.942C169.329 148.636 167.069 152.878 163.417 157.097C164.271 155.462 165.014 153.157 165.014 150.809C165.022 146.221 161.981 143.792 161.09 143.88C160.192 143.968 157.151 148.467 157.151 152.281C157.151 156.095 160.074 158.849 161.215 159.394C158.888 161.596 156.289 163.444 154.117 164.821C154.794 163.54 155.457 161.279 155.501 160.16C155.56 158.525 153.086 155.123 151.974 155.396C151.216 155.587 149.331 159.895 149.773 161.662C150.288 163.753 151.974 164.865 152.99 165.506C150.781 166.838 149.22 167.575 149.22 167.575C148.595 168.915 150.023 168.466 150.023 168.466C150.023 168.466 152.681 167.155 156.061 164.688C156.657 165.822 158.719 168.112 161.716 168.333C164.948 168.576 168.946 166.279 169.079 165.528C169.211 164.777 167.341 162.045 163.461 161.765C161.9 161.655 160.331 161.927 159.035 162.347C160.383 161.205 161.745 159.91 163.048 158.474C163.748 157.701 164.396 156.92 165.014 156.154C165.014 156.979 169.786 157.899 174.027 156.449C176.773 155.506 180.05 150.698 179.468 149.91L179.476 149.918Z" fill="url(#paint61_radial_559_37636)"/>
<g style="mix-blend-mode:soft-light" opacity="0.5">
<path d="M161.679 158.304C160.773 157.531 158.307 153.953 158.704 150.072C159.006 147.105 160.442 144.255 161.281 144.278C162.113 144.3 164.793 146.59 164.727 150.175C164.668 153.761 162.923 157.237 162.783 157.435C162.651 157.634 163.387 154.689 163.115 152.48C162.85 150.271 161.708 148.467 161.708 148.467C161.708 148.467 161.973 151.442 162.04 154.225C162.106 157.001 162.143 158.709 161.672 158.304H161.679Z" fill="white"/>
</g>
<g style="mix-blend-mode:soft-light" opacity="0.5">
<path d="M165.788 155.499C166.119 154.527 168.328 151.486 170.603 150.278C172.878 149.071 178.865 149.373 179.269 150.013C179.674 150.647 175.89 154.129 173.283 154.932C170.677 155.735 166.428 155.366 166.796 155.168C167.164 154.969 172.164 153.879 174.123 151.92C174.528 151.515 170.058 152.082 168.033 153.562C166.008 155.042 165.795 155.506 165.795 155.506L165.788 155.499Z" fill="white"/>
</g>
<g style="mix-blend-mode:soft-light" opacity="0.5">
<path d="M156.908 164.143C157.504 164.961 160.383 167.273 163.696 167.184C166.229 167.118 168.733 166.072 168.77 165.366C168.806 164.659 167.032 162.244 163.991 162.074C160.95 161.905 157.894 163.164 157.717 163.26C157.541 163.363 160.081 162.921 161.937 163.289C163.792 163.657 165.25 164.732 165.25 164.732C165.25 164.732 162.747 164.32 160.398 164.084C158.049 163.856 156.606 163.709 156.915 164.136L156.908 164.143Z" fill="white"/>
</g>
<g style="mix-blend-mode:soft-light" opacity="0.5">
<path d="M153.69 164.902C154.205 164.188 155.361 161.419 155.258 159.681C155.155 157.944 152.578 155.366 151.996 155.551C151.415 155.735 150.59 159.475 151.091 161.139C151.591 162.803 153.52 164.534 153.506 164.254C153.491 163.967 152.232 161.051 152.762 159.019C152.873 158.606 154.264 160.977 154.087 162.759C153.911 164.541 153.682 164.909 153.682 164.909L153.69 164.902Z" fill="white"/>
</g>
<path style="mix-blend-mode:multiply" opacity="0.5" d="M166.605 155.389C166.362 155.499 165.272 156.235 165.441 156.456C165.611 156.677 169.145 157.546 171.892 156.869C174.638 156.191 174.638 155.933 174.749 155.536C174.859 155.138 175.014 154.748 173.85 154.998C172.687 155.241 171.089 155.72 169.484 155.536C167.879 155.359 167.187 155.131 166.605 155.389Z" fill="url(#paint62_linear_559_37636)"/>
<path style="mix-blend-mode:multiply" opacity="0.5" d="M166.73 154.741C167.621 154.895 173.526 152.097 173.239 151.979C172.945 151.862 170.537 152.178 168.924 153.025C167.312 153.872 166.443 154.689 166.73 154.741Z" fill="url(#paint63_linear_559_37636)"/>
<path style="mix-blend-mode:multiply" opacity="0.5" d="M161.686 158.555C161.443 159.077 160.729 158.842 160.479 158.724C160.228 158.606 158.675 157.288 157.879 155.536C157.04 153.695 157.209 151.346 157.541 150.544C157.872 149.741 158.579 149.925 158.527 150.212C158.476 150.499 158.748 153.724 159.809 155.602C160.869 157.472 161.745 158.422 161.679 158.562L161.686 158.555Z" fill="url(#paint64_linear_559_37636)"/>
<path style="mix-blend-mode:multiply" opacity="0.5" d="M162.415 150.492C162.261 152.672 162.548 157.296 162.666 157.288C162.783 157.273 163.218 154.291 163.071 152.856C162.923 151.42 162.467 149.859 162.415 150.499V150.492Z" fill="url(#paint65_linear_559_37636)"/>
<path style="mix-blend-mode:multiply" opacity="0.5" d="M156.672 164.18C156.179 164.497 156.429 164.865 156.672 165.366C156.915 165.866 158.38 167.641 160.972 168.112C163.564 168.583 163.88 167.442 163.748 167.376C163.615 167.309 161.517 167.14 159.816 166.352C157.894 165.469 156.908 164.026 156.672 164.18Z" fill="url(#paint66_linear_559_37636)"/>
<path style="mix-blend-mode:multiply" opacity="0.5" d="M157.747 163.378C159.08 163.886 163.91 164.254 163.777 164.048C163.645 163.841 162.607 163.304 161.215 163.186C159.823 163.076 157.526 163.289 157.747 163.378Z" fill="url(#paint67_linear_559_37636)"/>
<path style="mix-blend-mode:multiply" opacity="0.5" d="M153.749 164.313C153.314 163.915 152.821 159.173 153.108 159.247C153.395 159.313 154.08 160.94 154.08 161.905C154.08 162.869 153.918 164.475 153.741 164.313H153.749Z" fill="url(#paint68_linear_559_37636)"/>
<path style="mix-blend-mode:multiply" opacity="0.5" d="M150.7 159.725C150.207 159.77 149.721 160.705 149.927 161.684C150.141 162.663 151.01 164.32 152.99 165.351C153.373 165.55 153.66 164.475 153.462 164.313C153.263 164.151 152.468 163.606 151.702 162.384C150.818 160.977 150.884 159.711 150.7 159.725Z" fill="url(#paint69_linear_559_37636)"/>
<g style="mix-blend-mode:soft-light" opacity="0.5">
<path d="M160.906 144.955C162.157 146.597 161.937 155.109 161.686 156.022C161.436 156.935 158.829 153.592 158.896 150.647C158.962 147.701 160.368 144.255 160.906 144.955Z" fill="white"/>
</g>
<path d="M111.683 126.783C116.624 127.607 120.114 136.649 119.716 139.631C119.179 143.644 116.749 146.523 115.755 146.656C114.761 146.788 110.696 145.75 109.003 142.304C106.256 136.716 109.268 126.378 111.683 126.775V126.783Z" fill="url(#paint70_linear_559_37636)"/>
<g style="mix-blend-mode:soft-light" opacity="0.5">
<path d="M116.705 144.071C116.933 144.565 114.12 144.197 112.331 142.643C111.153 141.619 109.386 139.16 109.43 134.838C109.474 130.508 111.079 127.121 111.882 127.121C112.684 127.121 118.236 129.448 119.333 138.321C119.591 140.39 118.221 143.674 117.596 143.806C116.97 143.939 118.133 139.705 114.827 134.256C114.827 134.256 113.826 137.827 116.697 144.071H116.705Z" fill="white"/>
</g>
<path style="mix-blend-mode:multiply" opacity="0.5" d="M117.308 143.88C116.999 143.961 115.681 140.824 115.151 139.094C114.393 136.642 114.665 134.536 114.834 134.565C115.004 134.595 116.587 137.533 116.889 139.226C117.191 140.92 117.574 143.806 117.308 143.873V143.88Z" fill="url(#paint71_linear_559_37636)"/>
<g style="mix-blend-mode:soft-light" opacity="0.5">
<path d="M114.776 143.453C114.452 144.587 110.461 141.774 109.702 137.754C108.988 133.962 112.633 130.177 112.633 134.58C112.633 138.983 115.173 142.076 114.776 143.46V143.453Z" fill="white"/>
</g>
<g style="mix-blend-mode:soft-light" opacity="0.5">
<path d="M118.376 141.708C118.023 142.282 116.719 138.078 116.02 136.156C114.282 131.385 111.145 125.015 115.681 129.581C117.853 131.767 120.754 137.894 118.376 141.708Z" fill="white"/>
</g>
<path style="mix-blend-mode:multiply" opacity="0.5" d="M116.587 144.859C116.336 145.537 115.571 146.486 115.21 146.472C114.481 146.442 112.463 145.905 110.313 143.887C109.179 142.82 109.04 141.48 109.143 141.126C109.246 140.773 109.776 139.572 110.012 139.874C110.247 140.176 111.182 142.385 113.288 143.431C115.394 144.484 116.727 144.469 116.579 144.859H116.587Z" fill="url(#paint72_linear_559_37636)"/>
<path d="M107.066 149.918C107.913 148.754 114.827 149.167 116.8 150.426C117.257 150.72 117.794 151.169 118.347 151.692C117.169 149.844 115.755 146.656 115.755 146.656C116.417 145.492 116.793 145.942 116.793 145.942C117.213 148.636 119.473 152.878 123.125 157.097C122.271 155.462 121.528 153.157 121.528 150.809C121.52 146.221 124.561 143.792 125.452 143.88C126.35 143.968 129.391 148.467 129.391 152.281C129.391 156.095 126.468 158.849 125.327 159.394C127.654 161.596 130.253 163.444 132.425 164.821C131.748 163.54 131.085 161.279 131.041 160.16C130.982 158.525 133.456 155.123 134.568 155.396C135.326 155.587 137.211 159.895 136.769 161.662C136.254 163.753 134.568 164.865 133.552 165.506C135.761 166.838 137.322 167.575 137.322 167.575C137.947 168.915 136.519 168.466 136.519 168.466C136.519 168.466 133.861 167.155 130.481 164.688C129.885 165.822 127.823 168.112 124.826 168.333C121.594 168.576 117.596 166.279 117.463 165.528C117.331 164.777 119.201 162.045 123.081 161.765C124.642 161.655 126.211 161.927 127.506 162.347C126.159 161.205 124.797 159.91 123.493 158.474C122.794 157.701 122.146 156.92 121.528 156.154C121.528 156.979 116.756 157.899 112.515 156.449C109.769 155.506 106.492 150.698 107.074 149.91L107.066 149.918Z" fill="url(#paint73_radial_559_37636)"/>
<g style="mix-blend-mode:soft-light" opacity="0.5">
<path d="M124.87 158.304C125.776 157.531 128.243 153.953 127.845 150.072C127.543 147.105 126.107 144.255 125.268 144.278C124.436 144.3 121.756 146.59 121.822 150.175C121.888 153.761 123.626 157.237 123.766 157.435C123.898 157.634 123.162 154.689 123.435 152.48C123.7 150.271 124.841 148.467 124.841 148.467C124.841 148.467 124.576 151.442 124.51 154.225C124.443 157.008 124.407 158.709 124.878 158.304H124.87Z" fill="white"/>
</g>
<g style="mix-blend-mode:soft-light" opacity="0.5">
<path d="M120.754 155.499C120.423 154.527 118.214 151.486 115.939 150.278C113.664 149.071 107.677 149.373 107.272 150.013C106.867 150.647 110.652 154.129 113.259 154.932C115.865 155.735 120.114 155.366 119.746 155.168C119.377 154.969 114.378 153.879 112.419 151.92C112.014 151.515 116.484 152.082 118.509 153.562C120.534 155.042 120.747 155.506 120.747 155.506L120.754 155.499Z" fill="white"/>
</g>
<g style="mix-blend-mode:soft-light" opacity="0.5">
<path d="M129.634 164.143C129.038 164.961 126.159 167.273 122.846 167.184C120.313 167.118 117.809 166.072 117.772 165.366C117.735 164.659 119.51 162.244 122.551 162.074C125.592 161.905 128.648 163.164 128.824 163.26C129.001 163.363 126.461 162.921 124.605 163.289C122.75 163.657 121.292 164.732 121.292 164.732C121.292 164.732 123.795 164.32 126.144 164.084C128.493 163.856 129.936 163.709 129.627 164.136L129.634 164.143Z" fill="white"/>
</g>
<g style="mix-blend-mode:soft-light" opacity="0.5">
<path d="M132.852 164.902C132.337 164.188 131.181 161.419 131.284 159.681C131.387 157.944 133.964 155.366 134.546 155.551C135.127 155.735 135.952 159.475 135.451 161.139C134.951 162.803 133.021 164.534 133.036 164.254C133.051 163.967 134.31 161.051 133.78 159.019C133.669 158.606 132.278 160.977 132.454 162.759C132.639 164.541 132.859 164.909 132.859 164.909L132.852 164.902Z" fill="white"/>
</g>
<path style="mix-blend-mode:multiply" opacity="0.5" d="M119.937 155.389C120.18 155.499 121.27 156.235 121.1 156.456C120.931 156.677 117.397 157.546 114.65 156.869C111.904 156.191 111.904 155.933 111.793 155.536C111.683 155.138 111.528 154.748 112.692 154.998C113.855 155.241 115.453 155.72 117.058 155.536C118.663 155.359 119.355 155.131 119.937 155.389Z" fill="url(#paint74_linear_559_37636)"/>
<path style="mix-blend-mode:multiply" opacity="0.5" d="M119.819 154.741C118.928 154.895 113.023 152.097 113.31 151.979C113.605 151.862 116.013 152.178 117.625 153.025C119.238 153.872 120.106 154.689 119.819 154.741Z" fill="url(#paint75_linear_559_37636)"/>
<path style="mix-blend-mode:multiply" opacity="0.5" d="M124.856 158.555C125.099 159.077 125.813 158.842 126.063 158.724C126.314 158.606 127.867 157.288 128.662 155.536C129.502 153.695 129.332 151.346 129.001 150.544C128.67 149.741 127.963 149.925 128.014 150.212C128.066 150.499 127.794 153.724 126.733 155.602C125.673 157.472 124.797 158.422 124.863 158.562L124.856 158.555Z" fill="url(#paint76_linear_559_37636)"/>
<path style="mix-blend-mode:multiply" opacity="0.5" d="M124.134 150.492C124.289 152.672 124.002 157.296 123.884 157.288C123.766 157.273 123.331 154.291 123.479 152.856C123.626 151.42 124.083 149.859 124.134 150.499V150.492Z" fill="url(#paint77_linear_559_37636)"/>
<path style="mix-blend-mode:multiply" opacity="0.5" d="M129.87 164.18C130.363 164.497 130.113 164.865 129.87 165.366C129.627 165.866 128.162 167.641 125.57 168.112C122.978 168.583 122.661 167.442 122.794 167.376C122.927 167.309 125.025 167.14 126.726 166.352C128.648 165.469 129.634 164.026 129.87 164.18Z" fill="url(#paint78_linear_559_37636)"/>
<path style="mix-blend-mode:multiply" opacity="0.5" d="M128.802 163.378C127.47 163.886 122.639 164.254 122.772 164.048C122.904 163.841 123.943 163.304 125.334 163.186C126.726 163.076 129.023 163.289 128.802 163.378Z" fill="url(#paint79_linear_559_37636)"/>
<path style="mix-blend-mode:multiply" opacity="0.5" d="M132.801 164.313C133.235 163.915 133.728 159.173 133.441 159.247C133.154 159.313 132.469 160.94 132.469 161.905C132.469 162.869 132.631 164.475 132.808 164.313H132.801Z" fill="url(#paint80_linear_559_37636)"/>
<path style="mix-blend-mode:multiply" opacity="0.5" d="M135.842 159.725C136.335 159.77 136.821 160.705 136.615 161.684C136.401 162.663 135.532 164.32 133.552 165.351C133.169 165.55 132.882 164.475 133.08 164.313C133.279 164.151 134.074 163.606 134.84 162.384C135.724 160.977 135.657 159.711 135.842 159.725Z" fill="url(#paint81_linear_559_37636)"/>
<g style="mix-blend-mode:soft-light" opacity="0.5">
<path d="M125.636 144.955C124.384 146.597 124.605 155.109 124.856 156.022C125.106 156.935 127.713 153.592 127.646 150.647C127.58 147.701 126.174 144.255 125.636 144.955Z" fill="white"/>
</g>
<path style="mix-blend-mode:color-dodge" opacity="0.6" d="M136.033 133.94C144.609 133.94 151.562 126.987 151.562 118.411C151.562 109.834 144.609 102.882 136.033 102.882C127.457 102.882 120.504 109.834 120.504 118.411C120.504 126.987 127.457 133.94 136.033 133.94Z" fill="url(#paint82_radial_559_37636)"/>
<path style="mix-blend-mode:color-dodge" opacity="0.6" d="M143.05 180.055C151.468 180.055 158.292 173.231 158.292 164.813C158.292 156.396 151.468 149.572 143.05 149.572C134.632 149.572 127.808 156.396 127.808 164.813C127.808 173.231 134.632 180.055 143.05 180.055Z" fill="url(#paint83_radial_559_37636)"/>
<path style="mix-blend-mode:color-dodge" opacity="0.6" d="M146.791 128.484C155.208 128.484 162.032 121.66 162.032 113.242C162.032 104.824 155.208 98 146.791 98C138.373 98 131.549 104.824 131.549 113.242C131.549 121.66 138.373 128.484 146.791 128.484Z" fill="url(#paint84_radial_559_37636)"/>
</g>
<path opacity="0.5" d="M211 143C211 180.555 180.555 211 143 211C105.445 211 75 180.555 75 143" stroke="url(#paint85_linear_559_37636)"/>
<defs>
<filter id="filter0_f_559_37636" x="0" y="0" width="286" height="286" filterUnits="userSpaceOnUse" color-interpolation-filters="sRGB">
<feFlood flood-opacity="0" result="BackgroundImageFix"/>
<feBlend mode="normal" in="SourceGraphic" in2="BackgroundImageFix" result="shape"/>
<feGaussianBlur stdDeviation="37.5" result="effect1_foregroundBlur_559_37636"/>
</filter>
<radialGradient id="paint0_radial_559_37636" cx="0" cy="0" r="1" gradientUnits="userSpaceOnUse" gradientTransform="translate(143 143) rotate(90) scale(68)">
<stop stop-color="#38ACCF"/>
<stop offset="1" stop-color="#38ACCF" stop-opacity="0"/>
</radialGradient>
<linearGradient id="paint1_linear_559_37636" x1="162.754" y1="188" x2="162.754" y2="167.545" gradientUnits="userSpaceOnUse">
<stop stop-color="#705AB8"/>
<stop offset="1" stop-color="#4B14CB"/>
</linearGradient>
<linearGradient id="paint2_linear_559_37636" x1="150.859" y1="177.751" x2="152.488" y2="171.906" gradientUnits="userSpaceOnUse">
<stop stop-color="#705AB8"/>
<stop offset="1" stop-color="white"/>
</linearGradient>
<linearGradient id="paint3_linear_559_37636" x1="123.795" y1="98" x2="123.795" y2="98" gradientUnits="userSpaceOnUse">
<stop stop-color="#705AB8"/>
<stop offset="1" stop-color="#4B14CB"/>
</linearGradient>
<linearGradient id="paint4_linear_559_37636" x1="135.715" y1="177.705" x2="134.087" y2="171.86" gradientUnits="userSpaceOnUse">
<stop stop-color="#705AB8"/>
<stop offset="1" stop-color="white"/>
</linearGradient>
<linearGradient id="paint5_linear_559_37636" x1="143.271" y1="159.446" x2="143.271" y2="129.721" gradientUnits="userSpaceOnUse">
<stop stop-color="#D36AF0"/>
<stop offset="0.5" stop-color="#6544CF"/>
<stop offset="1" stop-color="#A140DE"/>
</linearGradient>
<linearGradient id="paint6_linear_559_37636" x1="142.954" y1="196.622" x2="142.954" y2="82.8392" gradientUnits="userSpaceOnUse">
<stop stop-color="#655ED6"/>
<stop offset="1" stop-color="#C88FF0"/>
</linearGradient>
<linearGradient id="paint7_linear_559_37636" x1="125.128" y1="140.404" x2="143.212" y2="140.404" gradientUnits="userSpaceOnUse">
<stop stop-color="#655ED6"/>
<stop offset="1" stop-color="#C88FF0"/>
</linearGradient>
<linearGradient id="paint8_linear_559_37636" x1="143.212" y1="140.404" x2="160.655" y2="140.404" gradientUnits="userSpaceOnUse">
<stop stop-color="#655ED6"/>
<stop offset="1" stop-color="#C88FF0"/>
</linearGradient>
<linearGradient id="paint9_linear_559_37636" x1="144.655" y1="142.68" x2="132.985" y2="161.014" gradientUnits="userSpaceOnUse">
<stop stop-color="white"/>
<stop offset="0.44" stop-color="#881DED"/>
<stop offset="1" stop-color="#9B1EB4"/>
</linearGradient>
<linearGradient id="paint10_linear_559_37636" x1="150.494" y1="148.879" x2="143.735" y2="148.879" gradientUnits="userSpaceOnUse">
<stop stop-color="white"/>
<stop offset="0.44" stop-color="#881DED"/>
<stop offset="1" stop-color="#9B1EB4"/>
</linearGradient>
<linearGradient id="paint11_linear_559_37636" x1="145.701" y1="123.778" x2="145.701" y2="143.453" gradientUnits="userSpaceOnUse">
<stop stop-color="#E8ACE4"/>
<stop offset="1"/>
</linearGradient>
<linearGradient id="paint12_linear_559_37636" x1="156.37" y1="143.504" x2="147.564" y2="133.468" gradientUnits="userSpaceOnUse">
<stop stop-color="#BFD7FF"/>
<stop offset="1"/>
</linearGradient>
<linearGradient id="paint13_linear_559_37636" x1="139.692" y1="138.895" x2="162.423" y2="133.881" gradientUnits="userSpaceOnUse">
<stop stop-color="#E8ACE4"/>
<stop offset="1"/>
</linearGradient>
<linearGradient id="paint14_linear_559_37636" x1="134.17" y1="123.778" x2="134.17" y2="143.453" gradientUnits="userSpaceOnUse">
<stop stop-color="#E8ACE4"/>
<stop offset="1"/>
</linearGradient>
<linearGradient id="paint15_linear_559_37636" x1="134.17" y1="149.461" x2="134.17" y2="138.144" gradientUnits="userSpaceOnUse">
<stop stop-color="white"/>
<stop offset="0.44" stop-color="#881DED"/>
<stop offset="1" stop-color="#9B1EB4"/>
</linearGradient>
<linearGradient id="paint16_linear_559_37636" x1="151.93" y1="151" x2="151.93" y2="137.577" gradientUnits="userSpaceOnUse">
<stop stop-color="white"/>
<stop offset="0.44" stop-color="#881DED"/>
<stop offset="1" stop-color="#9B1EB4"/>
</linearGradient>
<linearGradient id="paint17_linear_559_37636" x1="142.954" y1="168.731" x2="142.954" y2="140.773" gradientUnits="userSpaceOnUse">
<stop stop-color="white"/>
<stop offset="0.44" stop-color="#881DED"/>
<stop offset="1" stop-color="#9B1EB4"/>
</linearGradient>
<linearGradient id="paint18_linear_559_37636" x1="141.6" y1="151.611" x2="141.6" y2="157.273" gradientUnits="userSpaceOnUse">
<stop stop-color="white"/>
<stop offset="0.44" stop-color="#881DED"/>
<stop offset="1" stop-color="#9B1EB4"/>
</linearGradient>
<linearGradient id="paint19_linear_559_37636" x1="125.194" y1="146.516" x2="160.324" y2="146.516" gradientUnits="userSpaceOnUse">
<stop stop-color="#881DED"/>
<stop offset="1" stop-color="#9B1EB4"/>
</linearGradient>
<radialGradient id="paint20_radial_559_37636" cx="0" cy="0" r="1" gradientUnits="userSpaceOnUse" gradientTransform="translate(152.681 137.835) scale(6.00834 6.00834)">
<stop stop-color="#27A0D7"/>
<stop offset="0.1" stop-color="#2495C9"/>
<stop offset="0.3" stop-color="#1E7BA5"/>
<stop offset="0.57" stop-color="#13506B"/>
<stop offset="0.89" stop-color="#05151C"/>
<stop offset="1"/>
</radialGradient>
<radialGradient id="paint21_radial_559_37636" cx="0" cy="0" r="1" gradientUnits="userSpaceOnUse" gradientTransform="translate(136.663 150.93) rotate(27.82) scale(5.16718 6.00834)">
<stop stop-color="#27A0D7"/>
<stop offset="0.1" stop-color="#2495C9"/>
<stop offset="0.3" stop-color="#1E7BA5"/>
<stop offset="0.57" stop-color="#13506B"/>
<stop offset="0.89" stop-color="#05151C"/>
<stop offset="1"/>
</radialGradient>
<radialGradient id="paint22_radial_559_37636" cx="0" cy="0" r="1" gradientUnits="userSpaceOnUse" gradientTransform="translate(128.268 137.958) rotate(27.82) scale(6.72935 5.16718)">
<stop stop-color="#E8ACE4"/>
<stop offset="0.1" stop-color="#DAA1D6"/>
<stop offset="0.28" stop-color="#B687B3"/>
<stop offset="0.53" stop-color="#7C5C7A"/>
<stop offset="0.84" stop-color="#2D212C"/>
<stop offset="1"/>
</radialGradient>
<linearGradient id="paint23_linear_559_37636" x1="143.109" y1="146.582" x2="143.109" y2="141.119" gradientUnits="userSpaceOnUse">
<stop stop-color="white"/>
<stop offset="0.44" stop-color="#881DED"/>
<stop offset="1" stop-color="#9B1EB4"/>
</linearGradient>
<linearGradient id="paint24_linear_559_37636" x1="143.095" y1="145.264" x2="143.161" y2="136.478" gradientUnits="userSpaceOnUse">
<stop stop-color="#655ED6"/>
<stop offset="1" stop-color="#C88FF0"/>
</linearGradient>
<linearGradient id="paint25_linear_559_37636" x1="138.919" y1="140.277" x2="142.493" y2="143.898" gradientUnits="userSpaceOnUse">
<stop stop-color="white"/>
<stop offset="0.44" stop-color="#881DED"/>
<stop offset="1" stop-color="#9B1EB4"/>
</linearGradient>
<linearGradient id="paint26_linear_559_37636" x1="143.374" y1="138.468" x2="143.374" y2="142.584" gradientUnits="userSpaceOnUse">
<stop stop-color="#655ED6"/>
<stop offset="1" stop-color="#C88FF0"/>
</linearGradient>
<linearGradient id="paint27_linear_559_37636" x1="145.063" y1="138.469" x2="145.062" y2="138.461" gradientUnits="userSpaceOnUse">
<stop stop-color="white"/>
<stop offset="1" stop-color="#FFF7C4"/>
</linearGradient>
<linearGradient id="paint28_linear_559_37636" x1="142.201" y1="139.495" x2="145.044" y2="142.556" gradientUnits="userSpaceOnUse">
<stop stop-color="#705AB5"/>
<stop offset="1" stop-color="#662D87"/>
</linearGradient>
<linearGradient id="paint29_linear_559_37636" x1="144.757" y1="142.072" x2="142.232" y2="139.547" gradientUnits="userSpaceOnUse">
<stop stop-color="#DE0086"/>
<stop offset="1" stop-color="#FF003B"/>
</linearGradient>
<linearGradient id="paint30_linear_559_37636" x1="114.849" y1="137.54" x2="114.849" y2="121.349" gradientUnits="userSpaceOnUse">
<stop stop-color="#6544CF"/>
<stop offset="0.49" stop-color="#993EC7"/>
<stop offset="1" stop-color="#662D87"/>
</linearGradient>
<linearGradient id="paint31_linear_559_37636" x1="143.242" y1="119.692" x2="143.242" y2="104.465" gradientUnits="userSpaceOnUse">
<stop stop-color="#6544CF"/>
<stop offset="0.49" stop-color="#993EC7"/>
<stop offset="1" stop-color="#662D87"/>
</linearGradient>
<linearGradient id="paint32_linear_559_37636" x1="117.713" y1="164.975" x2="117.713" y2="160.852" gradientUnits="userSpaceOnUse">
<stop stop-color="#6544CF"/>
<stop offset="0.49" stop-color="#993EC7"/>
<stop offset="1" stop-color="#662D87"/>
</linearGradient>
<linearGradient id="paint33_linear_559_37636" x1="171.693" y1="137.54" x2="171.693" y2="121.349" gradientUnits="userSpaceOnUse">
<stop stop-color="#6544CF"/>
<stop offset="0.49" stop-color="#993EC7"/>
<stop offset="1" stop-color="#662D87"/>
</linearGradient>
<linearGradient id="paint34_linear_559_37636" x1="168.829" y1="164.975" x2="168.829" y2="160.852" gradientUnits="userSpaceOnUse">
<stop stop-color="#6544CF"/>
<stop offset="0.49" stop-color="#993EC7"/>
<stop offset="1" stop-color="#662D87"/>
</linearGradient>
<linearGradient id="paint35_linear_559_37636" x1="143.264" y1="181.506" x2="143.264" y2="167.435" gradientUnits="userSpaceOnUse">
<stop stop-color="#6544CF"/>
<stop offset="0.49" stop-color="#993EC7"/>
<stop offset="1" stop-color="#662D87"/>
</linearGradient>
<linearGradient id="paint36_linear_559_37636" x1="143.264" y1="181.528" x2="143.264" y2="106.129" gradientUnits="userSpaceOnUse">
<stop stop-color="#655ED6"/>
<stop offset="1" stop-color="#C88FF0"/>
</linearGradient>
<linearGradient id="paint37_linear_559_37636" x1="143.264" y1="165.469" x2="143.264" y2="118.411" gradientUnits="userSpaceOnUse">
<stop stop-color="#6544CF"/>
<stop offset="0.49" stop-color="#993EC7"/>
<stop offset="1" stop-color="#662D87"/>
</linearGradient>
<linearGradient id="paint38_linear_559_37636" x1="144.935" y1="161.522" x2="154.942" y2="161.522" gradientUnits="userSpaceOnUse">
<stop stop-color="#8980EB"/>
<stop offset="1" stop-color="#705AB8"/>
</linearGradient>
<linearGradient id="paint39_linear_559_37636" x1="122.728" y1="141.892" x2="124.672" y2="141.892" gradientUnits="userSpaceOnUse">
<stop stop-color="#8980EB"/>
<stop offset="1" stop-color="#705AB8"/>
</linearGradient>
<linearGradient id="paint40_linear_559_37636" x1="161.878" y1="141.899" x2="163.792" y2="141.899" gradientUnits="userSpaceOnUse">
<stop stop-color="#8980EB"/>
<stop offset="1" stop-color="#705AB8"/>
</linearGradient>
<linearGradient id="paint41_linear_559_37636" x1="127.499" y1="123.447" x2="143.448" y2="123.447" gradientUnits="userSpaceOnUse">
<stop stop-color="#8980EB"/>
<stop offset="1" stop-color="#705AB8"/>
</linearGradient>
<linearGradient id="paint42_linear_559_37636" x1="119.996" y1="163.598" x2="119.996" y2="117.093" gradientUnits="userSpaceOnUse">
<stop stop-color="#705AB8"/>
<stop offset="1" stop-color="white"/>
</linearGradient>
<linearGradient id="paint43_linear_559_37636" x1="166.472" y1="163.981" x2="166.472" y2="117.372" gradientUnits="userSpaceOnUse">
<stop stop-color="#705AB8"/>
<stop offset="1" stop-color="white"/>
</linearGradient>
<linearGradient id="paint44_linear_559_37636" x1="130.111" y1="124.98" x2="130.656" y2="126.041" gradientUnits="userSpaceOnUse">
<stop stop-color="#8980EB"/>
<stop offset="1" stop-color="#705AB8"/>
</linearGradient>
<linearGradient id="paint45_linear_559_37636" x1="120.614" y1="128.653" x2="109.032" y2="128.653" gradientUnits="userSpaceOnUse">
<stop stop-color="#705AB8"/>
<stop offset="1" stop-color="white"/>
</linearGradient>
<linearGradient id="paint46_linear_559_37636" x1="164.366" y1="128.697" x2="177.119" y2="128.697" gradientUnits="userSpaceOnUse">
<stop stop-color="#8980EB"/>
<stop offset="1" stop-color="#705AB8"/>
</linearGradient>
<linearGradient id="paint47_linear_559_37636" x1="123.906" y1="160.094" x2="109.783" y2="160.094" gradientUnits="userSpaceOnUse">
<stop stop-color="#705AB8"/>
<stop offset="1" stop-color="white"/>
</linearGradient>
<linearGradient id="paint48_linear_559_37636" x1="162.54" y1="159.946" x2="176.044" y2="159.946" gradientUnits="userSpaceOnUse">
<stop stop-color="#8980EB"/>
<stop offset="1" stop-color="#705AB8"/>
</linearGradient>
<linearGradient id="paint49_linear_559_37636" x1="151.054" y1="173.738" x2="143.448" y2="173.738" gradientUnits="userSpaceOnUse">
<stop stop-color="#705AB8"/>
<stop offset="1" stop-color="white"/>
</linearGradient>
<linearGradient id="paint50_linear_559_37636" x1="150.862" y1="110.525" x2="143.05" y2="110.525" gradientUnits="userSpaceOnUse">
<stop stop-color="#705AB8"/>
<stop offset="1" stop-color="white"/>
</linearGradient>
<linearGradient id="paint51_linear_559_37636" x1="110.564" y1="150.006" x2="138.772" y2="150.006" gradientUnits="userSpaceOnUse">
<stop offset="0.19" stop-color="#881DED"/>
<stop offset="1" stop-color="#262262"/>
</linearGradient>
<linearGradient id="paint52_linear_559_37636" x1="147.645" y1="150.006" x2="176" y2="150.006" gradientUnits="userSpaceOnUse">
<stop offset="0.19" stop-color="#881DED"/>
<stop offset="1" stop-color="#262262"/>
</linearGradient>
<linearGradient id="paint53_linear_559_37636" x1="143.242" y1="135.405" x2="143.242" y2="118.374" gradientUnits="userSpaceOnUse">
<stop stop-color="#881DED"/>
<stop offset="1" stop-color="#262262"/>
</linearGradient>
<linearGradient id="paint54_linear_559_37636" x1="141.061" y1="109.333" x2="146.231" y2="114.909" gradientUnits="userSpaceOnUse">
<stop stop-color="#705AB5"/>
<stop offset="1" stop-color="#662D87"/>
</linearGradient>
<linearGradient id="paint55_linear_559_37636" x1="145.705" y1="114.019" x2="141.113" y2="109.427" gradientUnits="userSpaceOnUse">
<stop stop-color="#DE0086"/>
<stop offset="1" stop-color="#FF003B"/>
</linearGradient>
<linearGradient id="paint56_linear_559_37636" x1="141.061" y1="171.124" x2="146.231" y2="176.701" gradientUnits="userSpaceOnUse">
<stop stop-color="#705AB5"/>
<stop offset="1" stop-color="#662D87"/>
</linearGradient>
<linearGradient id="paint57_linear_559_37636" x1="145.705" y1="175.81" x2="141.113" y2="171.218" gradientUnits="userSpaceOnUse">
<stop stop-color="#DE0086"/>
<stop offset="1" stop-color="#FF003B"/>
</linearGradient>
<linearGradient id="paint58_linear_559_37636" x1="172.709" y1="146.671" x2="172.709" y2="126.775" gradientUnits="userSpaceOnUse">
<stop stop-color="#655ED6"/>
<stop offset="1" stop-color="#C88FF0"/>
</linearGradient>
<linearGradient id="paint59_linear_559_37636" x1="169.145" y1="139.226" x2="171.906" y2="139.226" gradientUnits="userSpaceOnUse">
<stop stop-color="#8980EB"/>
<stop offset="1" stop-color="#705AB8"/>
</linearGradient>
<linearGradient id="paint60_linear_559_37636" x1="169.948" y1="143.144" x2="177.429" y2="143.144" gradientUnits="userSpaceOnUse">
<stop stop-color="#8980EB"/>
<stop offset="1" stop-color="#705AB8"/>
</linearGradient>
<radialGradient id="paint61_radial_559_37636" cx="0" cy="0" r="1" gradientUnits="userSpaceOnUse" gradientTransform="translate(164.308 156.213) scale(13.8648)">
<stop stop-color="#655ED6"/>
<stop offset="1" stop-color="#C88FF0"/>
</radialGradient>
<linearGradient id="paint62_linear_559_37636" x1="165.427" y1="156.022" x2="174.822" y2="156.022" gradientUnits="userSpaceOnUse">
<stop stop-color="#8980EB"/>
<stop offset="1" stop-color="#705AB8"/>
</linearGradient>
<linearGradient id="paint63_linear_559_37636" x1="166.671" y1="153.356" x2="173.246" y2="153.356" gradientUnits="userSpaceOnUse">
<stop stop-color="#8980EB"/>
<stop offset="1" stop-color="#705AB8"/>
</linearGradient>
<linearGradient id="paint64_linear_559_37636" x1="159.485" y1="158.886" x2="159.485" y2="149.969" gradientUnits="userSpaceOnUse">
<stop stop-color="#705AB8"/>
<stop offset="1" stop-color="white"/>
</linearGradient>
<linearGradient id="paint65_linear_559_37636" x1="162.732" y1="157.288" x2="162.732" y2="150.345" gradientUnits="userSpaceOnUse">
<stop stop-color="#705AB8"/>
<stop offset="1" stop-color="white"/>
</linearGradient>
<linearGradient id="paint66_linear_559_37636" x1="156.385" y1="166.198" x2="163.777" y2="166.198" gradientUnits="userSpaceOnUse">
<stop stop-color="#8980EB"/>
<stop offset="1" stop-color="#705AB8"/>
</linearGradient>
<linearGradient id="paint67_linear_559_37636" x1="157.732" y1="163.628" x2="163.777" y2="163.628" gradientUnits="userSpaceOnUse">
<stop stop-color="#8980EB"/>
<stop offset="1" stop-color="#705AB8"/>
</linearGradient>
<linearGradient id="paint68_linear_559_37636" x1="153.55" y1="164.327" x2="153.55" y2="159.239" gradientUnits="userSpaceOnUse">
<stop stop-color="#705AB8"/>
<stop offset="1" stop-color="white"/>
</linearGradient>
<linearGradient id="paint69_linear_559_37636" x1="151.702" y1="165.373" x2="151.702" y2="159.725" gradientUnits="userSpaceOnUse">
<stop stop-color="#705AB8"/>
<stop offset="1" stop-color="white"/>
</linearGradient>
<linearGradient id="paint70_linear_559_37636" x1="113.833" y1="146.671" x2="113.833" y2="126.775" gradientUnits="userSpaceOnUse">
<stop stop-color="#655ED6"/>
<stop offset="1" stop-color="#C88FF0"/>
</linearGradient>
<linearGradient id="paint71_linear_559_37636" x1="117.397" y1="139.226" x2="114.643" y2="139.226" gradientUnits="userSpaceOnUse">
<stop stop-color="#8980EB"/>
<stop offset="1" stop-color="#705AB8"/>
</linearGradient>
<linearGradient id="paint72_linear_559_37636" x1="116.594" y1="143.144" x2="109.113" y2="143.144" gradientUnits="userSpaceOnUse">
<stop stop-color="#8980EB"/>
<stop offset="1" stop-color="#705AB8"/>
</linearGradient>
<radialGradient id="paint73_radial_559_37636" cx="0" cy="0" r="1" gradientUnits="userSpaceOnUse" gradientTransform="translate(122.234 98.3682) rotate(180) scale(13.8648 13.8648)">
<stop stop-color="#655ED6"/>
<stop offset="1" stop-color="#C88FF0"/>
</radialGradient>
<linearGradient id="paint74_linear_559_37636" x1="121.115" y1="156.022" x2="111.72" y2="156.022" gradientUnits="userSpaceOnUse">
<stop stop-color="#8980EB"/>
<stop offset="1" stop-color="#705AB8"/>
</linearGradient>
<linearGradient id="paint75_linear_559_37636" x1="119.871" y1="153.356" x2="113.296" y2="153.356" gradientUnits="userSpaceOnUse">
<stop stop-color="#8980EB"/>
<stop offset="1" stop-color="#705AB8"/>
</linearGradient>
<linearGradient id="paint76_linear_559_37636" x1="127.065" y1="158.886" x2="127.065" y2="149.969" gradientUnits="userSpaceOnUse">
<stop stop-color="#705AB8"/>
<stop offset="1" stop-color="white"/>
</linearGradient>
<linearGradient id="paint77_linear_559_37636" x1="123.817" y1="157.288" x2="123.817" y2="150.345" gradientUnits="userSpaceOnUse">
<stop stop-color="#705AB8"/>
<stop offset="1" stop-color="white"/>
</linearGradient>
<linearGradient id="paint78_linear_559_37636" x1="130.157" y1="166.198" x2="122.772" y2="166.198" gradientUnits="userSpaceOnUse">
<stop stop-color="#8980EB"/>
<stop offset="1" stop-color="#705AB8"/>
</linearGradient>
<linearGradient id="paint79_linear_559_37636" x1="128.817" y1="163.628" x2="122.765" y2="163.628" gradientUnits="userSpaceOnUse">
<stop stop-color="#8980EB"/>
<stop offset="1" stop-color="#705AB8"/>
</linearGradient>
<linearGradient id="paint80_linear_559_37636" x1="132.992" y1="164.327" x2="132.992" y2="159.239" gradientUnits="userSpaceOnUse">
<stop stop-color="#705AB8"/>
<stop offset="1" stop-color="white"/>
</linearGradient>
<linearGradient id="paint81_linear_559_37636" x1="134.84" y1="165.373" x2="134.84" y2="159.725" gradientUnits="userSpaceOnUse">
<stop stop-color="#705AB8"/>
<stop offset="1" stop-color="white"/>
</linearGradient>
<radialGradient id="paint82_radial_559_37636" cx="0" cy="0" r="1" gradientUnits="userSpaceOnUse" gradientTransform="translate(136.033 118.411) scale(15.5289)">
<stop stop-color="#27A0D7"/>
<stop offset="0.1" stop-color="#2495C9"/>
<stop offset="0.3" stop-color="#1E7BA5"/>
<stop offset="0.57" stop-color="#13506B"/>
<stop offset="0.89" stop-color="#05151C"/>
<stop offset="1"/>
</radialGradient>
<radialGradient id="paint83_radial_559_37636" cx="0" cy="0" r="1" gradientUnits="userSpaceOnUse" gradientTransform="translate(143.05 164.813) scale(15.2418)">
<stop stop-color="#D01C5C"/>
<stop offset="0.1" stop-color="#C61A57"/>
<stop offset="0.26" stop-color="#AC174C"/>
<stop offset="0.47" stop-color="#83113A"/>
<stop offset="0.72" stop-color="#490920"/>
<stop offset="1"/>
</radialGradient>
<radialGradient id="paint84_radial_559_37636" cx="0" cy="0" r="1" gradientUnits="userSpaceOnUse" gradientTransform="translate(146.791 113.242) scale(15.2418 15.2418)">
<stop stop-color="#D01C5C"/>
<stop offset="0.1" stop-color="#C61A57"/>
<stop offset="0.26" stop-color="#AC174C"/>
<stop offset="0.47" stop-color="#83113A"/>
<stop offset="0.72" stop-color="#490920"/>
<stop offset="1"/>
</radialGradient>
<linearGradient id="paint85_linear_559_37636" x1="139.5" y1="143" x2="143" y2="270" gradientUnits="userSpaceOnUse">
<stop stop-color="#38ACCF" stop-opacity="0"/>
<stop offset="1" stop-color="#38ACCF" stop-opacity="0.58"/>
</linearGradient>
<clipPath id="clip0_559_37636">
<rect width="72.5419" height="90" fill="white" transform="translate(107 98)"/>
</clipPath>
</defs>
</svg>
