<svg width="220" height="220" viewBox="0 0 124 124" fill="none" xmlns="http://www.w3.org/2000/svg">
<g opacity="0.4" filter="url(#filter0_f_476_17038)">
<circle cx="62" cy="62" r="37" fill="url(#paint0_radial_476_17038)"/>
</g>
<g clip-path="url(#clip0_476_17038)">
<path style="mix-blend-mode:screen" d="M62 87C75.8071 87 87 75.8071 87 62C87 48.1929 75.8071 37 62 37C48.1929 37 37 48.1929 37 62C37 75.8071 48.1929 87 62 87Z" fill="url(#paint1_radial_476_17038)"/>
<path style="mix-blend-mode:screen" d="M81.6161 66.0351C83.3442 55.1975 75.9595 45.0109 65.1219 43.2828C54.2843 41.5546 44.0977 48.9393 42.3696 59.7769C40.6414 70.6145 48.0261 80.8011 58.8637 82.5292C69.7014 84.2574 79.8879 76.8727 81.6161 66.0351Z" fill="url(#paint2_radial_476_17038)"/>
<path d="M62 78.5485C71.1394 78.5485 78.5484 71.1395 78.5484 62C78.5484 52.8606 71.1394 45.4516 62 45.4516C52.8606 45.4516 45.4516 52.8606 45.4516 62C45.4516 71.1395 52.8606 78.5485 62 78.5485Z" fill="url(#paint3_radial_476_17038)"/>
<path style="mix-blend-mode:multiply" opacity="0.6" d="M48.7779 65.9924C49.8782 69.2173 52.3866 70.8968 55.6731 70.7774C55.6731 70.7774 58.0547 70.0788 58.9813 67.4655C59.9079 64.8522 57.6747 59.0718 57.6747 59.0718C57.6747 59.0718 58.1742 64.6893 56.7915 67.7442C55.4089 70.7991 52.8137 70.343 51.3984 69.0002C49.9832 67.6573 48.7743 65.9924 48.7743 65.9924H48.7779Z" fill="url(#paint4_linear_476_17038)"/>
<path style="mix-blend-mode:multiply" opacity="0.6" d="M62.9628 69.7639C63.9944 72.6631 63.0026 75.7071 61.9928 76.3984C60.9829 77.0898 58.3081 74.8421 57.595 73.1879C56.882 71.5338 62.9628 69.7603 62.9628 69.7603V69.7639Z" fill="url(#paint5_linear_476_17038)"/>
<path style="mix-blend-mode:multiply" opacity="0.6" d="M65.3408 67.3171C66.347 70.4733 67.7333 71.5374 69.5575 72.3265C71.3818 73.1155 74.6357 72.7536 75.1316 72.0767C75.6239 71.3999 76.6084 69.3874 76.6084 69.3874L65.3444 67.3171H65.3408Z" fill="url(#paint6_linear_476_17038)"/>
<path style="mix-blend-mode:multiply" opacity="0.6" d="M64.1753 51.8111C65.5254 53.6281 67.27 57.1064 66.2891 59.0682C65.3082 61.03 64.3889 62.3837 61.9928 61.7756C59.5966 61.1675 58.8908 58.6592 58.8908 58.6592L64.1789 51.8074L64.1753 51.8111Z" fill="url(#paint7_linear_476_17038)"/>
<path style="mix-blend-mode:multiply" opacity="0.6" d="M62.8868 48.0287C64.5916 51.0148 66.861 52.7775 67.8021 52.687C68.7468 52.5965 71.0705 50.3452 71.3601 49.3498C71.6496 48.3544 62.8868 48.0323 62.8868 48.0323V48.0287Z" fill="url(#paint8_linear_476_17038)"/>
<path style="mix-blend-mode:multiply" opacity="0.6" d="M49.0349 54.2687C47.8115 60.6934 46.4107 63.2669 45.5059 63.3465L45.4516 61.6308L49.0349 54.2687Z" fill="url(#paint9_linear_476_17038)"/>
<path style="mix-blend-mode:multiply" opacity="0.6" d="M47.9128 66.3362C48.8901 68.9133 49.9506 71.1936 48.6621 71.8017L47.7789 70.372L47.9128 66.3326V66.3362Z" fill="url(#paint10_linear_476_17038)"/>
<path style="mix-blend-mode:multiply" opacity="0.6" d="M60.154 66.709C61.8407 68.6853 63.5311 68.9025 64.0378 68.5695C64.5445 68.2365 65.1635 64.5916 64.6712 63.3465L60.154 66.709Z" fill="url(#paint11_linear_476_17038)"/>
<path d="M50.0447 49.5815L50.233 50.3597C50.233 50.3597 52.7594 51.536 53.7692 51.536C53.7692 51.536 58.4493 47.855 59.9079 45.5783L59.4627 45.2562L50.0447 49.5815Z" fill="url(#paint12_radial_476_17038)"/>
<path d="M61.5729 44.5431L61.3195 45.4661C61.3195 45.4661 62.4162 48.6078 66.4954 51.1777C66.4954 51.1777 69.1341 51.0401 70.3683 50.3633C71.6026 49.6864 71.8017 48.6657 71.8017 48.6657L71.4469 47.9346L61.5729 44.5467V44.5431Z" fill="url(#paint13_radial_476_17038)"/>
<path d="M74.7479 50.6094C74.5814 50.3017 73.2893 49.8964 73.2893 49.8964C73.2893 49.8964 71.1357 50.0411 70.2634 51.1741C70.2634 51.1741 65.5833 58.9741 65.2757 66.6728C65.2757 66.6728 65.0911 69.1232 68.3703 70.3575C71.6532 71.5917 75.5985 71.4289 75.5985 71.4289L74.7479 50.6058V50.6094Z" fill="url(#paint14_radial_476_17038)"/>
<path d="M55.76 50.613C55.2967 51.6916 55.246 52.7123 55.246 52.7123C55.246 52.7123 57.928 60.0636 60.5232 61.3014C60.5232 61.3014 64.2984 62.6443 65.996 57.7072L55.76 50.6094V50.613Z" fill="url(#paint15_radial_476_17038)"/>
<path d="M52.1585 52.1042C52.1585 52.1042 53.4435 52.3793 54.761 53.2878C54.9854 53.4435 58.3551 59.1732 58.7533 63.1583C59.0791 66.4086 57.034 69.0798 57.034 69.0798C57.034 69.0798 54.7863 70.5167 52.9802 69.9774L52.1513 52.1042H52.1585Z" fill="url(#paint16_radial_476_17038)"/>
<path d="M45.1656 64.7038L45.5891 64.15C45.5891 64.15 46.6062 64.3962 47.9925 66.452C49.3824 68.5079 48.8141 70.7774 48.8141 70.7774H47.9635L45.162 64.7074L45.1656 64.7038Z" fill="url(#paint17_radial_476_17038)"/>
<path d="M48.6621 72.4243L49.0458 71.6461C49.0458 71.6461 51.7821 70.4625 55.5211 72.8296C59.2564 75.1968 59.9079 78.4182 59.9079 78.4182L58.8981 78.8489L48.6657 72.4243H48.6621Z" fill="url(#paint18_radial_476_17038)"/>
<path d="M62 78.8489L61.4426 78.5521C61.4426 78.5521 62.8216 73.1916 66.0394 71.3529C66.0394 71.3529 67.5306 70.2525 74.9543 72.3012C74.9543 72.3012 75.1099 72.6486 74.7878 73.3906C74.7733 73.4196 74.7588 73.4522 74.7443 73.4848C74.3643 74.2919 62 78.8525 62 78.8525V78.8489Z" fill="url(#paint19_radial_476_17038)"/>
<path d="M57.0956 71.19C57.0956 71.19 57.1209 70.4914 57.4828 70.0028C57.4828 70.0028 59.7631 67.8419 61.9928 68.2003C61.9928 68.2003 62.8072 68.5875 63.1402 70.5421C63.4731 72.4966 62.4959 75.0086 61.9928 75.2981C61.4897 75.5841 57.0956 71.1936 57.0956 71.1936V71.19Z" fill="url(#paint20_radial_476_17038)"/>
<path d="M62.7782 67.9541C62.7782 67.9541 61.3304 67.6863 60.154 66.709C60.154 66.709 59.7233 66.1408 60.44 65.2467C61.1567 64.3527 63.1401 62.695 64.3997 62.543L62.7746 67.9541H62.7782Z" fill="url(#paint21_radial_476_17038)"/>
<path d="M59.4808 61.4462C59.4808 61.4462 59.2817 61.4209 59.0501 62C58.8184 62.5827 59.1732 64.6857 59.9079 64.8522C60.6427 65.0151 61.4426 63.7301 61.4426 63.7301L59.4808 61.4498V61.4462Z" fill="url(#paint22_radial_476_17038)"/>
<path d="M47.6848 51.1777L49.3208 51.3623C49.3208 51.3623 49.5706 53.2336 48.3038 56.7662C47.0369 60.2989 45.4588 62.543 45.4588 62.543L44.753 62L47.6848 51.1777Z" fill="url(#paint23_radial_476_17038)"/>
<path d="M71.4469 47.931C71.4469 47.931 71.1899 50.4067 68.0518 50.613C68.0518 50.613 64.0414 48.6078 62.8071 47.1673C61.5729 45.7267 61.4679 45.1114 61.5729 44.5431C61.6453 44.1413 62.4416 44.1377 63.5564 44.373C64.0559 44.478 64.6205 44.6336 65.2105 44.8182C66.2927 45.162 67.4691 45.6217 68.5224 46.114C68.7323 46.2117 68.9386 46.313 69.1341 46.4108C70.1692 46.932 71.0271 47.4713 71.4469 47.931Z" fill="url(#paint24_radial_476_17038)"/>
<path d="M65.9959 57.7109C65.7969 58.29 65.2431 58.9994 64.5445 59.622C63.4442 60.6065 61.9855 61.3702 61.0083 61.0553C59.4157 60.5413 55.0107 52.2237 55.7636 50.6166C56.1219 49.8457 59.1587 47.3772 60.8816 47.417C61.7611 47.4387 63.2089 49.7335 64.3491 52.173C65.4422 54.5112 66.2493 56.9834 65.9996 57.7145L65.9959 57.7109Z" fill="url(#paint25_radial_476_17038)"/>
<path d="M50.1533 49.2195C49.4656 49.8457 52.2092 50.6637 53.4435 50.2511C54.6777 49.8385 59.0501 45.8172 59.4627 45.2562C59.8753 44.6951 53.5484 46.1321 50.1533 49.2195Z" fill="url(#paint26_radial_476_17038)"/>
<path d="M47.6848 51.1777C47.7862 54.1095 46.3492 58.7316 44.753 62C44.753 62 43.9857 57.1426 45.4479 54.4171C46.9102 51.6916 47.6848 51.1777 47.6848 51.1777Z" fill="url(#paint27_radial_476_17038)"/>
<path d="M55.9663 69.1268C54.989 69.9485 53.3421 70.1548 52.6218 69.8978C51.9015 69.6408 47.9527 66.9262 47.6884 62.286C47.6124 60.9685 48.1952 58.4493 49.0675 56.245C49.3389 55.5609 49.6357 54.9094 49.947 54.3339C50.642 53.0634 51.4165 52.1549 52.1585 52.1043C54.3194 51.9486 56.9399 59.0754 57.4575 61.772C57.9715 64.4685 56.9435 68.3052 55.9663 69.1268Z" fill="url(#paint28_radial_476_17038)"/>
<path d="M45.1656 64.7038C44.753 66.1444 46.2442 70.3684 47.9671 70.7737C47.9671 70.7737 48.9191 68.7142 48.1988 67.4257C47.4785 66.1408 45.1656 64.7002 45.1656 64.7002V64.7038Z" fill="url(#paint29_radial_476_17038)"/>
<path d="M58.8981 78.8489C58.8981 78.8489 58.1561 78.8489 56.4802 78.3168C55.9047 78.1358 55.2243 77.8897 54.4243 77.564C53.6534 77.2454 52.839 76.7749 52.0753 76.2392C49.7371 74.5996 47.8513 72.3663 48.9806 72.2179C50.5334 72.0152 54.0117 72.4206 56.4296 74.1182C58.8474 75.8157 58.8981 78.8489 58.8981 78.8489Z" fill="url(#paint30_radial_476_17038)"/>
<path d="M57.2512 70.7774C55.9771 73.311 60.7983 76.08 61.7756 75.5081C62.7529 74.9398 63.4225 69.1776 61.7756 68.6636C60.1287 68.1496 57.7109 69.8544 57.2512 70.7774Z" fill="url(#paint31_radial_476_17038)"/>
<path d="M60.44 66.1951C60.44 67.3931 63.0098 68.4102 63.9871 67.7406C64.9644 67.071 65.12 62.5937 64.3997 62.543C63.6795 62.4923 60.44 65.5255 60.44 66.1951Z" fill="url(#paint32_radial_476_17038)"/>
<path d="M59.9079 64.7038C60.4726 65.453 62.5827 63.0859 62.2932 62.543C62 62 59.9152 60.9142 59.4844 61.4462C59.0537 61.9783 59.4482 64.0885 59.9115 64.7038H59.9079Z" fill="url(#paint33_radial_476_17038)"/>
<path d="M76.6916 71.1827C74.6611 72.0587 68.754 70.2344 66.6149 67.737C66.3724 67.4546 66.1769 67.1615 66.0394 66.861C65.7245 66.1697 66.9189 60.9974 68.4608 55.8034C70.0027 50.6094 72.6776 50.4031 74.4765 50.6094C76.0437 50.7868 78.0779 54.0443 78.9176 57.8014C79.0443 58.3624 79.142 58.9343 79.2072 59.5062C79.7211 63.9292 78.9502 70.2055 76.688 71.1827H76.6916Z" fill="url(#paint34_radial_476_17038)"/>
<path d="M72.6269 75.9569C72.1853 76.308 71.6713 76.688 71.085 77.1006C69.4055 78.2734 67.0673 78.8525 65.1815 79.0588C63.4261 79.2506 62.0651 79.1239 62 78.8489C61.8625 78.2842 63.6541 73.3472 66.4954 71.6496C67.8708 70.828 73.6078 72.3192 74.4584 72.8948C75.1533 73.3689 74.6249 74.3679 72.6305 75.9569H72.6269Z" fill="url(#paint35_radial_476_17038)"/>
<path style="mix-blend-mode:screen" opacity="0.2" fill-rule="evenodd" clip-rule="evenodd" d="M76.6916 71.1828C74.6611 72.0587 68.754 70.2345 66.6149 67.737C66.9587 67.9071 67.4763 68.1713 68.2183 68.5659C69.8544 69.4345 74.3027 69.1269 75.5985 68.6889C76.8943 68.251 77.5675 65.8585 77.9729 63.8786C78.3783 61.8987 76.6663 58.1815 76.0148 57.3779C75.3633 56.5708 72.4242 57.4503 70.8714 58.4457C69.3187 59.4411 70.2199 60.6319 70.4045 61.4209C70.5891 62.21 70.3828 63.6542 71.4469 65.2431C72.5111 66.8321 74.3824 65.4495 74.7479 64.8812C75.1135 64.3129 74.6249 63.2488 74.7479 62.3946C74.871 61.544 73.4015 61.2038 72.6776 60.9757C71.9718 60.7513 71.4723 61.4716 71.4469 61.5114L72.1202 60.2193C72.1202 60.2193 74.4656 60.3097 74.9941 60.6645C75.5225 61.0228 75.5261 63.0027 75.5985 63.6614C75.6709 64.3202 74.9181 66.9552 73.6331 67.6682C72.3482 68.3813 69.6372 66.253 69.6372 66.253C69.6372 66.253 68.1351 63.3393 68.3703 61.9928C68.6056 60.6464 68.7902 58.7678 69.6372 56.8531C70.4841 54.9384 70.1367 56.1401 71.798 54.9673C73.463 53.791 74.462 54.1819 75.5949 54.2615C76.7314 54.3412 78.067 55.0578 78.9176 57.7978C79.0443 58.3588 79.142 58.9307 79.2072 59.5026C79.7212 63.9256 78.9502 70.2019 76.688 71.1792L76.6916 71.1828Z" fill="url(#paint36_radial_476_17038)"/>
<path style="mix-blend-mode:screen" opacity="0.2" fill-rule="evenodd" clip-rule="evenodd" d="M55.474 66.2602C54.6234 67.8238 52.4698 68.9785 52.1585 69.2137C51.8473 69.449 48.825 65.558 48.6621 63.5094C48.4992 61.4571 48.72 58.3986 49.7516 57.805C50.7831 57.2114 52.7992 57.0087 53.0598 57.805C53.3168 58.6013 55.217 58.3624 55.1664 60.317C55.1121 62.2751 52.5132 63.1438 51.8545 62.5466C51.1957 61.9494 50.6239 59.9152 50.9496 59.6655C51.2754 59.4157 52.8064 59.5026 52.8064 59.5026C52.8064 59.5026 51.0329 59.7234 51.5215 60.6717C52.0101 61.62 53.0634 61.8625 53.0634 61.8625C54.0552 61.4571 54.6813 60.5703 54.2868 59.6655C53.8923 58.7642 52.0138 57.5806 51.1957 57.805C50.3814 58.0294 48.6295 61.0409 49.3425 61.8625C50.0556 62.6841 51.3297 66.0286 52.1622 65.8259C52.9946 65.6232 55.5826 63.7917 55.6767 62.9122C55.7708 62.0326 55.8396 61.0119 55.4776 59.9695C55.1157 58.9271 54.142 57.168 53.7728 56.8639C53.4 56.5599 52.7485 56.3283 51.3586 56.321C50.4936 56.3174 49.69 56.0821 49.0675 56.2486C49.3389 55.5645 49.6357 54.913 49.947 54.3375C50.4248 54.5402 51.9776 55.2098 53.7692 56.0278C55.9301 57.016 56.4042 60.5522 56.4115 61.8625C56.4187 63.1728 56.3246 64.6966 55.474 66.2602Z" fill="url(#paint37_radial_476_17038)"/>
<path style="mix-blend-mode:screen" opacity="0.2" fill-rule="evenodd" clip-rule="evenodd" d="M65.9959 57.7109C65.7969 58.29 65.2431 58.9994 64.5445 59.622L64.4034 59.5025C64.4034 59.5025 64.5047 55.3329 64.0378 54.6198C63.5709 53.9068 62.6298 53.0489 61.9964 52.4771C61.363 51.9052 59.1189 51.3333 58.7967 51.4744C58.4746 51.6156 58.7931 53.2951 59.4446 54.6234C60.0961 55.9518 60.6716 56.7264 61.4462 57.3887C62.2244 58.0511 62.6298 56.8892 62.6479 56.0459C62.666 55.2026 62.7094 54.9311 61.9964 54.2723C61.2797 53.6172 61.4462 54.6234 61.4462 54.6234C61.4462 54.6234 60.5884 54.3592 60.6246 53.9864C60.6608 53.6172 61.9783 53.7041 62.3981 53.6389C62.8216 53.5738 63.8532 56.2341 63.864 57.3851C63.8749 58.5361 62.7927 58.927 61.3195 58.4927C59.85 58.0583 57.4032 53.4543 57.0413 52.1042C56.6793 50.7542 57.9751 50.2728 59.2998 50.3633C60.4617 50.4429 63.0135 50.8519 64.3491 52.1694C65.4422 54.5076 66.2493 56.9797 65.9996 57.7109H65.9959Z" fill="url(#paint38_radial_476_17038)"/>
<path style="mix-blend-mode:screen" opacity="0.2" fill-rule="evenodd" clip-rule="evenodd" d="M69.8942 48.4522C69.8942 48.4522 66.9515 48.3943 66.557 47.8079C66.1624 47.2215 62.9483 45.372 63.5528 44.373C64.0523 44.478 64.6169 44.6336 65.2069 44.8182C64.9897 44.8725 64.8377 44.9376 64.8232 45.0064C64.7617 45.296 66.0502 45.9402 66.4918 46.4108C66.9334 46.8777 67.9288 47.493 68.3703 47.3084C68.573 47.2215 68.5839 46.6895 68.5188 46.114C68.7287 46.2117 68.935 46.313 69.1304 46.4108L69.8942 48.4522Z" fill="url(#paint39_radial_476_17038)"/>
<path style="mix-blend-mode:screen" opacity="0.2" fill-rule="evenodd" clip-rule="evenodd" d="M56.4802 78.3168C55.9047 78.1359 55.2243 77.8897 54.4244 77.564C53.6534 77.2455 52.839 76.7749 52.0753 76.2392L52.6399 76.3768C52.6399 76.3768 55.1953 76.9704 55.4776 76.898C55.7563 76.822 55.6043 75.8302 55.4776 75.5117C55.3509 75.1968 54.3809 74.7661 53.0634 74.444C51.7712 74.1254 53.6968 75.8121 53.7692 75.8773C53.6824 75.8302 50.9496 74.3498 50.8555 73.7997C50.7578 73.2423 51.7676 73.702 52.6544 73.6368C53.5376 73.5717 55.9337 74.6828 56.578 75.5841C56.9291 76.0727 56.7336 77.2961 56.4802 78.3168Z" fill="url(#paint40_radial_476_17038)"/>
<path style="mix-blend-mode:screen" opacity="0.2" fill-rule="evenodd" clip-rule="evenodd" d="M72.6269 75.9569C72.1853 76.308 71.6713 76.688 71.085 77.1007C69.4055 78.2734 67.0673 78.8525 65.1816 79.0588C64.407 77.4156 65.8439 75.5153 66.4954 74.9543C67.2809 74.2774 69.268 73.3255 70.4371 73.6368C71.6062 73.9481 70.4371 76.3768 70.4371 76.3768C70.4371 76.3768 70.1439 74.4475 69.8978 74.4439C69.6517 74.4403 67.9939 75.0303 67.3931 75.5117C66.7922 75.9931 66.4448 76.9993 66.4954 77.1477C66.5461 77.2961 67.8745 77.7377 68.7251 77.5024C69.5756 77.2672 71.2949 76.7351 72.0623 75.5877C72.3916 75.0954 72.5545 75.4248 72.6269 75.9605V75.9569Z" fill="url(#paint41_radial_476_17038)"/>
<path style="mix-blend-mode:screen" opacity="0.2" fill-rule="evenodd" clip-rule="evenodd" d="M58.7931 70.7773C58.2176 71.1719 58.4167 72.5219 59.5423 73.5209C60.668 74.5199 62.1267 74.158 62.2135 72.8694C62.3004 71.5809 62.304 69.7458 61.4426 69.7639C60.5848 69.782 59.0392 70.9113 59.4844 71.7365C59.9296 72.5618 60.8562 72.9708 60.8562 72.9708C60.8562 72.9708 60.0599 72.2975 60.364 71.6134C60.6644 70.9294 61.5186 70.9909 61.5403 71.6134C61.562 72.236 62.3656 73.2458 61.4426 73.5788C60.5196 73.9082 59.5134 73.4485 59.1297 72.6305C58.7497 71.8125 59.2962 70.4262 59.2962 70.4262L58.7931 70.781V70.7773Z" fill="url(#paint42_radial_476_17038)"/>
<path style="mix-blend-mode:screen" d="M55.474 55.9771C57.2259 58.8003 58.1488 61.6887 58.0945 63.3464C58.0403 65.0042 57.0376 67.0311 57.0376 67.0311C57.0376 67.0311 58.1633 63.8025 57.396 61.3014C56.6286 58.8003 55.474 55.9771 55.474 55.9771Z" fill="url(#paint43_linear_476_17038)"/>
<path style="mix-blend-mode:screen" d="M68.5839 55.4233C68.5839 55.4233 66.8103 61.1747 66.148 65.0874C66.148 65.0874 66.2566 61.8661 67.2374 59.0935C68.2183 56.321 68.5839 55.4233 68.5839 55.4233Z" fill="url(#paint44_linear_476_17038)"/>
<path style="mix-blend-mode:screen" d="M47.6703 52.1006C48.1734 54.4823 46.8632 58.2032 45.448 60.4617C45.448 60.4617 46.4288 57.5589 47.0442 54.9854C47.6595 52.4119 47.6667 52.1006 47.6667 52.1006H47.6703Z" fill="url(#paint45_linear_476_17038)"/>
<path style="mix-blend-mode:screen" d="M66.5606 71.6098C65.3263 72.1636 63.6469 73.7887 62.7782 76.3984C62.7782 76.3984 63.6252 74.6249 64.7689 73.3725C65.9127 72.1202 66.5642 71.6098 66.5642 71.6098H66.5606Z" fill="url(#paint46_linear_476_17038)"/>
<path style="mix-blend-mode:screen" d="M48.9806 72.2179C51.0582 71.5193 52.8752 72.0224 55.0976 73.3508C55.0976 73.3508 54.0117 72.6631 51.4744 72.3373C49.4584 72.0767 48.9806 72.2179 48.9806 72.2179Z" fill="url(#paint47_linear_476_17038)"/>
<path style="mix-blend-mode:screen" d="M62.9123 64.7499C67.483 59.7251 67.7561 52.5298 63.5224 48.6788C59.2888 44.8278 52.1514 45.7793 47.5808 50.8042C43.0102 55.829 42.737 63.0243 46.9707 66.8753C51.2044 70.7263 58.3417 69.7747 62.9123 64.7499Z" fill="url(#paint48_radial_476_17038)"/>
<path d="M52.202 53.0308C50.4972 53.0525 49.4801 56.3246 51.3586 56.3173C53.2372 56.3101 53.3747 53.0163 52.202 53.0308Z" fill="white"/>
<path d="M49.2593 56.8603C48.4811 58.0004 49.4511 59.1261 50.0447 58.1126C50.6383 57.0956 49.69 56.2269 49.2593 56.8603Z" fill="white"/>
<path style="mix-blend-mode:screen" opacity="0.8" d="M76.6156 66.9877C78.8778 68.8735 78.5665 72.978 75.917 76.1596C73.2676 79.3375 69.2861 80.3871 67.0239 78.505C64.7617 76.6192 65.073 72.5147 67.7225 69.3331C70.3719 66.1552 74.3534 65.1055 76.6156 66.9877Z" fill="url(#paint49_radial_476_17038)"/>
<path style="mix-blend-mode:screen" d="M44.7313 61.8588C44.7313 61.8588 44.3874 58.6121 45.6579 55.4197C46.9283 52.2309 47.6848 51.174 47.6848 51.174C47.6848 51.174 45.4226 53.2154 44.753 55.9735C44.0834 58.7316 44.7313 61.8552 44.7313 61.8552V61.8588Z" fill="url(#paint50_radial_476_17038)"/>
<path style="mix-blend-mode:screen" d="M50.0447 49.3824C50.0447 49.3824 55.246 46.0452 59.4627 45.2561C59.4627 45.2561 59.5134 45.0824 58.7931 45.1367C57.2295 45.2561 52.0753 47.2541 50.0447 49.3824Z" fill="url(#paint51_radial_476_17038)"/>
</g>
<path opacity="0.5" d="M99 62C99 82.4345 82.4345 99 62 99C41.5655 99 25 82.4345 25 62" stroke="url(#paint52_linear_476_17038)"/>
<defs>
<filter id="filter0_f_476_17038" x="0" y="0" width="124" height="124" filterUnits="userSpaceOnUse" color-interpolation-filters="sRGB">
<feFlood flood-opacity="0" result="BackgroundImageFix"/>
<feBlend mode="normal" in="SourceGraphic" in2="BackgroundImageFix" result="shape"/>
<feGaussianBlur stdDeviation="12.5" result="effect1_foregroundBlur_476_17038"/>
</filter>
<radialGradient id="paint0_radial_476_17038" cx="0" cy="0" r="1" gradientUnits="userSpaceOnUse" gradientTransform="translate(62 62) rotate(90) scale(37)">
<stop stop-color="#38ACCF"/>
<stop offset="1" stop-color="#38ACCF" stop-opacity="0"/>
</radialGradient>
<radialGradient id="paint1_radial_476_17038" cx="0" cy="0" r="1" gradientUnits="userSpaceOnUse" gradientTransform="translate(62 62) scale(25)">
<stop stop-color="#2F7C7B"/>
<stop offset="0.42" stop-color="#1A4645"/>
<stop offset="0.94"/>
</radialGradient>
<radialGradient id="paint2_radial_476_17038" cx="0" cy="0" r="1" gradientUnits="userSpaceOnUse" gradientTransform="translate(61.9927 62.9073) scale(19.8711 19.8711)">
<stop stop-color="#0066FF"/>
<stop offset="0.1" stop-color="#0064FA"/>
<stop offset="0.22" stop-color="#005EED"/>
<stop offset="0.34" stop-color="#0055D6"/>
<stop offset="0.47" stop-color="#0049B7"/>
<stop offset="0.6" stop-color="#00398F"/>
<stop offset="0.73" stop-color="#00255E"/>
<stop offset="0.86" stop-color="#000F25"/>
<stop offset="0.94"/>
</radialGradient>
<radialGradient id="paint3_radial_476_17038" cx="0" cy="0" r="1" gradientUnits="userSpaceOnUse" gradientTransform="translate(57.3344 54.4751) scale(25.4235)">
<stop stop-color="#EC474C"/>
<stop offset="0.09" stop-color="#E5454D"/>
<stop offset="0.21" stop-color="#D24152"/>
<stop offset="0.36" stop-color="#B43959"/>
<stop offset="0.52" stop-color="#892F64"/>
<stop offset="0.69" stop-color="#532372"/>
<stop offset="0.81" stop-color="#28197D"/>
<stop offset="0.85" stop-color="#311B8A"/>
<stop offset="0.92" stop-color="#4A22AD"/>
<stop offset="1" stop-color="#6B2CDD"/>
</radialGradient>
<linearGradient id="paint4_linear_476_17038" x1="55.7093" y1="68.07" x2="58.5397" y2="74.3281" gradientUnits="userSpaceOnUse">
<stop stop-color="#280077"/>
<stop offset="1" stop-color="#E9ADE5"/>
</linearGradient>
<linearGradient id="paint5_linear_476_17038" x1="61.9747" y1="75.7216" x2="60.5232" y2="72.0912" gradientUnits="userSpaceOnUse">
<stop stop-color="#280077"/>
<stop offset="1" stop-color="#E9ADE5"/>
</linearGradient>
<linearGradient id="paint6_linear_476_17038" x1="70.7484" y1="72.978" x2="70.9655" y2="68.4862" gradientUnits="userSpaceOnUse">
<stop stop-color="#280077"/>
<stop offset="1" stop-color="#E9ADE5"/>
</linearGradient>
<linearGradient id="paint7_linear_476_17038" x1="62.5284" y1="62.4199" x2="62.9628" y2="53.5267" gradientUnits="userSpaceOnUse">
<stop stop-color="#280077"/>
<stop offset="1" stop-color="#E9ADE5"/>
</linearGradient>
<linearGradient id="paint8_linear_476_17038" x1="66.9225" y1="52.8752" x2="67.1108" y2="49.0023" gradientUnits="userSpaceOnUse">
<stop stop-color="#280077"/>
<stop offset="1" stop-color="#E9ADE5"/>
</linearGradient>
<linearGradient id="paint9_linear_476_17038" x1="46.9537" y1="63.8858" x2="47.3446" y2="55.7998" gradientUnits="userSpaceOnUse">
<stop stop-color="#280077"/>
<stop offset="1" stop-color="#E9ADE5"/>
</linearGradient>
<linearGradient id="paint10_linear_476_17038" x1="48.416" y1="72.0659" x2="48.644" y2="67.3171" gradientUnits="userSpaceOnUse">
<stop stop-color="#280077"/>
<stop offset="1" stop-color="#E9ADE5"/>
</linearGradient>
<linearGradient id="paint11_linear_476_17038" x1="62.3475" y1="68.9206" x2="62.5791" y2="64.1898" gradientUnits="userSpaceOnUse">
<stop stop-color="#280077"/>
<stop offset="1" stop-color="#E9ADE5"/>
</linearGradient>
<radialGradient id="paint12_radial_476_17038" cx="0" cy="0" r="1" gradientUnits="userSpaceOnUse" gradientTransform="translate(55.2315 56.274) scale(19.7445 19.7445)">
<stop stop-color="#AA1E4E"/>
<stop offset="0.24" stop-color="#8F1E46"/>
<stop offset="0.75" stop-color="#4C1E33"/>
<stop offset="1" stop-color="#291E2A"/>
</radialGradient>
<radialGradient id="paint13_radial_476_17038" cx="0" cy="0" r="1" gradientUnits="userSpaceOnUse" gradientTransform="translate(55.2315 56.2739) scale(19.7445 19.7445)">
<stop stop-color="#AA1E4E"/>
<stop offset="0.24" stop-color="#8F1E46"/>
<stop offset="0.75" stop-color="#4C1E33"/>
<stop offset="1" stop-color="#291E2A"/>
</radialGradient>
<radialGradient id="paint14_radial_476_17038" cx="0" cy="0" r="1" gradientUnits="userSpaceOnUse" gradientTransform="translate(55.2315 56.274) scale(19.7481 19.7481)">
<stop stop-color="#AA1E4E"/>
<stop offset="0.24" stop-color="#8F1E46"/>
<stop offset="0.75" stop-color="#4C1E33"/>
<stop offset="1" stop-color="#291E2A"/>
</radialGradient>
<radialGradient id="paint15_radial_476_17038" cx="0" cy="0" r="1" gradientUnits="userSpaceOnUse" gradientTransform="translate(55.2315 56.2739) scale(19.7445 19.7445)">
<stop stop-color="#AA1E4E"/>
<stop offset="0.24" stop-color="#8F1E46"/>
<stop offset="0.75" stop-color="#4C1E33"/>
<stop offset="1" stop-color="#291E2A"/>
</radialGradient>
<radialGradient id="paint16_radial_476_17038" cx="0" cy="0" r="1" gradientUnits="userSpaceOnUse" gradientTransform="translate(55.1917 56.2595) scale(19.6648 19.6648)">
<stop stop-color="#AA1E4E"/>
<stop offset="0.24" stop-color="#8F1E46"/>
<stop offset="0.75" stop-color="#4C1E33"/>
<stop offset="1" stop-color="#291E2A"/>
</radialGradient>
<radialGradient id="paint17_radial_476_17038" cx="0" cy="0" r="1" gradientUnits="userSpaceOnUse" gradientTransform="translate(55.2315 56.274) scale(19.7445 19.7445)">
<stop stop-color="#AA1E4E"/>
<stop offset="0.24" stop-color="#8F1E46"/>
<stop offset="0.75" stop-color="#4C1E33"/>
<stop offset="1" stop-color="#291E2A"/>
</radialGradient>
<radialGradient id="paint18_radial_476_17038" cx="0" cy="0" r="1" gradientUnits="userSpaceOnUse" gradientTransform="translate(55.2315 56.274) scale(19.7445 19.7445)">
<stop stop-color="#AA1E4E"/>
<stop offset="0.24" stop-color="#8F1E46"/>
<stop offset="0.75" stop-color="#4C1E33"/>
<stop offset="1" stop-color="#291E2A"/>
</radialGradient>
<radialGradient id="paint19_radial_476_17038" cx="0" cy="0" r="1" gradientUnits="userSpaceOnUse" gradientTransform="translate(55.2315 56.274) scale(19.7445 19.7445)">
<stop stop-color="#AA1E4E"/>
<stop offset="0.24" stop-color="#8F1E46"/>
<stop offset="0.75" stop-color="#4C1E33"/>
<stop offset="1" stop-color="#291E2A"/>
</radialGradient>
<radialGradient id="paint20_radial_476_17038" cx="0" cy="0" r="1" gradientUnits="userSpaceOnUse" gradientTransform="translate(55.2315 56.274) scale(19.7445)">
<stop stop-color="#AA1E4E"/>
<stop offset="0.24" stop-color="#8F1E46"/>
<stop offset="0.75" stop-color="#4C1E33"/>
<stop offset="1" stop-color="#291E2A"/>
</radialGradient>
<radialGradient id="paint21_radial_476_17038" cx="0" cy="0" r="1" gradientUnits="userSpaceOnUse" gradientTransform="translate(55.2315 56.274) scale(19.7445 19.7445)">
<stop stop-color="#AA1E4E"/>
<stop offset="0.24" stop-color="#8F1E46"/>
<stop offset="0.75" stop-color="#4C1E33"/>
<stop offset="1" stop-color="#291E2A"/>
</radialGradient>
<radialGradient id="paint22_radial_476_17038" cx="0" cy="0" r="1" gradientUnits="userSpaceOnUse" gradientTransform="translate(55.2315 56.2739) scale(19.7445 19.7445)">
<stop stop-color="#AA1E4E"/>
<stop offset="0.24" stop-color="#8F1E46"/>
<stop offset="0.75" stop-color="#4C1E33"/>
<stop offset="1" stop-color="#291E2A"/>
</radialGradient>
<radialGradient id="paint23_radial_476_17038" cx="0" cy="0" r="1" gradientUnits="userSpaceOnUse" gradientTransform="translate(55.2315 56.274) scale(19.7445)">
<stop stop-color="#AA1E4E"/>
<stop offset="0.24" stop-color="#8F1E46"/>
<stop offset="0.75" stop-color="#4C1E33"/>
<stop offset="1" stop-color="#291E2A"/>
</radialGradient>
<radialGradient id="paint24_radial_476_17038" cx="0" cy="0" r="1" gradientUnits="userSpaceOnUse" gradientTransform="translate(62.8071 57.2476) scale(36.2133 36.2133)">
<stop stop-color="#F4C716"/>
<stop offset="0.85" stop-color="#2E690A"/>
<stop offset="0.87" stop-color="#326B09"/>
<stop offset="0.9" stop-color="#3F7109"/>
<stop offset="0.93" stop-color="#547C08"/>
<stop offset="0.96" stop-color="#738B06"/>
<stop offset="0.99" stop-color="#9BA005"/>
</radialGradient>
<radialGradient id="paint25_radial_476_17038" cx="0" cy="0" r="1" gradientUnits="userSpaceOnUse" gradientTransform="translate(62.8072 57.244) scale(36.2096 36.2096)">
<stop stop-color="#F4C716"/>
<stop offset="0.85" stop-color="#2E690A"/>
<stop offset="0.87" stop-color="#326B09"/>
<stop offset="0.9" stop-color="#3F7109"/>
<stop offset="0.93" stop-color="#547C08"/>
<stop offset="0.96" stop-color="#738B06"/>
<stop offset="0.99" stop-color="#9BA005"/>
</radialGradient>
<radialGradient id="paint26_radial_476_17038" cx="0" cy="0" r="1" gradientUnits="userSpaceOnUse" gradientTransform="translate(55.6043 54.4678) scale(24.8226)">
<stop stop-color="#CBD335"/>
<stop offset="0.85" stop-color="#2E690A"/>
<stop offset="0.87" stop-color="#326B09"/>
<stop offset="0.9" stop-color="#3F7109"/>
<stop offset="0.93" stop-color="#547C08"/>
<stop offset="0.96" stop-color="#738B06"/>
<stop offset="0.99" stop-color="#9BA005"/>
</radialGradient>
<radialGradient id="paint27_radial_476_17038" cx="0" cy="0" r="1" gradientUnits="userSpaceOnUse" gradientTransform="translate(62.8071 57.2476) scale(36.2096)">
<stop stop-color="#F4C716"/>
<stop offset="0.85" stop-color="#2E690A"/>
<stop offset="0.87" stop-color="#326B09"/>
<stop offset="0.9" stop-color="#3F7109"/>
<stop offset="0.93" stop-color="#547C08"/>
<stop offset="0.96" stop-color="#738B06"/>
<stop offset="0.99" stop-color="#9BA005"/>
</radialGradient>
<radialGradient id="paint28_radial_476_17038" cx="0" cy="0" r="1" gradientUnits="userSpaceOnUse" gradientTransform="translate(55.0867 54.4678) scale(24.7756)">
<stop stop-color="#CBD335"/>
<stop offset="0.85" stop-color="#2E690A"/>
<stop offset="0.87" stop-color="#326B09"/>
<stop offset="0.9" stop-color="#3F7109"/>
<stop offset="0.93" stop-color="#547C08"/>
<stop offset="0.96" stop-color="#738B06"/>
<stop offset="0.99" stop-color="#9BA005"/>
</radialGradient>
<radialGradient id="paint29_radial_476_17038" cx="0" cy="0" r="1" gradientUnits="userSpaceOnUse" gradientTransform="translate(55.6043 54.4678) scale(24.8226 24.8226)">
<stop stop-color="#CBD335"/>
<stop offset="0.85" stop-color="#2E690A"/>
<stop offset="0.87" stop-color="#326B09"/>
<stop offset="0.9" stop-color="#3F7109"/>
<stop offset="0.93" stop-color="#547C08"/>
<stop offset="0.96" stop-color="#738B06"/>
<stop offset="0.99" stop-color="#9BA005"/>
</radialGradient>
<radialGradient id="paint30_radial_476_17038" cx="0" cy="0" r="1" gradientUnits="userSpaceOnUse" gradientTransform="translate(55.6043 54.4678) scale(24.8226 24.8226)">
<stop stop-color="#CBD335"/>
<stop offset="0.85" stop-color="#2E690A"/>
<stop offset="0.87" stop-color="#326B09"/>
<stop offset="0.9" stop-color="#3F7109"/>
<stop offset="0.93" stop-color="#547C08"/>
<stop offset="0.96" stop-color="#738B06"/>
<stop offset="0.99" stop-color="#9BA005"/>
</radialGradient>
<radialGradient id="paint31_radial_476_17038" cx="0" cy="0" r="1" gradientUnits="userSpaceOnUse" gradientTransform="translate(62.8072 57.2476) scale(36.2096)">
<stop stop-color="#F4C716"/>
<stop offset="0.85" stop-color="#2E690A"/>
<stop offset="0.87" stop-color="#326B09"/>
<stop offset="0.9" stop-color="#3F7109"/>
<stop offset="0.93" stop-color="#547C08"/>
<stop offset="0.96" stop-color="#738B06"/>
<stop offset="0.99" stop-color="#9BA005"/>
</radialGradient>
<radialGradient id="paint32_radial_476_17038" cx="0" cy="0" r="1" gradientUnits="userSpaceOnUse" gradientTransform="translate(55.6043 54.4678) scale(24.8226 24.8226)">
<stop stop-color="#CBD335"/>
<stop offset="0.85" stop-color="#2E690A"/>
<stop offset="0.87" stop-color="#326B09"/>
<stop offset="0.9" stop-color="#3F7109"/>
<stop offset="0.93" stop-color="#547C08"/>
<stop offset="0.96" stop-color="#738B06"/>
<stop offset="0.99" stop-color="#9BA005"/>
</radialGradient>
<radialGradient id="paint33_radial_476_17038" cx="0" cy="0" r="1" gradientUnits="userSpaceOnUse" gradientTransform="translate(55.6043 54.4678) scale(24.8226 24.8226)">
<stop stop-color="#CBD335"/>
<stop offset="0.85" stop-color="#2E690A"/>
<stop offset="0.87" stop-color="#326B09"/>
<stop offset="0.9" stop-color="#3F7109"/>
<stop offset="0.93" stop-color="#547C08"/>
<stop offset="0.96" stop-color="#738B06"/>
<stop offset="0.99" stop-color="#9BA005"/>
</radialGradient>
<radialGradient id="paint34_radial_476_17038" cx="0" cy="0" r="1" gradientUnits="userSpaceOnUse" gradientTransform="translate(55.6043 54.4678) scale(24.8226 24.8226)">
<stop stop-color="#CBD335"/>
<stop offset="0.85" stop-color="#2E690A"/>
<stop offset="0.87" stop-color="#326B09"/>
<stop offset="0.9" stop-color="#3F7109"/>
<stop offset="0.93" stop-color="#547C08"/>
<stop offset="0.96" stop-color="#738B06"/>
<stop offset="0.99" stop-color="#9BA005"/>
</radialGradient>
<radialGradient id="paint35_radial_476_17038" cx="0" cy="0" r="1" gradientUnits="userSpaceOnUse" gradientTransform="translate(55.6152 54.4678) scale(24.819 24.819)">
<stop stop-color="#CBD335"/>
<stop offset="0.85" stop-color="#2E690A"/>
<stop offset="0.87" stop-color="#326B09"/>
<stop offset="0.9" stop-color="#3F7109"/>
<stop offset="0.93" stop-color="#547C08"/>
<stop offset="0.96" stop-color="#738B06"/>
<stop offset="0.99" stop-color="#9BA005"/>
</radialGradient>
<radialGradient id="paint36_radial_476_17038" cx="0" cy="0" r="1" gradientUnits="userSpaceOnUse" gradientTransform="translate(53.9393 60.5124) scale(29.5895)">
<stop stop-color="#FFFF00"/>
<stop offset="0.16" stop-color="#FCFC00"/>
<stop offset="0.29" stop-color="#F2F602"/>
<stop offset="0.39" stop-color="#E2EB05"/>
<stop offset="0.5" stop-color="#CBDC0A"/>
<stop offset="0.59" stop-color="#ADC80F"/>
<stop offset="0.68" stop-color="#89AF16"/>
<stop offset="0.77" stop-color="#5E921F"/>
<stop offset="0.86" stop-color="#2E7128"/>
<stop offset="0.88" stop-color="#1D662C"/>
<stop offset="0.89" stop-color="#1A7330"/>
<stop offset="0.96" stop-color="#07D753"/>
<stop offset="0.99" stop-color="#00FF62"/>
</radialGradient>
<radialGradient id="paint37_radial_476_17038" cx="0" cy="0" r="1" gradientUnits="userSpaceOnUse" gradientTransform="translate(53.9393 60.5124) scale(29.5895 29.5895)">
<stop stop-color="#FFFF00"/>
<stop offset="0.16" stop-color="#FCFC00"/>
<stop offset="0.29" stop-color="#F2F602"/>
<stop offset="0.39" stop-color="#E2EB05"/>
<stop offset="0.5" stop-color="#CBDC0A"/>
<stop offset="0.59" stop-color="#ADC80F"/>
<stop offset="0.68" stop-color="#89AF16"/>
<stop offset="0.77" stop-color="#5E921F"/>
<stop offset="0.86" stop-color="#2E7128"/>
<stop offset="0.88" stop-color="#1D662C"/>
<stop offset="0.89" stop-color="#1A7330"/>
<stop offset="0.96" stop-color="#07D753"/>
<stop offset="0.99" stop-color="#00FF62"/>
</radialGradient>
<radialGradient id="paint38_radial_476_17038" cx="0" cy="0" r="1" gradientUnits="userSpaceOnUse" gradientTransform="translate(53.9393 60.5124) scale(29.5896 29.5895)">
<stop stop-color="#FFFF00"/>
<stop offset="0.16" stop-color="#FCFC00"/>
<stop offset="0.29" stop-color="#F2F602"/>
<stop offset="0.39" stop-color="#E2EB05"/>
<stop offset="0.5" stop-color="#CBDC0A"/>
<stop offset="0.59" stop-color="#ADC80F"/>
<stop offset="0.68" stop-color="#89AF16"/>
<stop offset="0.77" stop-color="#5E921F"/>
<stop offset="0.86" stop-color="#2E7128"/>
<stop offset="0.88" stop-color="#1D662C"/>
<stop offset="0.89" stop-color="#1A7330"/>
<stop offset="0.96" stop-color="#07D753"/>
<stop offset="0.99" stop-color="#00FF62"/>
</radialGradient>
<radialGradient id="paint39_radial_476_17038" cx="0" cy="0" r="1" gradientUnits="userSpaceOnUse" gradientTransform="translate(53.9393 60.5124) scale(29.5895)">
<stop stop-color="#FFFF00"/>
<stop offset="0.16" stop-color="#FCFC00"/>
<stop offset="0.29" stop-color="#F2F602"/>
<stop offset="0.39" stop-color="#E2EB05"/>
<stop offset="0.5" stop-color="#CBDC0A"/>
<stop offset="0.59" stop-color="#ADC80F"/>
<stop offset="0.68" stop-color="#89AF16"/>
<stop offset="0.77" stop-color="#5E921F"/>
<stop offset="0.86" stop-color="#2E7128"/>
<stop offset="0.88" stop-color="#1D662C"/>
<stop offset="0.89" stop-color="#1A7330"/>
<stop offset="0.96" stop-color="#07D753"/>
<stop offset="0.99" stop-color="#00FF62"/>
</radialGradient>
<radialGradient id="paint40_radial_476_17038" cx="0" cy="0" r="1" gradientUnits="userSpaceOnUse" gradientTransform="translate(53.9393 60.5124) scale(29.5896)">
<stop stop-color="#FFFF00"/>
<stop offset="0.16" stop-color="#FCFC00"/>
<stop offset="0.29" stop-color="#F2F602"/>
<stop offset="0.39" stop-color="#E2EB05"/>
<stop offset="0.5" stop-color="#CBDC0A"/>
<stop offset="0.59" stop-color="#ADC80F"/>
<stop offset="0.68" stop-color="#89AF16"/>
<stop offset="0.77" stop-color="#5E921F"/>
<stop offset="0.86" stop-color="#2E7128"/>
<stop offset="0.88" stop-color="#1D662C"/>
<stop offset="0.89" stop-color="#1A7330"/>
<stop offset="0.96" stop-color="#07D753"/>
<stop offset="0.99" stop-color="#00FF62"/>
</radialGradient>
<radialGradient id="paint41_radial_476_17038" cx="0" cy="0" r="1" gradientUnits="userSpaceOnUse" gradientTransform="translate(53.9393 60.5124) scale(29.5895 29.5895)">
<stop stop-color="#FFFF00"/>
<stop offset="0.16" stop-color="#FCFC00"/>
<stop offset="0.29" stop-color="#F2F602"/>
<stop offset="0.39" stop-color="#E2EB05"/>
<stop offset="0.5" stop-color="#CBDC0A"/>
<stop offset="0.59" stop-color="#ADC80F"/>
<stop offset="0.68" stop-color="#89AF16"/>
<stop offset="0.77" stop-color="#5E921F"/>
<stop offset="0.86" stop-color="#2E7128"/>
<stop offset="0.88" stop-color="#1D662C"/>
<stop offset="0.89" stop-color="#1A7330"/>
<stop offset="0.96" stop-color="#07D753"/>
<stop offset="0.99" stop-color="#00FF62"/>
</radialGradient>
<radialGradient id="paint42_radial_476_17038" cx="0" cy="0" r="1" gradientUnits="userSpaceOnUse" gradientTransform="translate(53.9393 60.5124) scale(29.5896 29.5896)">
<stop stop-color="#FFFF00"/>
<stop offset="0.16" stop-color="#FCFC00"/>
<stop offset="0.29" stop-color="#F2F602"/>
<stop offset="0.39" stop-color="#E2EB05"/>
<stop offset="0.5" stop-color="#CBDC0A"/>
<stop offset="0.59" stop-color="#ADC80F"/>
<stop offset="0.68" stop-color="#89AF16"/>
<stop offset="0.77" stop-color="#5E921F"/>
<stop offset="0.86" stop-color="#2E7128"/>
<stop offset="0.88" stop-color="#1D662C"/>
<stop offset="0.89" stop-color="#1A7330"/>
<stop offset="0.96" stop-color="#07D753"/>
<stop offset="0.99" stop-color="#00FF62"/>
</radialGradient>
<linearGradient id="paint43_linear_476_17038" x1="55.474" y1="61.5041" x2="58.0982" y2="61.5041" gradientUnits="userSpaceOnUse">
<stop offset="0.02" stop-color="#F0E432"/>
<stop offset="0.18" stop-color="#BBB126"/>
<stop offset="0.4" stop-color="#797319"/>
<stop offset="0.6" stop-color="#45410E"/>
<stop offset="0.77" stop-color="#1F1D06"/>
<stop offset="0.91" stop-color="#080701"/>
<stop offset="1"/>
</linearGradient>
<linearGradient id="paint44_linear_476_17038" x1="66.1443" y1="60.2518" x2="68.5839" y2="60.2518" gradientUnits="userSpaceOnUse">
<stop offset="0.02" stop-color="#F0E432"/>
<stop offset="0.18" stop-color="#BBB126"/>
<stop offset="0.4" stop-color="#797319"/>
<stop offset="0.6" stop-color="#45410E"/>
<stop offset="0.77" stop-color="#1F1D06"/>
<stop offset="0.91" stop-color="#080701"/>
<stop offset="1"/>
</linearGradient>
<linearGradient id="paint45_linear_476_17038" x1="45.448" y1="56.2812" x2="47.7789" y2="56.2812" gradientUnits="userSpaceOnUse">
<stop offset="0.02" stop-color="#F0E432"/>
<stop offset="0.18" stop-color="#BBB126"/>
<stop offset="0.4" stop-color="#797319"/>
<stop offset="0.6" stop-color="#45410E"/>
<stop offset="0.77" stop-color="#1F1D06"/>
<stop offset="0.91" stop-color="#080701"/>
<stop offset="1"/>
</linearGradient>
<linearGradient id="paint46_linear_476_17038" x1="62.7782" y1="74.0059" x2="66.5606" y2="74.0059" gradientUnits="userSpaceOnUse">
<stop offset="0.02" stop-color="#F0E432"/>
<stop offset="0.18" stop-color="#BBB126"/>
<stop offset="0.4" stop-color="#797319"/>
<stop offset="0.6" stop-color="#45410E"/>
<stop offset="0.77" stop-color="#1F1D06"/>
<stop offset="0.91" stop-color="#080701"/>
<stop offset="1"/>
</linearGradient>
<linearGradient id="paint47_linear_476_17038" x1="48.9806" y1="72.6269" x2="55.0976" y2="72.6269" gradientUnits="userSpaceOnUse">
<stop offset="0.02" stop-color="#F0E432"/>
<stop offset="0.18" stop-color="#BBB126"/>
<stop offset="0.4" stop-color="#797319"/>
<stop offset="0.6" stop-color="#45410E"/>
<stop offset="0.77" stop-color="#1F1D06"/>
<stop offset="0.91" stop-color="#080701"/>
<stop offset="1"/>
</linearGradient>
<radialGradient id="paint48_radial_476_17038" cx="0" cy="0" r="1" gradientUnits="userSpaceOnUse" gradientTransform="translate(54.4417 56.9421) rotate(-47.71) scale(12.2991 10.3313)">
<stop stop-color="#FF3D00"/>
<stop offset="0.27" stop-color="#B62B00"/>
<stop offset="0.78" stop-color="#340C00"/>
<stop offset="1"/>
</radialGradient>
<radialGradient id="paint49_radial_476_17038" cx="0" cy="0" r="1" gradientUnits="userSpaceOnUse" gradientTransform="translate(68.3769 76.7527) rotate(-50.2) scale(7.51748 5.33155)">
<stop stop-color="#00FF00"/>
<stop offset="1"/>
</radialGradient>
<radialGradient id="paint50_radial_476_17038" cx="0" cy="0" r="1" gradientUnits="userSpaceOnUse" gradientTransform="translate(46.0669 56.5164) scale(3.94527)">
<stop stop-color="#FFFFD8"/>
<stop offset="1" stop-color="#FFF09C"/>
</radialGradient>
<radialGradient id="paint51_radial_476_17038" cx="0" cy="0" r="1" gradientUnits="userSpaceOnUse" gradientTransform="translate(54.7537 47.2541) scale(3.65571)">
<stop stop-color="#FFFFD8"/>
<stop offset="1" stop-color="#FFF09C"/>
</radialGradient>
<linearGradient id="paint52_linear_476_17038" x1="60.0956" y1="62" x2="62" y2="131.103" gradientUnits="userSpaceOnUse">
<stop stop-color="#38ACCF" stop-opacity="0"/>
<stop offset="1" stop-color="#38ACCF" stop-opacity="0.58"/>
</linearGradient>
<clipPath id="clip0_476_17038">
<rect width="50" height="50" fill="white" transform="translate(37 37)"/>
</clipPath>
</defs>
</svg>
