<svg width="220" height="220" viewBox="0 0 124 124" fill="none" xmlns="http://www.w3.org/2000/svg">
<g opacity="0.4" filter="url(#filter0_f_400_23619)">
<circle cx="62" cy="62" r="37" fill="url(#paint0_radial_400_23619)"/>
</g>
<path opacity="0.5" d="M99 62C99 82.4345 82.4345 99 62 99C41.5655 99 25 82.4345 25 62" stroke="url(#paint1_linear_400_23619)"/>
<g clip-path="url(#clip0_400_23619)">
<path style="mix-blend-mode:screen" opacity="0.55" d="M62 87C75.8071 87 87 75.8071 87 62C87 48.1929 75.8071 37 62 37C48.1929 37 37 48.1929 37 62C37 75.8071 48.1929 87 62 87Z" fill="url(#paint2_radial_400_23619)"/>
<path d="M56.8384 41.5065C52.1836 42.7423 49.6461 45.2386 49.6461 45.2386C49.6461 45.2386 49.5679 45.7123 48.8223 46.4043C48.0767 47.0964 47.4464 46.9275 47.4464 46.9275C47.4464 46.9275 44.946 48.3528 44.0192 51.7512C44.0192 51.7512 43.8091 52.9375 43.1747 53.4442C43.1747 53.4442 40.8885 58.7952 42.1572 64.9494C42.1572 64.9494 42.3591 69.4477 45.5845 72.9038C45.5845 72.9038 46.775 73.1097 46.8532 74.4279C46.8532 74.4279 49.5184 77.9581 53.197 79.4823C53.197 79.4823 54.0208 79.1033 54.7211 79.9889L56.1175 80.4956C56.1175 80.4956 56.7972 79.7953 57.827 80.3885C58.4861 80.7675 58.4861 81.233 58.4861 81.233C58.4861 81.233 62.074 81.8014 66.3169 80.2691C66.3169 80.2691 66.4528 79.9148 69.1551 79.3669C69.1551 79.3669 72.1993 78.506 74.6008 76.0468C74.6008 76.0468 75.4288 74.6174 76.4627 73.7853C77.4967 72.9532 78.3247 72.6854 78.3247 72.6854C78.3247 72.6854 80.545 69.217 81.443 66.5518C82.341 63.8866 82.5099 59.3595 81.7066 55.6357C80.9033 51.9118 79.0002 49.3743 79.0002 49.3743C79.0002 49.3743 77.5626 49.4155 77.3525 48.6123C77.1424 47.809 77.0559 47.257 77.0559 47.257L74.8974 45.185C74.8974 45.185 73.7234 45.2221 73.295 44.7154C72.8172 44.1511 72.57 43.5373 72.57 43.5373L72.191 43.2819C72.191 43.2819 71.4701 43.8339 70.8358 43.3684C70.2014 42.9029 70.2014 42.2686 70.2014 42.2686C70.2014 42.2686 67.5774 41.2964 64.7887 40.9133C61.9958 40.5343 58.9928 40.9133 58.9928 40.9133C58.9928 40.9133 58.9063 41.317 58.0206 41.4941C57.1309 41.6754 56.8343 41.4941 56.8343 41.4941L56.8384 41.5065Z" fill="url(#paint3_radial_400_23619)"/>
<path d="M78.3247 72.6937C77.1837 68.8874 78.1353 62.2307 75.5978 59.4996C73.0603 56.7685 60.3687 60.447 59.0382 62.5437C57.7077 64.6363 60.2452 73.4145 66.6507 73.1509C73.0603 72.8873 74.6009 76.0591 74.6009 76.0591L74.9716 75.4866C74.9716 75.4866 73.188 73.534 70.4569 72.8296C67.7299 72.1252 61.3821 71.911 60.6859 67.6434C59.9898 63.3717 68.871 59.1906 72.6772 59.5037C76.4834 59.8168 76.9613 63.1163 77.2125 66.6383C77.4679 70.1603 78.1023 72.7843 78.1023 72.7843L78.3247 72.6978V72.6937Z" fill="url(#paint4_radial_400_23619)"/>
<path d="M66.317 80.2732C66.3953 78.8274 67.3716 75.6967 64.451 74.3003C61.5304 72.9038 58.6963 69.6702 57.4729 67.2892C56.2454 64.9083 50.3218 74.9346 53.2012 79.4823L53.3701 79.2517C53.3701 79.2517 51.7636 77.3897 53.3289 73.6041C54.8942 69.8185 56.1218 67.5364 56.8385 68.2943C57.5553 69.0523 59.2071 74.3003 62.5067 75.3589C65.8062 76.4176 65.8886 80.4257 65.8886 80.4257L66.3211 80.2774L66.317 80.2732Z" fill="url(#paint5_radial_400_23619)"/>
<path d="M49.6462 45.2386C48.2086 50.6966 41.1852 59.5778 42.7093 63.1328C44.2334 66.6877 48.95 47.739 57.5552 46.4249C69.7401 44.563 70.2056 42.2809 70.2056 42.2809L69.8513 42.1573C69.8513 42.1573 68.2572 43.5085 60.517 44.6948C52.7768 45.8812 49.4773 52.4803 46.5361 57.7448C43.7391 62.7579 42.9194 59.2483 43.9739 57.7242C49.0077 50.4495 50.1487 47.0634 50.1941 44.769L49.6421 45.2427L49.6462 45.2386Z" fill="url(#paint6_radial_400_23619)"/>
<path d="M77.056 47.2694C71.4702 47.4383 59.3718 44.4353 55.9034 49.6792C52.4349 54.9231 70.7699 51.8418 76.6317 56.5337C81.2865 60.2575 81.443 66.5601 81.443 66.5601L81.6737 65.7774C81.6737 65.7774 80.9281 61.0073 78.6295 57.8642C77.6203 56.4843 75.0251 53.782 66.9431 52.8099C57.3369 51.6523 55.1248 51.3475 57.8477 48.7482C58.9105 47.7349 61.6992 46.7174 68.1253 47.0964C74.5555 47.4754 77.093 47.5001 77.093 47.5001L77.0518 47.2653L77.056 47.2694Z" fill="url(#paint7_radial_400_23619)"/>
<path d="M53.1146 65.7156C48.4186 68.1666 51.0426 75.7832 50.367 76.7141C49.6873 77.6451 44.254 70.4981 43.7267 67.1121C43.599 66.2841 43.978 66.1193 44.5465 65.8227C44.394 66.004 43.9821 66.3253 43.9615 66.9308C43.875 69.4353 48.7646 75.9933 49.5679 75.5278C50.3711 75.0623 47.673 68.3767 52.7397 65.5467C57.8065 62.7127 62.3418 58.0578 61.6251 56.8303C60.9083 55.6027 56.9497 56.027 55.0877 53.955C53.2258 51.883 52.3031 52.1096 50.8366 54.8448C48.4021 59.3884 48.2332 59.9857 47.1334 63.3676C46.8327 64.2945 45.4774 65.4685 44.9337 65.6044C45.6216 65.176 46.4455 64.3892 46.9851 62.206C48.1261 57.5965 52.7027 50.2435 53.922 52.0519C56.9661 56.5667 62.3418 53.7861 64.8381 54.6759C67.3344 55.5657 58.9146 62.6921 53.1187 65.7156H53.1146Z" fill="url(#paint8_radial_400_23619)"/>
<g style="mix-blend-mode:multiply" opacity="0.27">
<path d="M70.0449 48.5175C66.5476 47.3641 60.9289 47.4135 59.2894 48.6781C55.8292 51.3474 59.7178 50.9602 64.0183 51.4051C70.7369 52.1013 75.0704 54.2598 75.9272 53.6254C76.784 52.991 75.3464 50.2599 70.0449 48.5175Z" fill="#CB6698"/>
<path d="M52.4184 53.7408C49.5431 56.752 47.5824 62.2883 48.1838 63.3635C48.7852 64.4386 50.0375 66.1193 53.4524 64.4427C56.8672 62.7662 62.8196 56.5172 59.8826 56.2288C53.6212 55.611 53.37 52.7439 52.4184 53.7408Z" fill="#CB6698"/>
<path d="M65.732 54.2598C67.6681 57.2957 61.3532 59.8126 62.4654 59.8744C63.5776 59.9362 69.4147 58.2555 71.3508 57.304C73.2868 56.3524 64.8299 52.8428 65.7362 54.2598H65.732Z" fill="#CB6698"/>
<path d="M62.8773 64.5087C60.793 67.0997 62.2759 70.7288 65.732 71.2972C69.1922 71.8698 77.9375 63.5571 74.1724 61.2585C70.4033 58.96 64.9699 61.9053 62.8773 64.5087Z" fill="#CB6698"/>
<path d="M54.787 71.7421C53.4359 75.1488 52.8839 78.057 54.6264 78.7861C56.373 79.5152 62.902 78.7243 60.7147 75.8367C58.5274 72.9491 56.1176 68.3808 54.7829 71.7421H54.787Z" fill="#CB6698"/>
<path d="M44.9172 66.3953C43.4837 67.7011 48.7894 75.8037 48.8841 73.6782C48.9789 71.5526 49.8892 66.3953 48.8429 65.0318C47.7966 63.6683 46.6432 64.8217 44.9172 66.3953Z" fill="#CB6698"/>
<path d="M56.0847 47.3436C53.2877 48.4558 50.5113 52.0066 51.5493 51.9036C52.5874 51.7965 53.263 50.6019 54.1527 51.7718C55.0425 52.9417 55.1455 52.0931 54.9972 51.1416C54.8489 50.19 55.7387 48.7112 56.6696 47.9491C57.6006 47.187 57.2834 46.8699 56.0888 47.3477L56.0847 47.3436Z" fill="#CB6698"/>
<path d="M51.3268 44.6454C49.1394 47.5989 50.4494 49.3826 52.1177 48.3898C53.7901 47.3971 55.6067 45.4075 58.8857 44.6454C62.1647 43.8833 62.7372 41.7042 60.4716 41.8113C58.2101 41.9184 53.1104 42.2356 51.3227 44.6454H51.3268Z" fill="#CB6698"/>
<path d="M43.9986 58.5274C43.9327 59.998 47.8749 55.751 48.0767 54.0086C48.2827 52.262 44.0604 57.1145 43.9986 58.5274Z" fill="#CB6698"/>
<path d="M69.9502 71.1407C69.3652 72.3559 73.6287 73.9954 74.5185 73.9336C75.4082 73.8718 77.4061 71.9645 76.8664 69.6207C76.3268 67.2727 77.0889 65.7609 74.8686 67.2933C72.6483 68.8256 70.3332 70.3498 69.9502 71.1407Z" fill="#CB6698"/>
<path d="M77.1837 50.1694C77.0313 52.262 76.2939 54.0086 77.5338 55.5615C78.7696 57.1145 80.3555 60.0351 80.6439 57.9095C80.9281 55.784 77.3526 47.912 77.1837 50.1694Z" fill="#CB6698"/>
<path d="M55.4709 65.2501C52.0807 66.8071 50.6802 70.0284 51.0838 72.6401C51.4875 75.2517 52.1837 72.1375 53.3247 70.3003C54.4658 68.4631 56.9827 66.2428 57.3452 65.6084C57.7077 64.9741 56.4801 64.7887 55.4709 65.2501Z" fill="#CB6698"/>
</g>
<path d="M69.324 43.1583C66.4817 44.7525 62.004 45.807 57.4398 46.4414C57.4398 46.4414 61.1925 46.5073 64.4467 45.7246C67.7051 44.942 69.3199 43.1583 69.3199 43.1583H69.324Z" fill="url(#paint9_radial_400_23619)"/>
<path d="M60.521 47.5042C57.5469 48.1014 56.5047 50.1075 56.8713 50.7172C57.205 51.2692 57.9341 51.6358 59.277 51.7388C59.277 51.7388 56.3441 51.2321 57.4398 49.6215C58.1318 48.604 60.521 47.5042 60.521 47.5042Z" fill="url(#paint10_radial_400_23619)"/>
<path d="M65.2048 54.9519C65.7197 55.9405 64.8134 58.0331 60.9742 60.859C57.1351 63.6807 53.9714 65.2501 53.9714 65.2501C53.9714 65.2501 61.1349 60.8549 63.3881 58.1444C65.6414 55.4339 65.2089 54.9519 65.2089 54.9519H65.2048Z" fill="url(#paint11_radial_400_23619)"/>
<path d="M77.8593 56.958C81.9662 60.064 81.6737 65.7774 81.6737 65.7774C81.6737 65.7774 81.3071 63.3141 80.2278 60.7436C79.1486 58.1732 77.8593 56.958 77.8593 56.958Z" fill="url(#paint12_radial_400_23619)"/>
<path d="M72.0469 59.4872C65.699 59.8785 60.1462 63.9772 60.6859 67.6392C61.2255 71.3013 65.8679 71.8821 65.8679 71.8821C65.8679 71.8821 61.2502 70.6628 61.5427 67.2891C61.8805 63.3675 64.6157 61.9258 67.0584 60.8136C68.875 59.9856 72.0469 59.483 72.0469 59.483V59.4872Z" fill="url(#paint13_radial_400_23619)"/>
<path d="M52.9869 52.5751C52.9869 52.5751 52.2372 52.0602 50.5565 55.3556C48.8759 58.651 47.8708 60.7601 47.2776 62.9104C47.2776 62.9104 49.3578 57.7778 50.8078 55.4133C52.2578 53.0488 52.9869 52.5751 52.9869 52.5751Z" fill="url(#paint14_radial_400_23619)"/>
<path d="M44.2334 62.5643C46.3837 60.6159 48.3939 56.097 49.7409 53.5307C51.0879 50.9644 53.127 48.7523 53.127 48.7523C53.127 48.7523 50.7172 50.2641 48.0849 55.5162C46.2354 59.2071 44.2334 62.5643 44.2334 62.5643Z" fill="url(#paint15_radial_400_23619)"/>
<path d="M49.7739 47.2406C49.5185 51.4381 43.8297 57.9672 43.8297 57.9672C43.8297 57.9672 46.5237 54.0951 48.0767 51.1539C49.6297 48.2168 49.7739 47.2365 49.7739 47.2365V47.2406Z" fill="url(#paint16_radial_400_23619)"/>
<path d="M58.1608 68.4631C61.0896 73.0561 65.1759 74.7409 65.1759 74.7409C65.1759 74.7409 62.6467 73.4022 60.6735 71.3302C58.6963 69.2582 58.1608 68.4673 58.1608 68.4673V68.4631Z" fill="url(#paint17_radial_400_23619)"/>
<path d="M56.4801 68.1542C56.4801 68.1542 55.5903 67.594 53.3247 73.604C53.3247 73.604 55.1084 69.4518 56.4801 68.1542Z" fill="url(#paint18_radial_400_23619)"/>
<path d="M50.2805 76.78C51.1249 76.055 50.0045 72.0593 50.5977 69.7978C51.1908 67.5363 51.5533 67.0049 51.5533 67.0049C51.5533 67.0049 49.8768 68.3601 50.1322 71.602C50.4864 76.055 50.2805 76.78 50.2805 76.78Z" fill="url(#paint19_radial_400_23619)"/>
<g style="mix-blend-mode:color-dodge" opacity="0.33">
<path d="M60.9825 54.7995C58.9929 55.0879 60.6035 55.5698 61.9176 55.4668C63.2275 55.3597 63.3099 57.0075 63.796 56.9992C64.282 56.991 65.3201 55.5286 64.9576 54.9519C64.5992 54.3752 62.5684 54.5688 60.9825 54.7995Z" fill="#DA407E"/>
<path d="M56.4884 48.9543C55.3803 49.7905 54.8612 51.3187 56.3483 51.9655C57.8354 52.6122 60.517 52.9376 60.1381 52.5133C59.7591 52.089 56.5955 51.2363 56.5955 50.4125C56.5955 49.5886 57.4523 48.2293 56.4884 48.9543Z" fill="#DA407E"/>
<path d="M48.9913 47.9904C48.5794 48.5671 45.0574 55.0343 45.2469 55.0961C45.4364 55.1579 47.3601 52.5339 48.2663 50.7256C49.1726 48.9172 49.5103 47.2612 48.9913 47.9904Z" fill="#DA407E"/>
<path d="M60.3647 59.8291C59.6767 60.4511 57.7819 62.1606 58.6634 61.8846C59.5449 61.6086 63.0134 58.9682 63.31 57.7242C63.6065 56.4801 62.1483 58.2226 60.3647 59.825V59.8291Z" fill="#DA407E"/>
<path d="M60.3481 62.1194C58.7952 63.8413 59.755 68.113 60.0927 68.1418C60.4305 68.1707 60.1998 65.3366 61.2791 64.1955C62.3584 63.0545 64.3027 61.7404 64.2615 61.4439C64.2203 61.1473 61.3203 61.0402 60.3481 62.1194Z" fill="#DA407E"/>
<path d="M73.0562 58.6593C70.8565 58.5398 69.8884 59.4708 70.7576 59.3472C71.6268 59.2236 74.4814 59.6067 75.2188 60.3235C75.9603 61.0402 75.5566 59.5532 74.9634 59.1824C74.3702 58.8117 73.5711 58.6881 73.0562 58.6634V58.6593Z" fill="#DA407E"/>
<path d="M58.4038 45.8112C59.652 46.1366 65.0647 44.9214 65.5096 44.6042C65.9545 44.2871 63.3841 44.5136 60.5253 44.802C58.8487 44.9709 57.2628 45.5146 58.4038 45.8112Z" fill="#DA407E"/>
<path d="M58.6923 70.4116C58.7623 71.6474 60.0063 73.9872 61.6664 74.6421C63.3265 75.2971 64.83 75.1076 64.5128 74.8028C64.1956 74.498 62.1813 73.6288 61.1556 72.6113C60.134 71.598 58.6428 69.5425 58.6881 70.4116H58.6923Z" fill="#DA407E"/>
<g style="mix-blend-mode:screen" opacity="0.74">
<path d="M43.1089 59.7674C42.5899 60.7107 42.2851 63.3676 43.1089 63.2564C43.9328 63.1452 45.0903 60.7642 44.6001 60.8301C44.1099 60.8919 43.6939 61.345 43.5044 60.7395C43.3149 60.134 43.3272 59.3678 43.1089 59.7674Z" fill="#FB24BB"/>
</g>
</g>
<path style="mix-blend-mode:overlay" opacity="0.47" d="M50.5319 56.6326C51.4793 55.5163 57.2587 55.3268 59.3678 56.9992C60.8013 58.1361 59.6479 60.9084 54.5317 63.0752C50.5813 64.7476 49.5844 57.7489 50.5319 56.6285V56.6326Z" fill="url(#paint20_radial_400_23619)"/>
<path style="mix-blend-mode:overlay" opacity="0.47" d="M75.0663 62.5437C76.3639 64.4015 72.6154 68.7886 70.2056 70.2015C67.7958 71.6144 65.1759 71.1778 65.1759 71.1778C65.1759 71.1778 60.4017 68.698 63.1698 65.2542C65.9421 61.8105 74.1683 61.2626 75.0663 62.5479V62.5437Z" fill="url(#paint21_radial_400_23619)"/>
<path style="mix-blend-mode:overlay" opacity="0.47" d="M65.7609 47.6896C72.9285 47.1047 75.5071 50.3671 76.0921 51.4629C76.677 52.5586 77.5627 55.0673 75.7872 54.5729C74.0118 54.0786 69.3323 51.916 65.1759 51.5411C59.6396 51.0386 60.5129 48.118 65.7609 47.6896Z" fill="url(#paint22_radial_400_23619)"/>
<path style="mix-blend-mode:overlay" opacity="0.47" d="M65.7196 42.1532C61.8599 41.7413 56.2988 42.2727 53.9673 45.0038C51.6358 47.7349 57.687 44.9296 62.3089 44.1387C66.9307 43.352 68.1336 42.4128 65.7238 42.1532H65.7196Z" fill="url(#paint23_radial_400_23619)"/>
<path style="mix-blend-mode:overlay" opacity="0.47" d="M53.4607 75.8037C52.4803 79.3916 54.4946 79.3875 59.479 79.6759C64.4633 79.9601 64.937 77.0354 61.4809 76.055C58.0207 75.0746 56.8591 72.7678 55.475 73.2333C54.0909 73.6988 53.646 75.1282 53.4607 75.8037Z" fill="url(#paint24_radial_400_23619)"/>
<g style="mix-blend-mode:color-dodge">
<path d="M59.1412 63.1987C58.9229 64.1297 59.3719 66.6177 59.652 65.5879C60.5088 62.449 61.6704 62.2884 61.7981 61.7982C61.9629 61.1679 59.5614 61.411 59.1453 63.1987H59.1412Z" fill="#FB24BB"/>
</g>
<g style="mix-blend-mode:color-dodge">
<path d="M64.7351 55.6357C64.8916 54.7006 63.3304 54.4411 62.3294 54.8201C61.3284 55.1991 63.3675 55.368 63.4334 56.0353C63.4952 56.7026 64.6733 56.0147 64.7351 55.6357Z" fill="#FB24BB"/>
</g>
<g style="mix-blend-mode:color-dodge">
<path d="M56.0064 49.8646C55.4297 50.3259 55.2731 51.434 56.3483 51.8336C57.4234 52.2332 56.7066 51.1045 56.5789 50.6431C56.4512 50.1818 56.4883 49.4815 56.0064 49.8646Z" fill="#FB24BB"/>
</g>
<g style="mix-blend-mode:multiply" opacity="0.47">
<path d="M68.908 79.4245C67.5198 79.165 66.7206 78.7984 66.5394 79.3339C66.3581 79.8694 66.321 80.2731 66.321 80.2731C66.321 80.2731 66.5105 80.0466 67.0543 79.8777C67.9029 79.614 68.908 79.4245 68.908 79.4245Z" fill="#220733"/>
</g>
<g style="mix-blend-mode:multiply" opacity="0.47">
<path d="M58.4861 81.2412C58.5273 80.6686 58.7415 79.8282 58.1607 79.6964C57.5799 79.5646 56.3935 79.7829 56.1176 80.5038C56.1176 80.5038 56.7931 79.8241 57.6664 80.3143C58.5397 80.8086 58.4861 81.2412 58.4861 81.2412Z" fill="#220733"/>
</g>
<g style="mix-blend-mode:multiply" opacity="0.47">
<path d="M54.7212 79.9931C54.7212 79.264 54.7994 78.7944 54.1033 78.8108C53.4071 78.8273 53.197 79.4864 53.197 79.4864C53.197 79.4864 53.4112 79.3793 53.8396 79.4329C54.3628 79.4946 54.7212 79.9972 54.7212 79.9972V79.9931Z" fill="#220733"/>
</g>
<g style="mix-blend-mode:multiply" opacity="0.47">
<path d="M45.5846 72.9038C45.5516 72.3312 46.3549 72.29 46.7298 73.1674C47.1046 74.0448 46.8533 74.4238 46.8533 74.4238C46.8533 74.4238 46.9069 73.9377 46.4414 73.3858C45.9759 72.8338 45.5846 72.8997 45.5846 72.8997V72.9038Z" fill="#220733"/>
</g>
<g style="mix-blend-mode:multiply" opacity="0.47">
<path d="M44.1057 51.4546C44.8019 53.024 44.46 53.5431 43.9945 53.6337C43.529 53.7202 43.1707 53.4483 43.1707 53.4483C43.1707 53.4483 43.3395 53.4483 43.6567 52.814C43.9739 52.1796 44.1057 51.4587 44.1057 51.4587V51.4546Z" fill="#220733"/>
</g>
<g style="mix-blend-mode:multiply" opacity="0.47">
<path d="M47.4465 46.9316C47.7431 47.7554 48.81 47.1499 49.119 46.5649C49.4238 45.9841 49.6462 45.2385 49.6462 45.2385C49.6462 45.2385 49.1602 46.2642 48.5464 46.6308C47.9326 46.9975 47.4465 46.9316 47.4465 46.9316Z" fill="#220733"/>
</g>
<g style="mix-blend-mode:multiply" opacity="0.47">
<path d="M56.8385 41.5065C56.4142 42.0461 57.1928 42.1326 57.959 42.0296C58.7252 41.9266 58.997 40.9257 58.997 40.9257C58.997 40.9257 58.7663 41.4117 58.0249 41.5065C57.2834 41.6012 56.8385 41.5065 56.8385 41.5065Z" fill="#220733"/>
</g>
<g style="mix-blend-mode:multiply" opacity="0.47">
<path d="M70.2056 42.2767C69.9749 43.0388 70.0491 43.5249 70.7617 43.8215C71.4744 44.1181 72.1911 43.2942 72.1911 43.2942C72.1911 43.2942 71.3879 43.7926 70.8359 43.3807C70.1109 42.837 70.2015 42.2809 70.2015 42.2809L70.2056 42.2767Z" fill="#220733"/>
</g>
<g style="mix-blend-mode:multiply" opacity="0.47">
<path d="M72.5741 43.5455C72.1952 44.6454 72.5947 45.2798 73.0808 45.428C73.5669 45.5763 74.9015 45.1974 74.9015 45.1974C74.9015 45.1974 73.9665 45.2592 73.4804 44.8843C72.9943 44.5094 72.5741 43.5455 72.5741 43.5455Z" fill="#220733"/>
</g>
<g style="mix-blend-mode:multiply" opacity="0.47">
<path d="M77.056 47.2694C76.6523 48.5793 77.056 49.2796 77.4803 49.4897C77.9046 49.6998 79.0044 49.3826 79.0044 49.3826C79.0044 49.3826 77.9252 49.6792 77.4803 48.8965C77.0354 48.1139 77.056 47.2694 77.056 47.2694Z" fill="#220733"/>
</g>
<path d="M58.4325 59.1577C58.3501 59.3513 57.5345 59.8003 57.0114 59.4872C56.793 59.3595 56.6283 59.1041 56.583 58.6469C56.5459 58.2968 56.7313 58.3956 57.0072 57.9672C57.2832 57.5388 58.2554 57.7819 58.552 57.9672C58.8486 58.1526 58.552 58.8817 58.4366 59.1577H58.4325Z" fill="url(#paint25_linear_400_23619)"/>
<path d="M56.8014 60.344C56.789 60.5335 56.0599 60.896 55.7757 60.6612C55.5203 60.4511 55.4585 60.4511 55.4708 60.2452C55.4832 60.0392 56.0105 59.5819 56.2906 59.7096C56.3606 59.7426 56.4265 59.7838 56.4842 59.8332L56.5707 59.9115H56.5748C56.7149 60.0557 56.8055 60.2246 56.8014 60.344Z" fill="url(#paint26_linear_400_23619)"/>
<path d="M55.8209 57.9673C55.6479 58.0703 54.9147 57.6913 54.4904 57.3659C54.3998 57.2959 54.3215 57.23 54.268 57.1682C53.9631 56.8304 54.4492 55.9571 55.1454 55.4339C55.5614 55.1209 56.2782 55.3268 56.8013 55.6152C57.1226 55.7923 57.3739 55.9942 57.4398 56.1301C57.6211 56.4844 56.031 57.8478 55.8209 57.9673Z" fill="url(#paint27_linear_400_23619)"/>
<path d="M49.6255 61.654C49.5143 61.6664 49.2795 61.5634 49.0859 61.3863C48.9829 61.2915 48.8923 61.1762 48.8429 61.0485C48.7358 60.7766 48.7811 60.3194 48.8429 60.2123C48.9047 60.1011 49.9839 60.1711 50.1075 60.513C50.227 60.8549 49.7986 61.6293 49.6255 61.654Z" fill="url(#paint28_linear_400_23619)"/>
<path d="M74.0117 62.1813C73.9911 62.412 72.8707 62.8362 72.5947 62.6468C72.5494 62.6179 72.4958 62.5644 72.4381 62.4985C72.1333 62.1524 71.7296 61.3821 72.2569 60.9125C72.4711 60.723 73.1219 60.5336 73.4268 60.7024C73.5503 60.7725 73.6739 60.9908 73.7769 61.2421C73.9252 61.6087 74.0241 62.0453 74.0117 62.1813Z" fill="url(#paint29_linear_400_23619)"/>
<path d="M73.122 65.588C72.9943 65.7321 72.3558 65.8351 72.0015 65.588C71.9439 65.5468 71.8903 65.4973 71.8532 65.4355C71.7049 65.2049 71.6225 64.4222 71.8532 64.1874C72.0839 63.9567 73.0355 64.0803 73.2291 64.278C73.262 64.311 73.2826 64.3686 73.2991 64.4345C73.3691 64.7723 73.2456 65.4438 73.122 65.5797V65.588Z" fill="url(#paint30_linear_400_23619)"/>
<path d="M73.3197 63.1988C73.3403 63.5365 73.4845 63.9608 73.5874 63.9608C73.6904 63.9608 73.9705 64.0226 74.0117 63.7713C74.0529 63.516 74.0117 63.0958 73.7975 63.0752C73.5874 63.0546 73.3032 62.9557 73.3156 63.2029L73.3197 63.1988Z" fill="url(#paint31_linear_400_23619)"/>
<path d="M64.8751 66.4324C64.9369 66.8979 63.7752 67.6394 63.4993 67.5941C63.4004 67.5776 63.2768 67.5076 63.1574 67.3799C62.939 67.1574 62.7207 66.7661 62.6342 66.2182C62.5395 65.6209 63.5034 64.8877 63.8823 64.9001C64.0842 64.9083 64.3355 65.209 64.5332 65.5591C64.7103 65.8681 64.8463 66.2141 64.8751 66.4324Z" fill="url(#paint32_linear_400_23619)"/>
<path d="M61.2584 49.9594C61.2996 50.3178 60.3687 51.1251 60.0515 51.018C59.932 50.9768 59.8455 50.9109 59.7755 50.8038C59.656 50.6349 59.5737 50.3672 59.4171 49.9594C59.207 49.4115 59.7343 48.5423 60.3069 48.5011C60.5829 48.4806 60.8053 48.7401 60.966 49.049C61.1349 49.3786 61.2337 49.7699 61.2584 49.9553V49.9594Z" fill="url(#paint33_linear_400_23619)"/>
<path d="M48.7399 70.2057C48.5298 70.3087 48.2909 70.2469 48.0026 70.1068C47.8666 70.0409 47.7183 69.9544 47.5577 69.8597C47.0551 69.5631 47.0263 69.2747 47.3064 68.7145C47.4506 68.4261 48.0067 68.5127 48.501 68.6692C48.8305 68.7722 49.1313 68.9081 49.2713 68.9864C49.6256 69.18 49.0448 70.0533 48.7358 70.2057H48.7399Z" fill="url(#paint34_linear_400_23619)"/>
<path d="M47.3352 70.7948C47.3352 71.1326 47.1086 71.2438 46.9068 71.2067C46.8697 71.2026 46.8285 71.182 46.7832 71.1573C46.5649 71.0255 46.2683 70.6877 46.3795 70.387C46.5072 70.0327 46.7338 70.0863 46.9109 70.0863C47.0221 70.0863 47.1622 70.2387 47.2528 70.4323C47.3064 70.5476 47.3393 70.6753 47.3393 70.7989L47.3352 70.7948Z" fill="url(#paint35_linear_400_23619)"/>
<path d="M47.3352 65.9133C47.2363 66.2388 46.9068 66.7248 46.6596 66.7578C46.5814 66.7702 46.4125 66.729 46.223 66.6548C45.8234 66.4983 45.3456 66.1935 45.5557 65.9092C45.8234 65.555 46.12 65.382 46.5525 65.382C46.7255 65.382 46.9027 65.4149 47.0427 65.4767C47.2569 65.5673 47.3929 65.7156 47.3352 65.9092V65.9133Z" fill="url(#paint36_linear_400_23619)"/>
<path d="M60.0474 43.6486C60.0021 43.9534 59.6396 44.0729 59.2894 44.1141C59.1453 44.1347 58.997 44.1388 58.8775 44.1388C58.4656 44.1388 58.5315 43.941 58.4326 43.1584C58.3667 42.6517 59.4789 42.3304 60.0474 42.4581C60.068 42.4581 60.0845 42.4663 60.105 42.4746C60.5829 42.6311 60.1133 43.2366 60.0474 43.6527V43.6486Z" fill="url(#paint37_linear_400_23619)"/>
<path d="M61.6703 43.8874C61.5921 43.8998 61.5097 43.9039 61.4273 43.8998C61.1142 43.8792 60.8218 43.7268 60.8959 43.4755C61.0813 42.8082 61.7939 42.9359 61.971 43.113C61.9875 43.1295 61.9999 43.146 62.0081 43.1624C62.0823 43.356 62.0576 43.8256 61.6745 43.8874H61.6703Z" fill="url(#paint38_linear_400_23619)"/>
<path d="M56.5788 72.9492C56.5624 73.427 55.8662 74.0284 55.4749 74.0326C55.3925 74.0326 55.2854 73.9996 55.1742 73.9378C54.7622 73.703 54.2968 73.0645 54.9023 72.3807C55.3348 71.8905 56.0021 72.1418 56.3482 72.5002C56.4923 72.6485 56.583 72.8132 56.5747 72.9533L56.5788 72.9492Z" fill="url(#paint39_linear_400_23619)"/>
<path d="M58.309 73.7729C58.3007 73.9583 58.2307 74.1807 58.1607 74.4073C58.0165 74.8851 57.0361 75.0787 57.0691 74.605C57.0691 74.5762 57.0691 74.5474 57.0691 74.5185C57.0773 73.8924 56.6901 73.6988 56.7972 73.4557C56.9125 73.2003 57.5716 73.1715 58.0165 73.328C58.2472 73.4104 58.3172 73.5711 58.3048 73.7729H58.309Z" fill="url(#paint40_linear_400_23619)"/>
<g style="mix-blend-mode:multiply" opacity="0.47">
<path d="M56.8013 55.6152C55.7138 55.4133 54.3462 56.4226 54.4904 57.3659C54.3998 57.2959 54.3215 57.23 54.268 57.1682C53.9631 56.8304 54.4492 55.9571 55.1454 55.4339C55.5614 55.1209 56.2782 55.3268 56.8013 55.6152Z" fill="#841080"/>
</g>
<g style="mix-blend-mode:multiply" opacity="0.47">
<path d="M57.0155 59.4873C56.7972 59.3596 56.6324 59.1042 56.5871 58.6511C56.55 58.3009 56.7354 58.3998 57.0114 57.9714C57.2874 57.543 58.2595 57.786 58.5561 57.9714C57.963 57.9961 56.7972 58.5069 57.0196 59.4873H57.0155Z" fill="#841080"/>
</g>
<g style="mix-blend-mode:multiply" opacity="0.47">
<path d="M55.7797 60.6612C55.5243 60.4511 55.4625 60.4511 55.4749 60.2452C55.4872 60.0392 56.0145 59.5819 56.2946 59.7096C56.3646 59.7426 56.4305 59.7838 56.4882 59.8332L56.5747 59.9115H56.5788C55.7014 59.9197 55.7797 60.6612 55.7797 60.6612Z" fill="#841080"/>
</g>
<g style="mix-blend-mode:multiply" opacity="0.47">
<path d="M50.1034 60.513C49.3248 60.3194 49.0859 61.3863 49.0859 61.3863C48.9829 61.2915 48.8923 61.1762 48.8429 61.0485C48.7358 60.7766 48.7811 60.3194 48.8429 60.2123C48.9047 60.1011 49.9839 60.1711 50.1075 60.513H50.1034Z" fill="#841080"/>
</g>
<g style="mix-blend-mode:multiply" opacity="0.47">
<path d="M56.3482 72.496C55.8168 72.3436 54.8323 72.8874 55.1742 73.9337C54.7622 73.6989 54.2968 73.0645 54.9023 72.3766C55.3348 71.8864 56.0021 72.1377 56.3482 72.496Z" fill="#841080"/>
</g>
<g style="mix-blend-mode:multiply" opacity="0.47">
<path d="M58.309 73.7729C57.9671 73.8924 57.4151 74.1313 57.0732 74.5185C57.0814 73.8924 56.6942 73.6988 56.8013 73.4557C56.9167 73.2003 57.5758 73.1715 58.0206 73.328C58.2513 73.4104 58.3214 73.5711 58.309 73.7729Z" fill="#841080"/>
</g>
<g style="mix-blend-mode:multiply" opacity="0.47">
<path d="M64.5332 65.5591C64.113 65.8681 63.421 66.4901 63.1574 67.3799C62.939 67.1574 62.7207 66.7661 62.6342 66.2182C62.5395 65.6209 63.5034 64.8877 63.8823 64.9001C64.0842 64.9083 64.3355 65.209 64.5332 65.5591Z" fill="#841080"/>
</g>
<g style="mix-blend-mode:multiply" opacity="0.47">
<path d="M73.2991 64.4387C72.9202 64.624 72.3393 64.9907 72.0057 65.588C71.948 65.5468 71.8945 65.4973 71.8574 65.4355C71.7091 65.2049 71.6267 64.4222 71.8574 64.1874C72.0881 63.9567 73.0396 64.0803 73.2332 64.278C73.2662 64.311 73.2868 64.3686 73.3033 64.4345L73.2991 64.4387Z" fill="#841080"/>
</g>
<g style="mix-blend-mode:multiply" opacity="0.47">
<path d="M60.97 49.0531C60.4839 49.4074 59.8907 49.9965 59.7795 50.8038C59.6601 50.6349 59.5777 50.3672 59.4211 49.9594C59.2111 49.4115 59.7383 48.5423 60.3109 48.5011C60.5869 48.4806 60.8094 48.7401 60.97 49.049V49.0531Z" fill="#841080"/>
</g>
<g style="mix-blend-mode:multiply" opacity="0.47">
<path d="M73.7769 61.2421C73.2414 61.4686 72.64 61.86 72.4381 62.4985C72.1333 62.1524 71.7296 61.3821 72.2569 60.9125C72.4711 60.723 73.1219 60.5336 73.4268 60.7024C73.5503 60.7725 73.6739 60.9908 73.7769 61.2421Z" fill="#841080"/>
</g>
<g style="mix-blend-mode:multiply" opacity="0.47">
<path d="M47.2445 70.424C47.0715 70.5764 46.845 70.8359 46.779 71.1531C46.5607 71.0213 46.2641 70.6835 46.3754 70.3828C46.5031 70.0286 46.7296 70.0821 46.9067 70.0821C47.018 70.0821 47.158 70.2345 47.2486 70.4281L47.2445 70.424Z" fill="#841080"/>
</g>
<g style="mix-blend-mode:multiply" opacity="0.47">
<path d="M48.0026 70.1068C47.8666 70.0409 47.7183 69.9544 47.5577 69.8597C47.0551 69.5631 47.0263 69.2747 47.3064 68.7145C47.4506 68.4261 48.0067 68.5127 48.501 68.6692C48.2374 68.9987 47.982 69.4807 48.0026 70.1027V70.1068Z" fill="#841080"/>
</g>
<g style="mix-blend-mode:multiply" opacity="0.47">
<path d="M47.0427 65.4809C46.742 65.7404 46.363 66.1482 46.223 66.659C45.8234 66.5024 45.3456 66.1976 45.5557 65.9134C45.8234 65.5591 46.12 65.3861 46.5525 65.3861C46.7255 65.3861 46.9027 65.4191 47.0427 65.4809Z" fill="#841080"/>
</g>
<g style="mix-blend-mode:multiply" opacity="0.47">
<path d="M61.9669 43.109C61.7609 43.2902 61.5261 43.5621 61.4231 43.8958C61.1101 43.8752 60.8176 43.7228 60.8918 43.4715C61.0771 42.8042 61.7898 42.9319 61.9669 43.109Z" fill="#841080"/>
</g>
<g style="mix-blend-mode:multiply" opacity="0.47">
<path d="M60.105 42.4746C59.829 42.7588 59.3717 43.3397 59.2935 44.1182C59.1493 44.1388 59.001 44.1429 58.8815 44.1429C58.4696 44.1429 58.5355 43.9452 58.4366 43.1625C58.3707 42.6559 59.4829 42.3346 60.0514 42.4623C60.072 42.4623 60.0885 42.4705 60.1091 42.4787L60.105 42.4746Z" fill="#841080"/>
</g>
<path style="mix-blend-mode:screen" opacity="0.5" d="M77.4803 48.9007C77.4803 48.9007 65.1759 33.9888 49.7739 46.0831C42.5281 51.7718 42.2315 59.2813 45.2386 61.5675C48.2456 63.8537 48.6823 55.5286 57.2092 50.1241C67.3386 43.7063 77.4803 48.8966 77.4803 48.8966V48.9007Z" fill="url(#paint41_linear_400_23619)"/>
<path style="mix-blend-mode:screen" d="M61.2615 60.2587C67.87 53.6502 69.6644 44.7302 65.2695 40.3353C60.8746 35.9403 51.9546 37.7348 45.3461 44.3433C38.7376 50.9517 36.9432 59.8718 41.3381 64.2667C45.733 68.6616 54.653 66.8672 61.2615 60.2587Z" fill="url(#paint42_radial_400_23619)"/>
</g>
<defs>
<filter id="filter0_f_400_23619" x="0" y="0" width="124" height="124" filterUnits="userSpaceOnUse" color-interpolation-filters="sRGB">
<feFlood flood-opacity="0" result="BackgroundImageFix"/>
<feBlend mode="normal" in="SourceGraphic" in2="BackgroundImageFix" result="shape"/>
<feGaussianBlur stdDeviation="12.5" result="effect1_foregroundBlur_400_23619"/>
</filter>
<radialGradient id="paint0_radial_400_23619" cx="0" cy="0" r="1" gradientUnits="userSpaceOnUse" gradientTransform="translate(62 62) rotate(90) scale(37)">
<stop stop-color="#38ACCF"/>
<stop offset="1" stop-color="#38ACCF" stop-opacity="0"/>
</radialGradient>
<linearGradient id="paint1_linear_400_23619" x1="60.0956" y1="62" x2="62" y2="131.103" gradientUnits="userSpaceOnUse">
<stop stop-color="#38ACCF" stop-opacity="0"/>
<stop offset="1" stop-color="#38ACCF" stop-opacity="0.58"/>
</linearGradient>
<radialGradient id="paint2_radial_400_23619" cx="0" cy="0" r="1" gradientUnits="userSpaceOnUse" gradientTransform="translate(62 62) scale(25)">
<stop stop-color="#009AFF"/>
<stop offset="1"/>
</radialGradient>
<radialGradient id="paint3_radial_400_23619" cx="0" cy="0" r="1" gradientUnits="userSpaceOnUse" gradientTransform="translate(55.7509 55.2485) scale(27.1462 27.1462)">
<stop stop-color="#CB377A"/>
<stop offset="0.11" stop-color="#C03478"/>
<stop offset="0.28" stop-color="#A22F73"/>
<stop offset="0.51" stop-color="#73266B"/>
<stop offset="0.78" stop-color="#32195F"/>
<stop offset="0.8" stop-color="#2D195F"/>
<stop offset="0.84" stop-color="#2E1F63"/>
<stop offset="0.91" stop-color="#343271"/>
<stop offset="0.98" stop-color="#3C5187"/>
<stop offset="1" stop-color="#3F5B8E"/>
</radialGradient>
<radialGradient id="paint4_radial_400_23619" cx="0" cy="0" r="1" gradientUnits="userSpaceOnUse" gradientTransform="translate(54.2392 59.2771) scale(26.6518 26.6518)">
<stop stop-color="#B0FFFF"/>
<stop offset="0.29" stop-color="#AFFCFF"/>
<stop offset="0.43" stop-color="#ADF5FF"/>
<stop offset="0.54" stop-color="#ABE7FF"/>
<stop offset="0.62" stop-color="#A8DAFF"/>
<stop offset="0.65" stop-color="#A1D5FE"/>
<stop offset="0.7" stop-color="#8DC9FC"/>
<stop offset="0.76" stop-color="#6EB4F8"/>
<stop offset="0.82" stop-color="#4298F3"/>
<stop offset="0.89" stop-color="#0A74ED"/>
<stop offset="0.91" stop-color="#006DEC"/>
</radialGradient>
<radialGradient id="paint5_radial_400_23619" cx="0" cy="0" r="1" gradientUnits="userSpaceOnUse" gradientTransform="translate(54.2393 59.2772) scale(26.6518 26.6518)">
<stop stop-color="#B0FFFF"/>
<stop offset="0.29" stop-color="#AFFCFF"/>
<stop offset="0.43" stop-color="#ADF5FF"/>
<stop offset="0.54" stop-color="#ABE7FF"/>
<stop offset="0.62" stop-color="#A8DAFF"/>
<stop offset="0.65" stop-color="#A1D5FE"/>
<stop offset="0.7" stop-color="#8DC9FC"/>
<stop offset="0.76" stop-color="#6EB4F8"/>
<stop offset="0.82" stop-color="#4298F3"/>
<stop offset="0.89" stop-color="#0A74ED"/>
<stop offset="0.91" stop-color="#006DEC"/>
</radialGradient>
<radialGradient id="paint6_radial_400_23619" cx="0" cy="0" r="1" gradientUnits="userSpaceOnUse" gradientTransform="translate(54.2392 59.2771) scale(26.6518 26.6518)">
<stop stop-color="#B0FFFF"/>
<stop offset="0.29" stop-color="#AFFCFF"/>
<stop offset="0.43" stop-color="#ADF5FF"/>
<stop offset="0.54" stop-color="#ABE7FF"/>
<stop offset="0.62" stop-color="#A8DAFF"/>
<stop offset="0.65" stop-color="#A1D5FE"/>
<stop offset="0.7" stop-color="#8DC9FC"/>
<stop offset="0.76" stop-color="#6EB4F8"/>
<stop offset="0.82" stop-color="#4298F3"/>
<stop offset="0.89" stop-color="#0A74ED"/>
<stop offset="0.91" stop-color="#006DEC"/>
</radialGradient>
<radialGradient id="paint7_radial_400_23619" cx="0" cy="0" r="1" gradientUnits="userSpaceOnUse" gradientTransform="translate(54.2392 59.2771) scale(26.6518 26.6518)">
<stop stop-color="#B0FFFF"/>
<stop offset="0.29" stop-color="#AFFCFF"/>
<stop offset="0.43" stop-color="#ADF5FF"/>
<stop offset="0.54" stop-color="#ABE7FF"/>
<stop offset="0.62" stop-color="#A8DAFF"/>
<stop offset="0.65" stop-color="#A1D5FE"/>
<stop offset="0.7" stop-color="#8DC9FC"/>
<stop offset="0.76" stop-color="#6EB4F8"/>
<stop offset="0.82" stop-color="#4298F3"/>
<stop offset="0.89" stop-color="#0A74ED"/>
<stop offset="0.91" stop-color="#006DEC"/>
</radialGradient>
<radialGradient id="paint8_radial_400_23619" cx="0" cy="0" r="1" gradientUnits="userSpaceOnUse" gradientTransform="translate(54.2392 59.2772) scale(26.6518)">
<stop stop-color="#B0FFFF"/>
<stop offset="0.29" stop-color="#AFFCFF"/>
<stop offset="0.43" stop-color="#ADF5FF"/>
<stop offset="0.54" stop-color="#ABE7FF"/>
<stop offset="0.62" stop-color="#A8DAFF"/>
<stop offset="0.65" stop-color="#A1D5FE"/>
<stop offset="0.7" stop-color="#8DC9FC"/>
<stop offset="0.76" stop-color="#6EB4F8"/>
<stop offset="0.82" stop-color="#4298F3"/>
<stop offset="0.89" stop-color="#0A74ED"/>
<stop offset="0.91" stop-color="#006DEC"/>
</radialGradient>
<radialGradient id="paint9_radial_400_23619" cx="0" cy="0" r="1" gradientUnits="userSpaceOnUse" gradientTransform="translate(63.384 44.8019) scale(4.35821)">
<stop stop-color="#5E1E69"/>
<stop offset="0.56" stop-color="#531B5E"/>
<stop offset="1" stop-color="#481852"/>
</radialGradient>
<radialGradient id="paint10_radial_400_23619" cx="0" cy="0" r="1" gradientUnits="userSpaceOnUse" gradientTransform="translate(58.6632 49.6215) scale(1.99374)">
<stop stop-color="#5E1E69"/>
<stop offset="0.56" stop-color="#531B5E"/>
<stop offset="1" stop-color="#481852"/>
</radialGradient>
<radialGradient id="paint11_radial_400_23619" cx="0" cy="0" r="1" gradientUnits="userSpaceOnUse" gradientTransform="translate(59.6519 60.101) scale(5.42511)">
<stop stop-color="#5E1E69"/>
<stop offset="0.56" stop-color="#531B5E"/>
<stop offset="1" stop-color="#481852"/>
</radialGradient>
<radialGradient id="paint12_radial_400_23619" cx="0" cy="0" r="1" gradientUnits="userSpaceOnUse" gradientTransform="translate(79.7706 61.3698) scale(3.39842 3.39842)">
<stop stop-color="#5E1E69"/>
<stop offset="0.56" stop-color="#531B5E"/>
<stop offset="1" stop-color="#481852"/>
</radialGradient>
<radialGradient id="paint13_radial_400_23619" cx="0" cy="0" r="1" gradientUnits="userSpaceOnUse" gradientTransform="translate(66.3499 65.6826) scale(5.95238)">
<stop stop-color="#5E1E69"/>
<stop offset="0.56" stop-color="#531B5E"/>
<stop offset="1" stop-color="#481852"/>
</radialGradient>
<radialGradient id="paint14_radial_400_23619" cx="0" cy="0" r="1" gradientUnits="userSpaceOnUse" gradientTransform="translate(50.1323 57.7283) scale(4.1852)">
<stop stop-color="#5E1E69"/>
<stop offset="0.56" stop-color="#531B5E"/>
<stop offset="1" stop-color="#481852"/>
</radialGradient>
<radialGradient id="paint15_radial_400_23619" cx="0" cy="0" r="1" gradientUnits="userSpaceOnUse" gradientTransform="translate(48.6781 55.6604) scale(5.80821)">
<stop stop-color="#5E1E69"/>
<stop offset="0.56" stop-color="#531B5E"/>
<stop offset="1" stop-color="#481852"/>
</radialGradient>
<radialGradient id="paint16_radial_400_23619" cx="0" cy="0" r="1" gradientUnits="userSpaceOnUse" gradientTransform="translate(46.7997 52.6039) scale(4.33762)">
<stop stop-color="#5E1E69"/>
<stop offset="0.56" stop-color="#531B5E"/>
<stop offset="1" stop-color="#481852"/>
</radialGradient>
<radialGradient id="paint17_radial_400_23619" cx="0" cy="0" r="1" gradientUnits="userSpaceOnUse" gradientTransform="translate(61.6663 71.602) scale(3.32839)">
<stop stop-color="#5E1E69"/>
<stop offset="0.56" stop-color="#531B5E"/>
<stop offset="1" stop-color="#481852"/>
</radialGradient>
<radialGradient id="paint18_radial_400_23619" cx="0" cy="0" r="1" gradientUnits="userSpaceOnUse" gradientTransform="translate(54.9024 70.8688) scale(2.22854)">
<stop stop-color="#5E1E69"/>
<stop offset="0.56" stop-color="#531B5E"/>
<stop offset="1" stop-color="#481852"/>
</radialGradient>
<radialGradient id="paint19_radial_400_23619" cx="0" cy="0" r="1" gradientUnits="userSpaceOnUse" gradientTransform="translate(50.8283 71.8904) scale(3.49316 3.49316)">
<stop stop-color="#5E1E69"/>
<stop offset="0.56" stop-color="#531B5E"/>
<stop offset="1" stop-color="#481852"/>
</radialGradient>
<radialGradient id="paint20_radial_400_23619" cx="0" cy="0" r="1" gradientUnits="userSpaceOnUse" gradientTransform="translate(55.0713 59.549) scale(4.35821)">
<stop stop-color="#5E1E69"/>
<stop offset="0.56" stop-color="#531B5E"/>
<stop offset="1" stop-color="#481852"/>
</radialGradient>
<radialGradient id="paint21_radial_400_23619" cx="0" cy="0" r="1" gradientUnits="userSpaceOnUse" gradientTransform="translate(68.8215 66.5724) scale(5.66403)">
<stop stop-color="#5E1E69"/>
<stop offset="0.56" stop-color="#531B5E"/>
<stop offset="1" stop-color="#481852"/>
</radialGradient>
<radialGradient id="paint22_radial_400_23619" cx="0" cy="0" r="1" gradientUnits="userSpaceOnUse" gradientTransform="translate(69.1222 51.1292) scale(5.99357)">
<stop stop-color="#5E1E69"/>
<stop offset="0.56" stop-color="#531B5E"/>
<stop offset="1" stop-color="#481852"/>
</radialGradient>
<radialGradient id="paint23_radial_400_23619" cx="0" cy="0" r="1" gradientUnits="userSpaceOnUse" gradientTransform="translate(60.1916 44.1017) scale(4.98847)">
<stop stop-color="#5E1E69"/>
<stop offset="0.56" stop-color="#531B5E"/>
<stop offset="1" stop-color="#481852"/>
</radialGradient>
<radialGradient id="paint24_radial_400_23619" cx="0" cy="0" r="1" gradientUnits="userSpaceOnUse" gradientTransform="translate(58.4656 76.434) scale(4.37057)">
<stop stop-color="#5E1E69"/>
<stop offset="0.56" stop-color="#531B5E"/>
<stop offset="1" stop-color="#481852"/>
</radialGradient>
<linearGradient id="paint25_linear_400_23619" x1="43.9285" y1="51.5906" x2="86.1471" y2="73.3363" gradientUnits="userSpaceOnUse">
<stop stop-color="#5E1E69"/>
<stop offset="0.29" stop-color="#53195E"/>
<stop offset="0.79" stop-color="#380D41"/>
<stop offset="1" stop-color="#2C0833"/>
</linearGradient>
<linearGradient id="paint26_linear_400_23619" x1="42.9688" y1="53.4566" x2="85.1874" y2="75.2023" gradientUnits="userSpaceOnUse">
<stop stop-color="#5E1E69"/>
<stop offset="0.29" stop-color="#53195E"/>
<stop offset="0.79" stop-color="#380D41"/>
<stop offset="1" stop-color="#2C0833"/>
</linearGradient>
<linearGradient id="paint27_linear_400_23619" x1="44.3775" y1="50.7215" x2="86.5962" y2="72.4672" gradientUnits="userSpaceOnUse">
<stop stop-color="#5E1E69"/>
<stop offset="0.29" stop-color="#53195E"/>
<stop offset="0.79" stop-color="#380D41"/>
<stop offset="1" stop-color="#2C0833"/>
</linearGradient>
<linearGradient id="paint28_linear_400_23619" x1="41.3169" y1="56.6697" x2="83.5315" y2="78.4113" gradientUnits="userSpaceOnUse">
<stop stop-color="#5E1E69"/>
<stop offset="0.29" stop-color="#53195E"/>
<stop offset="0.79" stop-color="#380D41"/>
<stop offset="1" stop-color="#2C0833"/>
</linearGradient>
<linearGradient id="paint29_linear_400_23619" x1="45.9222" y1="47.7226" x2="88.1409" y2="69.4683" gradientUnits="userSpaceOnUse">
<stop stop-color="#5E1E69"/>
<stop offset="0.29" stop-color="#53195E"/>
<stop offset="0.79" stop-color="#380D41"/>
<stop offset="1" stop-color="#2C0833"/>
</linearGradient>
<linearGradient id="paint30_linear_400_23619" x1="44.5135" y1="50.4578" x2="86.7321" y2="72.2035" gradientUnits="userSpaceOnUse">
<stop stop-color="#5E1E69"/>
<stop offset="0.29" stop-color="#53195E"/>
<stop offset="0.79" stop-color="#380D41"/>
<stop offset="1" stop-color="#2C0833"/>
</linearGradient>
<linearGradient id="paint31_linear_400_23619" x1="45.3168" y1="48.8966" x2="87.5354" y2="70.6382" gradientUnits="userSpaceOnUse">
<stop stop-color="#5E1E69"/>
<stop offset="0.29" stop-color="#53195E"/>
<stop offset="0.79" stop-color="#380D41"/>
<stop offset="1" stop-color="#2C0833"/>
</linearGradient>
<linearGradient id="paint32_linear_400_23619" x1="42.1078" y1="55.1291" x2="84.3264" y2="76.8749" gradientUnits="userSpaceOnUse">
<stop stop-color="#5E1E69"/>
<stop offset="0.29" stop-color="#53195E"/>
<stop offset="0.79" stop-color="#380D41"/>
<stop offset="1" stop-color="#2C0833"/>
</linearGradient>
<linearGradient id="paint33_linear_400_23619" x1="48.0932" y1="43.5044" x2="90.3118" y2="65.2502" gradientUnits="userSpaceOnUse">
<stop stop-color="#5E1E69"/>
<stop offset="0.29" stop-color="#53195E"/>
<stop offset="0.79" stop-color="#380D41"/>
<stop offset="1" stop-color="#2C0833"/>
</linearGradient>
<linearGradient id="paint34_linear_400_23619" x1="37.6096" y1="63.8661" x2="79.8283" y2="85.6077" gradientUnits="userSpaceOnUse">
<stop stop-color="#5E1E69"/>
<stop offset="0.29" stop-color="#53195E"/>
<stop offset="0.79" stop-color="#380D41"/>
<stop offset="1" stop-color="#2C0833"/>
</linearGradient>
<linearGradient id="paint35_linear_400_23619" x1="36.798" y1="65.4356" x2="79.0167" y2="87.1772" gradientUnits="userSpaceOnUse">
<stop stop-color="#5E1E69"/>
<stop offset="0.29" stop-color="#53195E"/>
<stop offset="0.79" stop-color="#380D41"/>
<stop offset="1" stop-color="#2C0833"/>
</linearGradient>
<linearGradient id="paint36_linear_400_23619" x1="38.6023" y1="61.9382" x2="80.8168" y2="83.684" gradientUnits="userSpaceOnUse">
<stop stop-color="#5E1E69"/>
<stop offset="0.29" stop-color="#53195E"/>
<stop offset="0.79" stop-color="#380D41"/>
<stop offset="1" stop-color="#2C0833"/>
</linearGradient>
<linearGradient id="paint37_linear_400_23619" x1="50.5524" y1="38.7384" x2="92.7669" y2="60.48" gradientUnits="userSpaceOnUse">
<stop stop-color="#5E1E69"/>
<stop offset="0.29" stop-color="#53195E"/>
<stop offset="0.79" stop-color="#380D41"/>
<stop offset="1" stop-color="#2C0833"/>
</linearGradient>
<linearGradient id="paint38_linear_400_23619" x1="50.9313" y1="37.9968" x2="93.15" y2="59.7426" gradientUnits="userSpaceOnUse">
<stop stop-color="#5E1E69"/>
<stop offset="0.29" stop-color="#53195E"/>
<stop offset="0.79" stop-color="#380D41"/>
<stop offset="1" stop-color="#2C0833"/>
</linearGradient>
<linearGradient id="paint39_linear_400_23619" x1="37.626" y1="63.8332" x2="79.8405" y2="85.5789" gradientUnits="userSpaceOnUse">
<stop stop-color="#5E1E69"/>
<stop offset="0.29" stop-color="#53195E"/>
<stop offset="0.79" stop-color="#380D41"/>
<stop offset="1" stop-color="#2C0833"/>
</linearGradient>
<linearGradient id="paint40_linear_400_23619" x1="37.6425" y1="63.796" x2="79.8611" y2="85.5418" gradientUnits="userSpaceOnUse">
<stop stop-color="#5E1E69"/>
<stop offset="0.29" stop-color="#53195E"/>
<stop offset="0.79" stop-color="#380D41"/>
<stop offset="1" stop-color="#2C0833"/>
</linearGradient>
<linearGradient id="paint41_linear_400_23619" x1="43.4425" y1="51.6524" x2="77.4803" y2="51.6524" gradientUnits="userSpaceOnUse">
<stop offset="0.02" stop-color="#CB3300"/>
<stop offset="1"/>
</linearGradient>
<radialGradient id="paint42_radial_400_23619" cx="0" cy="0" r="1" gradientUnits="userSpaceOnUse" gradientTransform="translate(55.815 52.0637) rotate(45) scale(11.2626 17.0043)">
<stop stop-color="#FF3D00"/>
<stop offset="0.27" stop-color="#B62B00"/>
<stop offset="0.78" stop-color="#340C00"/>
<stop offset="1"/>
</radialGradient>
<clipPath id="clip0_400_23619">
<rect width="50" height="50" fill="white" transform="translate(37 37)"/>
</clipPath>
</defs>
</svg>
