<svg width="286" height="286" viewBox="0 0 286 286" fill="none" xmlns="http://www.w3.org/2000/svg">
<g opacity="0.5" filter="url(#filter0_f_559_38312)">
<circle cx="143" cy="143" r="68" fill="url(#paint0_radial_559_38312)"/>
</g>
<g clip-path="url(#clip0_559_38312)">
<path d="M145.14 104.957L141.899 110.145L132.359 115.078L122.156 117.29L116.061 115.353L119.73 109.849L125.133 106.7L132.441 104.091L139.626 103L145.14 104.957Z" fill="#9B95F2"/>
<path opacity="0.55" d="M119.751 109.849H119.73L116.061 115.343L122.156 117.29L132.369 115.078L139.861 111.195C136.884 112.255 120.332 115.211 119.751 109.849Z" fill="#D3D0F9"/>
<path d="M141.899 110.145L132.359 115.078L122.156 117.29L116.061 115.353L122.258 116.617L132.135 114.436L141.899 110.145Z" fill="white"/>
<path d="M145.14 104.957L141.899 110.145L152.275 121.999L159.991 111.918L145.14 104.957Z" fill="url(#paint1_linear_559_38312)"/>
<path opacity="0.72" d="M152.071 118.095C150.165 118.248 141.899 110.145 141.899 110.145L152.285 121.999L160.001 111.918C160.001 111.918 153.988 117.942 152.082 118.085L152.071 118.095Z" fill="#430282"/>
<path d="M141.899 110.145L132.359 115.078L137.894 130.01L152.275 121.999L141.899 110.145Z" fill="url(#paint2_linear_559_38312)"/>
<path opacity="0.55" d="M139.82 125.678C137.17 124.843 132.369 115.078 132.369 115.078L137.904 130.01L152.285 121.999C152.285 121.999 143.143 126.718 139.82 125.678Z" fill="#7A0387"/>
<path d="M132.359 115.078L122.156 117.29L121.412 133.262L137.894 130.01L132.359 115.078Z" fill="#7824BA"/>
<path d="M132.359 115.078L122.156 117.29L137.894 130.01L132.359 115.078Z" fill="#746BEE"/>
<path d="M127.966 116.026L122.146 117.29L121.402 133.262L129.811 131.6C129.352 126.382 128.914 121.163 127.956 116.026H127.966Z" fill="url(#paint3_linear_559_38312)"/>
<path d="M122.156 117.29L116.061 115.353L109.334 130.01L121.412 133.262L122.156 117.29Z" fill="#9157DD"/>
<path d="M120.016 129.368C118.569 131.559 116.112 131.121 111.984 130.734L121.412 133.272L122.156 117.3L120.016 129.368Z" fill="#430282"/>
<path d="M152.275 121.999L145.732 148.846C146.139 148.632 146.537 148.255 146.863 147.643L159.991 111.918L152.275 121.999Z" fill="#9641F9"/>
<path d="M121.412 133.262L109.344 130.01L143.459 148.856C143.459 148.856 144.009 149.121 144.712 149.101C145.416 149.08 121.422 133.262 121.422 133.262H121.412Z" fill="#B43AC1"/>
<path d="M152.275 121.999L137.894 130.01L145.304 149.009C145.721 148.887 146.16 148.632 146.537 148.153C146.659 148 152.275 121.989 152.275 121.989V121.999Z" fill="#9F15AA"/>
<path d="M152.275 121.999L137.894 130.01L145.304 149.009C145.721 148.887 146.16 148.632 146.537 148.153C146.598 148.071 143.785 132.263 143.785 132.263L152.275 121.989V121.999Z" fill="#49379E"/>
<path d="M137.894 130.01L121.402 133.262C121.402 133.262 143.724 148.999 144.142 149.07C144.58 149.142 145.161 149.142 145.732 148.846L137.894 130.01Z" fill="#EE71DE"/>
<path d="M137.894 130.01L121.402 133.262L134.805 135.188C134.805 135.188 143.928 149.029 144.142 149.06C144.58 149.131 145.161 149.131 145.732 148.836L137.894 130V130.01Z" fill="#9D41A2"/>
<path d="M122.482 133.69L121.096 139.173L114.084 146.237L105.695 151.078L99.7735 151.099L101.455 145.207L105.318 140.886L111.026 136.513L117.06 133.516L122.482 133.69Z" fill="#FFF35F"/>
<path opacity="0.55" d="M101.476 145.197H101.455L99.7837 151.099H105.706L114.084 146.237L119.598 140.692C117.264 142.465 103.504 149.763 101.476 145.197Z" fill="#FFFBB3"/>
<path d="M121.096 139.173L114.084 146.237L105.695 151.078L99.7735 151.099L105.604 150.456L113.696 145.727L121.096 139.173Z" fill="white"/>
<path d="M122.482 133.69L121.096 139.173L133.623 146.695L137.557 135.616L122.482 133.69Z" fill="url(#paint4_linear_559_38312)"/>
<path opacity="0.84" d="M132.318 143.301C130.677 143.974 121.096 139.173 121.096 139.173L133.623 146.695L137.567 135.616C137.567 135.616 133.969 142.639 132.328 143.301H132.318Z" fill="#D84800"/>
<path d="M121.096 139.173L114.084 146.237L123.196 157.846L133.623 146.695L121.096 139.173Z" fill="url(#paint5_linear_559_38312)"/>
<path opacity="0.55" d="M123.665 153.473C121.086 153.494 114.084 146.237 114.084 146.237L123.206 157.846L133.623 146.695C133.623 146.695 126.896 153.453 123.665 153.473Z" fill="#C64802"/>
<path d="M114.084 146.237L105.695 151.078L109.569 165.388L123.196 157.846L114.084 146.237Z" fill="#FFB000"/>
<path d="M114.084 146.237L105.695 151.078L123.196 157.846L114.084 146.237Z" fill="#FCF9CA"/>
<path d="M110.476 148.326L105.695 151.088L109.569 165.388L116.52 161.536C114.644 157.061 112.769 152.587 110.476 148.326Z" fill="url(#paint6_linear_559_38312)"/>
<path d="M105.695 151.078L99.7735 151.099L98 165.939L109.569 165.388L105.695 151.078Z" fill="#FFE600"/>
<path d="M107.234 162.341C106.582 164.685 104.279 165.001 100.538 165.817L109.569 165.378L105.695 151.078L107.234 162.331V162.341Z" fill="#F9C900"/>
<path d="M133.623 146.695L135.458 172.238C135.753 171.932 135.998 171.494 136.11 170.852L137.557 135.616L133.613 146.695H133.623Z" fill="#ED6500"/>
<path d="M109.569 165.388L98 165.949L133.439 172.911C133.439 172.911 134 172.992 134.612 172.768C135.223 172.554 109.569 165.388 109.569 165.388Z" fill="#CC5200"/>
<path d="M133.623 146.695L123.206 157.846L135.131 172.513C135.468 172.289 135.784 171.942 135.977 171.412C136.039 171.249 133.633 146.706 133.633 146.706L133.623 146.695Z" fill="#C65000"/>
<path d="M133.623 146.695L123.206 157.846L135.131 172.513C135.468 172.289 135.784 171.942 135.977 171.412C136.008 171.321 129.046 158.172 129.046 158.172L133.633 146.706L133.623 146.695Z" fill="#A53407"/>
<path d="M123.196 157.846L109.569 165.388C109.569 165.388 133.725 172.941 134.112 172.89C134.52 172.829 135.04 172.666 135.447 172.248L123.186 157.856L123.196 157.846Z" fill="#F98E00"/>
<path d="M123.196 157.846L109.569 165.388L121.942 163.289C121.942 163.289 133.918 172.911 134.112 172.88C134.52 172.819 135.04 172.656 135.447 172.238L123.186 157.846H123.196Z" fill="#F2680A"/>
<path d="M186.757 158.04L180.182 157.713L170.55 151.343L163.12 142.924L161.754 136.177L168.838 136.737L174.638 140.162L180.916 145.656L185.707 151.832L186.757 158.04Z" fill="#FFBBD0"/>
<path opacity="0.55" d="M168.848 136.758V136.737L161.754 136.177L163.12 142.914L170.55 151.343L178.123 156.348C175.565 154.095 164.119 140.111 168.848 136.758Z" fill="#FFE1EB"/>
<path d="M180.182 157.713L170.55 151.343L163.12 142.924L161.754 136.177L163.813 142.669L171.04 150.793L180.182 157.713Z" fill="white"/>
<path d="M186.757 158.04L180.182 157.713L174.495 173.685L188 175.632L186.757 158.04Z" fill="url(#paint7_linear_559_38312)"/>
<path opacity="0.73" d="M178.052 171.433C176.911 169.72 180.182 157.713 180.182 157.713L174.495 173.685L188 175.642C188 175.642 179.194 173.155 178.052 171.443V171.433Z" fill="#630121"/>
<path d="M180.182 157.713L170.55 151.343L159.43 164.369L174.495 173.685L180.182 157.713Z" fill="url(#paint8_linear_559_38312)"/>
<path opacity="0.55" d="M164.506 163.9C163.905 160.975 170.55 151.343 170.55 151.343L159.43 164.369L174.495 173.675C174.495 173.675 165.271 167.57 164.506 163.89V163.9Z" fill="#AA003F"/>
<path d="M170.55 151.343L163.12 142.924L147.729 150.599L159.43 164.369L170.55 151.343Z" fill="#E53C73"/>
<path d="M170.55 151.343L163.12 142.924L159.43 164.369L170.55 151.343Z" fill="#FFA1BF"/>
<path d="M167.36 147.725L163.13 142.924L147.74 150.599L153.702 157.632C158.36 154.472 163.028 151.313 167.36 147.725Z" fill="url(#paint9_linear_559_38312)"/>
<path d="M163.12 142.924L161.754 136.177L144.457 137.553L147.729 150.599L163.12 142.924Z" fill="#F96B92"/>
<path d="M150.665 147.246C147.852 147.032 146.975 144.494 145.171 140.417L147.729 150.599L163.12 142.924L150.665 147.246Z" fill="#D82762"/>
<path d="M174.495 173.685L145.854 181.615C146.272 181.88 146.822 182.063 147.576 182.043L188 175.642L174.495 173.685Z" fill="#AF083E"/>
<path d="M147.729 150.599L144.447 137.563L144.631 179.475C144.631 179.475 144.672 180.137 145.059 180.789C145.446 181.442 147.729 150.599 147.729 150.599Z" fill="#E52C77"/>
<path d="M174.495 173.685L159.43 164.379L145.467 181.299C145.803 181.635 146.272 181.9 146.924 182.002C147.128 182.033 174.505 173.675 174.505 173.675L174.495 173.685Z" fill="#93022C"/>
<path d="M174.495 173.685L159.43 164.379L145.467 181.299C145.803 181.635 146.272 181.9 146.924 182.002C147.036 182.023 160.409 171.086 160.409 171.086L174.505 173.675L174.495 173.685Z" fill="#770122"/>
<path d="M159.43 164.369L147.74 150.589C147.74 150.589 144.661 179.801 144.824 180.229C144.988 180.677 145.293 181.228 145.864 181.605L159.441 164.369H159.43Z" fill="#C1003B"/>
<path d="M159.43 164.369L147.74 150.589L152.958 164.196C152.958 164.196 144.743 180.025 144.824 180.239C144.988 180.687 145.293 181.238 145.864 181.615L159.441 164.379L159.43 164.369Z" fill="#A50233"/>
</g>
<path opacity="0.5" d="M211 143C211 180.555 180.555 211 143 211C105.445 211 75 180.555 75 143" stroke="url(#paint10_linear_559_38312)"/>
<defs>
<filter id="filter0_f_559_38312" x="0" y="0" width="286" height="286" filterUnits="userSpaceOnUse" color-interpolation-filters="sRGB">
<feFlood flood-opacity="0" result="BackgroundImageFix"/>
<feBlend mode="normal" in="SourceGraphic" in2="BackgroundImageFix" result="shape"/>
<feGaussianBlur stdDeviation="37.5" result="effect1_foregroundBlur_559_38312"/>
</filter>
<radialGradient id="paint0_radial_559_38312" cx="0" cy="0" r="1" gradientUnits="userSpaceOnUse" gradientTransform="translate(143 143) rotate(90) scale(68)">
<stop stop-color="#38ACCF"/>
<stop offset="1" stop-color="#38ACCF" stop-opacity="0"/>
</radialGradient>
<linearGradient id="paint1_linear_559_38312" x1="143.735" y1="115.257" x2="159.217" y2="109.726" gradientUnits="userSpaceOnUse">
<stop stop-color="#9873C0"/>
<stop offset="1" stop-color="#EE6BDD"/>
</linearGradient>
<linearGradient id="paint2_linear_559_38312" x1="131.618" y1="117.334" x2="151.629" y2="123.963" gradientUnits="userSpaceOnUse">
<stop stop-color="#7746AB"/>
<stop offset="1" stop-color="#EE6EDE"/>
</linearGradient>
<linearGradient id="paint3_linear_559_38312" x1="127.48" y1="132.44" x2="122.075" y2="117.313" gradientUnits="userSpaceOnUse">
<stop stop-color="#EEC0FF"/>
<stop offset="1" stop-color="white"/>
</linearGradient>
<linearGradient id="paint4_linear_559_38312" x1="124.16" y1="143.174" x2="136.246" y2="133.911" gradientUnits="userSpaceOnUse">
<stop stop-color="#FFC127"/>
<stop offset="1" stop-color="#FF6D00"/>
</linearGradient>
<linearGradient id="paint5_linear_559_38312" x1="114.057" y1="148.44" x2="133.603" y2="148.624" gradientUnits="userSpaceOnUse">
<stop stop-color="#FFB600"/>
<stop offset="1" stop-color="#FF9100"/>
</linearGradient>
<linearGradient id="paint6_linear_559_38312" x1="114.684" y1="162.946" x2="105.631" y2="151.135" gradientUnits="userSpaceOnUse">
<stop stop-color="#FFF9C5"/>
<stop offset="1" stop-color="white"/>
</linearGradient>
<linearGradient id="paint7_linear_559_38312" x1="176.34" y1="162.114" x2="189.644" y2="173.749" gradientUnits="userSpaceOnUse">
<stop stop-color="#FC7AA3"/>
<stop offset="1" stop-color="#D80049"/>
</linearGradient>
<linearGradient id="paint8_linear_559_38312" x1="168.045" y1="151.827" x2="172.302" y2="174.1" gradientUnits="userSpaceOnUse">
<stop stop-color="#EB568C"/>
<stop offset="1" stop-color="#C90C4A"/>
</linearGradient>
<linearGradient id="paint9_linear_559_38312" x1="151.68" y1="155.863" x2="163.052" y2="142.858" gradientUnits="userSpaceOnUse">
<stop stop-color="#FFE6F7"/>
<stop offset="1" stop-color="white"/>
</linearGradient>
<linearGradient id="paint10_linear_559_38312" x1="139.5" y1="143" x2="143" y2="270" gradientUnits="userSpaceOnUse">
<stop stop-color="#38ACCF" stop-opacity="0"/>
<stop offset="1" stop-color="#38ACCF" stop-opacity="0.58"/>
</linearGradient>
<clipPath id="clip0_559_38312">
<rect width="90" height="79.043" fill="white" transform="translate(98 103)"/>
</clipPath>
</defs>
</svg>
