<svg width="68" height="62" viewBox="0 0 68 62" fill="none" xmlns="http://www.w3.org/2000/svg">
<g clip-path="url(#clip0_476_25868)">
<path opacity="0.15" fill-rule="evenodd" clip-rule="evenodd" d="M43.8045 14.967C45.135 13.5573 46.4655 12.1397 47.7881 10.722L47.9307 10.5716L56.2859 18.9268L56.1354 19.0693C54.7178 20.3919 53.3002 21.7224 51.8905 23.0529C51.3995 23.5202 51.3123 24.2646 51.6925 24.8269L51.7875 24.9615C53.2685 27.1711 55.2246 30.8617 55.0662 33.5781C55.0346 34.1087 54.9158 34.6235 54.6861 35.1066C54.5673 35.36 54.3297 35.6372 54.1555 35.851C53.9733 36.0649 53.7833 36.2787 53.5932 36.4846C52.7775 37.3795 51.7954 38.1161 50.9243 38.9555C48.5246 41.2601 45.9111 43.3509 43.3848 45.5209C40.8426 47.6988 39.124 49.1877 36.4709 51.231C35.5047 51.9754 34.5306 52.704 33.5248 53.393C33.2872 53.5514 33.0576 53.7177 32.82 53.8682C32.5824 54.0187 32.3052 54.1929 32.0439 54.2959C27.593 55.2225 21.8988 50.8033 18.9844 47.881C16.07 44.9586 11.6508 39.2723 12.5616 34.8532C12.6724 34.5601 12.8467 34.2829 12.9971 34.0454C13.1476 33.8078 13.3139 33.5702 13.4723 33.3405C14.1534 32.3347 14.8899 31.3606 15.6344 30.3944C17.6776 27.7334 19.1665 26.0228 21.3444 23.4806C23.5065 20.9542 25.5973 18.3407 27.9098 15.9411C28.7493 15.0699 29.4858 14.0879 30.3807 13.2722C30.5867 13.0821 30.8005 12.892 31.0143 12.7099C31.2281 12.5277 31.5053 12.298 31.7588 12.1792C32.2419 11.9496 32.7566 11.8308 33.2872 11.7991C36.0037 11.6407 39.6942 13.5969 41.9038 15.0778L42.0384 15.1729C42.6007 15.553 43.3452 15.4659 43.8124 14.9749L43.8045 14.967Z" fill="url(#paint0_linear_476_25868)"/>
<path fill-rule="evenodd" clip-rule="evenodd" d="M35.4968 34.7264C25.4231 34.7264 17.2579 32.2714 17.2579 29.2461C17.2579 28.8184 17.4163 28.4066 17.7172 28.0106C15.7769 30.4974 14.1217 32.7861 13.1793 34.4017C12.419 35.7164 12.2131 36.54 12.6962 38.314C13.6782 41.9254 16.7907 45.711 18.9606 47.8889C21.1306 50.0589 24.9241 53.1713 28.5275 54.1533C30.3015 54.6364 31.1331 54.4384 32.4398 53.6702C37.746 50.5816 50.3303 39.7712 53.419 36.3579C54.2822 35.4075 54.7653 34.9086 54.8445 33.5702C54.9316 32.105 54.3772 30.331 53.617 28.6758C53.6803 28.8659 53.712 29.056 53.712 29.2461C53.712 32.2714 45.5468 34.7264 35.4731 34.7264H35.4968Z" fill="url(#paint1_linear_476_25868)"/>
<g opacity="0.65">
<path style="mix-blend-mode:screen" opacity="0.45" fill-rule="evenodd" clip-rule="evenodd" d="M21.0514 37.6329C21.0514 39.0822 19.8793 40.2543 18.43 40.2543C16.9807 40.2543 15.8086 39.0822 15.8086 37.6329C15.8086 36.1836 16.9807 35.0115 18.43 35.0115C19.8793 35.0115 21.0514 36.1836 21.0514 37.6329Z" fill="url(#paint2_radial_476_25868)"/>
<path style="mix-blend-mode:screen" fill-rule="evenodd" clip-rule="evenodd" d="M18.43 35.7718C19.3962 35.7718 20.1327 36.3579 20.1327 37.2924C20.1327 38.2269 19.2616 38.8526 18.43 38.8526C17.5985 38.8526 16.7273 38.2269 16.7273 37.2924C16.7273 36.3579 17.4559 35.7718 18.43 35.7718Z" fill="url(#paint3_radial_476_25868)"/>
<path style="mix-blend-mode:screen" fill-rule="evenodd" clip-rule="evenodd" d="M18.43 35.7322C19.5308 35.7322 20.3307 36.5796 20.3307 37.6329C20.3307 38.6862 19.5625 39.5336 18.43 39.5336C17.2975 39.5336 16.5293 38.6862 16.5293 37.6329C16.5293 36.5796 17.3292 35.7322 18.43 35.7322Z" fill="url(#paint4_radial_476_25868)"/>
</g>
<g opacity="0.65">
<path style="mix-blend-mode:screen" opacity="0.45" fill-rule="evenodd" clip-rule="evenodd" d="M33.1843 40.7612C33.1843 43.2876 31.141 45.3308 28.6147 45.3308C26.0883 45.3308 24.045 43.2876 24.045 40.7612C24.045 38.2348 26.0883 36.1916 28.6147 36.1916C31.141 36.1916 33.1843 38.2348 33.1843 40.7612Z" fill="url(#paint5_radial_476_25868)"/>
<path style="mix-blend-mode:screen" fill-rule="evenodd" clip-rule="evenodd" d="M28.6147 37.5141C30.3015 37.5141 31.5766 38.5278 31.5766 40.1672C31.5766 41.8066 30.056 42.8836 28.6147 42.8836C27.1733 42.8836 25.6527 41.7987 25.6527 40.1672C25.6527 38.5358 26.9278 37.5141 28.6147 37.5141Z" fill="url(#paint6_radial_476_25868)"/>
<path style="mix-blend-mode:screen" fill-rule="evenodd" clip-rule="evenodd" d="M28.6147 37.4508C30.5313 37.4508 31.9251 38.9317 31.9251 40.7612C31.9251 42.5906 30.5867 44.0716 28.6147 44.0716C26.6427 44.0716 25.3043 42.5906 25.3043 40.7612C25.3043 38.9317 26.6903 37.4508 28.6147 37.4508Z" fill="url(#paint7_radial_476_25868)"/>
</g>
<g opacity="0.65">
<path style="mix-blend-mode:screen" opacity="0.45" fill-rule="evenodd" clip-rule="evenodd" d="M27.7672 44.4834C27.7672 45.6793 26.7931 46.6534 25.5972 46.6534C24.4014 46.6534 23.4272 45.6793 23.4272 44.4834C23.4272 43.2875 24.4014 42.3134 25.5972 42.3134C26.7931 42.3134 27.7672 43.2875 27.7672 44.4834Z" fill="url(#paint8_radial_476_25868)"/>
<path style="mix-blend-mode:screen" fill-rule="evenodd" clip-rule="evenodd" d="M25.5972 42.9391C26.3971 42.9391 27.0069 43.4222 27.0069 44.1983C27.0069 44.9744 26.2862 45.4892 25.5972 45.4892C24.9082 45.4892 24.1875 44.9744 24.1875 44.1983C24.1875 43.4222 24.7973 42.9391 25.5972 42.9391Z" fill="url(#paint9_radial_476_25868)"/>
<path style="mix-blend-mode:screen" fill-rule="evenodd" clip-rule="evenodd" d="M25.5972 42.9074C26.508 42.9074 27.1733 43.6123 27.1733 44.4834C27.1733 45.3546 26.5318 46.0594 25.5972 46.0594C24.6627 46.0594 24.0212 45.3546 24.0212 44.4834C24.0212 43.6123 24.6786 42.9074 25.5972 42.9074Z" fill="url(#paint10_radial_476_25868)"/>
</g>
<g opacity="0.25">
<path style="mix-blend-mode:screen" opacity="0.45" d="M43.5828 41.8541C45.3017 41.8541 46.6952 40.4606 46.6952 38.7417C46.6952 37.0227 45.3017 35.6293 43.5828 35.6293C41.8638 35.6293 40.4703 37.0227 40.4703 38.7417C40.4703 40.4606 41.8638 41.8541 43.5828 41.8541Z" fill="url(#paint11_radial_476_25868)"/>
<path style="mix-blend-mode:screen" fill-rule="evenodd" clip-rule="evenodd" d="M43.5827 36.5321C44.7311 36.5321 45.6022 37.2211 45.6022 38.3378C45.6022 39.4544 44.5648 40.191 43.5827 40.191C42.6007 40.191 41.5632 39.4544 41.5632 38.3378C41.5632 37.2211 42.4344 36.5321 43.5827 36.5321Z" fill="url(#paint12_radial_476_25868)"/>
<path style="mix-blend-mode:screen" fill-rule="evenodd" clip-rule="evenodd" d="M43.5828 36.4846C44.8895 36.4846 45.832 37.4904 45.832 38.7338C45.832 39.9771 44.9212 40.9829 43.5828 40.9829C42.2444 40.9829 41.3336 39.9771 41.3336 38.7338C41.3336 37.4904 42.2761 36.4846 43.5828 36.4846Z" fill="url(#paint13_radial_476_25868)"/>
</g>
<g opacity="0.35">
<path style="mix-blend-mode:screen" opacity="0.45" fill-rule="evenodd" clip-rule="evenodd" d="M37.7697 47.0019C37.7697 48.2056 36.7956 49.1798 35.5918 49.1798C34.3881 49.1798 33.4139 48.2056 33.4139 47.0019C33.4139 45.7981 34.3881 44.824 35.5918 44.824C36.7956 44.824 37.7697 45.7981 37.7697 47.0019Z" fill="url(#paint14_radial_476_25868)"/>
<path style="mix-blend-mode:screen" fill-rule="evenodd" clip-rule="evenodd" d="M35.5918 45.4496C36.3996 45.4496 37.0015 45.9327 37.0015 46.7168C37.0015 47.5008 36.2729 48.0156 35.5918 48.0156C34.9107 48.0156 34.1821 47.5008 34.1821 46.7168C34.1821 45.9327 34.7919 45.4496 35.5918 45.4496Z" fill="url(#paint15_radial_476_25868)"/>
<path style="mix-blend-mode:screen" fill-rule="evenodd" clip-rule="evenodd" d="M35.5919 45.4179C36.5106 45.4179 37.1679 46.1228 37.1679 46.9939C37.1679 47.8651 36.5264 48.57 35.5919 48.57C34.6574 48.57 34.0159 47.8651 34.0159 46.9939C34.0159 46.1228 34.6811 45.4179 35.5919 45.4179Z" fill="url(#paint16_radial_476_25868)"/>
</g>
<mask id="mask0_476_25868" style="mask-type:luminance" maskUnits="userSpaceOnUse" x="12" y="28" width="43" height="27">
<path d="M35.4968 34.7264C25.4231 34.7264 17.2579 32.2714 17.2579 29.2461C17.2579 28.8184 17.4163 28.4066 17.7172 28.0106C15.7769 30.4974 14.1217 32.7861 13.1793 34.4017C12.419 35.7164 12.2131 36.54 12.6962 38.314C13.6782 41.9254 16.7907 45.711 18.9606 47.8889C21.1306 50.0589 24.9241 53.1713 28.5275 54.1533C30.3015 54.6364 31.1331 54.4384 32.4398 53.6702C37.746 50.5816 50.3303 39.7712 53.419 36.3579C54.2822 35.4075 54.7653 34.9086 54.8445 33.5702C54.9316 32.105 54.3772 30.331 53.617 28.6758C53.6803 28.8659 53.712 29.056 53.712 29.2461C53.712 32.2714 45.5468 34.7264 35.4731 34.7264H35.4968Z" fill="white"/>
</mask>
<g mask="url(#mask0_476_25868)">
<path style="mix-blend-mode:multiply" fill-rule="evenodd" clip-rule="evenodd" d="M35.4968 34.7264C25.4231 34.7264 17.2579 32.2714 17.2579 29.2461C17.2579 28.8184 17.4163 28.4066 17.7172 28.0106C15.7769 30.4974 14.1217 32.7861 13.1793 34.4017C12.419 35.7164 12.2131 36.54 12.6962 38.314C13.6782 41.9254 16.7907 45.711 18.9606 47.8889C21.1306 50.0589 24.9241 53.1713 28.5275 54.1533C30.3015 54.6364 31.1331 54.4384 32.4398 53.6702C37.746 50.5816 50.3303 39.7712 53.419 36.3579C54.2822 35.4075 54.7653 34.9086 54.8445 33.5702C54.9316 32.105 54.3772 30.331 53.617 28.6758C53.6803 28.8659 53.712 29.056 53.712 29.2461C53.712 32.2714 45.5468 34.7264 35.4731 34.7264H35.4968Z" fill="url(#paint17_radial_476_25868)"/>
</g>
<path fill-rule="evenodd" clip-rule="evenodd" d="M35.4969 23.7578C45.5706 23.7578 53.7358 26.2128 53.7358 29.2381C53.7358 32.2634 45.5706 34.7185 35.4969 34.7185C25.4231 34.7185 17.2579 32.2634 17.2579 29.2381C17.2579 26.2128 25.4231 23.7578 35.4969 23.7578Z" fill="url(#paint18_radial_476_25868)"/>
<g style="mix-blend-mode:screen">
<path fill-rule="evenodd" clip-rule="evenodd" d="M37.9044 36.3262C37.9123 36.2153 38.0074 36.1916 38.1024 36.2074C38.2133 36.2232 38.2766 36.342 38.2608 36.445C38.2529 36.5321 38.1261 36.5717 38.0549 36.5479C37.944 36.5083 37.8886 36.445 37.9044 36.3262Z" fill="#18FFFF"/>
</g>
<g style="mix-blend-mode:screen">
<path fill-rule="evenodd" clip-rule="evenodd" d="M37.0887 38.9872C37.0966 38.8763 37.1917 38.8526 37.2867 38.8684C37.3976 38.8842 37.4609 39.003 37.4451 39.106C37.4372 39.1931 37.3105 39.2327 37.2392 39.209C37.1283 39.1694 37.0729 39.106 37.0887 38.9872Z" fill="#18FFFF"/>
</g>
<g style="mix-blend-mode:screen" opacity="0.5">
<path fill-rule="evenodd" clip-rule="evenodd" d="M50.75 28.5808C50.75 28.4937 50.8292 28.4778 50.9084 28.4937C50.9955 28.5095 51.043 28.5966 51.0351 28.6758C51.0351 28.7392 50.9322 28.7709 50.8767 28.755C50.7896 28.7234 50.75 28.6758 50.7579 28.5808H50.75Z" fill="#18FFFF"/>
</g>
<g style="mix-blend-mode:screen" opacity="0.6">
<path fill-rule="evenodd" clip-rule="evenodd" d="M24.9875 40.0167C24.9954 39.898 25.0905 39.8742 25.1934 39.89C25.3122 39.9059 25.3756 40.0247 25.3597 40.1355C25.3518 40.2227 25.2172 40.2702 25.1459 40.2385C25.035 40.1989 24.9717 40.1276 24.9875 40.0088V40.0167Z" fill="#18FFFF"/>
</g>
<g style="mix-blend-mode:screen" opacity="0.5">
<path fill-rule="evenodd" clip-rule="evenodd" d="M41.2861 37.8626C41.294 37.7438 41.3891 37.72 41.492 37.7359C41.6108 37.7517 41.6742 37.8705 41.6583 37.9893C41.6504 38.0764 41.5158 38.124 41.4445 38.0923C41.3336 38.0527 41.2703 37.9814 41.2861 37.8626Z" fill="#18FFFF"/>
</g>
<g style="mix-blend-mode:screen" opacity="0.5">
<path fill-rule="evenodd" clip-rule="evenodd" d="M44.5807 28.3432C44.5886 28.2244 44.6836 28.2006 44.7866 28.2165C44.9054 28.2323 44.9687 28.3511 44.9529 28.462C44.945 28.5491 44.8103 28.5966 44.739 28.5649C44.6282 28.5253 44.5648 28.4541 44.5807 28.3353V28.3432Z" fill="#18FFFF"/>
</g>
<g style="mix-blend-mode:screen" opacity="0.5">
<path fill-rule="evenodd" clip-rule="evenodd" d="M47.5426 38.219C47.5505 38.1002 47.6455 38.0764 47.7485 38.0923C47.8673 38.1081 47.9306 38.2269 47.9148 38.3378C47.9069 38.4249 47.7722 38.4724 47.701 38.4407C47.5901 38.4011 47.5267 38.3299 47.5426 38.2111V38.219Z" fill="#18FFFF"/>
</g>
<g style="mix-blend-mode:screen" opacity="0.5">
<path fill-rule="evenodd" clip-rule="evenodd" d="M32.2894 32.9207C32.2973 32.8019 32.3924 32.7782 32.4953 32.794C32.6141 32.8099 32.6775 32.9287 32.6616 33.0395C32.6537 33.1266 32.5191 33.1742 32.4478 33.1425C32.3369 33.1029 32.2736 33.0316 32.2894 32.9128V32.9207Z" fill="#18FFFF"/>
</g>
<g style="mix-blend-mode:screen">
<path fill-rule="evenodd" clip-rule="evenodd" d="M21.685 44.2775C21.7008 44.1191 21.8275 44.0874 21.9701 44.1112C22.1285 44.135 22.2235 44.3013 22.2077 44.4517C22.1918 44.5705 22.0097 44.6339 21.9067 44.5943C21.7483 44.5389 21.6691 44.4438 21.685 44.2775Z" fill="#18FFFF"/>
</g>
<g style="mix-blend-mode:screen">
<path fill-rule="evenodd" clip-rule="evenodd" d="M22.2552 29.0401C22.271 28.8817 22.3977 28.8501 22.5403 28.8738C22.6987 28.8976 22.7937 29.0639 22.7779 29.2144C22.762 29.3331 22.5799 29.3965 22.4769 29.3569C22.3185 29.3015 22.2393 29.2064 22.2552 29.0401Z" fill="#18FFFF"/>
</g>
<g style="mix-blend-mode:screen">
<path fill-rule="evenodd" clip-rule="evenodd" d="M15.5393 38.4566C15.5552 38.2982 15.6819 38.2665 15.8245 38.2903C15.9828 38.314 16.0779 38.4803 16.062 38.6308C16.0462 38.7496 15.864 38.8129 15.7611 38.7734C15.6027 38.7179 15.5235 38.6229 15.5393 38.4566Z" fill="#17A027"/>
</g>
<g style="mix-blend-mode:screen">
<path fill-rule="evenodd" clip-rule="evenodd" d="M15.6978 33.6018C15.6978 33.5385 15.7532 33.5226 15.8165 33.5306C15.8799 33.5385 15.9195 33.6098 15.9116 33.6731C15.9116 33.7206 15.8324 33.7444 15.7928 33.7286C15.7294 33.7048 15.6978 33.6652 15.7057 33.6018H15.6978Z" fill="#18FFFF"/>
</g>
<g style="mix-blend-mode:screen">
<path fill-rule="evenodd" clip-rule="evenodd" d="M17.7964 33.0475C17.7964 32.9841 17.8518 32.9683 17.9152 32.9762C17.9785 32.9841 18.0181 33.0554 18.0102 33.1187C18.0102 33.1663 17.931 33.19 17.8914 33.1742C17.8281 33.1504 17.7964 33.1108 17.8043 33.0475H17.7964Z" fill="#18FFFF"/>
</g>
<g style="mix-blend-mode:screen" opacity="0.4">
<path fill-rule="evenodd" clip-rule="evenodd" d="M49.1186 34.1325C49.182 34.1008 49.3721 34.1166 49.4275 34.1325C49.4829 34.1325 49.6572 34.18 49.6968 34.2433C49.6572 34.3067 49.5938 34.3621 49.5384 34.4017C49.4909 34.4334 49.3641 34.5047 49.3087 34.4968C49.2057 34.4651 49.1107 34.275 49.1186 34.1721V34.1404V34.1325Z" fill="#18FFFF"/>
</g>
<g style="mix-blend-mode:screen" opacity="0.4">
<path fill-rule="evenodd" clip-rule="evenodd" d="M31.8379 36.152C31.8775 36.1916 31.9013 36.342 31.9013 36.3896C31.9013 36.4371 31.9092 36.5796 31.8696 36.6192C31.8142 36.6034 31.7587 36.5638 31.7112 36.5242C31.6795 36.4925 31.6003 36.4133 31.5924 36.3658C31.5924 36.2866 31.727 36.1678 31.8062 36.152H31.83H31.8379Z" fill="#18FFFF"/>
</g>
<g style="mix-blend-mode:screen">
<path fill-rule="evenodd" clip-rule="evenodd" d="M29.8898 38.3457C29.9214 38.2824 30.0798 38.1873 30.1353 38.1636C30.1828 38.1398 30.3491 38.0685 30.4125 38.1002C30.4125 38.1715 30.3966 38.2507 30.3729 38.322C30.357 38.3695 30.2937 38.5041 30.2382 38.5279C30.1432 38.5595 29.9531 38.4645 29.9056 38.3774L29.8898 38.3536V38.3457Z" fill="#17A027"/>
</g>
<g style="mix-blend-mode:screen">
<path fill-rule="evenodd" clip-rule="evenodd" d="M26.9041 31.9783C26.9357 31.915 27.0941 31.8199 27.1496 31.7962C27.1971 31.7724 27.3634 31.7011 27.4267 31.7328C27.4267 31.8041 27.4109 31.8833 27.3872 31.9546C27.3713 32.0021 27.308 32.1367 27.2525 32.1605C27.1575 32.1921 26.9674 32.0971 26.9199 32.01L26.9041 31.9862V31.9783Z" fill="#17A027"/>
</g>
<g style="mix-blend-mode:screen">
<path fill-rule="evenodd" clip-rule="evenodd" d="M39.4092 26.6246C39.4409 26.5613 39.5992 26.4663 39.6547 26.4425C39.7022 26.4187 39.8685 26.3475 39.9319 26.3791C39.9319 26.4504 39.916 26.5296 39.8923 26.6009C39.8764 26.6484 39.8131 26.783 39.7576 26.8068C39.6626 26.8385 39.4725 26.7434 39.425 26.6563L39.4092 26.6326V26.6246Z" fill="#17A027"/>
</g>
<g style="mix-blend-mode:screen">
<path fill-rule="evenodd" clip-rule="evenodd" d="M31.1727 42.5669C31.0935 42.6144 31.0302 42.6144 30.9906 42.5273C30.943 42.4322 30.9589 42.3689 31.0618 42.3134C31.149 42.2659 31.2123 42.2738 31.244 42.3689C31.2836 42.4718 31.2757 42.5114 31.1727 42.5669Z" fill="#18FFFF"/>
</g>
<g style="mix-blend-mode:screen">
<path fill-rule="evenodd" clip-rule="evenodd" d="M27.7356 47.1761C27.6248 47.2394 27.5376 47.2394 27.4743 47.1207C27.4109 46.986 27.4347 46.8989 27.5693 46.8276C27.696 46.7643 27.7752 46.7722 27.8228 46.9068C27.8703 47.0415 27.8624 47.1048 27.7277 47.1761H27.7356Z" fill="#18FFFF"/>
</g>
<g style="mix-blend-mode:screen">
<path fill-rule="evenodd" clip-rule="evenodd" d="M25.0825 50.5261C25.0825 50.5261 25.1538 50.5974 25.1697 50.6291C25.1855 50.6687 25.1855 50.7479 25.138 50.7716C25.0905 50.7954 25.0192 50.7479 25.0033 50.7003C24.9717 50.6291 25.035 50.5657 25.0905 50.5261H25.0825Z" fill="#18FFFF"/>
</g>
<g style="mix-blend-mode:screen">
<path fill-rule="evenodd" clip-rule="evenodd" d="M22.865 31.5982C22.865 31.5982 22.9363 31.6695 22.9521 31.7011C22.968 31.7407 22.968 31.8199 22.9205 31.8437C22.8729 31.8674 22.8017 31.8199 22.7858 31.7724C22.7541 31.7011 22.8175 31.6378 22.8729 31.5982H22.865Z" fill="#18FFFF"/>
</g>
<g style="mix-blend-mode:screen">
<path fill-rule="evenodd" clip-rule="evenodd" d="M44.446 41.9254C44.4776 42.0046 44.446 42.06 44.3747 42.0917C44.3034 42.1234 44.2321 42.0679 44.2084 42.0046C44.1846 41.9333 44.2163 41.8462 44.2876 41.8224C44.3588 41.7987 44.4222 41.8541 44.446 41.9175V41.9254Z" fill="#18FFFF"/>
</g>
<path style="mix-blend-mode:screen" fill-rule="evenodd" clip-rule="evenodd" d="M44.7707 41.965C44.7707 42.2105 44.5727 42.4085 44.3272 42.4085C44.0817 42.4085 43.8837 42.2105 43.8837 41.965C43.8837 41.7195 44.0817 41.5215 44.3272 41.5215C44.5727 41.5215 44.7707 41.7195 44.7707 41.965Z" fill="url(#paint19_radial_476_25868)"/>
<g style="mix-blend-mode:screen">
<path fill-rule="evenodd" clip-rule="evenodd" d="M47.1703 30.5924C47.202 30.6716 47.1703 30.727 47.099 30.7587C47.0278 30.7904 46.9565 30.7349 46.9327 30.6716C46.909 30.6003 46.9406 30.5132 47.0119 30.4894C47.0832 30.4657 47.1466 30.5211 47.1703 30.5844V30.5924Z" fill="#18FFFF"/>
</g>
<path style="mix-blend-mode:screen" fill-rule="evenodd" clip-rule="evenodd" d="M47.495 30.632C47.495 30.8775 47.297 31.0755 47.0515 31.0755C46.806 31.0755 46.608 30.8775 46.608 30.632C46.608 30.3865 46.806 30.1885 47.0515 30.1885C47.297 30.1885 47.495 30.3865 47.495 30.632Z" fill="url(#paint20_radial_476_25868)"/>
<g style="mix-blend-mode:screen">
<path fill-rule="evenodd" clip-rule="evenodd" d="M32.8992 47.5087C33.0496 47.4375 33.1684 47.485 33.2714 47.6117C33.3427 47.6988 33.3585 47.9126 33.2476 47.9681C33.1051 48.0393 32.9308 48.0077 32.8516 47.8651C32.7804 47.7384 32.7566 47.5879 32.9071 47.5166L32.8992 47.5087Z" fill="#18FFFF"/>
</g>
<path style="mix-blend-mode:screen" opacity="0.5" fill-rule="evenodd" clip-rule="evenodd" d="M33.8099 47.7384C33.8099 48.1502 33.4773 48.4828 33.0655 48.4828C32.6537 48.4828 32.321 48.1502 32.321 47.7384C32.321 47.3266 32.6537 46.9939 33.0655 46.9939C33.4773 46.9939 33.8099 47.3266 33.8099 47.7384Z" fill="url(#paint21_radial_476_25868)"/>
<g style="mix-blend-mode:screen">
<path fill-rule="evenodd" clip-rule="evenodd" d="M22.1206 37.3003C22.176 37.4191 22.1443 37.5062 22.0414 37.5854C21.9701 37.6409 21.8117 37.6488 21.7721 37.5617C21.7167 37.4508 21.7484 37.3161 21.8513 37.2528C21.9463 37.1974 22.0651 37.1815 22.1206 37.2924V37.3003Z" fill="#17A027"/>
</g>
<path style="mix-blend-mode:screen" fill-rule="evenodd" clip-rule="evenodd" d="M21.9463 37.9893C21.6295 37.9893 21.3761 37.7359 21.3761 37.4191C21.3761 37.1023 21.6295 36.8489 21.9463 36.8489C22.2631 36.8489 22.5165 37.1023 22.5165 37.4191C22.5165 37.7359 22.2631 37.9893 21.9463 37.9893Z" fill="url(#paint22_radial_476_25868)"/>
<path style="mix-blend-mode:screen" opacity="0.75" fill-rule="evenodd" clip-rule="evenodd" d="M33.2872 31.4635C33.6595 30.4023 35.0612 29.7212 36.7164 29.7212C38.3875 29.7212 39.8209 30.3944 40.1615 31.4794C40.2565 31.7882 40.1615 32.105 39.9239 32.3189C39.1874 32.9524 37.3104 33.1029 36.7244 33.1029C36.1383 33.1029 34.2772 32.9445 33.5327 32.3268C33.2714 32.1129 33.1843 31.7724 33.2951 31.4556L33.2872 31.4635Z" fill="url(#paint23_radial_476_25868)"/>
<path style="mix-blend-mode:screen" fill-rule="evenodd" clip-rule="evenodd" d="M33.2872 31.4635C33.6595 30.4023 35.0612 29.7212 36.7164 29.7212C38.3875 29.7212 39.8209 30.3944 40.1615 31.4794C40.2565 31.7882 40.1615 32.105 39.9239 32.3189C39.1874 32.9524 37.3104 33.1029 36.7244 33.1029C36.1383 33.1029 34.2772 32.9445 33.5327 32.3268C33.2714 32.1129 33.1843 31.7724 33.2951 31.4556L33.2872 31.4635ZM33.5803 31.4635C33.905 30.4182 35.1404 29.7529 36.5976 29.7529C38.0549 29.7529 39.3299 30.4181 39.6309 31.4794C39.718 31.7803 39.6309 32.0971 39.417 32.303C38.7676 32.9208 37.1124 33.0791 36.5976 33.0791C36.0829 33.0791 34.4435 32.9287 33.7862 32.3109C33.5565 32.0971 33.4773 31.7724 33.5723 31.4556L33.5803 31.4635Z" fill="url(#paint24_radial_476_25868)"/>
<path style="mix-blend-mode:screen" opacity="0.6" fill-rule="evenodd" clip-rule="evenodd" d="M24.7657 28.3036C24.7657 26.0148 26.6269 24.1537 28.9156 24.1537C31.2044 24.1537 33.0655 26.0148 33.0655 28.3036C33.0655 29.1985 31.2044 29.9192 28.9156 29.9192C26.6269 29.9192 24.7657 29.1985 24.7657 28.3036Z" fill="url(#paint25_radial_476_25868)"/>
<path style="mix-blend-mode:screen" fill-rule="evenodd" clip-rule="evenodd" d="M24.7657 28.3036C24.7657 26.0148 26.6269 24.1537 28.9156 24.1537C31.2044 24.1537 33.0655 26.0148 33.0655 28.3036C33.0655 29.1985 31.2044 29.9192 28.9156 29.9192C26.6269 29.9192 24.7657 29.1985 24.7657 28.3036ZM25.1221 28.2798C25.1221 26.0228 26.7694 24.2012 28.8048 24.2012C30.8401 24.2012 32.4874 26.0307 32.4874 28.2798C32.4874 29.1589 30.8401 29.8717 28.8048 29.8717C26.7694 29.8717 25.1221 29.1589 25.1221 28.2798Z" fill="url(#paint26_radial_476_25868)"/>
<path style="mix-blend-mode:screen" opacity="0.45" fill-rule="evenodd" clip-rule="evenodd" d="M42.1018 26.2683C42.1018 24.8586 43.2422 23.7181 44.6519 23.7181C46.0616 23.7181 47.2021 24.8586 47.2021 26.2683C47.2021 26.8147 46.0616 27.2661 44.6519 27.2661C43.2422 27.2661 42.1018 26.8226 42.1018 26.2683Z" fill="url(#paint27_radial_476_25868)"/>
<path style="mix-blend-mode:screen" fill-rule="evenodd" clip-rule="evenodd" d="M42.1018 26.2683C42.1018 24.8586 43.2422 23.7181 44.6519 23.7181C46.0616 23.7181 47.2021 24.8586 47.2021 26.2683C47.2021 26.8147 46.0616 27.2661 44.6519 27.2661C43.2422 27.2661 42.1018 26.8226 42.1018 26.2683ZM42.3156 26.2524C42.3156 24.8665 43.3294 23.7419 44.5807 23.7419C45.832 23.7419 46.8457 24.8665 46.8457 26.2524C46.8457 26.791 45.832 27.2345 44.5807 27.2345C43.3294 27.2345 42.3156 26.7989 42.3156 26.2524Z" fill="url(#paint28_radial_476_25868)"/>
<path opacity="0.75" fill-rule="evenodd" clip-rule="evenodd" d="M42.87 15.648C43.7016 15.4104 43.8362 15.2124 44.3826 14.6343L47.9306 10.8646L46.6714 9.60535C46.125 10.1756 43.3135 13.1929 42.775 13.7632C40.1932 12.0288 36.2729 10.033 33.1843 10.2231C32.4478 10.2706 31.7429 10.4369 31.0777 10.7458C27.894 12.2426 10.6925 32.6277 10.1619 35.1383C9.07691 40.2623 13.7416 46.4079 17.0995 49.7658C20.4574 53.1237 26.6031 57.7884 31.7271 56.7034C34.2376 56.1728 54.6148 38.9714 56.1195 35.7877C56.4363 35.1224 56.6026 34.4176 56.6422 33.681C56.8244 30.5924 54.8286 26.6801 53.1022 24.0904C53.6724 23.5439 56.6898 20.7324 57.26 20.1939L56.0007 18.9347L52.231 22.4827C51.645 23.0291 51.447 23.1638 51.2173 23.9953C50.7184 25.7535 50.5362 26.6484 48.0415 25.6743C47.3604 25.405 46.6952 25.0249 46.1408 24.6606C48.7226 26.6722 51.1539 27.5354 52.0726 26.6167C52.1835 26.5058 52.2706 26.3712 52.334 26.2128C53.6328 28.3828 55.0029 31.3447 54.8682 33.586C54.789 34.9244 54.3059 35.4234 53.4427 36.3737C50.3541 39.7792 37.7618 50.5974 32.4636 53.686C31.1489 54.4463 30.3253 54.6522 28.5513 54.1691C24.9399 53.1871 21.1544 50.0747 18.9844 47.9047C16.8144 45.7347 13.702 41.9412 12.7199 38.3299C12.2368 36.5559 12.4348 35.7243 13.203 34.4176C16.2917 29.1114 27.102 16.5271 30.5154 13.4385C31.4657 12.5752 31.9647 12.0921 33.3031 12.0129C35.5443 11.8783 38.5063 13.2484 40.6763 14.5472C40.5179 14.6106 40.3832 14.6977 40.2724 14.8085C39.3537 15.7272 40.2169 18.1506 42.2285 20.7404C41.8642 20.186 41.4841 19.5286 41.2148 18.8396C40.2328 16.345 41.1356 16.1628 42.8938 15.6639L42.87 15.648Z" fill="url(#paint29_radial_476_25868)"/>
<path fill-rule="evenodd" clip-rule="evenodd" d="M62.3602 18.4358L57.6639 22.3164C56.1592 23.5598 52.231 21.8729 48.6038 18.2457C44.9766 14.6185 43.2977 10.6904 44.5331 9.18563L48.4138 4.48929L62.3602 18.4358Z" fill="url(#paint30_radial_476_25868)"/>
<g opacity="0.45">
<path fill-rule="evenodd" clip-rule="evenodd" d="M53.6961 13.1613C51.9538 11.419 50.8847 9.542 50.9401 8.47285C50.9401 8.35406 50.8055 8.29862 50.7263 8.38574L48.0653 11.514L47.8277 11.7912C47.4159 12.6623 48.4533 14.6898 50.3144 16.5509C52.1756 18.412 54.203 19.4495 55.0741 19.0376L55.3513 18.8001L58.5113 16.1074C58.6459 15.9886 58.5825 15.7668 58.4004 15.751C57.553 15.6639 55.7473 15.2283 53.6961 13.1692V13.1613Z" fill="#7F5319"/>
</g>
<path style="mix-blend-mode:multiply" opacity="0.65" fill-rule="evenodd" clip-rule="evenodd" d="M44.5173 12.3693C46.3309 10.2627 48.1524 8.15608 49.966 6.04154L48.4138 4.48929L44.5332 9.18563C43.9867 9.85088 44.0105 10.9834 44.5173 12.3614V12.3693Z" fill="url(#paint31_linear_476_25868)"/>
<path style="mix-blend-mode:multiply" fill-rule="evenodd" clip-rule="evenodd" d="M59.5725 15.648C57.3471 17.6279 55.1296 19.6158 52.9042 21.5957C54.9712 22.752 56.761 23.0687 57.6639 22.3164L62.3602 18.4358L59.5725 15.648Z" fill="url(#paint32_linear_476_25868)"/>
<path fill-rule="evenodd" clip-rule="evenodd" d="M57.8777 8.97971C61.7266 12.8287 63.7382 17.0657 62.3602 18.4437C60.9822 19.8217 56.7531 17.8101 52.8962 13.9612C49.0473 10.1122 47.0357 5.87521 48.4137 4.4972C49.7917 3.11918 54.0208 5.13077 57.8777 8.97971Z" fill="url(#paint33_linear_476_25868)"/>
<path style="mix-blend-mode:screen" fill-rule="evenodd" clip-rule="evenodd" d="M47.994 5.51883C49.0077 10.5161 53.8308 15.0461 57.0699 17.327C53.6011 15.8144 47.9069 10.3102 47.994 5.51883Z" fill="url(#paint34_radial_476_25868)"/>
<path style="mix-blend-mode:multiply" fill-rule="evenodd" clip-rule="evenodd" d="M58.6618 16.3133L62.7879 16.9706C62.6691 15.2996 61.2832 12.7653 59.0657 10.2389L55.8265 13.4781L58.6618 16.3133Z" fill="url(#paint35_linear_476_25868)"/>
<path fill-rule="evenodd" clip-rule="evenodd" d="M56.9749 9.88253C59.5567 12.4643 60.9426 15.2679 60.0636 16.139C59.1924 17.0102 56.3889 15.6322 53.8071 13.0504C51.2253 10.4686 49.8393 7.66504 50.7184 6.79388C51.5896 5.92272 54.3931 7.30073 56.9749 9.88253Z" fill="url(#paint36_linear_476_25868)"/>
<path fill-rule="evenodd" clip-rule="evenodd" d="M51.0748 7.15819C52.5161 5.54259 53.9417 3.9349 55.2484 2.18466C59.0498 4.67143 62.8513 7.15027 66.6527 9.63704C64.1105 11.6407 61.893 13.7236 59.6992 15.7827C58.8994 16.535 56.3572 15.26 53.9813 12.8841C51.6054 10.5082 50.3461 7.98975 51.0827 7.16611L51.0748 7.15819Z" fill="url(#paint37_linear_476_25868)"/>
<path style="mix-blend-mode:multiply" opacity="0.75" fill-rule="evenodd" clip-rule="evenodd" d="M51.0748 7.15819C52.5161 5.54259 53.9417 3.9349 55.2484 2.18466C59.0498 4.67143 62.8513 7.15027 66.6527 9.63704C64.1105 11.6407 61.893 13.7236 59.6992 15.7827C58.8994 16.535 56.3572 15.26 53.9813 12.8841C51.6054 10.5082 50.3461 7.98975 51.0827 7.16611L51.0748 7.15819Z" fill="url(#paint38_radial_476_25868)"/>
<path fill-rule="evenodd" clip-rule="evenodd" d="M57.9014 17.818L57.846 16.5034L58.6142 18.1823L56.2462 20.0118L57.9014 17.818Z" fill="url(#paint39_linear_476_25868)"/>
<path fill-rule="evenodd" clip-rule="evenodd" d="M56.5234 13.1533C56.8006 13.7156 57.2679 14.0403 57.9252 13.8661C58.5826 13.6919 59.1053 13.1771 59.129 12.6623C59.1528 12.1476 58.2103 11.8149 57.4263 11.91C56.6422 12.005 56.2463 12.591 56.5234 13.1533Z" fill="url(#paint40_radial_476_25868)"/>
<path fill-rule="evenodd" clip-rule="evenodd" d="M54.5435 4.99613C53.7991 4.85358 52.5082 5.85937 52.1993 6.99188C51.8904 8.12439 52.5478 9.13018 53.1813 9.35193C53.8149 9.57368 54.7098 8.59957 55.09 7.49874C55.4701 6.39791 55.288 5.14661 54.5435 5.00405V4.99613Z" fill="url(#paint41_radial_476_25868)"/>
<path fill-rule="evenodd" clip-rule="evenodd" d="M63.1521 3.69731C66.2883 5.77226 67.8722 8.4095 66.7001 9.58952C65.528 10.7695 62.0275 10.033 58.8993 7.95808C55.7631 5.88313 54.1792 3.24589 55.3513 2.06587C55.9611 1.45606 57.1966 1.36102 58.6855 1.69365C59.0339 2.49353 60.4278 3.35677 61.1801 2.58064C61.8375 2.88951 62.5027 3.26173 63.1521 3.69731Z" fill="url(#paint42_radial_476_25868)"/>
<path fill-rule="evenodd" clip-rule="evenodd" d="M60.1506 8.71837C59.9685 9.29651 60.2615 9.96967 61.1168 10.3023C61.9722 10.6349 62.78 10.3894 62.9859 9.8588C63.1918 9.32818 62.5978 8.5679 61.7662 8.21152C60.9347 7.84721 60.3249 8.14024 60.1427 8.71837H60.1506Z" fill="url(#paint43_radial_476_25868)"/>
<path fill-rule="evenodd" clip-rule="evenodd" d="M63.0651 4.94861C64.1976 5.70097 64.7757 6.65925 64.348 7.08691C63.9204 7.51457 62.6532 7.2453 61.5207 6.49293C60.3882 5.74057 59.8101 4.78229 60.2377 4.35463C60.6654 3.92697 61.9325 4.19624 63.0651 4.94861Z" fill="url(#paint44_radial_476_25868)"/>
<path fill-rule="evenodd" clip-rule="evenodd" d="M64.9737 8.17191C65.4964 8.52038 65.7578 8.95596 65.5598 9.14603C65.3618 9.34402 64.7837 9.21731 64.261 8.87676C63.7383 8.5283 63.4769 8.09272 63.6749 7.90265C63.8729 7.70466 64.451 7.83137 64.9737 8.17191Z" fill="url(#paint45_radial_476_25868)"/>
<path fill-rule="evenodd" clip-rule="evenodd" d="M57.3154 6.7543C56.4363 7.71257 55.5731 8.90052 54.9712 9.95383C56.0007 9.20939 57.1174 8.17191 58.0044 7.31659C58.2895 7.18196 58.5746 7.07108 59.1686 6.7147C58.4479 6.60383 57.7589 6.62758 57.3154 6.7543Z" fill="url(#paint46_linear_476_25868)"/>
</g>
<defs>
<linearGradient id="paint0_linear_476_25868" x1="18.9765" y1="47.8799" x2="52.1062" y2="14.7501" gradientUnits="userSpaceOnUse">
<stop stop-color="#A3FFFF"/>
<stop offset="1" stop-color="#2F9ABA"/>
</linearGradient>
<linearGradient id="paint1_linear_476_25868" x1="21.8829" y1="23.8501" x2="43.9302" y2="45.8975" gradientUnits="userSpaceOnUse">
<stop stop-color="#0099DB"/>
<stop offset="0.33" stop-color="#18FFFF"/>
<stop offset="0.43" stop-color="#14E1EE"/>
<stop offset="0.82" stop-color="#0578B3"/>
<stop offset="1" stop-color="#004E9C"/>
</linearGradient>
<radialGradient id="paint2_radial_476_25868" cx="0" cy="0" r="1" gradientUnits="userSpaceOnUse" gradientTransform="translate(18.43 37.6329) scale(2.6214)">
<stop offset="0.39" stop-color="#080808"/>
<stop offset="0.42" stop-color="#090B0D"/>
<stop offset="0.46" stop-color="#0D151C"/>
<stop offset="0.5" stop-color="#142636"/>
<stop offset="0.54" stop-color="#1E3E59"/>
<stop offset="0.59" stop-color="#2B5C87"/>
<stop offset="0.64" stop-color="#3B81BF"/>
<stop offset="0.69" stop-color="#4DACFF"/>
<stop offset="0.7" stop-color="#48A1EE"/>
<stop offset="0.78" stop-color="#316B9D"/>
<stop offset="0.84" stop-color="#1F405D"/>
<stop offset="0.89" stop-color="#12222F"/>
<stop offset="0.94" stop-color="#0A0F12"/>
<stop offset="0.96" stop-color="#080808"/>
</radialGradient>
<radialGradient id="paint3_radial_476_25868" cx="0" cy="0" r="1" gradientUnits="userSpaceOnUse" gradientTransform="translate(18.4459 36.2153) scale(2.661 2.661)">
<stop stop-color="#9B52CF"/>
<stop offset="0.03" stop-color="#924DC3"/>
<stop offset="0.16" stop-color="#6B3990"/>
<stop offset="0.3" stop-color="#4A2763"/>
<stop offset="0.44" stop-color="#2F193F"/>
<stop offset="0.58" stop-color="#1A0E23"/>
<stop offset="0.72" stop-color="#0B060F"/>
<stop offset="0.86" stop-color="#020103"/>
<stop offset="1"/>
</radialGradient>
<radialGradient id="paint4_radial_476_25868" cx="0" cy="0" r="1" gradientUnits="userSpaceOnUse" gradientTransform="translate(18.43 37.6329) scale(1.87695)">
<stop offset="0.29" stop-color="#080808"/>
<stop offset="0.33" stop-color="#081111"/>
<stop offset="0.41" stop-color="#0A2B2B"/>
<stop offset="0.51" stop-color="#0D5656"/>
<stop offset="0.63" stop-color="#109191"/>
<stop offset="0.76" stop-color="#15DBDB"/>
<stop offset="0.82" stop-color="#18FFFF"/>
<stop offset="0.99" stop-color="#080808"/>
</radialGradient>
<radialGradient id="paint5_radial_476_25868" cx="0" cy="0" r="1" gradientUnits="userSpaceOnUse" gradientTransform="translate(28.6147 40.7612) scale(4.56963)">
<stop offset="0.39" stop-color="#080808"/>
<stop offset="0.42" stop-color="#090B0D"/>
<stop offset="0.46" stop-color="#0D151C"/>
<stop offset="0.5" stop-color="#142636"/>
<stop offset="0.54" stop-color="#1E3E59"/>
<stop offset="0.59" stop-color="#2B5C87"/>
<stop offset="0.64" stop-color="#3B81BF"/>
<stop offset="0.69" stop-color="#4DACFF"/>
<stop offset="0.7" stop-color="#48A1EE"/>
<stop offset="0.78" stop-color="#316B9D"/>
<stop offset="0.84" stop-color="#1F405D"/>
<stop offset="0.89" stop-color="#12222F"/>
<stop offset="0.94" stop-color="#0A0F12"/>
<stop offset="0.96" stop-color="#080808"/>
</radialGradient>
<radialGradient id="paint6_radial_476_25868" cx="0" cy="0" r="1" gradientUnits="userSpaceOnUse" gradientTransform="translate(28.6463 38.2823) scale(4.63299 4.63299)">
<stop stop-color="#18FFFF"/>
<stop offset="0.12" stop-color="#12C3C3"/>
<stop offset="0.25" stop-color="#0D9090"/>
<stop offset="0.37" stop-color="#096363"/>
<stop offset="0.5" stop-color="#063F3F"/>
<stop offset="0.62" stop-color="#032323"/>
<stop offset="0.75" stop-color="#010F0F"/>
<stop offset="0.87" stop-color="#000303"/>
<stop offset="1"/>
</radialGradient>
<radialGradient id="paint7_radial_476_25868" cx="0" cy="0" r="1" gradientUnits="userSpaceOnUse" gradientTransform="translate(28.6147 40.7612) scale(3.27081)">
<stop offset="0.29" stop-color="#080808"/>
<stop offset="0.33" stop-color="#081111"/>
<stop offset="0.41" stop-color="#0A2B2B"/>
<stop offset="0.51" stop-color="#0D5656"/>
<stop offset="0.63" stop-color="#109191"/>
<stop offset="0.76" stop-color="#15DBDB"/>
<stop offset="0.82" stop-color="#18FFFF"/>
<stop offset="0.99" stop-color="#080808"/>
</radialGradient>
<radialGradient id="paint8_radial_476_25868" cx="0" cy="0" r="1" gradientUnits="userSpaceOnUse" gradientTransform="translate(25.5972 44.4834) scale(2.16998)">
<stop offset="0.39" stop-color="#080808"/>
<stop offset="0.42" stop-color="#090B0D"/>
<stop offset="0.46" stop-color="#0D151C"/>
<stop offset="0.5" stop-color="#142636"/>
<stop offset="0.54" stop-color="#1E3E59"/>
<stop offset="0.59" stop-color="#2B5C87"/>
<stop offset="0.64" stop-color="#3B81BF"/>
<stop offset="0.69" stop-color="#4DACFF"/>
<stop offset="0.7" stop-color="#48A1EE"/>
<stop offset="0.78" stop-color="#316B9D"/>
<stop offset="0.84" stop-color="#1F405D"/>
<stop offset="0.89" stop-color="#12222F"/>
<stop offset="0.94" stop-color="#0A0F12"/>
<stop offset="0.96" stop-color="#080808"/>
</radialGradient>
<radialGradient id="paint9_radial_476_25868" cx="0" cy="0" r="1" gradientUnits="userSpaceOnUse" gradientTransform="translate(25.613 43.3113) scale(2.20166)">
<stop stop-color="#9B52CF"/>
<stop offset="0.03" stop-color="#924DC3"/>
<stop offset="0.16" stop-color="#6B3990"/>
<stop offset="0.3" stop-color="#4A2763"/>
<stop offset="0.44" stop-color="#2F193F"/>
<stop offset="0.58" stop-color="#1A0E23"/>
<stop offset="0.72" stop-color="#0B060F"/>
<stop offset="0.86" stop-color="#020103"/>
<stop offset="1"/>
</radialGradient>
<radialGradient id="paint10_radial_476_25868" cx="0" cy="0" r="1" gradientUnits="userSpaceOnUse" gradientTransform="translate(25.5972 44.4834) scale(1.55225)">
<stop offset="0.29" stop-color="#080808"/>
<stop offset="0.33" stop-color="#081111"/>
<stop offset="0.41" stop-color="#0A2B2B"/>
<stop offset="0.51" stop-color="#0D5656"/>
<stop offset="0.63" stop-color="#109191"/>
<stop offset="0.76" stop-color="#15DBDB"/>
<stop offset="0.82" stop-color="#18FFFF"/>
<stop offset="0.99" stop-color="#080808"/>
</radialGradient>
<radialGradient id="paint11_radial_476_25868" cx="0" cy="0" r="1" gradientUnits="userSpaceOnUse" gradientTransform="translate(43.5828 38.7417) scale(3.11242)">
<stop offset="0.39" stop-color="#080808"/>
<stop offset="0.42" stop-color="#090B0D"/>
<stop offset="0.46" stop-color="#0D151C"/>
<stop offset="0.5" stop-color="#142636"/>
<stop offset="0.54" stop-color="#1E3E59"/>
<stop offset="0.59" stop-color="#2B5C87"/>
<stop offset="0.64" stop-color="#3B81BF"/>
<stop offset="0.69" stop-color="#4DACFF"/>
<stop offset="0.7" stop-color="#48A1EE"/>
<stop offset="0.78" stop-color="#316B9D"/>
<stop offset="0.84" stop-color="#1F405D"/>
<stop offset="0.89" stop-color="#12222F"/>
<stop offset="0.94" stop-color="#0A0F12"/>
<stop offset="0.96" stop-color="#080808"/>
</radialGradient>
<radialGradient id="paint12_radial_476_25868" cx="0" cy="0" r="1" gradientUnits="userSpaceOnUse" gradientTransform="translate(43.5986 37.0548) scale(3.15201)">
<stop stop-color="#9B52CF"/>
<stop offset="0.03" stop-color="#924DC3"/>
<stop offset="0.16" stop-color="#6B3990"/>
<stop offset="0.3" stop-color="#4A2763"/>
<stop offset="0.44" stop-color="#2F193F"/>
<stop offset="0.58" stop-color="#1A0E23"/>
<stop offset="0.72" stop-color="#0B060F"/>
<stop offset="0.86" stop-color="#020103"/>
<stop offset="1"/>
</radialGradient>
<radialGradient id="paint13_radial_476_25868" cx="0" cy="0" r="1" gradientUnits="userSpaceOnUse" gradientTransform="translate(43.5828 38.7417) scale(2.22542)">
<stop offset="0.29" stop-color="#080808"/>
<stop offset="0.33" stop-color="#081111"/>
<stop offset="0.41" stop-color="#0A2B2B"/>
<stop offset="0.51" stop-color="#0D5656"/>
<stop offset="0.63" stop-color="#109191"/>
<stop offset="0.76" stop-color="#15DBDB"/>
<stop offset="0.82" stop-color="#18FFFF"/>
<stop offset="0.99" stop-color="#080808"/>
</radialGradient>
<radialGradient id="paint14_radial_476_25868" cx="0" cy="0" r="1" gradientUnits="userSpaceOnUse" gradientTransform="translate(35.5918 47.0019) scale(2.1779)">
<stop offset="0.39" stop-color="#080808"/>
<stop offset="0.42" stop-color="#090B0D"/>
<stop offset="0.46" stop-color="#0D151C"/>
<stop offset="0.5" stop-color="#142636"/>
<stop offset="0.54" stop-color="#1E3E59"/>
<stop offset="0.59" stop-color="#2B5C87"/>
<stop offset="0.64" stop-color="#3B81BF"/>
<stop offset="0.69" stop-color="#4DACFF"/>
<stop offset="0.7" stop-color="#48A1EE"/>
<stop offset="0.78" stop-color="#316B9D"/>
<stop offset="0.84" stop-color="#1F405D"/>
<stop offset="0.89" stop-color="#12222F"/>
<stop offset="0.94" stop-color="#0A0F12"/>
<stop offset="0.96" stop-color="#080808"/>
</radialGradient>
<radialGradient id="paint15_radial_476_25868" cx="0" cy="0" r="1" gradientUnits="userSpaceOnUse" gradientTransform="translate(35.6077 45.8218) scale(2.20958 2.20958)">
<stop stop-color="#9B52CF"/>
<stop offset="0.03" stop-color="#924DC3"/>
<stop offset="0.16" stop-color="#6B3990"/>
<stop offset="0.3" stop-color="#4A2763"/>
<stop offset="0.44" stop-color="#2F193F"/>
<stop offset="0.58" stop-color="#1A0E23"/>
<stop offset="0.72" stop-color="#0B060F"/>
<stop offset="0.86" stop-color="#020103"/>
<stop offset="1"/>
</radialGradient>
<radialGradient id="paint16_radial_476_25868" cx="0" cy="0" r="1" gradientUnits="userSpaceOnUse" gradientTransform="translate(35.5919 47.0019) scale(1.56017)">
<stop offset="0.29" stop-color="#080808"/>
<stop offset="0.33" stop-color="#081111"/>
<stop offset="0.41" stop-color="#0A2B2B"/>
<stop offset="0.51" stop-color="#0D5656"/>
<stop offset="0.63" stop-color="#109191"/>
<stop offset="0.76" stop-color="#15DBDB"/>
<stop offset="0.82" stop-color="#18FFFF"/>
<stop offset="0.99" stop-color="#080808"/>
</radialGradient>
<radialGradient id="paint17_radial_476_25868" cx="0" cy="0" r="1" gradientUnits="userSpaceOnUse" gradientTransform="translate(19.4749 12.3589) rotate(45) scale(44.1916)">
<stop offset="0.68" stop-color="white"/>
<stop offset="0.72" stop-color="#FBFCFE"/>
<stop offset="0.76" stop-color="#EFF5FC"/>
<stop offset="0.8" stop-color="#DBEAF8"/>
<stop offset="0.84" stop-color="#BFDAF4"/>
<stop offset="0.88" stop-color="#9BC5EE"/>
<stop offset="0.92" stop-color="#6FABE6"/>
<stop offset="0.96" stop-color="#3B8DDE"/>
<stop offset="1" stop-color="#006BD4"/>
</radialGradient>
<radialGradient id="paint18_radial_476_25868" cx="0" cy="0" r="1" gradientUnits="userSpaceOnUse" gradientTransform="translate(30.4758 33.8078) scale(50.7965)">
<stop stop-color="#18FFFF"/>
<stop offset="0.25" stop-color="#0DB0D2"/>
<stop offset="0.58" stop-color="#004E9C"/>
<stop offset="0.63" stop-color="#0156A2"/>
<stop offset="0.73" stop-color="#066FB4"/>
<stop offset="0.85" stop-color="#0D96D2"/>
<stop offset="0.99" stop-color="#17CCFA"/>
<stop offset="1" stop-color="#18D2FF"/>
</radialGradient>
<radialGradient id="paint19_radial_476_25868" cx="0" cy="0" r="1" gradientUnits="userSpaceOnUse" gradientTransform="translate(44.3272 41.965) scale(0.443501)">
<stop stop-color="#18FFFF"/>
<stop offset="0.26" stop-color="#11B5B5"/>
<stop offset="0.63" stop-color="#075454"/>
<stop offset="0.88" stop-color="#021717"/>
<stop offset="1"/>
</radialGradient>
<radialGradient id="paint20_radial_476_25868" cx="0" cy="0" r="1" gradientUnits="userSpaceOnUse" gradientTransform="translate(47.0515 30.632) scale(0.443499)">
<stop stop-color="#18FFFF"/>
<stop offset="0.26" stop-color="#11B5B5"/>
<stop offset="0.63" stop-color="#075454"/>
<stop offset="0.88" stop-color="#021717"/>
<stop offset="1"/>
</radialGradient>
<radialGradient id="paint21_radial_476_25868" cx="0" cy="0" r="1" gradientUnits="userSpaceOnUse" gradientTransform="translate(33.0655 47.7384) scale(0.744446)">
<stop stop-color="#18FFFF"/>
<stop offset="0.26" stop-color="#11B5B5"/>
<stop offset="0.63" stop-color="#075454"/>
<stop offset="0.88" stop-color="#021717"/>
<stop offset="1"/>
</radialGradient>
<radialGradient id="paint22_radial_476_25868" cx="0" cy="0" r="1" gradientUnits="userSpaceOnUse" gradientTransform="translate(21.9463 37.4191) rotate(90) scale(0.570213)">
<stop stop-color="#18FFFF"/>
<stop offset="0.26" stop-color="#11B5B5"/>
<stop offset="0.63" stop-color="#075454"/>
<stop offset="0.88" stop-color="#021717"/>
<stop offset="1"/>
</radialGradient>
<radialGradient id="paint23_radial_476_25868" cx="0" cy="0" r="1" gradientUnits="userSpaceOnUse" gradientTransform="translate(38.1103 33.681) scale(4.3162)">
<stop stop-color="#18FFFF"/>
<stop offset="0.26" stop-color="#12C2C0"/>
<stop offset="0.86" stop-color="#032B24"/>
<stop offset="1" stop-color="#000800"/>
</radialGradient>
<radialGradient id="paint24_radial_476_25868" cx="0" cy="0" r="1" gradientUnits="userSpaceOnUse" gradientTransform="translate(34.9187 29.9588) scale(5.48831)">
<stop stop-color="#00D0FF"/>
<stop offset="0.26" stop-color="#009EC0"/>
<stop offset="0.86" stop-color="#002424"/>
<stop offset="1" stop-color="#000800"/>
</radialGradient>
<radialGradient id="paint25_radial_476_25868" cx="0" cy="0" r="1" gradientUnits="userSpaceOnUse" gradientTransform="translate(31.3074 30.0934) scale(6.43866 6.43866)">
<stop stop-color="#18FFFF"/>
<stop offset="0.26" stop-color="#12C2C0"/>
<stop offset="0.86" stop-color="#032B24"/>
<stop offset="1" stop-color="#000800"/>
</radialGradient>
<radialGradient id="paint26_radial_476_25868" cx="0" cy="0" r="1" gradientUnits="userSpaceOnUse" gradientTransform="translate(27.6643 25.0566) scale(6.5733 6.5733)">
<stop stop-color="#00D0FF"/>
<stop offset="0.26" stop-color="#009EC0"/>
<stop offset="0.86" stop-color="#002424"/>
<stop offset="1" stop-color="#000800"/>
</radialGradient>
<radialGradient id="paint27_radial_476_25868" cx="0" cy="0" r="1" gradientUnits="userSpaceOnUse" gradientTransform="translate(46.0775 27.0206) scale(6.31195 6.31195)">
<stop stop-color="#18FFFF"/>
<stop offset="0.26" stop-color="#12C2C0"/>
<stop offset="0.86" stop-color="#032B24"/>
<stop offset="1" stop-color="#000800"/>
</radialGradient>
<radialGradient id="paint28_radial_476_25868" cx="0" cy="0" r="1" gradientUnits="userSpaceOnUse" gradientTransform="translate(43.1472 24.1379) scale(4.75178 4.75178)">
<stop stop-color="#00D0FF"/>
<stop offset="0.26" stop-color="#009EC0"/>
<stop offset="0.86" stop-color="#002424"/>
<stop offset="1" stop-color="#000800"/>
</radialGradient>
<radialGradient id="paint29_radial_476_25868" cx="0" cy="0" r="1" gradientUnits="userSpaceOnUse" gradientTransform="translate(16.1652 24.2477) rotate(45) scale(42.2117)">
<stop stop-color="#61DCFF"/>
<stop offset="1" stop-color="#095675"/>
</radialGradient>
<radialGradient id="paint30_radial_476_25868" cx="0" cy="0" r="1" gradientUnits="userSpaceOnUse" gradientTransform="translate(51.4454 10.6957) rotate(45) scale(13.4159)">
<stop stop-color="#A6EBFF"/>
<stop offset="1" stop-color="#2E7A96"/>
</radialGradient>
<linearGradient id="paint31_linear_476_25868" x1="45.4758" y1="7.43648" x2="47.4582" y2="9.41889" gradientUnits="userSpaceOnUse">
<stop stop-color="#8AA6BA"/>
<stop offset="1" stop-color="#F2FFFF"/>
</linearGradient>
<linearGradient id="paint32_linear_476_25868" x1="56.0654" y1="18.4405" x2="59.2127" y2="21.5877" gradientUnits="userSpaceOnUse">
<stop stop-color="#F2FFFF"/>
<stop offset="1" stop-color="#3F6C8C"/>
</linearGradient>
<linearGradient id="paint33_linear_476_25868" x1="50.1462" y1="11.4685" x2="60.2542" y2="11.4629" gradientUnits="userSpaceOnUse">
<stop stop-color="#8ED5F0"/>
<stop offset="1" stop-color="#417BA3"/>
</linearGradient>
<radialGradient id="paint34_radial_476_25868" cx="0" cy="0" r="1" gradientUnits="userSpaceOnUse" gradientTransform="translate(50.1462 11.0541) rotate(45) scale(16.2511)">
<stop stop-color="#E0FFFF"/>
<stop offset="0.09" stop-color="#BAD5D4"/>
<stop offset="0.23" stop-color="#899F9C"/>
<stop offset="0.37" stop-color="#5F716C"/>
<stop offset="0.5" stop-color="#3D4B45"/>
<stop offset="0.63" stop-color="#222D27"/>
<stop offset="0.76" stop-color="#0F1811"/>
<stop offset="0.89" stop-color="#030C04"/>
<stop offset="1" stop-color="#000800"/>
</radialGradient>
<linearGradient id="paint35_linear_476_25868" x1="58.4455" y1="16.0829" x2="61.6767" y2="12.8517" gradientUnits="userSpaceOnUse">
<stop stop-color="#8AA6BA"/>
<stop offset="1" stop-color="#F2FFFF"/>
</linearGradient>
<linearGradient id="paint36_linear_476_25868" x1="50.4491" y1="11.4665" x2="60.3249" y2="11.4665" gradientUnits="userSpaceOnUse">
<stop stop-color="#3C84B5"/>
<stop offset="1" stop-color="#1B89B3"/>
</linearGradient>
<linearGradient id="paint37_linear_476_25868" x1="53.2542" y1="4.18285" x2="62.6791" y2="13.6077" gradientUnits="userSpaceOnUse">
<stop stop-color="#9E5B39"/>
<stop offset="0.31" stop-color="#AD704E"/>
<stop offset="0.52" stop-color="#9E6342"/>
<stop offset="0.92" stop-color="#774125"/>
<stop offset="1" stop-color="#703B20"/>
</linearGradient>
<radialGradient id="paint38_radial_476_25868" cx="0" cy="0" r="1" gradientUnits="userSpaceOnUse" gradientTransform="translate(60.9879 2.03804) rotate(45) scale(14.2633)">
<stop offset="0.61" stop-color="white"/>
<stop offset="0.65" stop-color="#FAF9F9"/>
<stop offset="0.7" stop-color="#EEEBE9"/>
<stop offset="0.76" stop-color="#DAD4CE"/>
<stop offset="0.83" stop-color="#BDB3A9"/>
<stop offset="0.9" stop-color="#99897A"/>
<stop offset="0.95" stop-color="#7D6854"/>
</radialGradient>
<linearGradient id="paint39_linear_476_25868" x1="56.5694" y1="17.7797" x2="57.7958" y2="19.0061" gradientUnits="userSpaceOnUse">
<stop stop-color="#104061"/>
<stop offset="0.4" stop-color="#0E5385"/>
<stop offset="0.49" stop-color="#115788"/>
<stop offset="0.59" stop-color="#1B6594"/>
<stop offset="0.7" stop-color="#2B7BA7"/>
<stop offset="0.81" stop-color="#429AC1"/>
<stop offset="0.92" stop-color="#5FC2E2"/>
<stop offset="1" stop-color="#78E4FF"/>
</linearGradient>
<radialGradient id="paint40_radial_476_25868" cx="0" cy="0" r="1" gradientUnits="userSpaceOnUse" gradientTransform="translate(57.7791 14.3861) rotate(45) scale(2.56596)">
<stop stop-color="#945C3F"/>
<stop offset="1" stop-color="#632F1C"/>
</radialGradient>
<radialGradient id="paint41_radial_476_25868" cx="0" cy="0" r="1" gradientUnits="userSpaceOnUse" gradientTransform="translate(53.9374 9.52528) rotate(45) scale(5.09233)">
<stop stop-color="#AB7357"/>
<stop offset="1" stop-color="#632F1C"/>
</radialGradient>
<radialGradient id="paint42_radial_476_25868" cx="0" cy="0" r="1" gradientUnits="userSpaceOnUse" gradientTransform="translate(56.211 5.29166) rotate(45) scale(12.9169)">
<stop stop-color="#C47F5A"/>
<stop offset="1" stop-color="#573124"/>
</radialGradient>
<radialGradient id="paint43_radial_476_25868" cx="0" cy="0" r="1" gradientUnits="userSpaceOnUse" gradientTransform="translate(62.8975 9.92849) rotate(45) scale(3.68263)">
<stop stop-color="#945C3F"/>
<stop offset="1" stop-color="#632F1C"/>
</radialGradient>
<radialGradient id="paint44_radial_476_25868" cx="0" cy="0" r="1" gradientUnits="userSpaceOnUse" gradientTransform="translate(66.5319 6.04765) rotate(45) scale(7.80876)">
<stop stop-color="#C47F5A"/>
<stop offset="1" stop-color="#573124"/>
</radialGradient>
<radialGradient id="paint45_radial_476_25868" cx="0" cy="0" r="1" gradientUnits="userSpaceOnUse" gradientTransform="translate(67.6239 8.59568) rotate(45) scale(4.1974)">
<stop stop-color="#C47F5A"/>
<stop offset="1" stop-color="#573124"/>
</radialGradient>
<linearGradient id="paint46_linear_476_25868" x1="56.4014" y1="7.66608" x2="57.3086" y2="8.57328" gradientUnits="userSpaceOnUse">
<stop stop-color="#9E5B39"/>
<stop offset="1" stop-color="#692D0D"/>
</linearGradient>
<clipPath id="clip0_476_25868">
<rect width="66.1765" height="61.4089" fill="white" transform="translate(0.911743 0.117645)"/>
</clipPath>
</defs>
</svg>
