<svg width="36" height="36" viewBox="0 0 36 36" fill="none" xmlns="http://www.w3.org/2000/svg">
<circle cx="18" cy="18" r="18" fill="#F0047E"/>
<path fill-rule="evenodd" clip-rule="evenodd" d="M13.461 12.9789C13.461 12.9789 13.7434 12.6964 14.1428 12.6964H21.8571C21.8571 12.6964 22.2565 12.6964 22.539 12.9789C22.539 12.9789 22.8214 13.2613 22.8214 13.6607V17.0357C22.8214 17.0357 22.8214 17.9991 22.4512 18.8885C22.4512 18.8885 22.081 19.778 21.3974 20.4569C21.3974 20.4569 20.7138 21.1357 19.8219 21.4998C19.8219 21.4998 18.9299 21.8638 17.9662 21.8571C17.9662 21.8571 16.9868 21.8497 16.0939 21.4591C16.0939 21.4591 15.2347 21.0831 14.5731 20.4055C14.5731 20.4055 13.9138 19.7304 13.5523 18.8597C13.5523 18.8597 13.1786 17.9599 13.1786 16.9815V13.6607C13.1786 13.6607 13.1786 13.2613 13.461 12.9789Z" fill="white"/>
<path d="M16.0714 24.2679H19.9285C20.1948 24.2679 20.4107 24.052 20.4107 23.7857C20.4107 23.5194 20.1948 23.3036 19.9285 23.3036H16.0714C15.8051 23.3036 15.5893 23.5194 15.5893 23.7857C15.5893 24.052 15.8051 24.2679 16.0714 24.2679Z" fill="white"/>
<path d="M17.5178 21.375V23.7857C17.5178 24.052 17.7337 24.2679 18 24.2679C18.2663 24.2679 18.4821 24.052 18.4821 23.7857V21.375C18.4821 21.1087 18.2663 20.8929 18 20.8929C17.7337 20.8929 17.5178 21.1087 17.5178 21.375Z" fill="white"/>
<path d="M24.2678 14.1429H22.3393C22.073 14.1429 21.8571 14.3587 21.8571 14.625C21.8571 14.8913 22.073 15.1071 22.3393 15.1071H24.2678V16.0714C24.2678 16.6706 23.8442 17.0942 23.8442 17.0942C23.4205 17.5179 22.8214 17.5179 22.8214 17.5179H22.2308C21.9645 17.5179 21.7486 17.7337 21.7486 18C21.7486 18.2663 21.9645 18.4821 22.2308 18.4821H22.8214C23.82 18.4821 24.526 17.7761 24.526 17.7761C25.2321 17.07 25.2321 16.0714 25.2321 16.0714V15.1071C25.2321 14.7077 24.9497 14.4253 24.9497 14.4253C24.6673 14.1429 24.2678 14.1429 24.2678 14.1429Z" fill="white"/>
<path d="M11.7261 15.1071H13.6547C13.9209 15.1071 14.1368 14.8913 14.1368 14.625C14.1368 14.3587 13.9209 14.1429 13.6547 14.1429H11.7261C11.3267 14.1429 11.0442 14.4253 11.0442 14.4253C10.7618 14.7077 10.7618 15.1071 10.7618 15.1071V16.0714C10.7618 17.07 11.4679 17.7761 11.4679 17.7761C12.174 18.4821 13.1725 18.4821 13.1725 18.4821H13.7812C14.0475 18.4821 14.2634 18.2663 14.2634 18C14.2634 17.7337 14.0475 17.5179 13.7812 17.5179H13.1725C12.5734 17.5179 12.1497 17.0942 12.1497 17.0942C11.7261 16.6706 11.7261 16.0714 11.7261 16.0714V15.1071Z" fill="white"/>
</svg>
